<svg width="24" height="24" viewBox="0 0 24 24" fill="none" xmlns="http://www.w3.org/2000/svg">
<g clip-path="url(#clip0_191_1267)">
<path d="M11.958 24.0078L11.2609 23.4103C10.2999 22.6056 1.90894 15.3589 1.90894 10.0581C1.90894 4.50816 6.40804 0.00905037 11.958 0.00905037C17.5079 0.00905037 22.007 4.50816 22.007 10.0581C22.007 15.3589 13.616 22.6057 12.659 23.4143L11.958 24.0078ZM11.958 2.18194C7.61015 2.18686 4.08679 5.71022 4.08187 10.058C4.08187 13.3881 9.24431 18.7079 11.958 21.1427C14.6716 18.7069 19.834 13.3841 19.834 10.058C19.8291 5.71022 16.3058 2.18691 11.958 2.18194Z" fill="#34B7FE"/>
<path d="M11.958 14.0411C9.75802 14.0411 7.97461 12.2577 7.97461 10.0577C7.97461 7.85778 9.75802 6.07437 11.958 6.07437C14.1579 6.07437 15.9413 7.85778 15.9413 10.0577C15.9413 12.2577 14.1579 14.0411 11.958 14.0411ZM11.958 8.066C10.858 8.066 9.96628 8.9577 9.96628 10.0577C9.96628 11.1576 10.858 12.0493 11.958 12.0493C13.0579 12.0493 13.9496 11.1576 13.9496 10.0577C13.9496 8.9577 13.058 8.066 11.958 8.066Z" fill="#34B7FE"/>
</g>
<defs>
<clipPath id="clip0_191_1267">
<rect width="24" height="24" fill="white"/>
</clipPath>
</defs>
</svg>
