<svg width="61" height="60" viewBox="0 0 61 60" fill="none" xmlns="http://www.w3.org/2000/svg">
<path d="M13.5852 2.89746C13.7207 2.89817 13.7207 2.89817 13.8589 2.8989C13.9517 2.89867 14.0445 2.89845 14.14 2.89822C14.3362 2.89806 14.5325 2.89849 14.7287 2.89947C15.0296 2.90072 15.3305 2.89948 15.6314 2.89798C15.8218 2.89814 16.0123 2.89844 16.2027 2.8989C16.293 2.89842 16.3834 2.89795 16.4764 2.89746C17.1133 2.90308 17.1133 2.90308 17.3746 3.1644C17.484 3.49324 17.5063 3.79389 17.5059 4.13886C17.5061 4.28921 17.5061 4.28921 17.5063 4.4426C17.5059 4.55159 17.5055 4.66058 17.5051 4.77287C17.5051 4.88838 17.5051 5.00389 17.5051 5.1229C17.505 5.50462 17.5041 5.88633 17.5032 6.26804C17.503 6.53273 17.5028 6.79743 17.5027 7.06212C17.5023 7.75876 17.5011 8.45539 17.4998 9.15203C17.4986 9.86291 17.4981 10.5738 17.4975 11.2847C17.4962 12.6795 17.4942 14.0743 17.4918 15.4691C17.5998 15.4313 17.7079 15.3935 17.8192 15.3546C18.6643 15.0849 19.6386 15.0891 20.4507 15.4618C20.9877 15.7727 21.43 16.1712 21.8794 16.5961C22.1793 16.8753 22.4894 17.132 22.8091 17.388C23.165 17.6742 23.5103 17.9651 23.8419 18.2788C23.9042 18.3377 23.9665 18.3966 24.0307 18.4572C24.151 18.5718 24.2704 18.6874 24.3886 18.8041C24.7433 19.1422 24.9698 19.3099 25.4605 19.3363C25.7995 19.2368 26.1133 19.0902 26.4333 18.9417C26.5264 18.9002 26.6196 18.8587 26.7156 18.8159C27.0133 18.6832 27.31 18.5485 27.6065 18.4134C27.9018 18.2793 28.1974 18.1456 28.4936 18.0134C28.6777 17.9313 28.8612 17.848 29.0442 17.7634C29.8425 17.4068 30.5667 17.2182 31.4151 17.5418C31.5535 17.5946 31.6919 17.6473 31.8344 17.7016C32.2822 17.8864 32.7228 18.0862 33.1638 18.2866C33.2339 18.3184 33.304 18.3501 33.3763 18.3829C33.7338 18.5449 34.09 18.7089 34.4452 18.8761C34.6441 18.9675 34.6441 18.9675 34.847 19.0607C34.966 19.1165 35.0851 19.1723 35.2077 19.2298C35.5796 19.3494 35.7581 19.3453 36.1246 19.2191C36.3797 19.0107 36.6092 18.8049 36.8424 18.5746C36.9774 18.4453 37.1128 18.3164 37.2484 18.1877C37.3492 18.092 37.3492 18.092 37.452 17.9943C37.828 17.6462 38.23 17.3309 38.6304 17.0118C38.9446 16.752 39.2358 16.4759 39.5303 16.1942C40.4347 15.3808 41.2393 15.1805 42.4435 15.1953C42.8257 15.237 43.1455 15.3429 43.5074 15.4691C43.5088 15.2386 43.5088 15.2386 43.5103 15.0035C43.5193 13.5584 43.5296 12.1133 43.5411 10.6682C43.5469 9.92523 43.5524 9.18223 43.5568 8.43921C43.5611 7.72268 43.5666 7.00617 43.5728 6.28966C43.575 6.01576 43.5767 5.74186 43.5781 5.46796C43.5801 5.08547 43.5835 4.70302 43.5872 4.32054C43.5876 4.14922 43.5876 4.14922 43.588 3.97443C43.5893 3.87058 43.5906 3.76672 43.5919 3.65972C43.5926 3.5692 43.5932 3.47867 43.5939 3.38541C43.6246 3.1644 43.6246 3.1644 43.859 2.93003C44.1755 2.90662 44.4798 2.89724 44.7965 2.8989C44.8892 2.89867 44.982 2.89845 45.0775 2.89822C45.2737 2.89806 45.47 2.89849 45.6662 2.89947C45.9671 2.90072 46.268 2.89948 46.5689 2.89798C46.7593 2.89814 46.9498 2.89844 47.1402 2.8989C47.2305 2.89842 47.3209 2.89795 47.4139 2.89746C48.0508 2.90308 48.0508 2.90308 48.3121 3.1644C48.3409 3.41652 48.3409 3.41652 48.3403 3.73535C48.3407 3.91628 48.3407 3.91628 48.3412 4.10086C48.3404 4.2337 48.3396 4.36655 48.3387 4.50342C48.3387 4.6429 48.3388 4.78238 48.3388 4.92608C48.3387 5.3091 48.3375 5.6921 48.3358 6.07512C48.3344 6.47519 48.3342 6.87527 48.334 7.27534C48.3332 8.03319 48.3313 8.79102 48.329 9.54886C48.3263 10.4115 48.3251 11.2742 48.3239 12.1369C48.3214 13.9117 48.3173 15.6865 48.3121 17.4613C48.4668 17.4613 48.6215 17.4613 48.7808 17.4613C48.7785 17.3283 48.7785 17.3283 48.7761 17.1925C48.762 16.353 48.7513 15.5136 48.7444 14.674C48.7407 14.2424 48.7358 13.8109 48.7278 13.3794C48.7201 12.9623 48.7159 12.5452 48.7141 12.128C48.7122 11.8929 48.7067 11.6579 48.7012 11.4229C48.7008 10.4807 48.8178 9.83616 49.484 9.14096C50.1142 8.64318 50.7795 8.58744 51.5691 8.61042C52.1486 8.70571 52.5851 8.96188 52.9996 9.37534C53.0382 9.49135 53.0769 9.60737 53.1168 9.7269C53.1793 9.70016 53.2418 9.67343 53.3063 9.64588C54.0131 9.37316 54.6054 9.28665 55.3433 9.49253C56.0293 9.80435 56.4338 10.153 56.7676 10.8417C56.9632 11.4165 56.9234 12.0083 56.9125 12.609C56.9119 12.7481 56.9112 12.8872 56.9105 13.0306C56.9079 13.4724 56.902 13.9141 56.8961 14.3558C56.8937 14.6564 56.8916 14.957 56.8897 15.2576C56.8845 15.9922 56.8767 16.7267 56.8668 17.4613C56.9468 17.459 57.0268 17.4567 57.1092 17.4543C57.2144 17.4525 57.3196 17.4508 57.428 17.4489C57.5322 17.4466 57.6363 17.4443 57.7437 17.442C58.3128 17.4792 58.6222 17.8137 59.0128 18.1937C59.3564 18.7536 59.3559 19.2494 59.2691 19.8783C59.016 20.4477 58.595 20.8159 58.0386 21.0941C57.8386 21.1023 57.6382 21.104 57.4381 21.1014C57.3314 21.1004 57.2248 21.0993 57.1149 21.0982C57.033 21.0968 56.9511 21.0955 56.8668 21.0941C56.8678 21.1715 56.8688 21.249 56.8699 21.3288C56.8803 22.1368 56.8874 22.9447 56.8925 23.7527C56.8949 24.054 56.8981 24.3553 56.9021 24.6567C56.9078 25.0904 56.9105 25.5241 56.9125 25.9578C56.915 26.092 56.9174 26.2262 56.9199 26.3645C56.9201 27.2653 56.8104 27.7974 56.1852 28.4723C56.1176 28.527 56.0501 28.5817 55.9805 28.638C55.8788 28.7228 55.8788 28.7228 55.775 28.8092C55.3585 29.0972 54.9688 29.0786 54.4791 29.0775C54.3476 29.0778 54.2162 29.0781 54.0808 29.0784C53.7027 29.0628 53.7027 29.0628 53.3868 28.9827C53.1134 28.9159 53.1134 28.9159 52.9007 29.0798C52.8367 29.1443 52.7726 29.2088 52.7066 29.2752C52.1432 29.7963 51.6929 29.9344 50.9296 29.9115C50.2512 29.8412 49.7787 29.6431 49.3228 29.1288C48.9001 28.6009 48.7514 28.2165 48.7542 27.5331C48.7542 27.39 48.7543 27.2469 48.7543 27.0995C48.7555 26.9456 48.7567 26.7916 48.7579 26.633C48.7584 26.4734 48.7587 26.3138 48.7589 26.1542C48.7598 25.735 48.7621 25.3158 48.7647 24.8966C48.7671 24.4685 48.7682 24.0404 48.7694 23.6122C48.7719 22.7729 48.7759 21.9335 48.7808 21.0941C48.6261 21.0941 48.4715 21.0941 48.3121 21.0941C48.3122 21.1696 48.3123 21.2452 48.3123 21.323C48.3176 25.796 48.3216 30.2691 48.324 34.7421C48.3243 35.2787 48.3246 35.8153 48.325 36.3519C48.325 36.5122 48.325 36.5122 48.3251 36.6756C48.3262 38.4074 48.328 40.1392 48.3302 41.871C48.3323 43.6468 48.3337 45.4226 48.3341 47.1984C48.3345 48.2949 48.3355 49.3915 48.3374 50.488C48.3386 51.2391 48.339 51.9901 48.3387 52.7411C48.3385 53.175 48.3388 53.6089 48.34 54.0428C48.3414 54.5122 48.3409 54.9817 48.3403 55.4512C48.3413 55.6588 48.3413 55.6588 48.3423 55.8705C48.3419 55.9955 48.3414 56.1205 48.3409 56.2492C48.341 56.3577 48.3411 56.4662 48.3412 56.578C48.3121 56.8363 48.3121 56.8363 48.0777 57.0706C47.7611 57.0941 47.4568 57.1034 47.1402 57.1018C47.0475 57.102 46.9547 57.1022 46.8591 57.1025C46.6629 57.1026 46.4667 57.1022 46.2705 57.1012C45.9695 57.0999 45.6687 57.1012 45.3677 57.1027C45.1773 57.1025 44.9869 57.1022 44.7965 57.1018C44.7061 57.1022 44.6158 57.1027 44.5227 57.1032C43.8859 57.0976 43.8859 57.0976 43.6246 56.8363C43.5947 56.5697 43.5947 56.5697 43.5939 56.2291C43.593 56.0996 43.5922 55.9702 43.5913 55.8368C43.5916 55.6217 43.5916 55.6217 43.5919 55.4022C43.5913 55.2508 43.5906 55.0994 43.5899 54.9434C43.588 54.5217 43.5876 54.1 43.5875 53.6783C43.587 53.2241 43.5853 52.7699 43.5836 52.3157C43.581 51.5283 43.5793 50.7409 43.5781 49.9535C43.5764 48.815 43.5734 47.6765 43.5701 46.538C43.5648 44.6911 43.5605 42.8441 43.5568 40.9971C43.5533 39.2026 43.5493 37.4081 43.5446 35.6136C43.5442 35.4478 43.5441 35.4478 43.5437 35.2786C43.5423 34.724 43.5408 34.1694 43.5393 33.6149C43.5272 29.0116 43.5167 24.4083 43.5074 19.805C43.3228 19.7032 43.137 19.6035 42.9507 19.5047C42.8474 19.449 42.7441 19.3932 42.6376 19.3358C42.3043 19.207 42.1902 19.1978 41.8668 19.3363C41.61 19.5351 41.3689 19.7359 41.127 19.9515C41.0558 20.0138 40.9845 20.0761 40.9111 20.1402C40.7597 20.2726 40.6085 20.4053 40.4577 20.5384C37.083 23.5136 37.083 23.5136 35.8332 23.4916C35.0303 23.3867 34.3148 23.0351 33.5831 22.7054C33.4235 22.6358 33.2638 22.5663 33.104 22.4971C31.9724 22.0046 31.9724 22.0046 31.4665 21.7562C31.3763 21.7124 31.2861 21.6685 31.1931 21.6233C31.1195 21.5855 31.046 21.5478 30.9702 21.5089C30.3006 21.3296 29.6598 21.7074 29.0672 21.9844C28.8789 22.0696 28.6905 22.1547 28.5021 22.2396C28.2087 22.3729 27.9157 22.5069 27.6237 22.6432C25.4259 23.6649 25.4259 23.6649 24.1714 23.4378C23.4576 23.1553 22.9268 22.5915 22.3706 22.0769C22.0635 21.7985 21.7477 21.537 21.4249 21.2772C20.8509 20.8133 20.3073 20.3261 19.7664 19.8243C19.3219 19.3753 19.3219 19.3753 18.7515 19.2264C18.4633 19.3247 18.2113 19.4401 17.9404 19.5775C17.8142 19.6413 17.8142 19.6413 17.6855 19.7063C17.6216 19.7389 17.5576 19.7715 17.4918 19.805C17.4916 19.8833 17.4914 19.9616 17.4913 20.0422C17.4818 24.6767 17.4712 29.3112 17.4589 33.9457C17.4575 34.5017 17.456 35.0577 17.4546 35.6136C17.4543 35.7243 17.454 35.835 17.4537 35.949C17.449 37.7433 17.4452 39.5376 17.4417 41.3319C17.438 43.1718 17.4335 45.0117 17.4282 46.8516C17.4249 47.9877 17.4223 49.1239 17.4206 50.26C17.4194 51.0381 17.4173 51.8163 17.4145 52.5944C17.4129 53.0439 17.4118 53.4935 17.4116 53.943C17.4114 54.4294 17.4094 54.9158 17.4072 55.4022C17.4074 55.5456 17.4077 55.689 17.4079 55.8368C17.407 55.9663 17.4061 56.0957 17.4052 56.2291C17.4048 56.3977 17.4048 56.3977 17.4044 56.5697C17.3746 56.8363 17.3746 56.8363 17.1402 57.0706C16.8236 57.0941 16.5193 57.1034 16.2027 57.1018C16.1099 57.102 16.0172 57.1022 15.9216 57.1025C15.7254 57.1026 15.5292 57.1022 15.3329 57.1012C15.032 57.0999 14.7312 57.1012 14.4302 57.1027C14.2398 57.1025 14.0494 57.1022 13.8589 57.1018C13.7686 57.1022 13.6783 57.1027 13.5852 57.1032C12.9484 57.0976 12.9484 57.0976 12.6871 56.8363C12.658 56.578 12.658 56.578 12.6582 56.2492C12.6578 56.1243 12.6573 55.9993 12.6568 55.8705C12.6575 55.7321 12.6582 55.5938 12.6589 55.4512C12.6587 55.305 12.6585 55.1589 12.6583 55.0083C12.6578 54.6013 12.6587 54.1943 12.6599 53.7873C12.6609 53.3489 12.6605 52.9105 12.6604 52.4721C12.6602 51.7121 12.661 50.9522 12.6623 50.1922C12.6642 49.0934 12.6648 47.9946 12.6651 46.8957C12.6656 45.1131 12.6672 43.3305 12.6694 41.5479C12.6715 39.8159 12.6732 38.0839 12.6742 36.3519C12.6743 36.2452 12.6743 36.1385 12.6744 36.0286C12.6747 35.4933 12.675 34.9581 12.6753 34.4228C12.6777 29.9799 12.6818 25.537 12.6871 21.0941C12.4937 21.0941 12.3004 21.0941 12.1011 21.0941C12.1024 21.1816 12.1037 21.269 12.1051 21.3592C12.1169 22.1866 12.1258 23.0141 12.1315 23.8416C12.1345 24.267 12.1387 24.6923 12.1453 25.1177C12.1517 25.5287 12.1552 25.9397 12.1567 26.3509C12.1583 26.5827 12.1629 26.8146 12.1675 27.0464C12.1678 27.9123 12.1013 28.5179 11.5152 29.18C10.9894 29.6924 10.4983 29.8612 9.77203 29.9198C9.07584 29.8985 8.52716 29.716 8.04352 29.2093C7.95167 29.1223 7.85983 29.0353 7.7652 28.9457C7.43993 28.9604 7.43993 28.9604 7.06207 29.0628C6.22169 29.1376 5.5297 29.1084 4.83551 28.5941C4.40749 28.1857 4.04404 27.7257 3.98701 27.1256C3.98779 26.9585 3.98779 26.9585 3.98859 26.7881C3.98861 26.6614 3.98863 26.5348 3.98864 26.4043C3.98985 26.2683 3.99106 26.1323 3.99231 25.9922C3.99264 25.8524 3.99297 25.7126 3.99332 25.5685C3.99463 25.122 3.99757 24.6754 4.00055 24.2289C4.00173 23.9261 4.00279 23.6234 4.00375 23.3207C4.00634 22.5785 4.01026 21.8363 4.0152 21.0941C3.94357 21.0964 3.87194 21.0987 3.79813 21.101C3.65655 21.1037 3.65655 21.1037 3.51212 21.1064C3.41873 21.1087 3.32535 21.111 3.22913 21.1134C2.68358 21.0742 2.36577 20.7279 1.98639 20.369C1.71273 19.9129 1.64964 19.5136 1.67145 18.9847C1.86727 18.2936 2.16325 17.9857 2.72614 17.5785C3.00803 17.4375 3.18902 17.4495 3.5025 17.454C3.59828 17.455 3.69405 17.4561 3.79273 17.4572C3.86614 17.4585 3.93956 17.4599 4.0152 17.4613C4.01364 17.3829 4.01208 17.3045 4.01047 17.2237C3.99486 16.4043 3.98428 15.585 3.97657 14.7655C3.97305 14.4601 3.96826 14.1546 3.96216 13.8493C3.95358 13.4091 3.94963 12.9691 3.94653 12.5289C3.9429 12.3933 3.93928 12.2578 3.93554 12.1181C3.93517 11.2174 4.10319 10.6336 4.71832 9.96128C5.29851 9.4741 5.96066 9.34125 6.71051 9.37534C7.0773 9.46107 7.41912 9.57894 7.7652 9.7269C7.79586 9.6562 7.82653 9.58551 7.85812 9.51267C8.10737 9.06419 8.46458 8.85455 8.93707 8.67221C9.7209 8.5691 10.5018 8.54391 11.1636 9.02378C11.698 9.48358 12.0586 9.9544 12.1434 10.6688C12.1426 10.7942 12.1419 10.9196 12.141 11.0489C12.141 11.1919 12.141 11.335 12.141 11.4824C12.1392 11.6351 12.1373 11.7879 12.1355 11.9452C12.1348 12.1045 12.1343 12.2638 12.134 12.423C12.1326 12.8403 12.1292 13.2576 12.1253 13.6749C12.1217 14.1014 12.1201 14.528 12.1183 14.9546C12.1145 15.7902 12.1085 16.6257 12.1011 17.4613C12.2945 17.4613 12.4879 17.4613 12.6871 17.4613C12.6869 17.3878 12.6866 17.3143 12.6864 17.2387C12.6812 15.4528 12.6774 13.667 12.6749 11.8812C12.6737 11.0176 12.6721 10.154 12.6694 9.29037C12.6671 8.53784 12.6655 7.78531 12.665 7.03278C12.6647 6.63415 12.664 6.23553 12.6623 5.8369C12.6606 5.3924 12.6604 4.94792 12.6605 4.50342C12.6596 4.37057 12.6588 4.23773 12.6579 4.10086C12.6582 3.98024 12.6586 3.85962 12.6589 3.73535C12.6587 3.63014 12.6585 3.52492 12.6582 3.41652C12.7231 2.84979 13.1051 2.9017 13.5852 2.89746ZM14.0933 4.33628C14.0933 8.59018 14.0933 12.8441 14.0933 17.2269C14.7121 16.9175 15.3308 16.6082 15.9683 16.2894C15.9683 12.3449 15.9683 8.40034 15.9683 4.33628C15.3496 4.33628 14.7308 4.33628 14.0933 4.33628ZM45.0308 4.33628C45.0308 8.28081 45.0308 12.2253 45.0308 16.2894C45.959 16.7535 45.959 16.7535 46.9058 17.2269C46.9058 12.973 46.9058 8.71909 46.9058 4.33628C46.2871 4.33628 45.6683 4.33628 45.0308 4.33628ZM9.13483 10.4007C8.8179 10.8233 8.80448 11.2205 8.78693 11.7388C8.78255 11.8531 8.77817 11.9673 8.77365 12.0851C8.76537 12.3259 8.75713 12.5666 8.74893 12.8074C8.74455 12.9212 8.74017 13.0351 8.73566 13.1523C8.73033 13.309 8.73033 13.309 8.7249 13.4687C8.7027 13.7113 8.7027 13.7113 8.58551 13.8285C8.37311 13.844 8.37311 13.844 8.11676 13.8431C8.03217 13.8434 7.94757 13.8437 7.86041 13.844C7.64801 13.8285 7.64801 13.8285 7.53082 13.7113C7.50689 13.327 7.49027 12.9437 7.48047 12.5589C7.45593 12.0052 7.35882 11.6165 7.06207 11.1332C6.78353 10.9196 6.65043 10.8959 6.30035 10.9134C5.94014 11.0395 5.77612 11.1879 5.53864 11.4847C5.41856 11.8468 5.40648 12.1823 5.40578 12.562C5.40528 12.6851 5.40478 12.8081 5.40426 12.9349C5.40432 13.0693 5.40437 13.2036 5.40443 13.3421C5.40403 13.4841 5.40364 13.6261 5.40323 13.7724C5.40231 14.1615 5.40192 14.5505 5.40185 14.9396C5.40176 15.1828 5.40151 15.426 5.4012 15.6692C5.40012 16.5178 5.39964 17.3665 5.39973 18.2151C5.3998 19.0058 5.39857 19.7965 5.39672 20.5872C5.39518 21.2664 5.39456 21.9457 5.39463 22.6249C5.39466 23.0304 5.39433 23.4359 5.39309 23.8414C5.39174 24.2937 5.39227 24.7459 5.39298 25.1981C5.39232 25.3323 5.39166 25.4664 5.39099 25.6046C5.39148 25.728 5.39197 25.8514 5.39248 25.9785C5.39241 26.0854 5.39235 26.1922 5.39228 26.3023C5.43538 26.745 5.55551 27.0764 5.85358 27.4076C6.25365 27.6022 6.52155 27.53 6.94489 27.4222C7.27544 27.1908 7.34145 26.9893 7.41364 26.6019C7.42677 26.3041 7.43409 26.0093 7.43584 25.7115C7.43681 25.6224 7.43778 25.5334 7.43878 25.4417C7.44082 25.2488 7.4426 25.056 7.44415 24.8631C7.44661 24.5583 7.44978 24.2536 7.45313 23.9488C7.46131 23.1923 7.46829 22.4358 7.47528 21.6792C7.48124 21.0392 7.48766 20.3992 7.49472 19.7592C7.49784 19.4582 7.50027 19.1572 7.50269 18.8562C7.50463 18.6728 7.50661 18.4895 7.50862 18.3062C7.50911 18.2219 7.5096 18.1376 7.51011 18.0507C7.51748 17.4746 7.51748 17.4746 7.64801 17.3441C7.86041 17.3285 7.86041 17.3285 8.11676 17.3294C8.20136 17.3291 8.28595 17.3288 8.37311 17.3285C8.58551 17.3441 8.58551 17.3441 8.7027 17.4613C8.71611 17.7683 8.72202 18.0725 8.72304 18.3797C8.72422 18.524 8.72422 18.524 8.72542 18.6713C8.72707 18.881 8.72846 19.0907 8.72963 19.3005C8.73155 19.6324 8.73427 19.9644 8.73723 20.2963C8.74554 21.2404 8.75257 22.1846 8.75857 23.1287C8.7623 23.7055 8.76714 24.2824 8.77266 24.8592C8.77454 25.0792 8.77598 25.2991 8.77699 25.5191C8.77841 25.8272 8.78124 26.1351 8.78438 26.4432C8.78445 26.534 8.78452 26.6249 8.78459 26.7185C8.79268 27.3184 8.84137 27.7801 9.25934 28.2279C9.62784 28.4121 9.8369 28.3585 10.2261 28.2425C10.551 28.0072 10.6206 27.8073 10.6949 27.4222C10.706 27.1993 10.7107 26.9761 10.7113 26.753C10.712 26.6164 10.7127 26.4799 10.7134 26.3393C10.7135 26.1899 10.7136 26.0406 10.7138 25.8867C10.7143 25.7275 10.7149 25.5683 10.7155 25.4091C10.7171 24.9769 10.7178 24.5447 10.7183 24.1125C10.7187 23.8423 10.7192 23.5721 10.7197 23.3019C10.7213 22.456 10.7224 21.6101 10.7229 20.7642C10.7234 19.7887 10.7255 18.8132 10.7289 17.8376C10.7314 17.0829 10.7326 16.3283 10.7327 15.5736C10.7329 15.1231 10.7335 14.6727 10.7356 14.2222C10.7376 13.7983 10.7378 13.3744 10.7368 12.9505C10.7367 12.7216 10.7383 12.4927 10.7399 12.2637C10.7364 11.5284 10.7213 10.9542 10.3433 10.3128C9.90156 10.092 9.5285 10.1028 9.13483 10.4007ZM50.502 10.4007C50.1676 10.8466 50.1723 11.2574 50.1714 11.804C50.1709 11.9408 50.1704 12.0777 50.1699 12.2187C50.1699 12.3684 50.17 12.5181 50.1701 12.6724C50.1697 12.832 50.1693 12.9916 50.1689 13.1512C50.1678 13.5843 50.1676 14.0175 50.1675 14.4506C50.1674 14.7213 50.1671 14.992 50.1668 15.2626C50.1657 16.207 50.1653 17.1514 50.1654 18.0958C50.1654 18.9759 50.1642 19.8561 50.1623 20.7362C50.1608 21.4921 50.1602 22.248 50.1603 23.0039C50.1603 23.4552 50.16 23.9066 50.1587 24.3579C50.1576 24.7824 50.1576 25.2069 50.1584 25.6313C50.1586 25.8612 50.1576 26.091 50.1566 26.3208C50.1571 26.458 50.1576 26.5952 50.1581 26.7365C50.158 26.8555 50.158 26.9745 50.1579 27.097C50.1991 27.5565 50.3106 27.8893 50.6265 28.2279C50.995 28.4121 51.2041 28.3585 51.5933 28.2425C51.9182 28.0072 51.9878 27.8073 52.0621 27.4222C52.0732 27.1993 52.0779 26.9761 52.0785 26.753C52.0792 26.6164 52.0799 26.4799 52.0806 26.3393C52.0807 26.1899 52.0808 26.0406 52.081 25.8867C52.0815 25.7275 52.0821 25.5683 52.0827 25.4091C52.0843 24.9769 52.085 24.5447 52.0855 24.1125C52.0859 23.8423 52.0864 23.5721 52.0869 23.3019C52.0885 22.456 52.0896 21.6101 52.0901 20.7642C52.0906 19.7887 52.0927 18.8132 52.0961 17.8376C52.0986 17.0829 52.0998 16.3283 52.0999 15.5736C52.1 15.1231 52.1007 14.6727 52.1028 14.2222C52.1048 13.7983 52.105 13.3744 52.104 12.9505C52.1039 12.7216 52.1055 12.4927 52.1071 12.2637C52.1036 11.5284 52.0885 10.9542 51.7105 10.3128C51.2687 10.092 50.8957 10.1028 50.502 10.4007ZM53.5855 11.4847C53.4684 11.836 53.4533 12.0682 53.4527 12.4352C53.4522 12.559 53.4517 12.6829 53.4511 12.8106C53.4512 12.9464 53.4513 13.0823 53.4513 13.2223C53.4509 13.3655 53.4505 13.5086 53.4501 13.656C53.4492 14.0488 53.4488 14.4415 53.4487 14.8342C53.4486 15.1621 53.4482 15.4901 53.4478 15.818C53.4468 16.5917 53.4465 17.3654 53.4466 18.1392C53.4467 18.9371 53.4454 19.735 53.4436 20.533C53.4421 21.2182 53.4414 21.9034 53.4415 22.5886C53.4415 22.9978 53.4412 23.407 53.44 23.8162C53.4386 24.2726 53.4392 24.7291 53.4399 25.1855C53.4392 25.3209 53.4385 25.4563 53.4379 25.5959C53.4384 25.7204 53.4388 25.8449 53.4394 25.9732C53.4393 26.0811 53.4392 26.189 53.4392 26.3002C53.4796 26.7182 53.6125 27.0502 53.8419 27.4002C54.1908 27.6289 54.4701 27.5891 54.8746 27.5394C55.2491 27.2634 55.3771 27.0498 55.4605 26.6019C55.4715 26.3981 55.4763 26.1938 55.477 25.9897C55.4776 25.8658 55.4783 25.742 55.479 25.6143C55.4791 25.4791 55.4793 25.3438 55.4794 25.2044C55.48 25.0614 55.4806 24.9185 55.4812 24.7712C55.4826 24.3794 55.4835 23.9877 55.484 23.5959C55.4843 23.351 55.4848 23.1061 55.4853 22.8612C55.4869 22.0944 55.4881 21.3277 55.4885 20.561C55.489 19.6767 55.4911 18.7925 55.4945 17.9082C55.497 17.2241 55.4982 16.5399 55.4984 15.8558C55.4985 15.4475 55.4992 15.0392 55.5013 14.6308C55.5036 14.1752 55.503 13.7197 55.5023 13.2641C55.5034 13.1293 55.5044 12.9945 55.5056 12.8556C55.5013 11.9445 55.5013 11.9445 55.109 11.1332C54.4222 10.6753 54.091 10.8809 53.5855 11.4847ZM17.5371 17.1898C17.3709 17.2804 17.2047 17.3707 17.0383 17.4608C16.9531 17.5078 16.8679 17.5548 16.7802 17.6032C15.2319 18.4509 13.9108 19.0832 12.1011 18.8675C12.1011 19.1382 12.1011 19.4089 12.1011 19.6878C13.5791 19.811 14.5501 19.643 15.827 18.8973C16.3206 18.6166 16.8303 18.3671 17.338 18.1131C17.4376 18.0619 17.5372 18.0107 17.6398 17.958C17.734 17.9103 17.8282 17.8625 17.9253 17.8133C18.0085 17.7708 18.0916 17.7283 18.1773 17.6845C18.6503 17.4855 18.9253 17.4322 19.4199 17.5922C19.8505 17.7978 20.1666 18.0811 20.5093 18.4134C20.6317 18.53 20.7544 18.6462 20.8774 18.7622C20.9383 18.8198 20.9993 18.8774 21.0621 18.9368C21.3269 19.1802 21.6056 19.4045 21.8863 19.6292C22.4881 20.1133 23.0534 20.6281 23.6176 21.155C23.723 21.2509 23.8284 21.3468 23.9371 21.4457C24.0304 21.5355 24.1238 21.6254 24.22 21.718C24.6275 21.9821 24.861 21.9526 25.3433 21.9144C25.6643 21.8178 25.9625 21.6834 26.2662 21.5422C26.3515 21.5041 26.4368 21.4659 26.5248 21.4265C26.7957 21.3049 27.0656 21.1813 27.3355 21.0575C27.5167 20.9756 27.698 20.8939 27.8793 20.8123C28.2139 20.6617 28.548 20.5102 28.8818 20.3579C28.9938 20.3076 28.9938 20.3076 29.1081 20.2562C29.2538 20.1901 29.3987 20.1222 29.5427 20.0524C30.0917 19.7955 30.507 19.6859 31.0917 19.8883C31.379 20.0069 31.6603 20.135 31.942 20.2665C32.1549 20.3626 32.3679 20.4587 32.5808 20.5548C32.914 20.7072 33.2469 20.8601 33.5798 21.0132C33.9024 21.161 34.2259 21.3071 34.5494 21.453C34.6481 21.4991 34.7467 21.5453 34.8484 21.5928C35.4113 21.8461 35.8456 21.9863 36.4761 21.9144C36.7786 21.7273 36.7786 21.7273 37.0328 21.453C37.4353 21.0632 37.8396 20.6963 38.2779 20.347C38.751 19.9647 39.2023 19.567 39.6475 19.1532C39.8791 18.9404 40.1112 18.7282 40.3433 18.516C40.4464 18.4202 40.5494 18.3244 40.6555 18.2257C40.8019 18.0975 40.8019 18.0975 40.9512 17.9666C41.077 17.8536 41.077 17.8536 41.2053 17.7382C41.6745 17.4964 42.063 17.4783 42.5699 17.5785C43.1409 17.8021 43.6773 18.0823 44.2178 18.3695C44.3631 18.4447 44.5084 18.5198 44.6539 18.5947C45.7453 19.1585 45.7453 19.1585 46.1248 19.3758C46.7079 19.701 47.181 19.747 47.8433 19.7171C47.9795 19.714 47.9795 19.714 48.1184 19.7107C48.3393 19.7053 48.5601 19.6969 48.7808 19.6878C48.7808 19.4171 48.7808 19.1464 48.7808 18.8675C48.6663 18.8822 48.5518 18.8968 48.4338 18.9119C46.7239 19.0183 45.4207 18.2602 43.9668 17.4608C43.8826 17.4154 43.7985 17.3699 43.7118 17.3231C43.5533 17.2371 43.396 17.1492 43.24 17.0589C42.6652 16.746 42.1655 16.6843 41.5152 16.7582C40.6955 17.071 40.0436 17.8291 39.4113 18.4221C38.985 18.8191 38.5328 19.1817 38.0788 19.5464C37.6545 19.8963 37.2519 20.2679 36.8501 20.6432C36.604 20.8507 36.4298 20.9942 36.1246 21.0941C35.5394 21.0383 35.047 20.8355 34.5183 20.5933C34.3909 20.5363 34.3909 20.5363 34.2609 20.4781C33.9906 20.357 33.7209 20.2349 33.4512 20.1126C33.1828 19.9913 32.9142 19.8702 32.6454 19.7497C32.4787 19.675 32.3122 19.5997 32.146 19.5239C31.9112 19.4184 31.6745 19.3186 31.4371 19.2191C31.3532 19.1799 31.2694 19.1407 31.183 19.1003C30.6765 18.889 30.3558 18.8297 29.8328 19.0194C29.638 19.1063 29.4448 19.1969 29.2531 19.2905C29.1496 19.3375 29.0461 19.3846 28.9395 19.433C28.6108 19.5832 28.2845 19.7378 27.9581 19.8929C27.6301 20.0454 27.3017 20.197 26.9729 20.3478C26.769 20.4416 26.5656 20.5367 26.3629 20.633C25.8699 20.8635 25.4263 21.0611 24.8746 21.0941C24.2734 20.7935 23.809 20.3058 23.3163 19.8545C23.0056 19.5761 22.6872 19.3123 22.3624 19.0506C21.9064 18.6829 21.4725 18.3002 21.044 17.9007C20.0216 16.9578 20.0216 16.9578 18.7034 16.7239C18.2576 16.7796 17.9211 16.9664 17.5371 17.1898ZM3.31207 18.9847C3.2734 19.1007 3.23473 19.2167 3.19489 19.3363C3.23356 19.4136 3.27223 19.491 3.31207 19.5707C3.66707 19.6477 3.66707 19.6477 4.0152 19.6878C4.0152 19.4171 4.0152 19.1464 4.0152 18.8675C3.65746 18.849 3.65746 18.849 3.31207 18.9847ZM56.8668 18.8675C56.8668 19.1382 56.8668 19.4089 56.8668 19.6878C57.2728 19.6298 57.2728 19.6298 57.6871 19.5707C57.7257 19.4546 57.7644 19.3386 57.8043 19.2191C57.7656 19.1417 57.7269 19.0644 57.6871 18.9847C57.415 18.937 57.1413 18.8975 56.8668 18.8675ZM45.0308 20.5082C45.0308 32.1097 45.0308 43.7113 45.0308 55.6644C45.6496 55.6644 46.2683 55.6644 46.9058 55.6644C46.9058 44.2562 46.9058 32.848 46.9058 21.0941C46.3838 20.9781 46.3838 20.9781 45.8511 20.8597C45.5804 20.7437 45.3097 20.6277 45.0308 20.5082ZM15.1947 20.8629C14.9136 20.9769 14.9136 20.9769 14.0933 21.0941C14.0933 32.5023 14.0933 43.9105 14.0933 55.6644C14.7121 55.6644 15.3308 55.6644 15.9683 55.6644C15.9683 44.0628 15.9683 32.4613 15.9683 20.5082C15.7019 20.5082 15.4236 20.7367 15.1947 20.8629Z" fill="#34B7FE"/>
<path d="M23.2315 38.6244C23.4087 38.6238 23.5858 38.6229 23.763 38.622C24.2422 38.6199 24.7214 38.62 25.2005 38.6207C25.6015 38.6211 26.0025 38.6203 26.4035 38.6196C27.35 38.618 28.2966 38.6182 29.2431 38.6195C30.2174 38.6209 31.1916 38.6192 32.1659 38.6161C33.0044 38.6135 33.8429 38.6127 34.6814 38.6134C35.1813 38.6138 35.6812 38.6135 36.1811 38.6115C36.6515 38.6097 37.1218 38.6101 37.5922 38.6123C37.7641 38.6128 37.9359 38.6124 38.1078 38.6112C39.4402 38.6023 40.5381 38.7638 41.5363 39.7054C42.1296 40.4158 42.5003 41.2783 42.6148 42.1947C42.6733 42.4453 42.6733 42.4453 42.9219 42.6303C43.3431 43.0987 43.2279 43.6872 43.2218 44.2895C43.2246 44.4166 43.2274 44.5437 43.2303 44.6747C43.2293 45.2228 43.213 45.599 42.9467 46.0843C42.5236 46.3142 42.3171 46.3107 41.8433 46.3018C41.7162 46.2999 41.5891 46.2981 41.4581 46.2962C41.3609 46.2938 41.2638 46.2914 41.1637 46.289C41.1642 46.4206 41.1648 46.5522 41.1653 46.6878C41.17 47.9259 41.1736 49.1641 41.1759 50.4022C41.1771 51.0389 41.1788 51.6754 41.1814 52.312C41.1839 52.926 41.1853 53.5399 41.186 54.1539C41.1864 54.3885 41.1872 54.6232 41.1885 54.8578C41.1902 55.1856 41.1904 55.5133 41.1903 55.8411C41.1912 55.9388 41.192 56.0366 41.1929 56.1374C41.1905 56.8091 41.1905 56.8091 40.9293 57.0702C40.573 57.1005 40.573 57.1005 40.12 57.1013C40.0004 57.1017 40.0004 57.1017 39.8784 57.102C39.7097 57.1022 39.5411 57.1017 39.3724 57.1008C39.1139 57.0995 38.8555 57.1008 38.597 57.1023C38.4333 57.1021 38.2696 57.1018 38.1059 57.1013C37.9564 57.1011 37.8069 57.1008 37.6529 57.1005C37.2965 57.0702 37.2965 57.0702 37.0622 56.8358C37.0401 56.5004 37.0327 56.1765 37.0355 55.8411C37.0355 55.7365 37.0355 55.6319 37.0355 55.5242C37.0356 55.1847 37.0374 54.8453 37.0393 54.5058C37.0396 54.2966 37.0399 54.0874 37.04 53.8783C37.0412 53.1014 37.0445 52.3246 37.0475 51.5478C37.0523 49.8124 37.0572 48.077 37.0622 46.289C32.7696 46.289 28.477 46.289 24.0543 46.289C24.0636 49.7494 24.0636 49.7494 24.0755 53.2098C24.0765 53.8783 24.0765 53.8783 24.0767 54.1909C24.0771 54.4099 24.0779 54.6288 24.0791 54.8477C24.0808 55.1788 24.081 55.5099 24.081 55.8411C24.0818 55.939 24.0826 56.037 24.0835 56.1379C24.0811 56.8091 24.0811 56.8091 23.82 57.0702C23.4636 57.1005 23.4636 57.1005 23.0106 57.1013C22.891 57.1017 22.891 57.1017 22.769 57.102C22.6003 57.1022 22.4317 57.1017 22.2631 57.1008C22.0046 57.0995 21.7462 57.1008 21.4877 57.1023C21.3239 57.1021 21.1602 57.1018 20.9965 57.1013C20.847 57.1011 20.6975 57.1008 20.5435 57.1005C20.1872 57.0702 20.1872 57.0702 19.9528 56.8358C19.9307 56.5005 19.9233 56.1765 19.9262 55.8411C19.9261 55.7382 19.9261 55.6353 19.9261 55.5292C19.9262 55.1881 19.9281 54.847 19.9299 54.5058C19.9303 54.2697 19.9307 54.0336 19.9309 53.7974C19.9318 53.1752 19.9341 52.5529 19.9367 51.9306C19.9391 51.2959 19.9402 50.6613 19.9413 50.0266C19.9439 48.7807 19.9479 47.5348 19.9528 46.289C19.8556 46.2913 19.7585 46.2937 19.6584 46.2962C19.5313 46.298 19.4042 46.2999 19.2732 46.3018C19.1471 46.3041 19.0209 46.3065 18.8909 46.3089C18.5465 46.289 18.5465 46.289 18.1698 46.0843C17.8475 45.4969 17.8802 44.9484 17.8947 44.2895C17.8934 44.1619 17.8921 44.0343 17.8908 43.9029C17.8995 42.9575 17.8995 42.9575 18.193 42.6356C18.271 42.5651 18.349 42.4945 18.4293 42.4218C18.5351 42.1072 18.5351 42.1072 18.5905 41.7626C18.8458 40.6474 19.3321 39.8888 20.2412 39.1959C21.2265 38.6244 22.1141 38.6206 23.2315 38.6244ZM20.6037 40.9693C20.2698 41.4014 20.1107 41.7478 20.07 42.3046C20.1701 42.3117 20.2703 42.3188 20.3735 42.3261C20.5029 42.3359 20.6324 42.3457 20.7658 42.3559C20.8949 42.3654 21.0241 42.3749 21.1572 42.3847C21.4762 42.4218 21.4762 42.4218 21.5934 42.539C21.609 42.7514 21.609 42.7514 21.6081 43.0077C21.6085 43.1346 21.6085 43.1346 21.609 43.2641C21.5934 43.4765 21.5934 43.4765 21.4762 43.5937C21.3192 43.6119 21.1613 43.623 21.0034 43.6307C20.9086 43.6356 20.8138 43.6406 20.7161 43.6456C20.6165 43.6502 20.5169 43.6548 20.4142 43.6596C20.3141 43.6646 20.2141 43.6697 20.1109 43.6749C19.8629 43.6874 19.6149 43.6992 19.3668 43.7108C19.3668 44.0976 19.3668 44.4843 19.3668 44.8827C26.7532 44.8827 34.1395 44.8827 41.7497 44.8827C41.7497 44.496 41.7497 44.1093 41.7497 43.7108C41.6221 43.7101 41.6221 43.7101 41.4919 43.7093C39.4255 43.6972 37.359 43.6845 35.2926 43.6711C34.2933 43.6646 33.2939 43.6583 32.2946 43.6526C31.424 43.6475 30.5533 43.6421 29.6826 43.6362C29.2213 43.6331 28.76 43.6302 28.2987 43.6277C27.865 43.6255 27.4313 43.6226 26.9976 43.6194C26.7615 43.6178 26.5255 43.6167 26.2894 43.6157C26.0806 43.6139 26.0806 43.6139 25.8676 43.6122C25.7459 43.6114 25.6241 43.6107 25.4987 43.6099C25.2262 43.5937 25.2262 43.5937 25.109 43.4765C25.0935 43.2641 25.0935 43.2641 25.0944 43.0077C25.0939 42.8808 25.0939 42.8808 25.0935 42.7514C25.109 42.539 25.109 42.539 25.2262 42.4218C25.4308 42.4091 25.6359 42.4046 25.8409 42.4032C25.9742 42.4021 26.1075 42.4009 26.2448 42.3998C26.466 42.3987 26.466 42.3987 26.6918 42.3977C26.8461 42.3966 27.0004 42.3954 27.1594 42.3942C27.5838 42.391 28.0083 42.3886 28.4327 42.3862C28.8758 42.3837 29.3189 42.3805 29.7619 42.3773C30.6015 42.3715 31.4411 42.3662 32.2808 42.3611C33.2364 42.3554 34.192 42.3489 35.1476 42.3424C37.1139 42.3291 39.0802 42.3166 41.0465 42.3046C40.9932 42.0806 40.9932 42.0806 40.9388 41.852C40.9189 41.768 40.8989 41.684 40.8783 41.5974C40.7108 41.014 40.2556 40.6384 39.7575 40.3271C39.179 40.1101 38.6204 40.0634 38.0061 40.0624C37.8011 40.0616 37.8011 40.0616 37.592 40.0608C37.3695 40.0609 37.3695 40.0609 37.1426 40.061C36.9835 40.0607 36.8244 40.0603 36.6654 40.0598C36.2346 40.0588 35.8039 40.0585 35.3731 40.0584C35.1037 40.0583 34.8342 40.0581 34.5648 40.0578C33.6238 40.0567 32.6828 40.0562 31.7418 40.0563C30.8662 40.0564 29.9906 40.0551 29.115 40.0533C28.3618 40.0518 27.6087 40.0511 26.8556 40.0512C26.4064 40.0512 25.9572 40.0509 25.508 40.0497C25.0854 40.0485 24.6627 40.0485 24.2401 40.0494C24.0121 40.0496 23.7842 40.0486 23.5563 40.0476C22.4473 40.0515 21.3992 40.0857 20.6037 40.9693ZM21.359 46.289C21.359 49.3827 21.359 52.4765 21.359 55.664C21.7844 55.664 22.2098 55.664 22.6481 55.664C22.6481 52.5702 22.6481 49.4765 22.6481 46.289C22.2227 46.289 21.7973 46.289 21.359 46.289ZM38.4684 46.289C38.4684 49.3827 38.4684 52.4765 38.4684 55.664C38.8938 55.664 39.3192 55.664 39.7575 55.664C39.7575 52.5702 39.7575 49.4765 39.7575 46.289C39.3321 46.289 38.9067 46.289 38.4684 46.289Z" fill="#34B7FE"/>
<path d="M11.3979 35.039C11.649 35.2253 11.7385 35.3293 11.794 35.6397C11.7945 35.785 11.7945 35.785 11.7949 35.9332C11.7961 36.0446 11.7972 36.156 11.7984 36.2708C11.7976 36.4538 11.7976 36.4538 11.7968 36.6405C11.7976 36.7691 11.7984 36.8978 11.7993 37.0303C11.8014 37.4567 11.8009 37.8829 11.8003 38.3093C11.8008 38.6048 11.8014 38.9004 11.8021 39.1959C11.8032 39.8158 11.8029 40.4356 11.8017 41.0555C11.8004 41.7722 11.802 42.4889 11.8052 43.2056C11.8081 43.895 11.8084 44.5843 11.8076 45.2737C11.8076 45.5671 11.8083 45.8605 11.8098 46.1539C11.8115 46.5636 11.8103 46.9732 11.8083 47.3828C11.81 47.5658 11.81 47.5658 11.8117 47.7526C11.8105 47.864 11.8094 47.9754 11.8082 48.0901C11.8082 48.187 11.8082 48.2839 11.8081 48.3837C11.7495 48.6328 11.7495 48.6328 11.5343 48.8438C11.1767 49.0419 10.9628 48.976 10.5776 48.8671C10.2893 48.5788 10.3137 48.5006 10.3127 48.1042C10.3118 47.993 10.311 47.8817 10.3102 47.7671C10.3104 47.6447 10.3107 47.5223 10.311 47.3961C10.3104 47.2675 10.3098 47.1389 10.3092 47.0064C10.3076 46.5794 10.3077 46.1525 10.308 45.7255C10.3075 45.4298 10.307 45.1341 10.3065 44.8384C10.3056 44.2178 10.3056 43.5973 10.3062 42.9767C10.3069 42.2591 10.3055 41.5415 10.303 40.824C10.3007 40.134 10.3003 39.4442 10.3007 38.7542C10.3007 38.4605 10.3001 38.1667 10.2989 37.873C10.2974 37.4628 10.2982 37.0526 10.2996 36.6424C10.2987 36.5202 10.2978 36.398 10.2969 36.2721C10.2977 36.1605 10.2985 36.0489 10.2994 35.934C10.2993 35.837 10.2993 35.7399 10.2993 35.64C10.4087 35.0185 10.8375 34.969 11.3979 35.039Z" fill="#34B7FE"/>
<path d="M11.5157 32.1092C11.8401 32.4336 11.7928 32.6457 11.8014 33.098C11.806 33.2332 11.8107 33.3684 11.8156 33.5077C11.7501 33.867 11.7501 33.867 11.4777 34.0964C11.1642 34.2186 11.1642 34.2186 10.7833 34.1307C10.461 33.9842 10.461 33.9842 10.3438 33.867C10.323 33.6186 10.3124 33.3692 10.3072 33.12C10.3028 32.9837 10.2985 32.8474 10.2939 32.7071C10.3438 32.3436 10.3438 32.3436 10.5576 32.1179C10.9166 31.9407 11.1374 32.0023 11.5157 32.1092Z" fill="#34B7FE"/>
</svg>
