<svg width="60" height="60" viewBox="0 0 60 60" fill="none" xmlns="http://www.w3.org/2000/svg">
<path d="M24.9028 2.40734C25.1734 2.60709 25.4193 2.81674 25.6646 3.04683C25.7767 3.15174 25.7767 3.15174 25.8911 3.25878C26.5334 3.92308 27.0613 4.82233 27.077 5.7636C27.075 5.87254 27.0729 5.98147 27.0708 6.09371C27.1436 6.09327 27.2164 6.09284 27.2915 6.0924C29.0658 6.08203 30.8401 6.07428 32.6145 6.06942C33.4725 6.06701 34.3306 6.06372 35.1887 6.05834C35.9368 6.05366 36.685 6.05065 37.4331 6.0496C37.8291 6.04899 38.2249 6.04757 38.6208 6.04415C39.0635 6.04074 39.5061 6.04027 39.9488 6.04049C40.1443 6.03796 40.1443 6.03796 40.3437 6.03538C41.2648 6.04027 41.8865 6.19096 42.5936 6.81835C42.7046 6.94909 42.7046 6.94909 42.8179 7.08248C42.8937 7.16934 42.9695 7.2562 43.0477 7.34569C43.4942 7.9673 43.5104 8.51279 43.5052 9.2523C43.5055 9.41097 43.5055 9.41097 43.5058 9.57284C43.5062 9.92732 43.5049 10.2818 43.5037 10.6362C43.5036 10.8903 43.5036 11.1444 43.5038 11.3985C43.5038 12.0885 43.5024 12.7785 43.5008 13.4685C43.4994 14.1895 43.4992 14.9105 43.4989 15.6315C43.4982 16.9969 43.4963 18.3624 43.4939 19.7278C43.4913 21.2823 43.49 22.8367 43.4888 24.3912C43.4864 27.5889 43.4823 30.7866 43.4771 33.9843C44.0571 33.9843 44.6372 33.9843 45.2349 33.9843C45.2287 33.6286 45.2287 33.6286 45.2225 33.2656C45.2201 33.0341 45.2176 32.8025 45.2156 32.571C45.2138 32.411 45.2114 32.2509 45.2083 32.0909C45.204 31.86 45.2023 31.629 45.2005 31.398C45.1987 31.2593 45.1968 31.1206 45.195 30.9777C45.2472 30.4652 45.4137 30.0722 45.7622 29.6901C46.4854 29.1269 47.0408 29.1582 47.9229 29.1577C48.0403 29.1562 48.1578 29.1548 48.2788 29.1533C48.392 29.1531 48.5052 29.1529 48.6219 29.1526C48.7768 29.1519 48.7768 29.1519 48.9349 29.1512C49.2391 29.1816 49.4193 29.2757 49.688 29.414C50.0366 29.3792 50.3117 29.3365 50.6255 29.1796C51.0642 29.1481 51.5041 29.1525 51.9438 29.1503C52.0655 29.1479 52.1871 29.1455 52.3123 29.143C53.0052 29.1395 53.4007 29.2177 54.0239 29.5312C54.2198 29.4149 54.415 29.2975 54.6099 29.1796C55.0541 29.1205 55.4953 29.1253 55.9429 29.1284C56.0619 29.126 56.1809 29.1237 56.3036 29.1213C57.0556 29.1218 57.5145 29.2024 58.1255 29.6484C58.5738 30.1321 58.7252 30.4896 58.7295 31.1424C58.7305 31.2569 58.7315 31.3714 58.7325 31.4893C58.7333 31.6775 58.7333 31.6775 58.734 31.8695C58.735 32.0018 58.7359 32.1341 58.7369 32.2704C58.7398 32.7091 58.7418 33.1478 58.7435 33.5865C58.7441 33.7363 58.7447 33.8861 58.7454 34.0404C58.7478 34.67 58.7501 35.2996 58.7514 35.9292C58.7533 36.8301 58.7572 37.7309 58.7639 38.6317C58.769 39.3424 58.7708 40.0532 58.7716 40.7639C58.7724 41.0657 58.7742 41.3675 58.777 41.6692C58.7807 42.092 58.7807 42.5146 58.7798 42.9374C58.7817 43.0616 58.7836 43.1859 58.7856 43.314C58.7791 44.0968 58.646 44.6348 58.1255 45.2343C57.4388 45.7838 56.8074 45.7713 55.9502 45.7544C55.8312 45.7552 55.7123 45.756 55.5897 45.7569C55.0545 45.7523 54.6953 45.7461 54.2112 45.5021C54.1107 45.4524 54.0102 45.4027 53.9067 45.3515C53.8235 45.4015 53.7403 45.4515 53.6545 45.503C53.1224 45.822 52.5736 45.7491 51.9658 45.7397C51.8438 45.7401 51.7219 45.7405 51.5962 45.7408C51.0369 45.7369 50.6552 45.7303 50.1567 45.4687C49.8223 45.5095 49.5393 45.5964 49.2192 45.7031C48.7829 45.7423 48.3461 45.7464 47.9082 45.7544C47.7295 45.7624 47.7295 45.7624 47.5473 45.7706C46.8079 45.7816 46.3575 45.6872 45.7772 45.2206C45.3073 44.677 45.1911 44.1919 45.2005 43.4848C45.2017 43.3337 45.2028 43.1826 45.204 43.027C45.2069 42.8692 45.2099 42.7114 45.2129 42.5537C45.2147 42.3931 45.2163 42.2326 45.2177 42.0721C45.2218 41.6808 45.2281 41.2896 45.2349 40.8984C44.6548 40.8984 44.0747 40.8984 43.4771 40.8984C43.4781 41.0857 43.4791 41.273 43.4802 41.466C43.4897 43.2316 43.4968 44.9973 43.5013 46.7629C43.5038 47.6707 43.507 48.5784 43.5124 49.4861C43.5171 50.2775 43.5201 51.0689 43.5212 51.8604C43.5218 52.2792 43.5232 52.698 43.5266 53.1168C43.5304 53.585 43.5305 54.0532 43.5303 54.5214C43.5328 54.7284 43.5328 54.7284 43.5354 54.9396C43.5305 55.91 43.3783 56.5247 42.73 57.2753C42.0843 57.8288 41.5892 58.139 40.7347 58.141C40.6025 58.1416 40.4702 58.1422 40.334 58.1428C40.1151 58.1429 40.1151 58.1429 39.8918 58.143C39.7373 58.1435 39.5828 58.144 39.4236 58.1445C38.9938 58.1459 38.5639 58.1466 38.1341 58.1471C37.6708 58.1478 37.2075 58.1492 36.7443 58.1505C35.6249 58.1533 34.5056 58.1551 33.3863 58.1566C33.0701 58.157 32.7539 58.1575 32.4378 58.1579C30.4745 58.1609 28.5113 58.1635 26.548 58.1649C26.0932 58.1653 25.6383 58.1656 25.1835 58.166C25.014 58.1661 25.014 58.1661 24.841 58.1662C23.0102 58.1677 21.1794 58.1716 19.3486 58.1765C17.469 58.1815 15.5894 58.1842 13.7097 58.1849C12.6544 58.1853 11.5991 58.1866 10.5437 58.1905C9.64484 58.1938 8.74597 58.1951 7.84706 58.1937C7.3886 58.1931 6.93019 58.1935 6.47174 58.1964C6.05148 58.199 5.63132 58.1989 5.21106 58.1967C4.98814 58.1962 4.76522 58.1986 4.54231 58.2011C3.65599 58.193 2.96004 58.0608 2.22705 57.539C1.55742 56.8318 1.26052 56.1804 1.2594 55.1994C1.25899 55.1183 1.25858 55.0372 1.25816 54.9536C1.25706 54.6811 1.25764 54.4087 1.25821 54.1363C1.25777 53.9392 1.25723 53.7422 1.2566 53.5451C1.25517 53.0031 1.2552 52.4611 1.25548 51.9191C1.25552 51.3347 1.25423 50.7504 1.25312 50.166C1.25117 49.021 1.25053 47.8759 1.2504 46.7309C1.25029 45.8003 1.2498 44.8697 1.24906 43.939C1.247 41.3014 1.24592 38.6638 1.24609 36.0262C1.2461 35.884 1.24611 35.7417 1.24612 35.5952C1.24613 35.4528 1.24614 35.3104 1.24615 35.1636C1.24624 32.8553 1.244 30.547 1.2407 28.2386C1.23733 25.8693 1.23571 23.4999 1.23591 21.1306C1.23599 19.8001 1.23534 18.4695 1.23282 17.139C1.23069 16.0062 1.23018 14.8734 1.23177 13.7406C1.23254 13.1625 1.23255 12.5845 1.23052 12.0065C1.22868 11.4772 1.229 10.9481 1.23105 10.4189C1.23141 10.2275 1.23098 10.0361 1.22968 9.84467C1.22257 8.72758 1.25916 7.92295 1.95468 7.00695C2.01798 6.94486 2.08127 6.88277 2.14648 6.8188C2.20887 6.75521 2.27126 6.69161 2.33554 6.62609C3.11845 6.0437 3.84949 6.04459 4.7937 6.0538C4.93212 6.05374 5.07055 6.05369 5.21316 6.05364C5.59059 6.05384 5.96797 6.0556 6.34539 6.05806C6.74061 6.06027 7.13583 6.06047 7.53106 6.06088C8.27851 6.06197 9.02595 6.06485 9.77339 6.06839C10.6247 6.07232 11.4761 6.07425 12.3274 6.07601C14.0778 6.07968 15.8282 6.08586 17.5786 6.09371C17.5937 6.0048 17.6088 5.91589 17.6244 5.82429C17.6447 5.70788 17.6651 5.59146 17.686 5.47152C17.706 5.35603 17.7259 5.24053 17.7465 5.12154C17.8683 4.54094 18.1799 4.11093 18.5161 3.63277C18.6007 3.5095 18.6853 3.38624 18.7725 3.25923C20.4011 1.6306 22.8932 1.167 24.9028 2.40734ZM19.7832 4.4897C18.8403 5.64738 18.9566 7.06721 18.9139 8.48049C18.9095 8.60859 18.9051 8.73669 18.9006 8.86867C18.8971 8.98557 18.8935 9.10248 18.8899 9.22292C18.8677 9.49214 18.8677 9.49214 18.7505 9.60933C18.4127 9.62811 18.0774 9.63975 17.7393 9.64641C17.638 9.64885 17.5367 9.65128 17.4324 9.65379C17.1076 9.66148 16.7828 9.66837 16.458 9.67525C16.2384 9.68031 16.0187 9.68542 15.7991 9.69058C15.2594 9.70326 14.7198 9.71486 14.1802 9.72652C14.1802 10.8867 14.1802 12.0468 14.1802 13.2421C19.5942 13.2421 25.0083 13.2421 30.5864 13.2421C30.5864 12.082 30.5864 10.9218 30.5864 9.72652C30.0809 9.71587 30.0809 9.71587 29.5652 9.705C29.2401 9.69777 28.9151 9.69034 28.5901 9.68289C28.3636 9.6778 28.137 9.67292 27.9105 9.66824C27.5856 9.6615 27.2607 9.65403 26.9358 9.64641C26.8338 9.64445 26.7319 9.64249 26.6269 9.64048C25.9123 9.62268 25.9123 9.62268 25.7817 9.49214C25.766 9.28882 25.7579 9.0849 25.7529 8.88103C25.749 8.75452 25.7452 8.628 25.7412 8.49765C25.7342 8.23216 25.7274 7.96666 25.7211 7.70114C25.6774 6.30616 25.5537 5.19019 24.5494 4.15233C23.887 3.56831 23.2185 3.31841 22.354 3.25191C21.3277 3.32033 20.4789 3.72747 19.7832 4.4897ZM27.0708 7.49996C27.0708 7.77066 27.0708 8.04136 27.0708 8.32027C29.4491 8.37828 29.4491 8.37828 31.8755 8.43746C31.9335 9.53961 31.9335 9.53961 31.9927 10.664C32.1778 10.6657 32.3628 10.6674 32.5535 10.6692C33.2404 10.676 33.9272 10.685 34.6141 10.6948C34.9113 10.6987 35.2086 10.702 35.5058 10.7046C35.9332 10.7085 36.3604 10.7147 36.7877 10.7212C36.987 10.7224 36.987 10.7224 37.1903 10.7235C37.3146 10.7258 37.4389 10.7281 37.5669 10.7305C37.7305 10.7325 37.7305 10.7325 37.8974 10.7345C38.4272 10.8153 38.7039 11.0267 39.0378 11.44C39.2925 11.8973 39.3246 12.2521 39.3191 12.7613C39.32 12.8523 39.3209 12.9434 39.3218 13.0372C39.3242 13.3411 39.3232 13.6449 39.3223 13.9489C39.3233 14.1672 39.3245 14.3855 39.3259 14.6038C39.3292 15.1957 39.3296 15.7877 39.3295 16.3796C39.3299 16.9985 39.3329 17.6174 39.3356 18.2362C39.3403 19.4078 39.3427 20.5794 39.3443 21.7511C39.3461 23.085 39.3506 24.419 39.3553 25.753C39.365 28.4968 39.3712 31.2405 39.3755 33.9843C40.2649 33.9843 41.1544 33.9843 42.0708 33.9843C42.0762 30.7593 42.0804 27.5342 42.0829 24.3092C42.0842 22.8117 42.0858 21.3143 42.0885 19.8169C42.0908 18.5118 42.0923 17.2067 42.0929 15.9016C42.0932 15.2105 42.0939 14.5194 42.0956 13.8283C42.0972 13.1778 42.0977 12.5273 42.0973 11.8768C42.0974 11.6381 42.0978 11.3994 42.0987 11.1607C42.0999 10.8346 42.0996 10.5085 42.099 10.1824C42.0997 10.0881 42.1003 9.99384 42.1011 9.89671C42.0977 9.25688 42.0665 8.61118 41.6547 8.09047C41.5866 8.03579 41.5184 7.9811 41.4482 7.92476C41.381 7.86826 41.3138 7.81177 41.2445 7.75356C40.8139 7.49636 40.3445 7.48532 39.8525 7.48586C39.7393 7.4857 39.6261 7.48554 39.5095 7.48538C39.3867 7.4858 39.2638 7.48622 39.1373 7.48665C39.0069 7.48664 38.8765 7.48662 38.7422 7.4866C38.3117 7.48668 37.8811 7.48759 37.4506 7.48851C37.1519 7.48873 36.8532 7.4889 36.5545 7.48902C35.849 7.48942 35.1435 7.49034 34.4379 7.49152C33.6345 7.49283 32.831 7.49347 32.0276 7.49406C30.3753 7.49528 28.7231 7.49734 27.0708 7.49996ZM2.99609 8.18843C2.70486 8.77089 2.68111 9.28394 2.68073 9.92997C2.68052 10.0082 2.68032 10.0864 2.6801 10.167C2.67956 10.4296 2.67985 10.6922 2.68013 10.9547C2.67991 11.1447 2.67964 11.3347 2.67933 11.5246C2.67861 12.0471 2.67862 12.5695 2.67876 13.0919C2.67879 13.6551 2.67814 14.2184 2.67758 14.7817C2.67661 15.8853 2.67629 16.9889 2.67622 18.0925C2.67617 18.9893 2.67593 19.8861 2.67555 20.783C2.67452 23.3245 2.67398 25.866 2.67407 28.4075C2.67407 28.5446 2.67408 28.6816 2.67408 28.8228C2.67409 28.9601 2.67409 29.0973 2.6741 29.2387C2.67415 31.4634 2.67303 33.6882 2.67137 35.9129C2.66969 38.1962 2.66888 40.4794 2.66898 42.7627C2.66902 44.045 2.6687 45.3274 2.66744 46.6097C2.66637 47.7013 2.66611 48.7929 2.66691 49.8845C2.66729 50.4416 2.6673 50.9987 2.66628 51.5558C2.66537 52.0657 2.66553 52.5755 2.66655 53.0853C2.66673 53.2699 2.66652 53.4545 2.66586 53.6391C2.66504 53.8898 2.66566 54.1404 2.66663 54.3911C2.66661 54.5305 2.66658 54.6698 2.66656 54.8133C2.71024 55.3839 2.83075 55.7769 3.19385 56.2207C3.93649 56.8283 4.75687 56.7522 5.6714 56.7493C5.89299 56.7499 5.89299 56.7499 6.11905 56.7506C6.5283 56.7518 6.93752 56.7516 7.34677 56.7511C7.78845 56.7508 8.23013 56.7518 8.67181 56.7527C9.53685 56.7542 10.4019 56.7544 11.2669 56.7541C11.9702 56.7539 12.6734 56.7541 13.3766 56.7546C13.4767 56.7547 13.5768 56.7548 13.68 56.7548C13.8833 56.755 14.0867 56.7551 14.29 56.7553C16.1972 56.7565 18.1043 56.7563 20.0114 56.7556C21.7555 56.755 23.4996 56.7563 25.2436 56.7585C27.035 56.7608 28.8263 56.7618 30.6176 56.7613C31.6231 56.7611 32.6286 56.7614 33.634 56.763C34.4901 56.7644 35.3462 56.7646 36.2023 56.7632C36.6389 56.7625 37.0755 56.7624 37.5121 56.7638C37.9859 56.7653 38.4596 56.764 38.9334 56.7626C39.0707 56.7634 39.2081 56.7643 39.3496 56.7652C40.099 56.7602 40.8095 56.7232 41.4849 56.3671C41.969 55.7982 42.0856 55.3245 42.0849 54.5961C42.0851 54.4752 42.0852 54.3543 42.0854 54.2296C42.085 54.0976 42.0845 53.9656 42.0841 53.8296C42.0841 53.6204 42.0841 53.6204 42.0842 53.4069C42.0841 53.0248 42.0835 52.6428 42.0827 52.2608C42.0819 51.8613 42.0819 51.4619 42.0817 51.0624C42.0814 50.3063 42.0804 49.5501 42.0792 48.7939C42.0779 47.933 42.0773 47.072 42.0767 46.211C42.0755 44.4401 42.0733 42.6693 42.0708 40.8984C41.1813 40.8984 40.2919 40.8984 39.3755 40.8984C39.3725 41.3132 39.3694 41.728 39.3663 42.1554C39.3618 42.558 39.3565 42.9606 39.3512 43.3632C39.3479 43.6425 39.3454 43.9219 39.3437 44.2013C39.3412 44.6034 39.3357 45.0053 39.3297 45.4074C39.3296 45.5319 39.3294 45.6564 39.3293 45.7848C39.3112 46.7006 39.1418 47.0844 38.5163 47.7529C38.4203 47.8451 38.3244 47.9372 38.2256 48.0322C37.8796 48.3656 37.5518 48.7048 37.2388 49.069C36.8337 49.5338 36.4114 49.977 35.9771 50.4144C35.9021 50.49 35.8272 50.5656 35.75 50.6435C35.593 50.8016 35.4358 50.9595 35.2785 51.1173C35.0393 51.3576 34.8014 51.5992 34.5635 51.8408C34.4097 51.9953 34.2559 52.1497 34.1021 52.304C34.032 52.3756 33.9619 52.4471 33.8896 52.5208C33.822 52.5881 33.7543 52.6555 33.6846 52.7248C33.6264 52.7834 33.5683 52.842 33.5083 52.9024C32.7978 53.4779 32.2752 53.6237 31.3799 53.6142C31.2202 53.6153 31.2202 53.6153 31.0573 53.6164C30.7019 53.6182 30.3467 53.6168 29.9913 53.6153C29.736 53.6159 29.4807 53.6168 29.2254 53.6178C28.533 53.6199 27.8406 53.6191 27.1481 53.6176C26.4233 53.6164 25.6986 53.6175 24.9739 53.6183C23.7569 53.6191 22.54 53.618 21.3231 53.6158C19.9161 53.6132 18.509 53.614 17.102 53.6166C15.8939 53.6187 14.6858 53.619 13.4777 53.6178C12.7561 53.6171 12.0346 53.617 11.3131 53.6185C10.6348 53.6199 9.95664 53.6189 9.27842 53.6162C9.02946 53.6156 8.7805 53.6158 8.53155 53.6168C8.19181 53.6181 7.85221 53.6165 7.51249 53.6142C7.36456 53.6157 7.36456 53.6157 7.21365 53.6173C6.59276 53.609 6.22779 53.5084 5.74267 53.0859C5.32962 52.5936 5.34195 52.0985 5.34805 51.4827C5.34766 51.3803 5.34728 51.278 5.34689 51.1725C5.34603 50.8297 5.34769 50.4868 5.34934 50.144C5.34925 49.8981 5.349 49.6523 5.34862 49.4065C5.34801 48.739 5.3496 48.0716 5.35161 47.4041C5.35337 46.7064 5.35323 46.0088 5.35333 45.3111C5.35376 44.14 5.35551 42.9689 5.35815 41.7977C5.36154 40.2924 5.36275 38.7871 5.36327 37.2818C5.36374 35.9897 5.3652 34.6976 5.36683 33.4055C5.36731 32.9891 5.36765 32.5726 5.36798 32.1562C5.36855 31.5033 5.36974 30.8503 5.37143 30.1974C5.37196 29.9571 5.37229 29.7168 5.37241 29.4765C5.37262 29.1499 5.37354 28.8233 5.37465 28.4968C5.37455 28.4004 5.37445 28.304 5.37435 28.2047C5.37773 27.5524 5.37773 27.5524 5.5083 27.4218C5.7207 27.4063 5.7207 27.4063 5.97705 27.4072C6.06164 27.4069 6.14624 27.4066 6.2334 27.4063C6.4458 27.4218 6.4458 27.4218 6.56299 27.539C6.57486 27.8506 6.57906 28.1592 6.57837 28.4709C6.57862 28.5697 6.57887 28.6685 6.57913 28.7704C6.57983 29.1041 6.57971 29.4379 6.57961 29.7717C6.57996 30.0099 6.58038 30.2482 6.58084 30.4864C6.58177 31.0008 6.58237 31.5152 6.58275 32.0295C6.58344 32.8424 6.58538 33.6552 6.5876 34.4681C6.58834 34.746 6.58908 35.024 6.58982 35.3019C6.59019 35.4411 6.59056 35.5803 6.59094 35.7238C6.59588 37.6171 6.59974 39.5105 6.60118 41.4039C6.60216 42.6797 6.60479 43.9555 6.60931 45.2313C6.61163 45.907 6.61308 46.5827 6.61249 47.2584C6.61195 47.8939 6.61356 48.5294 6.61683 49.1649C6.61764 49.3984 6.61765 49.632 6.61681 49.8656C6.61577 50.1839 6.61759 50.502 6.62015 50.8203C6.61916 50.9133 6.61817 51.0062 6.61715 51.102C6.62291 51.4898 6.65444 51.7544 6.85722 52.0887C7.27219 52.3403 7.65533 52.3289 8.12621 52.322C8.22567 52.3224 8.32513 52.3227 8.4276 52.3232C8.76142 52.3239 9.09513 52.3214 9.42893 52.3188C9.66799 52.3187 9.90705 52.3187 10.1461 52.319C10.7957 52.3191 11.4452 52.3164 12.0948 52.3131C12.7734 52.3102 13.4521 52.3099 14.1307 52.3093C15.416 52.3079 16.7014 52.304 17.9867 52.2993C19.4499 52.2941 20.9131 52.2915 22.3763 52.2892C25.3864 52.2843 28.3966 52.2757 31.4067 52.2656C31.4454 50.1773 31.4841 48.089 31.5239 45.9375C33.6509 45.8988 35.7778 45.8601 37.9692 45.8203C37.9692 44.196 37.9692 42.5718 37.9692 40.8984C35.8036 40.8984 33.638 40.8984 31.4067 40.8984C31.3868 41.9851 31.3868 41.9851 31.3718 43.0719C31.3682 43.2082 31.3647 43.3444 31.361 43.4848C31.3585 43.6235 31.3561 43.7621 31.3535 43.905C31.2549 44.5092 30.9655 44.8725 30.5132 45.271C29.9229 45.6903 29.3734 45.6074 28.6675 45.6079C28.5439 45.6093 28.4203 45.6107 28.293 45.6122C28.174 45.6124 28.055 45.6127 27.9323 45.6129C27.8233 45.6134 27.7144 45.6139 27.6021 45.6144C27.2906 45.5845 27.1095 45.496 26.8364 45.3515C26.502 45.3923 26.219 45.4792 25.8989 45.5859C25.4575 45.6161 25.0155 45.613 24.5732 45.6152C24.3916 45.6188 24.3916 45.6188 24.2063 45.6225C23.5155 45.6261 23.1221 45.5466 22.5005 45.2343C22.3046 45.3506 22.1095 45.468 21.9146 45.5859C21.4704 45.645 21.0291 45.6403 20.5815 45.6372C20.4625 45.6395 20.3435 45.6418 20.2208 45.6443C19.4724 45.6438 18.9915 45.5895 18.3989 45.1171C17.8789 44.409 17.8629 43.82 17.8695 42.9581C17.8687 42.8256 17.8679 42.693 17.867 42.5565C17.865 42.1197 17.8663 41.6831 17.8679 41.2463C17.8676 40.942 17.8671 40.6378 17.8666 40.3335C17.8659 39.6963 17.8668 39.0592 17.8691 38.4221C17.8716 37.6869 17.8708 36.9519 17.8682 36.2168C17.8658 35.5076 17.8661 34.7986 17.8674 34.0894C17.8678 33.7885 17.8674 33.4877 17.8663 33.1868C17.8651 32.766 17.8669 32.3454 17.8695 31.9246C17.8686 31.8007 17.8676 31.6767 17.8666 31.549C17.8751 30.8124 17.9593 30.3641 18.3989 29.7656C19.0864 29.2183 19.718 29.2286 20.5742 29.2456C20.6932 29.2447 20.8121 29.2439 20.9347 29.243C21.4699 29.2476 21.8291 29.2538 22.3133 29.4978C22.4137 29.5475 22.5142 29.5972 22.6177 29.6484C22.7009 29.5984 22.7841 29.5484 22.8699 29.4969C23.402 29.1779 23.9508 29.2508 24.5586 29.2602C24.6806 29.2598 24.8026 29.2595 24.9282 29.2591C25.4894 29.263 25.8667 29.2732 26.3677 29.5312C26.7163 29.4963 26.9914 29.4537 27.3052 29.2968C27.7414 29.2622 28.1787 29.2642 28.6162 29.2602C28.7368 29.2568 28.8575 29.2534 28.9817 29.2499C29.7393 29.2436 30.2217 29.2846 30.8208 29.7656C31.4561 30.514 31.3672 31.3939 31.3774 32.3364C31.3871 32.8802 31.3968 33.424 31.4067 33.9843C33.5724 33.9843 35.738 33.9843 37.9692 33.9843C37.9798 31.1963 37.9884 28.4083 37.9935 25.6203C37.9959 24.3258 37.9992 23.0313 38.0046 21.7368C38.0093 20.6087 38.0123 19.4807 38.0133 18.3526C38.014 17.7551 38.0154 17.1577 38.0188 16.5602C38.022 15.998 38.023 15.436 38.0223 14.8739C38.0224 14.6673 38.0233 14.4608 38.0251 14.2542C38.0274 13.9726 38.0269 13.6912 38.0256 13.4095C38.027 13.3275 38.0283 13.2454 38.0297 13.1608C38.0249 12.7662 37.9929 12.5695 37.7479 12.2538C37.4523 12.0346 37.3065 12.0131 36.9417 12.0171C36.7763 12.0171 36.7763 12.0171 36.6076 12.0172C36.4896 12.0196 36.3715 12.022 36.2499 12.0245C36.1283 12.0252 36.0067 12.0258 35.8814 12.0265C35.4933 12.0291 35.1053 12.035 34.7173 12.041C34.4541 12.0433 34.1909 12.0455 33.9276 12.0474C33.2826 12.0525 32.6377 12.0604 31.9927 12.0703C31.9883 12.1758 31.9883 12.1758 31.9838 12.2836C31.9702 12.6007 31.9558 12.9177 31.9414 13.2348C31.9368 13.3456 31.9322 13.4564 31.9274 13.5706C31.9225 13.676 31.9176 13.7813 31.9126 13.8899C31.9061 14.0362 31.9061 14.0362 31.8995 14.1856C31.8755 14.414 31.8755 14.414 31.7583 14.5312C31.5168 14.5428 31.2749 14.546 31.0332 14.5461C30.9183 14.5464 30.9183 14.5464 30.8011 14.5466C30.5426 14.5471 30.2841 14.5467 30.0257 14.5464C29.8411 14.5465 29.6566 14.5467 29.472 14.547C28.9694 14.5475 28.4667 14.5473 27.9641 14.5469C27.4393 14.5467 26.9144 14.5469 26.3896 14.5471C25.5081 14.5473 24.6266 14.547 23.745 14.5465C22.7244 14.5458 21.7037 14.5461 20.683 14.5467C19.8083 14.5472 18.9336 14.5473 18.0589 14.547C17.5358 14.5468 17.0127 14.5468 16.4895 14.5472C15.9978 14.5475 15.5061 14.5473 15.0144 14.5466C14.8335 14.5464 14.6525 14.5465 14.4715 14.5468C14.2255 14.5471 13.9794 14.5467 13.7334 14.5461C13.5264 14.546 13.5264 14.546 13.3152 14.546C13.0083 14.5312 13.0083 14.5312 12.8911 14.414C12.8728 14.2398 12.8617 14.0649 12.854 13.8899C12.8491 13.7845 12.8442 13.6791 12.8392 13.5706C12.8345 13.4598 12.8299 13.349 12.8252 13.2348C12.8201 13.1236 12.8151 13.0123 12.8099 12.8977C12.7974 12.6219 12.7854 12.3461 12.7739 12.0703C11.9814 12.0584 11.189 12.0502 10.3964 12.0445C10.1268 12.0422 9.85716 12.039 9.58755 12.0349C9.20007 12.0292 8.81268 12.0266 8.42517 12.0245C8.24424 12.0209 8.24424 12.0209 8.05965 12.0172C7.89078 12.0171 7.89078 12.0171 7.7185 12.0171C7.57017 12.0155 7.57017 12.0155 7.41884 12.0139C7.02681 12.0958 6.9057 12.2065 6.68017 12.539C6.61107 12.9003 6.61532 13.2562 6.61806 13.6231C6.61704 13.7327 6.61602 13.8423 6.61496 13.9552C6.6121 14.3174 6.6125 14.6795 6.61288 15.0416C6.61143 15.2929 6.60975 15.5442 6.60785 15.7954C6.60339 16.4568 6.60162 17.1181 6.6005 17.7794C6.59818 18.8393 6.59154 19.8992 6.58541 20.9591C6.5836 21.3302 6.58276 21.7014 6.58211 22.0725C6.58129 22.2985 6.58045 22.5245 6.57961 22.7504C6.5797 22.9065 6.5797 22.9065 6.5798 23.0657C6.57626 23.7758 6.57626 23.7758 6.4458 23.9062C6.2334 23.9218 6.2334 23.9218 5.97705 23.9209C5.89246 23.9212 5.80786 23.9215 5.7207 23.9218C5.5083 23.9062 5.5083 23.9062 5.39111 23.789C5.37744 23.4217 5.37142 23.057 5.37037 22.6896C5.3696 22.5741 5.36883 22.4587 5.36804 22.3397C5.36572 21.9556 5.36436 21.5716 5.36319 21.1875C5.36271 21.0567 5.36223 20.9258 5.36174 20.7909C5.35929 20.0979 5.35762 19.4049 5.35652 18.7119C5.35523 17.9956 5.3512 17.2793 5.34654 16.5631C5.34348 16.0128 5.3425 15.4626 5.34208 14.9124C5.3415 14.6484 5.34014 14.3843 5.33797 14.1203C5.33512 13.7506 5.33522 13.3809 5.33604 13.0111C5.33454 12.9021 5.33304 12.793 5.33149 12.6806C5.33671 12.0305 5.40966 11.6377 5.85986 11.1328C6.27388 10.8146 6.57592 10.7366 7.09322 10.7305C7.21987 10.7282 7.34652 10.7259 7.47701 10.7235C7.6124 10.7228 7.7478 10.722 7.8873 10.7212C8.09674 10.7181 8.09674 10.7181 8.31042 10.7149C8.75577 10.7085 9.20111 10.7046 9.64648 10.7006C9.94869 10.6968 10.2509 10.6927 10.5531 10.6885C11.2934 10.6786 12.0336 10.6705 12.7739 10.664C12.781 10.5131 12.7881 10.3622 12.7954 10.2067C12.8053 10.01 12.8152 9.81334 12.8252 9.61666C12.8298 9.51703 12.8344 9.41741 12.8392 9.31476C12.8441 9.21997 12.849 9.12518 12.854 9.02751C12.8583 8.93976 12.8626 8.852 12.8671 8.76158C12.8911 8.55464 12.8911 8.55464 13.0083 8.43746C13.3461 8.41868 13.6814 8.40704 14.0195 8.40038C14.1714 8.39673 14.1714 8.39673 14.3264 8.393C14.6512 8.38531 14.976 8.37842 15.3008 8.37154C15.5204 8.36648 15.7401 8.36137 15.9597 8.3562C16.4993 8.34363 17.039 8.33177 17.5786 8.32027C17.5786 8.04957 17.5786 7.77886 17.5786 7.49996C15.853 7.49173 14.1273 7.48554 12.4016 7.48174C11.6003 7.47993 10.799 7.47747 9.9977 7.47344C9.22419 7.46955 8.4507 7.46751 7.67718 7.4666C7.38227 7.46595 7.08736 7.46469 6.79246 7.46279C6.37896 7.46023 5.96552 7.45988 5.55202 7.46005C5.43047 7.45878 5.30892 7.45752 5.18368 7.45622C4.3374 7.45981 3.57592 7.50453 2.99609 8.18843ZM19.3364 30.9375C19.2279 31.2629 19.2041 31.4585 19.2028 31.7945C19.2021 31.8977 19.2014 32.0008 19.2008 32.1071C19.2006 32.22 19.2005 32.3329 19.2004 32.4492C19.1998 32.5683 19.1992 32.6874 19.1986 32.8101C19.1969 33.2049 19.1961 33.5996 19.1954 33.9944C19.1948 34.2684 19.1941 34.5423 19.1934 34.8163C19.1922 35.391 19.1915 35.9658 19.1911 36.5405C19.1904 37.2773 19.1876 38.014 19.1843 38.7508C19.1821 39.3168 19.1815 39.8828 19.1813 40.4488C19.181 40.7204 19.18 40.9921 19.1785 41.2637C19.1765 41.6436 19.1767 42.0234 19.1775 42.4032C19.1764 42.5156 19.1753 42.628 19.1742 42.7438C19.1778 43.3112 19.1821 43.7297 19.5708 44.1796C20.1913 44.3865 20.8493 44.4018 21.4531 44.143C21.7109 43.9523 21.7109 43.9523 21.7974 43.5937C21.8084 43.4255 21.8132 43.2568 21.8138 43.0882C21.8145 42.9851 21.8152 42.8819 21.8158 42.7756C21.816 42.6063 21.816 42.6063 21.8162 42.4336C21.8168 42.3144 21.8174 42.1953 21.818 42.0726C21.8197 41.6778 21.8205 41.2831 21.8212 40.8883C21.8218 40.6144 21.8225 40.3404 21.8232 40.0664C21.8244 39.4917 21.8251 38.917 21.8255 38.3422C21.8262 37.6055 21.829 36.8687 21.8323 36.1319C21.8345 35.5659 21.8351 34.9999 21.8353 34.4339C21.8356 34.1623 21.8366 33.8906 21.8381 33.619C21.8401 33.2391 21.8399 32.8594 21.8391 32.4795C21.8402 32.3671 21.8413 32.2547 21.8424 32.1389C21.8388 31.5716 21.8345 31.1531 21.4458 30.7031C20.7453 30.4696 19.9181 30.4309 19.3364 30.9375ZM23.438 30.9375C23.3295 31.2629 23.3056 31.4585 23.3043 31.7945C23.3037 31.8977 23.303 32.0008 23.3023 32.1071C23.3022 32.22 23.3021 32.3329 23.3019 32.4492C23.3013 32.5683 23.3008 32.6874 23.3002 32.8101C23.2984 33.2049 23.2976 33.5996 23.297 33.9944C23.2963 34.2684 23.2956 34.5423 23.295 34.8163C23.2937 35.391 23.2931 35.9658 23.2926 36.5405C23.292 37.2773 23.2892 38.014 23.2859 38.7508C23.2837 39.3168 23.2831 39.8828 23.2829 40.4488C23.2825 40.7204 23.2816 40.9921 23.28 41.2637C23.2781 41.6436 23.2783 42.0234 23.279 42.4032C23.2779 42.5156 23.2769 42.628 23.2758 42.7438C23.2793 43.3112 23.2836 43.7297 23.6724 44.1796C24.2929 44.3865 24.9509 44.4018 25.5547 44.143C25.8124 43.9523 25.8124 43.9523 25.8989 43.5937C25.91 43.4255 25.9147 43.2568 25.9154 43.0882C25.9161 42.9851 25.9167 42.8819 25.9174 42.7756C25.9176 42.6063 25.9176 42.6063 25.9178 42.4336C25.9184 42.3144 25.919 42.1953 25.9196 42.0726C25.9213 41.6778 25.9221 41.2831 25.9227 40.8883C25.9234 40.6144 25.9241 40.3404 25.9248 40.0664C25.926 39.4917 25.9267 38.917 25.9271 38.3422C25.9277 37.6055 25.9305 36.8687 25.9339 36.1319C25.9361 35.5659 25.9367 34.9999 25.9368 34.4339C25.9372 34.1623 25.9381 33.8906 25.9397 33.619C25.9417 33.2391 25.9415 32.8594 25.9407 32.4795C25.9418 32.3671 25.9429 32.2547 25.944 32.1389C25.9404 31.5716 25.9361 31.1531 25.5474 30.7031C24.8468 30.4696 24.0196 30.4309 23.438 30.9375ZM27.4224 30.9375C27.3139 31.2629 27.29 31.4585 27.2887 31.7945C27.288 31.8977 27.2874 32.0008 27.2867 32.1071C27.2866 32.22 27.2864 32.3329 27.2863 32.4492C27.2857 32.5683 27.2851 32.6874 27.2845 32.8101C27.2828 33.2049 27.282 33.5996 27.2814 33.9944C27.2807 34.2684 27.28 34.5423 27.2793 34.8163C27.2781 35.391 27.2774 35.9658 27.277 36.5405C27.2764 37.2773 27.2736 38.014 27.2702 38.7508C27.268 39.3168 27.2674 39.8828 27.2673 40.4488C27.2669 40.7204 27.266 40.9921 27.2644 41.2637C27.2624 41.6436 27.2626 42.0234 27.2634 42.4032C27.2623 42.5156 27.2612 42.628 27.2601 42.7438C27.2637 43.3112 27.268 43.7297 27.6567 44.1796C28.2772 44.3865 28.9353 44.4018 29.5391 44.143C29.7968 43.9523 29.7968 43.9523 29.8833 43.5937C29.8944 43.4255 29.8991 43.2568 29.8998 43.0882C29.9004 42.9851 29.9011 42.8819 29.9018 42.7756C29.902 42.6063 29.902 42.6063 29.9022 42.4336C29.9028 42.3144 29.9033 42.1953 29.9039 42.0726C29.9057 41.6778 29.9065 41.2831 29.9071 40.8883C29.9078 40.6144 29.9085 40.3404 29.9091 40.0664C29.9104 39.4917 29.911 38.917 29.9115 38.3422C29.9121 37.6055 29.9149 36.8687 29.9182 36.1319C29.9204 35.5659 29.921 34.9999 29.9212 34.4339C29.9216 34.1623 29.9225 33.8906 29.9241 33.619C29.926 33.2391 29.9258 32.8594 29.9251 32.4795C29.9262 32.3671 29.9272 32.2547 29.9283 32.1389C29.9248 31.5716 29.9205 31.1531 29.5317 30.7031C28.8312 30.4696 28.004 30.4309 27.4224 30.9375ZM46.7583 30.9375C46.6498 31.2629 46.626 31.4585 46.6247 31.7945C46.624 31.8977 46.6233 32.0008 46.6226 32.1071C46.6225 32.22 46.6224 32.3329 46.6222 32.4492C46.6216 32.5683 46.6211 32.6874 46.6205 32.8101C46.6188 33.2049 46.618 33.5996 46.6173 33.9944C46.6166 34.2684 46.616 34.5423 46.6153 34.8163C46.6141 35.391 46.6134 35.9658 46.613 36.5405C46.6123 37.2773 46.6095 38.014 46.6062 38.7508C46.604 39.3168 46.6034 39.8828 46.6032 40.4488C46.6028 40.7204 46.6019 40.9921 46.6004 41.2637C46.5984 41.6436 46.5986 42.0234 46.5993 42.4032C46.5983 42.5156 46.5972 42.628 46.5961 42.7438C46.5996 43.3112 46.6039 43.7297 46.9927 44.1796C47.6132 44.3865 48.2712 44.4018 48.875 44.143C49.1328 43.9523 49.1328 43.9523 49.2192 43.5937C49.2303 43.4255 49.235 43.2568 49.2357 43.0882C49.2364 42.9851 49.237 42.8819 49.2377 42.7756C49.2379 42.6063 49.2379 42.6063 49.2381 42.4336C49.2387 42.3144 49.2393 42.1953 49.2399 42.0726C49.2416 41.6778 49.2424 41.2831 49.243 40.8883C49.2437 40.6144 49.2444 40.3404 49.2451 40.0664C49.2463 39.4917 49.247 38.917 49.2474 38.3422C49.248 37.6055 49.2508 36.8687 49.2542 36.1319C49.2564 35.5659 49.257 34.9999 49.2572 34.4339C49.2575 34.1623 49.2585 33.8906 49.26 33.619C49.262 33.2391 49.2618 32.8594 49.261 32.4795C49.2621 32.3671 49.2632 32.2547 49.2643 32.1389C49.2607 31.5716 49.2564 31.1531 48.8677 30.7031C48.1671 30.4696 47.34 30.4309 46.7583 30.9375ZM50.7427 30.9375C50.6342 31.2629 50.6103 31.4585 50.609 31.7945C50.6084 31.8977 50.6077 32.0008 50.607 32.1071C50.6069 32.22 50.6067 32.3329 50.6066 32.4492C50.606 32.5683 50.6054 32.6874 50.6048 32.8101C50.6031 33.2049 50.6023 33.5996 50.6017 33.9944C50.601 34.2684 50.6003 34.5423 50.5997 34.8163C50.5984 35.391 50.5977 35.9658 50.5973 36.5405C50.5967 37.2773 50.5939 38.014 50.5905 38.7508C50.5884 39.3168 50.5877 39.8828 50.5876 40.4488C50.5872 40.7204 50.5863 40.9921 50.5847 41.2637C50.5827 41.6436 50.583 42.0234 50.5837 42.4032C50.5826 42.5156 50.5816 42.628 50.5804 42.7438C50.584 43.3112 50.5883 43.7297 50.9771 44.1796C51.5975 44.3865 52.2556 44.4018 52.8594 44.143C53.1171 43.9523 53.1171 43.9523 53.2036 43.5937C53.2147 43.4255 53.2194 43.2568 53.2201 43.0882C53.2207 42.9851 53.2214 42.8819 53.2221 42.7756C53.2223 42.6063 53.2223 42.6063 53.2225 42.4336C53.2231 42.3144 53.2237 42.1953 53.2243 42.0726C53.226 41.6778 53.2268 41.2831 53.2274 40.8883C53.2281 40.6144 53.2288 40.3404 53.2294 40.0664C53.2307 39.4917 53.2314 38.917 53.2318 38.3422C53.2324 37.6055 53.2352 36.8687 53.2386 36.1319C53.2407 35.5659 53.2413 34.9999 53.2415 34.4339C53.2419 34.1623 53.2428 33.8906 53.2444 33.619C53.2464 33.2391 53.2461 32.8594 53.2454 32.4795C53.2465 32.3671 53.2475 32.2547 53.2487 32.1389C53.2451 31.5716 53.2408 31.1531 52.8521 30.7031C52.1515 30.4696 51.3243 30.4309 50.7427 30.9375ZM54.8442 30.9375C54.7358 31.2629 54.7119 31.4585 54.7106 31.7945C54.7099 31.8977 54.7093 32.0008 54.7086 32.1071C54.7084 32.22 54.7083 32.3329 54.7082 32.4492C54.7076 32.5683 54.707 32.6874 54.7064 32.8101C54.7047 33.2049 54.7039 33.5996 54.7032 33.9944C54.7026 34.2684 54.7019 34.5423 54.7012 34.8163C54.7 35.391 54.6993 35.9658 54.6989 36.5405C54.6983 37.2773 54.6954 38.014 54.6921 38.7508C54.6899 39.3168 54.6893 39.8828 54.6891 40.4488C54.6888 40.7204 54.6878 40.9921 54.6863 41.2637C54.6843 41.6436 54.6845 42.0234 54.6853 42.4032C54.6842 42.5156 54.6831 42.628 54.682 42.7438C54.6856 43.3112 54.6899 43.7297 55.0786 44.1796C55.6991 44.3865 56.3572 44.4018 56.9609 44.143C57.2187 43.9523 57.2187 43.9523 57.3052 43.5937C57.3163 43.4255 57.321 43.2568 57.3216 43.0882C57.3223 42.9851 57.323 42.8819 57.3237 42.7756C57.3239 42.6063 57.3239 42.6063 57.3241 42.4336C57.3246 42.3144 57.3252 42.1953 57.3258 42.0726C57.3275 41.6778 57.3283 41.2831 57.329 40.8883C57.3297 40.6144 57.3303 40.3404 57.331 40.0664C57.3322 39.4917 57.3329 38.917 57.3333 38.3422C57.334 37.6055 57.3368 36.8687 57.3401 36.1319C57.3423 35.5659 57.3429 34.9999 57.3431 34.4339C57.3434 34.1623 57.3444 33.8906 57.3459 33.619C57.3479 33.2391 57.3477 32.8594 57.3469 32.4795C57.348 32.3671 57.3491 32.2547 57.3502 32.1389C57.3467 31.5716 57.3423 31.1531 56.9536 30.7031C56.2531 30.4696 55.4259 30.4309 54.8442 30.9375ZM31.4067 35.3906C31.4067 36.7441 31.4067 38.0976 31.4067 39.4921C35.97 39.4921 40.5333 39.4921 45.2349 39.4921C45.2349 38.1386 45.2349 36.7851 45.2349 35.3906C40.6716 35.3906 36.1083 35.3906 31.4067 35.3906ZM32.813 47.2265C32.813 48.58 32.813 49.9335 32.813 51.3281C33.4367 50.8002 33.4367 50.8002 34.0276 50.2458C34.0933 50.1805 34.1589 50.1153 34.2265 50.048C34.2941 49.9802 34.3616 49.9125 34.4312 49.8426C34.5029 49.7711 34.5745 49.6995 34.6484 49.6258C34.7981 49.4762 34.9477 49.3264 35.0971 49.1764C35.327 48.9459 35.5576 48.7159 35.7882 48.4861C35.9341 48.3401 36.0799 48.1942 36.2256 48.0482C36.2948 47.9792 36.364 47.9103 36.4353 47.8392C36.7627 47.5757 36.7627 47.5757 36.9146 47.2265C35.561 47.2265 34.2075 47.2265 32.813 47.2265Z" fill="white"/>
<path d="M15.9861 23.6273C16.0628 23.6267 16.1394 23.6262 16.2183 23.6256C16.4756 23.6242 16.7327 23.6253 16.9899 23.6264C17.1741 23.6259 17.3584 23.6253 17.5426 23.6246C18.0433 23.6229 18.5439 23.6236 19.0447 23.6247C19.5681 23.6256 20.0916 23.6248 20.6151 23.6242C21.4942 23.6236 22.3733 23.6244 23.2525 23.6261C24.2696 23.628 25.2866 23.6274 26.3037 23.6254C27.1762 23.6238 28.0487 23.6236 28.9213 23.6245C29.4427 23.6251 29.9641 23.6252 30.4856 23.624C30.9757 23.623 31.4659 23.6237 31.9561 23.6257C32.1362 23.6262 32.3163 23.626 32.4964 23.6253C32.7419 23.6243 32.9872 23.6255 33.2327 23.6273C33.3702 23.6274 33.5077 23.6275 33.6493 23.6277C33.9844 23.6719 33.9844 23.6719 34.2044 23.8285C34.4103 24.1336 34.3806 24.3693 34.336 24.7266C34.2044 24.9216 34.2044 24.9216 33.9844 25.0782C33.6493 25.1224 33.6493 25.1224 33.2327 25.1228C33.1561 25.1234 33.0794 25.1239 33.0005 25.1245C32.7433 25.1259 32.4861 25.1248 32.2289 25.1237C32.0447 25.1241 31.8605 25.1248 31.6763 25.1255C31.1756 25.1271 30.6749 25.1265 30.1742 25.1254C29.6507 25.1245 29.1272 25.1253 28.6038 25.1259C27.7246 25.1265 26.8455 25.1257 25.9663 25.124C24.9493 25.1221 23.9322 25.1227 22.9151 25.1246C22.0426 25.1262 21.1701 25.1265 20.2976 25.1255C19.7761 25.125 19.2547 25.1249 18.7333 25.1261C18.2431 25.1271 17.7529 25.1264 17.2628 25.1244C17.0826 25.1239 16.9025 25.124 16.7224 25.1248C16.4769 25.1258 16.2316 25.1246 15.9861 25.1228C15.8487 25.1227 15.7112 25.1225 15.5695 25.1224C15.2344 25.0782 15.2344 25.0782 15.0144 24.9216C14.8086 24.6165 14.8382 24.3808 14.8828 24.0235C15.1738 23.5922 15.4931 23.6277 15.9861 23.6273Z" fill="white"/>
<path d="M9.3757 32.8125C9.6833 33.1201 9.63975 33.2532 9.64063 33.6822C9.64146 33.8171 9.64229 33.952 9.64314 34.091C9.64285 34.2397 9.64256 34.3885 9.64227 34.5417C9.64277 34.6993 9.64338 34.857 9.64408 35.0146C9.64565 35.4434 9.64572 35.8722 9.64542 36.301C9.6453 36.6586 9.64587 37.0163 9.64643 37.3739C9.64773 38.2174 9.64778 39.061 9.64707 39.9046C9.64636 40.7755 9.64781 41.6465 9.6503 42.5174C9.65236 43.2646 9.65307 44.0117 9.65269 44.7588C9.65248 45.2053 9.65279 45.6518 9.65441 46.0983C9.65588 46.5182 9.65566 46.938 9.65413 47.3579C9.65372 47.5858 9.65505 47.8137 9.65642 48.0416C9.6556 48.1768 9.65478 48.3121 9.65393 48.4514C9.65395 48.5691 9.65397 48.6869 9.65399 48.8082C9.61008 49.1016 9.61008 49.1016 9.45353 49.3153C9.14995 49.5299 8.91593 49.4982 8.55539 49.4531C8.36048 49.3152 8.36048 49.3152 8.20383 49.1016C8.15926 48.8086 8.15926 48.8086 8.1584 48.4522C8.15724 48.3171 8.15608 48.182 8.15488 48.0429C8.15541 47.8946 8.15594 47.7463 8.15648 47.5935C8.15581 47.4358 8.15499 47.2782 8.15404 47.1205C8.15194 46.6922 8.15208 46.2639 8.15275 45.8356C8.15311 45.4783 8.15239 45.1209 8.15169 44.7636C8.15004 43.9207 8.15022 43.0779 8.15156 42.2351C8.1529 41.365 8.15125 40.4949 8.14811 39.6248C8.14552 38.8782 8.14474 38.1315 8.14543 37.3849C8.14582 36.9388 8.14553 36.4927 8.14352 36.0466C8.14171 35.6272 8.14217 35.2079 8.14438 34.7885C8.14502 34.5608 8.14334 34.3332 8.1416 34.1056C8.14275 33.9705 8.14391 33.8355 8.14509 33.6963C8.14512 33.5787 8.14514 33.4611 8.14517 33.3399C8.20383 33.0469 8.20383 33.0469 8.41899 32.8291C8.77683 32.6403 8.99401 32.7046 9.3757 32.8125Z" fill="white"/>
<path d="M10.6634 19.9219C11.0189 19.8865 11.3506 19.8739 11.7064 19.8764C11.8685 19.8754 11.8685 19.8754 12.0339 19.8745C12.3924 19.8729 12.7508 19.874 13.1093 19.8752C13.3577 19.8749 13.6061 19.8746 13.8545 19.8741C14.3758 19.8736 14.897 19.8744 15.4183 19.876C16.0872 19.878 16.756 19.8769 17.4249 19.8748C17.9381 19.8735 18.4513 19.8739 18.9645 19.8748C19.2112 19.875 19.4578 19.8748 19.7045 19.8739C20.0491 19.873 20.3935 19.8744 20.7381 19.8764C20.8918 19.8753 20.8918 19.8753 21.0486 19.8742C21.7443 19.8816 21.7443 19.8816 21.9983 20.0785C22.229 20.3792 22.1937 20.6098 22.1478 20.9765C21.9983 21.1715 21.9983 21.1715 21.7963 21.3281C21.4357 21.3628 21.0988 21.3761 20.7381 21.3736C20.5757 21.3745 20.5757 21.3745 20.41 21.3755C20.0516 21.377 19.6933 21.376 19.3349 21.3748C19.0863 21.375 18.8378 21.3754 18.5893 21.3758C18.0682 21.3763 17.5472 21.3756 17.0262 21.3739C16.3571 21.3719 15.6881 21.3731 15.0191 21.3752C14.5059 21.3765 13.9927 21.3761 13.4795 21.3751C13.2327 21.3749 12.986 21.3752 12.7392 21.376C12.3949 21.3769 12.0507 21.3756 11.7064 21.3736C11.5524 21.3747 11.5524 21.3747 11.3952 21.3757C11.1119 21.3727 11.1119 21.3727 10.6634 21.3281C10.3924 20.9215 10.3893 20.7509 10.4291 20.2734C10.5064 20.1574 10.5838 20.0414 10.6634 19.9219Z" fill="white"/>
<path d="M25.0536 19.8862C25.1924 19.8864 25.1924 19.8864 25.334 19.8866C25.4291 19.8861 25.5242 19.8856 25.6221 19.885C25.8234 19.8844 26.0247 19.8843 26.2259 19.8848C26.5341 19.8852 26.8421 19.8824 27.1502 19.8795C27.3456 19.8792 27.541 19.8791 27.7364 19.8792C27.8287 19.8782 27.921 19.8771 28.0161 19.876C28.6505 19.8814 28.6505 19.8814 28.9449 20.0783C29.1309 20.3868 29.1064 20.6256 29.0625 20.9765C28.9447 21.1711 28.9447 21.1711 28.711 21.3281C28.3788 21.3644 28.0728 21.3801 27.7405 21.3789C27.6456 21.3795 27.5507 21.3801 27.4529 21.3807C27.2523 21.3815 27.0518 21.3813 26.8512 21.3803C26.5441 21.3793 26.2372 21.3827 25.93 21.3864C25.7352 21.3866 25.5403 21.3866 25.3455 21.3862C25.2536 21.3875 25.1616 21.3888 25.0669 21.3902C24.4347 21.3821 24.4347 21.3821 24.1372 21.1129C23.9766 20.7548 24.0356 20.5279 24.1407 20.1562C24.4413 19.8555 24.6436 19.8916 25.0536 19.8862Z" fill="#34B7FE"/>
<path d="M32.402 19.8841C32.5158 19.8845 32.6297 19.8849 32.7469 19.8853C32.8603 19.8834 32.9737 19.8815 33.0905 19.8795C33.1993 19.8795 33.3082 19.8794 33.4203 19.8793C33.5201 19.879 33.6199 19.8786 33.7226 19.8783C34.0427 19.9315 34.1459 20.0142 34.3363 20.2734C34.4114 20.8743 34.4114 20.8743 34.1931 21.1717C33.9212 21.3758 33.7581 21.3719 33.4203 21.3707C33.3115 21.3706 33.2026 21.3706 33.0905 21.3705C32.9771 21.3686 32.8638 21.3667 32.7469 21.3648C32.6331 21.3651 32.5193 21.3655 32.402 21.3659C31.5551 21.3594 31.5551 21.3594 31.2894 21.0938C31.2583 20.874 31.2583 20.874 31.2601 20.625C31.2595 20.5428 31.2589 20.4607 31.2583 20.376C31.3456 19.76 31.9206 19.8878 32.402 19.8841Z" fill="#34B7FE"/>
<path d="M10.6634 23.6719C11.0038 23.6331 11.3121 23.6175 11.6522 23.6206C11.7887 23.6171 11.7887 23.6171 11.928 23.6135C12.5911 23.6141 12.5911 23.6141 12.8955 23.8866C13.0531 24.245 12.9948 24.4728 12.89 24.8438C12.583 25.1507 12.357 25.112 11.9383 25.1159C11.8463 25.1155 11.7543 25.1152 11.6595 25.1148C11.5675 25.1167 11.4755 25.1185 11.3808 25.1205C11.1139 25.1207 11.1139 25.1207 10.6634 25.0781C10.3924 24.6715 10.3893 24.501 10.4291 24.0235C10.5064 23.9074 10.5838 23.7914 10.6634 23.6719Z" fill="#34B7FE"/>
<path d="M9.25781 30C9.45236 30.1346 9.45236 30.1346 9.60938 30.3516C9.66019 30.6811 9.66019 30.6811 9.66064 31.0547C9.66291 31.178 9.66518 31.3012 9.66751 31.4282C9.60938 31.7578 9.60938 31.7578 9.39468 31.9789C9.03643 32.1629 8.8177 32.0996 8.4375 31.9922C8.12215 31.6768 8.1681 31.5011 8.1665 31.062C8.16454 30.9377 8.16258 30.8134 8.16055 30.6853C8.20312 30.3516 8.20312 30.3516 8.35922 30.1341C8.66407 29.9249 8.89895 29.9551 9.25781 30Z" fill="#34B7FE"/>
</svg>
