<svg width="20" height="21" viewBox="0 0 20 21" fill="none" xmlns="http://www.w3.org/2000/svg">
<path d="M10 20.5C8.02219 20.5 6.08879 19.9135 4.4443 18.8147C2.79981 17.7159 1.51809 16.1541 0.761209 14.3268C0.00433286 12.4996 -0.193701 10.4889 0.192152 8.5491C0.578004 6.60929 1.53041 4.82746 2.92894 3.42894C4.32746 2.03041 6.10929 1.078 8.0491 0.692152C9.98891 0.306299 11.9996 0.504333 13.8268 1.26121C15.6541 2.01809 17.2159 3.29981 18.3147 4.9443C19.4135 6.58879 20 8.52219 20 10.5C19.9971 13.1513 18.9426 15.6932 17.0679 17.5679C15.1932 19.4426 12.6513 20.4971 10 20.5V20.5ZM10 2.16667C8.35183 2.16667 6.74066 2.65541 5.37025 3.57109C3.99984 4.48677 2.93174 5.78826 2.30101 7.31098C1.67028 8.83369 1.50525 10.5092 1.82679 12.1258C2.14834 13.7423 2.94201 15.2271 4.10745 16.3926C5.27289 17.558 6.75774 18.3517 8.37425 18.6732C9.99076 18.9948 11.6663 18.8297 13.189 18.199C14.7118 17.5683 16.0132 16.5002 16.9289 15.1298C17.8446 13.7593 18.3333 12.1482 18.3333 10.5C18.3309 8.29061 17.4522 6.17241 15.8899 4.61013C14.3276 3.04785 12.2094 2.1691 10 2.16667V2.16667Z" fill="#34B7FE"/>
<path d="M6.62245 13.4983L5.73828 12.085L9.16661 9.9375V5.5H10.8333V10.8608L6.62245 13.4983Z" fill="#34B7FE"/>
</svg>
