<svg width="28" height="28" viewBox="0 0 28 28" fill="none" xmlns="http://www.w3.org/2000/svg">
<path d="M8.63354 14.0993C8.69903 14.0986 8.76452 14.098 8.83199 14.0973C8.89495 14.0972 8.9579 14.0971 9.02276 14.097C9.08049 14.0967 9.13821 14.0965 9.19769 14.0963C9.35234 14.1097 9.43577 14.1464 9.57006 14.2189C9.71525 14.2017 9.82228 14.1749 9.95287 14.1096C10.185 14.0947 10.4176 14.0969 10.6501 14.0959C10.7147 14.0948 10.7793 14.0936 10.8458 14.0925C11.1885 14.0909 11.3964 14.1136 11.7029 14.2736C11.7441 14.2485 11.7853 14.2234 11.8277 14.1975C12.0911 14.0416 12.3848 14.0838 12.6838 14.0856C12.7477 14.0845 12.8115 14.0834 12.8773 14.0823C13.23 14.0825 13.4614 14.0852 13.7263 14.3283C14.2652 14.9401 13.9997 15.0671 13.9997 16.2424C16.2195 16.2424 18.4393 16.2424 20.7263 16.2424C20.7263 15.7371 20.7263 15.2317 20.7263 14.7111C20.9103 14.4351 21.0358 14.2556 21.3279 14.1096C21.5623 14.0962 21.7972 14.0994 22.032 14.0993C22.0975 14.0986 22.163 14.098 22.2304 14.0973C22.3249 14.0971 22.3249 14.0971 22.4212 14.097C22.4789 14.0967 22.5366 14.0965 22.5961 14.0963C22.7508 14.1097 22.8342 14.1464 22.9685 14.2189C23.1137 14.2017 23.2207 14.1749 23.3513 14.1096C23.5857 14.0962 23.8206 14.0994 24.0554 14.0993C24.1209 14.0986 24.1864 14.098 24.2539 14.0973C24.3483 14.0971 24.3483 14.0971 24.4446 14.097C24.5024 14.0967 24.5601 14.0965 24.6196 14.0963C24.7742 14.1097 24.8576 14.1464 24.9919 14.2189C25.1371 14.2017 25.2442 14.1749 25.3747 14.1096C25.6068 14.0932 25.8394 14.0944 26.072 14.0925C26.1366 14.0909 26.2012 14.0893 26.2677 14.0877C26.8601 14.0833 26.8601 14.0833 27.1247 14.3283C27.3201 14.55 27.4048 14.6758 27.4062 14.9691C27.4068 15.0508 27.4068 15.0508 27.4074 15.1341C27.4076 15.194 27.4077 15.254 27.4079 15.3157C27.4082 15.3787 27.4086 15.4417 27.409 15.5065C27.41 15.7156 27.4107 15.9247 27.4112 16.1339C27.4114 16.2051 27.4117 16.2764 27.4119 16.3499C27.4129 16.6882 27.4137 17.0266 27.4142 17.365C27.4147 17.7554 27.4161 18.1458 27.4184 18.5362C27.42 18.838 27.4208 19.1398 27.421 19.4417C27.4211 19.6219 27.4217 19.8021 27.423 19.9824C27.4243 20.1836 27.4243 20.3848 27.4239 20.586C27.4249 20.6753 27.4249 20.6753 27.426 20.7663C27.4237 21.0994 27.4026 21.294 27.1794 21.5471C26.8211 21.8627 26.5569 21.8305 26.0925 21.8308C25.9943 21.8318 25.9943 21.8318 25.8941 21.8328C25.7996 21.8329 25.7996 21.8329 25.7033 21.8331C25.6456 21.8333 25.5878 21.8336 25.5284 21.8338C25.3737 21.8204 25.2903 21.7837 25.156 21.7111C25.0108 21.7284 24.9038 21.7552 24.7732 21.8205C24.5388 21.8339 24.3039 21.8306 24.0691 21.8308C23.9708 21.8318 23.9708 21.8318 23.8706 21.8328C23.7762 21.8329 23.7762 21.8329 23.6799 21.8331C23.6221 21.8333 23.5644 21.8336 23.5049 21.8338C23.3503 21.8204 23.2669 21.7837 23.1326 21.7111C22.9874 21.7284 22.8803 21.7552 22.7497 21.8205C22.5177 21.8368 22.2851 21.8357 22.0525 21.8376C21.9879 21.8392 21.9233 21.8408 21.8568 21.8424C21.2644 21.8467 21.2644 21.8467 20.9997 21.6017C20.4608 20.99 20.7263 20.8629 20.7263 19.6877C18.5065 19.6877 16.2868 19.6877 13.9997 19.6877C13.9997 20.193 13.9997 20.6983 13.9997 21.2189C13.8157 21.495 13.6903 21.6745 13.3982 21.8205C13.1661 21.8353 12.9335 21.8332 12.7009 21.8342C12.6363 21.8353 12.5718 21.8364 12.5052 21.8376C12.1626 21.8391 11.9547 21.8164 11.6482 21.6564C11.6071 21.6816 11.566 21.7068 11.5236 21.7328C11.3485 21.836 11.2464 21.8409 11.0447 21.8404C10.9824 21.8403 10.9201 21.8403 10.856 21.8403C10.7592 21.8389 10.7592 21.8389 10.6604 21.8376C10.5633 21.8379 10.5633 21.8379 10.4642 21.8381C9.96081 21.835 9.96081 21.835 9.73412 21.7111C9.62072 21.7247 9.62072 21.7247 9.51537 21.7658C9.23593 21.859 8.94318 21.8352 8.65063 21.8376C8.5863 21.8392 8.52197 21.8408 8.4557 21.8424C7.86637 21.8467 7.86637 21.8467 7.60131 21.6017C7.40599 21.38 7.32127 21.2543 7.31982 20.9609C7.31943 20.9065 7.31904 20.8521 7.31864 20.796C7.31849 20.736 7.31834 20.6761 7.31819 20.6143C7.31783 20.5514 7.31747 20.4884 7.3171 20.4235C7.31602 20.2144 7.31539 20.0053 7.31484 19.7962C7.31462 19.7249 7.3144 19.6536 7.31417 19.5802C7.31312 19.2418 7.31235 18.9035 7.31189 18.5651C7.31136 18.1747 7.30992 17.7843 7.30771 17.3939C7.30606 17.092 7.30525 16.7902 7.30507 16.4884C7.30494 16.3081 7.30434 16.1279 7.30307 15.9477C7.30174 15.7465 7.30179 15.5453 7.30217 15.344C7.30147 15.2845 7.30077 15.225 7.30005 15.1637C7.30235 14.8306 7.32347 14.6361 7.54662 14.383C7.90495 14.0673 8.16921 14.0996 8.63354 14.0993ZM8.03881 14.9299C7.98819 15.0817 7.97705 15.173 7.97644 15.3298C7.97613 15.378 7.97582 15.4261 7.9755 15.4757C7.97544 15.5284 7.97537 15.5811 7.97531 15.6353C7.97504 15.6909 7.97477 15.7465 7.97449 15.8038C7.97369 15.988 7.97332 16.1722 7.97301 16.3564C7.9727 16.4843 7.97239 16.6122 7.97207 16.74C7.9715 17.0082 7.97118 17.2764 7.97099 17.5446C7.97069 17.8885 7.96937 18.2323 7.96782 18.5761C7.9668 18.8402 7.96651 19.1044 7.96643 19.3685C7.96626 19.4953 7.96582 19.622 7.96511 19.7488C7.96417 19.9261 7.96427 20.1033 7.96463 20.2806C7.96413 20.333 7.96362 20.3855 7.9631 20.4395C7.96477 20.7043 7.96678 20.8996 8.14819 21.1096C8.32884 21.1698 8.47075 21.1753 8.66088 21.1779C8.72221 21.1793 8.78354 21.1807 8.84673 21.1822C9.04201 21.1623 9.14253 21.1201 9.29662 21.0002C9.34725 20.8483 9.35838 20.757 9.35899 20.6002C9.3593 20.5521 9.35962 20.5039 9.35994 20.4543C9.36003 20.3753 9.36003 20.3753 9.36012 20.2947C9.36039 20.2391 9.36067 20.1835 9.36095 20.1263C9.36175 19.942 9.36212 19.7578 9.36242 19.5736C9.36273 19.4458 9.36305 19.3179 9.36336 19.1901C9.36394 18.9219 9.36426 18.6536 9.36445 18.3854C9.36475 18.0416 9.36606 17.6978 9.36762 17.354C9.36864 17.0898 9.36892 16.8257 9.36901 16.5616C9.36917 16.4348 9.36961 16.308 9.37033 16.1813C9.37126 16.004 9.37116 15.8268 9.3708 15.6495C9.37131 15.597 9.37181 15.5446 9.37233 15.4905C9.37067 15.2258 9.36866 15.0305 9.18725 14.8205C9.0066 14.7603 8.86468 14.7547 8.67455 14.7521C8.61322 14.7507 8.55189 14.7493 8.4887 14.7479C8.29342 14.7677 8.19291 14.81 8.03881 14.9299ZM10.0622 14.9299C10.0116 15.0817 10.0005 15.173 9.99988 15.3298C9.99957 15.378 9.99926 15.4261 9.99893 15.4757C9.99887 15.5284 9.99881 15.5811 9.99875 15.6353C9.99848 15.6909 9.99821 15.7465 9.99793 15.8038C9.99713 15.988 9.99675 16.1722 9.99645 16.3564C9.99614 16.4843 9.99582 16.6122 9.99551 16.74C9.99493 17.0082 9.99461 17.2764 9.99442 17.5446C9.99412 17.8885 9.99281 18.2323 9.99125 18.5761C9.99023 18.8402 9.98995 19.1044 9.98987 19.3685C9.9897 19.4953 9.98926 19.622 9.98854 19.7488C9.98761 19.9261 9.98771 20.1033 9.98807 20.2806C9.98756 20.333 9.98706 20.3855 9.98654 20.4395C9.9882 20.7043 9.99021 20.8996 10.1716 21.1096C10.3523 21.1698 10.4942 21.1753 10.6843 21.1779C10.7456 21.1793 10.807 21.1807 10.8702 21.1822C11.0654 21.1623 11.166 21.1201 11.3201 21.0002C11.3707 20.8483 11.3818 20.757 11.3824 20.6002C11.3827 20.5521 11.3831 20.5039 11.3834 20.4543C11.3835 20.3753 11.3835 20.3753 11.3836 20.2947C11.3838 20.2391 11.3841 20.1835 11.3844 20.1263C11.3852 19.942 11.3856 19.7578 11.3859 19.5736C11.3862 19.4458 11.3865 19.3179 11.3868 19.1901C11.3874 18.9219 11.3877 18.6536 11.3879 18.3854C11.3882 18.0416 11.3895 17.6978 11.3911 17.354C11.3921 17.0898 11.3924 16.8257 11.3924 16.5616C11.3926 16.4348 11.393 16.308 11.3938 16.1813C11.3947 16.004 11.3946 15.8268 11.3942 15.6495C11.3947 15.597 11.3952 15.5446 11.3958 15.4905C11.3941 15.2258 11.3921 15.0305 11.2107 14.8205C11.03 14.7603 10.8881 14.7547 10.698 14.7521C10.6367 14.7507 10.5753 14.7493 10.5121 14.7479C10.3169 14.7677 10.2163 14.81 10.0622 14.9299ZM12.0857 14.9299C12.0351 15.0817 12.0239 15.173 12.0233 15.3298C12.023 15.378 12.0227 15.4261 12.0224 15.4757C12.0223 15.5284 12.0222 15.5811 12.0222 15.6353C12.0219 15.6909 12.0216 15.7465 12.0214 15.8038C12.0206 15.988 12.0202 16.1722 12.0199 16.3564C12.0196 16.4843 12.0193 16.6122 12.0189 16.74C12.0184 17.0082 12.0181 17.2764 12.0179 17.5446C12.0176 17.8885 12.0162 18.2323 12.0147 18.5761C12.0137 18.8402 12.0134 19.1044 12.0133 19.3685C12.0131 19.4953 12.0127 19.622 12.012 19.7488C12.011 19.9261 12.0111 20.1033 12.0115 20.2806C12.011 20.333 12.0105 20.3855 12.01 20.4395C12.0116 20.7043 12.0137 20.8996 12.1951 21.1096C12.3757 21.1698 12.5176 21.1753 12.7078 21.1779C12.7691 21.1793 12.8304 21.1807 12.8936 21.1822C13.0889 21.1623 13.1894 21.1201 13.3435 21.0002C13.3941 20.8483 13.4053 20.757 13.4059 20.6002C13.4062 20.5521 13.4065 20.5039 13.4068 20.4543C13.4069 20.3753 13.4069 20.3753 13.407 20.2947C13.4073 20.2391 13.4075 20.1835 13.4078 20.1263C13.4086 19.942 13.409 19.7578 13.4093 19.5736C13.4096 19.4458 13.4099 19.3179 13.4102 19.1901C13.4108 18.9219 13.4111 18.6536 13.4113 18.3854C13.4116 18.0416 13.4129 17.6978 13.4145 17.354C13.4155 17.0898 13.4158 16.8257 13.4159 16.5616C13.416 16.4348 13.4165 16.308 13.4172 16.1813C13.4181 16.004 13.418 15.8268 13.4177 15.6495C13.4182 15.597 13.4187 15.5446 13.4192 15.4905C13.4175 15.2258 13.4155 15.0305 13.2341 14.8205C13.0535 14.7603 12.9116 14.7547 12.7214 14.7521C12.6601 14.7507 12.5988 14.7493 12.5356 14.7479C12.3403 14.7677 12.2398 14.81 12.0857 14.9299ZM21.4372 14.9299C21.3866 15.0817 21.3755 15.173 21.3749 15.3298C21.3746 15.378 21.3743 15.4261 21.3739 15.4757C21.3739 15.5284 21.3738 15.5811 21.3737 15.6353C21.3735 15.6909 21.3732 15.7465 21.3729 15.8038C21.3721 15.988 21.3718 16.1722 21.3715 16.3564C21.3711 16.4843 21.3708 16.6122 21.3705 16.74C21.3699 17.0082 21.3696 17.2764 21.3694 17.5446C21.3691 17.8885 21.3678 18.2323 21.3663 18.5761C21.3652 18.8402 21.365 19.1044 21.3649 19.3685C21.3647 19.4953 21.3643 19.622 21.3635 19.7488C21.3626 19.9261 21.3627 20.1033 21.3631 20.2806C21.3626 20.333 21.3621 20.3855 21.3615 20.4395C21.3632 20.7043 21.3652 20.8996 21.5466 21.1096C21.7273 21.1698 21.8692 21.1753 22.0593 21.1779C22.1206 21.1793 22.182 21.1807 22.2452 21.1822C22.4404 21.1623 22.541 21.1201 22.6951 21.0002C22.7457 20.8483 22.7568 20.757 22.7574 20.6002C22.7577 20.5521 22.7581 20.5039 22.7584 20.4543C22.7585 20.3753 22.7585 20.3753 22.7586 20.2947C22.7588 20.2391 22.7591 20.1835 22.7594 20.1263C22.7602 19.942 22.7606 19.7578 22.7609 19.5736C22.7612 19.4458 22.7615 19.3179 22.7618 19.1901C22.7624 18.9219 22.7627 18.6536 22.7629 18.3854C22.7632 18.0416 22.7645 17.6978 22.7661 17.354C22.7671 17.0898 22.7674 16.8257 22.7674 16.5616C22.7676 16.4348 22.768 16.308 22.7688 16.1813C22.7697 16.004 22.7696 15.8268 22.7692 15.6495C22.7697 15.597 22.7702 15.5446 22.7708 15.4905C22.7691 15.2258 22.7671 15.0305 22.5857 14.8205C22.405 14.7603 22.2631 14.7547 22.073 14.7521C22.0117 14.7507 21.9503 14.7493 21.8871 14.7479C21.6919 14.7677 21.5913 14.81 21.4372 14.9299ZM23.4607 14.9299C23.4101 15.0817 23.3989 15.173 23.3983 15.3298C23.398 15.378 23.3977 15.4261 23.3974 15.4757C23.3973 15.5284 23.3972 15.5811 23.3972 15.6353C23.3969 15.6909 23.3966 15.7465 23.3964 15.8038C23.3956 15.988 23.3952 16.1722 23.3949 16.3564C23.3946 16.4843 23.3943 16.6122 23.3939 16.74C23.3934 17.0082 23.3931 17.2764 23.3929 17.5446C23.3926 17.8885 23.3912 18.2323 23.3897 18.5761C23.3887 18.8402 23.3884 19.1044 23.3883 19.3685C23.3881 19.4953 23.3877 19.622 23.387 19.7488C23.386 19.9261 23.3862 20.1033 23.3865 20.2806C23.386 20.333 23.3855 20.3855 23.385 20.4395C23.3866 20.7043 23.3887 20.8996 23.5701 21.1096C23.7507 21.1698 23.8926 21.1753 24.0828 21.1779C24.1441 21.1793 24.2054 21.1807 24.2686 21.1822C24.4639 21.1623 24.5644 21.1201 24.7185 21.0002C24.7691 20.8483 24.7803 20.757 24.7809 20.6002C24.7812 20.5521 24.7815 20.5039 24.7818 20.4543C24.7819 20.3753 24.7819 20.3753 24.782 20.2947C24.7823 20.2391 24.7825 20.1835 24.7828 20.1263C24.7836 19.942 24.784 19.7578 24.7843 19.5736C24.7846 19.4458 24.7849 19.3179 24.7852 19.1901C24.7858 18.9219 24.7861 18.6536 24.7863 18.3854C24.7866 18.0416 24.7879 17.6978 24.7895 17.354C24.7905 17.0898 24.7908 16.8257 24.7909 16.5616C24.791 16.4348 24.7915 16.308 24.7922 16.1813C24.7931 16.004 24.793 15.8268 24.7927 15.6495C24.7932 15.597 24.7937 15.5446 24.7942 15.4905C24.7925 15.2258 24.7905 15.0305 24.6091 14.8205C24.4285 14.7603 24.2866 14.7547 24.0964 14.7521C24.0351 14.7507 23.9738 14.7493 23.9106 14.7479C23.7153 14.7677 23.6148 14.81 23.4607 14.9299ZM25.4294 14.9299C25.3788 15.0817 25.3677 15.173 25.3671 15.3298C25.3668 15.378 25.3664 15.4261 25.3661 15.4757C25.3661 15.5284 25.366 15.5811 25.3659 15.6353C25.3657 15.6909 25.3654 15.7465 25.3651 15.8038C25.3643 15.988 25.3639 16.1722 25.3636 16.3564C25.3633 16.4843 25.363 16.6122 25.3627 16.74C25.3621 17.0082 25.3618 17.2764 25.3616 17.5446C25.3613 17.8885 25.36 18.2323 25.3584 18.5761C25.3574 18.8402 25.3571 19.1044 25.3571 19.3685C25.3569 19.4953 25.3564 19.622 25.3557 19.7488C25.3548 19.9261 25.3549 20.1033 25.3553 20.2806C25.3548 20.333 25.3542 20.3855 25.3537 20.4395C25.3554 20.7043 25.3574 20.8996 25.5388 21.1096C25.7195 21.1698 25.8614 21.1753 26.0515 21.1779C26.1128 21.1793 26.1742 21.1807 26.2374 21.1822C26.4326 21.1623 26.5332 21.1201 26.6872 21.0002C26.7379 20.8483 26.749 20.757 26.7496 20.6002C26.7499 20.5521 26.7502 20.5039 26.7506 20.4543C26.7507 20.3753 26.7507 20.3753 26.7507 20.2947C26.751 20.2391 26.7513 20.1835 26.7516 20.1263C26.7524 19.942 26.7527 19.7578 26.753 19.5736C26.7534 19.4458 26.7537 19.3179 26.754 19.1901C26.7546 18.9219 26.7549 18.6536 26.7551 18.3854C26.7554 18.0416 26.7567 17.6978 26.7582 17.354C26.7593 17.0898 26.7595 16.8257 26.7596 16.5616C26.7598 16.4348 26.7602 16.308 26.761 16.1813C26.7619 16.004 26.7618 15.8268 26.7614 15.6495C26.7619 15.597 26.7624 15.5446 26.763 15.4905C26.7613 15.2258 26.7593 15.0305 26.5779 14.8205C26.3972 14.7603 26.2553 14.7547 26.0652 14.7521C26.0038 14.7507 25.9425 14.7493 25.8793 14.7479C25.684 14.7677 25.5835 14.81 25.4294 14.9299ZM13.9997 16.8986C13.9997 17.6025 13.9997 18.3063 13.9997 19.0314C16.2195 19.0314 18.4393 19.0314 20.7263 19.0314C20.7263 18.3276 20.7263 17.6238 20.7263 16.8986C18.5065 16.8986 16.2868 16.8986 13.9997 16.8986Z" fill="#000C11"/>
<path d="M1.90697 6.16983C1.97247 6.16916 2.03796 6.16849 2.10543 6.1678C2.16838 6.16769 2.23134 6.16758 2.2962 6.16748C2.35392 6.16725 2.41165 6.16703 2.47113 6.1668C2.62578 6.18017 2.70921 6.21692 2.8435 6.28945C2.98869 6.27217 3.09572 6.24538 3.22631 6.18008C3.46074 6.16673 3.69564 6.16995 3.93041 6.16983C3.9959 6.16916 4.06139 6.16849 4.12887 6.1678C4.19182 6.16769 4.25477 6.16758 4.31963 6.16748C4.37736 6.16725 4.43509 6.16703 4.49456 6.1668C4.64882 6.18013 4.73345 6.21591 4.86694 6.28945C4.98034 6.27592 4.98034 6.27592 5.08569 6.23477C5.36512 6.14162 5.65788 6.16537 5.95043 6.16299C6.01476 6.1614 6.07909 6.15982 6.14536 6.15818C6.73469 6.15385 6.73469 6.15385 6.99975 6.39883C7.53868 7.01059 7.27319 7.13765 7.27319 8.31289C9.49295 8.31289 11.7127 8.31289 13.9997 8.31289C13.9997 7.80758 13.9997 7.30227 13.9997 6.78164C14.1838 6.50559 14.3092 6.32611 14.6013 6.18008C14.8334 6.16523 15.066 6.16741 15.2986 6.16641C15.3632 6.16528 15.4277 6.16415 15.4943 6.16299C15.8369 6.16145 16.0448 6.18416 16.3513 6.34414C16.3924 6.31894 16.4335 6.29375 16.4759 6.26779C16.651 6.16461 16.7531 6.15963 16.9548 6.16021C17.0482 6.16027 17.0482 6.16027 17.1435 6.16032C17.2403 6.16164 17.2403 6.16164 17.3391 6.16299C17.4362 6.16273 17.4362 6.16273 17.5353 6.16246C18.0387 6.16559 18.0387 6.16559 18.2654 6.28945C18.3788 6.27592 18.3788 6.27592 18.4841 6.23477C18.7636 6.14162 19.0563 6.16537 19.3489 6.16299C19.4132 6.1614 19.4775 6.15982 19.5438 6.15818C20.1331 6.15385 20.1331 6.15385 20.3982 6.39883C20.5935 6.62054 20.6782 6.74628 20.6797 7.03965C20.6803 7.1213 20.6803 7.1213 20.6809 7.2046C20.681 7.26454 20.6812 7.32449 20.6813 7.38625C20.6817 7.44921 20.682 7.51218 20.6824 7.57705C20.6835 7.78616 20.6841 7.99526 20.6847 8.20437C20.6849 8.27566 20.6851 8.34695 20.6853 8.4204C20.6864 8.75876 20.6871 9.09713 20.6876 9.43549C20.6881 9.8259 20.6896 10.2163 20.6918 10.6067C20.6934 10.9085 20.6942 11.2104 20.6944 11.5122C20.6946 11.6924 20.6952 11.8727 20.6964 12.0529C20.6978 12.2541 20.6977 12.4553 20.6973 12.6565C20.6984 12.7458 20.6984 12.7458 20.6994 12.8369C20.6971 13.17 20.676 13.3645 20.4529 13.6176C20.0945 13.9333 19.8303 13.901 19.366 13.9013C19.2677 13.9023 19.2677 13.9023 19.1675 13.9033C19.0731 13.9035 19.0731 13.9035 18.9767 13.9036C18.919 13.9038 18.8613 13.9041 18.8018 13.9043C18.6472 13.8909 18.5637 13.8542 18.4294 13.7816C18.2842 13.7989 18.1772 13.8257 18.0466 13.891C17.8145 13.9059 17.5819 13.9037 17.3494 13.9047C17.2848 13.9058 17.2202 13.9069 17.1537 13.9081C16.811 13.9097 16.6031 13.8869 16.2966 13.727C16.2554 13.7521 16.2142 13.7772 16.1718 13.8031C15.9084 13.959 15.6147 13.9168 15.3157 13.9149C15.2518 13.916 15.188 13.9171 15.1222 13.9183C14.7695 13.9181 14.5381 13.9154 14.2732 13.6723C13.7343 13.0605 13.9997 12.9335 13.9997 11.7582C11.78 11.7582 9.56022 11.7582 7.27319 11.7582C7.27319 12.2635 7.27319 12.7688 7.27319 13.2895C7.08915 13.5655 6.96369 13.745 6.67162 13.891C6.43719 13.9044 6.20229 13.9011 5.96752 13.9013C5.90203 13.9019 5.83654 13.9026 5.76907 13.9033C5.70611 13.9034 5.64316 13.9035 5.5783 13.9036C5.52057 13.9038 5.46285 13.9041 5.40337 13.9043C5.24871 13.8909 5.16529 13.8542 5.031 13.7816C4.88581 13.7989 4.77878 13.8257 4.64819 13.891C4.41375 13.9044 4.17885 13.9011 3.94408 13.9013C3.87859 13.9019 3.8131 13.9026 3.74563 13.9033C3.68268 13.9034 3.61972 13.9035 3.55486 13.9036C3.49714 13.9038 3.43941 13.9041 3.37993 13.9043C3.22528 13.8909 3.14185 13.8542 3.00756 13.7816C2.86237 13.7989 2.75534 13.8257 2.62475 13.891C2.39266 13.9073 2.16008 13.9062 1.92748 13.9081C1.86291 13.9097 1.79833 13.9113 1.7318 13.9129C1.13937 13.9173 1.13937 13.9173 0.874748 13.6723C0.679429 13.4506 0.594707 13.3248 0.593262 13.0314C0.592871 12.977 0.59248 12.9226 0.592077 12.8665C0.591929 12.8066 0.591782 12.7466 0.591631 12.6848C0.591272 12.6219 0.590912 12.5589 0.590542 12.4941C0.589461 12.2849 0.588825 12.0758 0.58828 11.8667C0.588057 11.7954 0.587834 11.7241 0.587604 11.6507C0.586562 11.3123 0.585784 10.974 0.585329 10.6356C0.584794 10.2452 0.583356 9.85481 0.581145 9.46441C0.579494 9.16257 0.578686 8.86073 0.578505 8.55888C0.578376 8.37865 0.57778 8.19844 0.576511 8.01821C0.575182 7.81698 0.575229 7.61579 0.575609 7.41455C0.574909 7.35505 0.574208 7.29555 0.573486 7.23425C0.575784 6.90113 0.59691 6.70662 0.820061 6.45352C1.17839 6.13785 1.44265 6.17007 1.90697 6.16983ZM1.31225 7.00039C1.26163 7.15226 1.25049 7.24356 1.24988 7.40034C1.24957 7.44849 1.24926 7.49663 1.24893 7.54624C1.24887 7.59891 1.24881 7.65159 1.24875 7.70586C1.24848 7.76145 1.24821 7.81704 1.24793 7.87431C1.24713 8.05853 1.24675 8.24275 1.24645 8.42697C1.24614 8.55482 1.24582 8.68267 1.24551 8.81052C1.24493 9.07873 1.24461 9.34693 1.24442 9.61514C1.24412 9.95897 1.24281 10.3028 1.24125 10.6466C1.24023 10.9108 1.23995 11.1749 1.23987 11.439C1.2397 11.5658 1.23926 11.6925 1.23854 11.8193C1.23761 11.9966 1.23771 12.1738 1.23807 12.3511C1.23756 12.4035 1.23706 12.456 1.23654 12.51C1.2382 12.7748 1.24021 12.9701 1.42162 13.1801C1.60228 13.2403 1.74419 13.2458 1.93432 13.2484C1.99565 13.2498 2.05698 13.2513 2.12017 13.2527C2.31545 13.2329 2.41597 13.1906 2.57006 13.0707C2.62702 12.8998 2.63291 12.7771 2.63511 12.5977C2.63602 12.5344 2.63694 12.4711 2.63788 12.4059C2.63862 12.3375 2.63936 12.2691 2.64013 12.1987C2.64167 12.0917 2.6432 11.9847 2.64476 11.8777C2.64796 11.6516 2.6507 11.4255 2.65352 11.1993C2.65585 11.0129 2.65829 10.8265 2.661 10.6401C2.66302 10.5002 2.66479 10.3603 2.6663 10.2204C2.66722 10.1574 2.66813 10.0944 2.66908 10.0295C2.66976 9.97381 2.67045 9.91808 2.67115 9.86066C2.67944 9.73477 2.67944 9.73477 2.73412 9.68008C2.83324 9.67282 2.83324 9.67282 2.95287 9.67324C2.99235 9.6731 3.03183 9.67296 3.0725 9.67282C3.17162 9.68008 3.17162 9.68008 3.22631 9.73477C3.23219 9.83231 3.23431 9.93009 3.23494 10.0278C3.2355 10.0904 3.23606 10.153 3.23664 10.2176C3.23704 10.2858 3.23744 10.354 3.23785 10.4243C3.23938 10.5675 3.24095 10.7106 3.24255 10.8537C3.24487 11.0804 3.24688 11.3071 3.24826 11.5338C3.24963 11.7519 3.25228 11.97 3.25494 12.188C3.25511 12.2558 3.25529 12.3236 3.25548 12.3935C3.25638 12.4568 3.25729 12.5201 3.25822 12.5853C3.25888 12.6687 3.25888 12.6687 3.25956 12.7537C3.28468 12.9329 3.33625 13.0363 3.44506 13.1801C3.62571 13.2403 3.76763 13.2458 3.95776 13.2484C4.01909 13.2498 4.08042 13.2513 4.14361 13.2527C4.35356 13.2314 4.43676 13.2138 4.5935 13.0707C4.63662 12.8806 4.6308 12.6916 4.62888 12.4974C4.62936 12.4385 4.62984 12.3795 4.63033 12.3188C4.63154 12.1233 4.63074 11.928 4.62981 11.7326C4.63 11.5971 4.63026 11.4616 4.63061 11.3262C4.63106 11.0056 4.6301 10.6851 4.62865 10.3646C4.62762 10.1088 4.62799 9.85304 4.62915 9.59727C4.63073 9.24497 4.63098 8.8927 4.63009 8.54039C4.62991 8.4059 4.63013 8.27141 4.63077 8.13692C4.63146 7.94913 4.63041 7.76143 4.62888 7.57365C4.62943 7.51774 4.62999 7.46182 4.63056 7.40421C4.62844 7.26418 4.6245 7.13694 4.5935 7.00039C4.39751 6.82221 4.22427 6.814 3.96459 6.81582C3.90425 6.8154 3.8439 6.81498 3.78173 6.81454C3.59086 6.83863 3.48732 6.88337 3.33569 7.00039C3.25963 7.22856 3.25985 7.45801 3.24789 7.69638C3.23187 7.97921 3.23187 7.97921 3.17162 8.03945C3.0725 8.04672 3.0725 8.04672 2.95287 8.04629C2.9134 8.04643 2.87392 8.04657 2.83324 8.04672C2.73412 8.03945 2.73412 8.03945 2.67944 7.98477C2.6683 7.8156 2.66051 7.64687 2.65594 7.47741C2.6447 7.23916 2.61 7.07925 2.46069 6.89102C2.28003 6.8308 2.13812 6.82527 1.94799 6.82266C1.88666 6.82125 1.82533 6.81984 1.76214 6.81839C1.56686 6.83824 1.46634 6.88048 1.31225 7.00039ZM5.30444 7.00039C5.25381 7.15226 5.24268 7.24356 5.24207 7.40034C5.24176 7.44849 5.24144 7.49663 5.24112 7.54624C5.24106 7.59891 5.241 7.65159 5.24094 7.70586C5.24066 7.76145 5.24039 7.81704 5.24011 7.87431C5.23931 8.05853 5.23894 8.24275 5.23864 8.42697C5.23833 8.55482 5.23801 8.68267 5.2377 8.81052C5.23712 9.07873 5.2368 9.34693 5.23661 9.61514C5.23631 9.95897 5.235 10.3028 5.23344 10.6466C5.23242 10.9108 5.23214 11.1749 5.23205 11.439C5.23189 11.5658 5.23145 11.6925 5.23073 11.8193C5.2298 11.9966 5.2299 12.1738 5.23026 12.3511C5.22975 12.4035 5.22925 12.456 5.22873 12.51C5.23039 12.7748 5.2324 12.9701 5.41381 13.1801C5.59446 13.2403 5.73638 13.2458 5.92651 13.2484C5.98784 13.2498 6.04917 13.2513 6.11236 13.2527C6.30764 13.2329 6.40815 13.1906 6.56225 13.0707C6.61287 12.9188 6.62401 12.8275 6.62462 12.6708C6.62493 12.6226 6.62524 12.5745 6.62556 12.5249C6.62565 12.4458 6.62565 12.4458 6.62575 12.3652C6.62602 12.3096 6.62629 12.2541 6.62657 12.1968C6.62737 12.0126 6.62774 11.8283 6.62804 11.6441C6.62836 11.5163 6.62867 11.3884 6.62899 11.2606C6.62956 10.9924 6.62988 10.7242 6.63007 10.456C6.63037 10.1121 6.63169 9.76831 6.63324 9.42448C6.63426 9.16035 6.63455 8.89622 6.63463 8.63209C6.6348 8.50532 6.63524 8.37855 6.63595 8.25178C6.63689 8.07451 6.63678 7.89728 6.63643 7.72001C6.63693 7.66756 6.63744 7.6151 6.63796 7.56106C6.63629 7.2963 6.63428 7.10101 6.45287 6.89102C6.27222 6.8308 6.13031 6.82527 5.94018 6.82266C5.87885 6.82125 5.81752 6.81984 5.75433 6.81839C5.55905 6.83824 5.45853 6.88048 5.30444 7.00039ZM14.7107 7.00039C14.6601 7.15226 14.6489 7.24356 14.6483 7.40034C14.648 7.44849 14.6477 7.49663 14.6474 7.54624C14.6473 7.59891 14.6472 7.65159 14.6472 7.70586C14.6469 7.76145 14.6466 7.81704 14.6464 7.87431C14.6456 8.05853 14.6452 8.24275 14.6449 8.42697C14.6446 8.55482 14.6443 8.68267 14.6439 8.81052C14.6434 9.07873 14.6431 9.34693 14.6429 9.61514C14.6426 9.95897 14.6412 10.3028 14.6397 10.6466C14.6387 10.9108 14.6384 11.1749 14.6383 11.439C14.6381 11.5658 14.6377 11.6925 14.637 11.8193C14.636 11.9966 14.6361 12.1738 14.6365 12.3511C14.636 12.4035 14.6355 12.456 14.635 12.51C14.6366 12.7748 14.6387 12.9701 14.8201 13.1801C15.0007 13.2403 15.1426 13.2458 15.3328 13.2484C15.3941 13.2498 15.4554 13.2513 15.5186 13.2527C15.7139 13.2329 15.8144 13.1906 15.9685 13.0707C16.0191 12.9188 16.0303 12.8275 16.0309 12.6708C16.0312 12.6226 16.0315 12.5745 16.0318 12.5249C16.0319 12.4458 16.0319 12.4458 16.032 12.3652C16.0323 12.3096 16.0325 12.2541 16.0328 12.1968C16.0336 12.0126 16.034 11.8283 16.0343 11.6441C16.0346 11.5163 16.0349 11.3884 16.0352 11.2606C16.0358 10.9924 16.0361 10.7242 16.0363 10.456C16.0366 10.1121 16.0379 9.76831 16.0395 9.42448C16.0405 9.16035 16.0408 8.89622 16.0409 8.63209C16.041 8.50532 16.0415 8.37855 16.0422 8.25178C16.0431 8.07451 16.043 7.89728 16.0427 7.72001C16.0432 7.66756 16.0437 7.6151 16.0442 7.56106C16.0425 7.2963 16.0405 7.10101 15.8591 6.89102C15.6785 6.8308 15.5366 6.82527 15.3464 6.82266C15.2851 6.82125 15.2238 6.81984 15.1606 6.81839C14.9653 6.83824 14.8648 6.88048 14.7107 7.00039ZM16.6794 7.00039C16.6288 7.15226 16.6177 7.24356 16.6171 7.40034C16.6168 7.44849 16.6164 7.49663 16.6161 7.54624C16.6161 7.59891 16.616 7.65159 16.6159 7.70586C16.6157 7.76145 16.6154 7.81704 16.6151 7.87431C16.6143 8.05853 16.6139 8.24275 16.6136 8.42697C16.6133 8.55482 16.613 8.68267 16.6127 8.81052C16.6121 9.07873 16.6118 9.34693 16.6116 9.61514C16.6113 9.95897 16.61 10.3028 16.6084 10.6466C16.6074 10.9108 16.6071 11.1749 16.6071 11.439C16.6069 11.5658 16.6064 11.6925 16.6057 11.8193C16.6048 11.9966 16.6049 12.1738 16.6053 12.3511C16.6048 12.4035 16.6042 12.456 16.6037 12.51C16.6054 12.7748 16.6074 12.9701 16.7888 13.1801C16.9695 13.2403 17.1114 13.2458 17.3015 13.2484C17.3628 13.2498 17.4242 13.2513 17.4874 13.2527C17.6826 13.2329 17.7832 13.1906 17.9372 13.0707C17.9879 12.9188 17.999 12.8275 17.9996 12.6708C17.9999 12.6226 18.0002 12.5745 18.0006 12.5249C18.0007 12.4458 18.0007 12.4458 18.0007 12.3652C18.001 12.3096 18.0013 12.2541 18.0016 12.1968C18.0024 12.0126 18.0027 11.8283 18.003 11.6441C18.0034 11.5163 18.0037 11.3884 18.004 11.2606C18.0046 10.9924 18.0049 10.7242 18.0051 10.456C18.0054 10.1121 18.0067 9.76831 18.0082 9.42448C18.0093 9.16035 18.0095 8.89622 18.0096 8.63209C18.0098 8.50532 18.0102 8.37855 18.011 8.25178C18.0119 8.07451 18.0118 7.89728 18.0114 7.72001C18.0119 7.66756 18.0124 7.6151 18.013 7.56106C18.0113 7.2963 18.0093 7.10101 17.8279 6.89102C17.6472 6.8308 17.5053 6.82527 17.3152 6.82266C17.2538 6.82125 17.1925 6.81984 17.1293 6.81839C16.934 6.83824 16.8335 6.88048 16.6794 7.00039ZM18.7029 7.00039C18.6523 7.15226 18.6411 7.24356 18.6405 7.40034C18.6402 7.44849 18.6399 7.49663 18.6396 7.54624C18.6395 7.59891 18.6394 7.65159 18.6394 7.70586C18.6391 7.76145 18.6388 7.81704 18.6386 7.87431C18.6378 8.05853 18.6374 8.24275 18.6371 8.42697C18.6368 8.55482 18.6364 8.68267 18.6361 8.81052C18.6356 9.07873 18.6352 9.34693 18.635 9.61514C18.6347 9.95897 18.6334 10.3028 18.6319 10.6466C18.6309 10.9108 18.6306 11.1749 18.6305 11.439C18.6303 11.5658 18.6299 11.6925 18.6292 11.8193C18.6282 11.9966 18.6283 12.1738 18.6287 12.3511C18.6282 12.4035 18.6277 12.456 18.6272 12.51C18.6288 12.7748 18.6308 12.9701 18.8122 13.1801C18.9929 13.2403 19.1348 13.2458 19.3249 13.2484C19.3863 13.2498 19.4476 13.2513 19.5108 13.2527C19.7061 13.2329 19.8066 13.1906 19.9607 13.0707C20.0113 12.9188 20.0224 12.8275 20.0231 12.6708C20.0234 12.6226 20.0237 12.5745 20.024 12.5249C20.0241 12.4458 20.0241 12.4458 20.0242 12.3652C20.0245 12.3096 20.0247 12.2541 20.025 12.1968C20.0258 12.0126 20.0262 11.8283 20.0265 11.6441C20.0268 11.5163 20.0271 11.3884 20.0274 11.2606C20.028 10.9924 20.0283 10.7242 20.0285 10.456C20.0288 10.1121 20.0301 9.76831 20.0317 9.42448C20.0327 9.16035 20.033 8.89622 20.0331 8.63209C20.0332 8.50532 20.0337 8.37855 20.0344 8.25178C20.0353 8.07451 20.0352 7.89728 20.0349 7.72001C20.0354 7.66756 20.0359 7.6151 20.0364 7.56106C20.0347 7.2963 20.0327 7.10101 19.8513 6.89102C19.6707 6.8308 19.5287 6.82527 19.3386 6.82266C19.2773 6.82125 19.216 6.81984 19.1528 6.81839C18.9575 6.83824 18.857 6.88048 18.7029 7.00039ZM7.27319 8.96914C7.27319 9.67297 7.27319 10.3768 7.27319 11.102C9.49295 11.102 11.7127 11.102 13.9997 11.102C13.9997 10.3981 13.9997 9.6943 13.9997 8.96914C11.78 8.96914 9.56022 8.96914 7.27319 8.96914Z" fill="#000C11"/>
<path d="M8.91375 9.46127C9.05904 9.44044 9.05904 9.44044 9.24572 9.44004C9.31543 9.43953 9.38514 9.43901 9.45697 9.43848C9.53338 9.43877 9.6098 9.43911 9.68621 9.43948C9.76426 9.43937 9.84232 9.43921 9.92037 9.43901C10.084 9.43877 10.2477 9.43912 10.4114 9.43988C10.6214 9.44082 10.8314 9.44028 11.0414 9.4393C11.2026 9.43871 11.3638 9.43889 11.525 9.43932C11.6024 9.43943 11.6799 9.43929 11.7573 9.43891C11.8655 9.4385 11.9736 9.43924 12.0818 9.44004C12.1742 9.44024 12.1742 9.44024 12.2685 9.44044C12.3404 9.45075 12.3404 9.45075 12.4138 9.46127C12.5403 9.65104 12.5417 9.73061 12.5231 9.95346C12.487 10.0076 12.4509 10.0617 12.4138 10.1175C12.2685 10.1384 12.2685 10.1384 12.0818 10.1388C12.0121 10.1393 11.9424 10.1398 11.8705 10.1403C11.7941 10.14 11.7177 10.1397 11.6413 10.1393C11.5632 10.1394 11.4852 10.1396 11.4071 10.1398C11.2435 10.14 11.0798 10.1397 10.9161 10.1389C10.7061 10.138 10.4961 10.1385 10.2861 10.1395C10.1249 10.1401 9.96371 10.1399 9.80251 10.1395C9.72506 10.1394 9.64761 10.1395 9.57016 10.1399C9.46201 10.1403 9.35386 10.1396 9.24572 10.1388C9.18412 10.1386 9.12251 10.1385 9.05904 10.1384C9.01109 10.1315 8.96315 10.1246 8.91375 10.1175C8.78724 9.92776 8.7858 9.84818 8.80438 9.62533C8.84047 9.57119 8.87656 9.51705 8.91375 9.46127Z" fill="#000C11"/>
<path d="M7.98455 9.44073C8.04208 9.44031 8.0996 9.43989 8.15887 9.43945C8.31268 9.46124 8.31268 9.46124 8.41394 9.5343C8.51196 9.67634 8.49768 9.78596 8.47674 9.95343C8.41394 10.0444 8.41394 10.0444 8.31268 10.1175C8.15887 10.1393 8.15887 10.1393 7.98455 10.138C7.92703 10.1384 7.86951 10.1388 7.81024 10.1393C7.65643 10.1175 7.65643 10.1175 7.55517 10.0444C7.45714 9.90239 7.47143 9.79277 7.49237 9.62531C7.62545 9.43247 7.76068 9.43909 7.98455 9.44073Z" fill="#000C11"/>
</svg>
