<svg width="50" height="50" viewBox="0 0 50 50" fill="none" xmlns="http://www.w3.org/2000/svg">
<path opacity="0.923" fill-rule="evenodd" clip-rule="evenodd" d="M38.5254 0.829685C39.5865 0.661994 40.5467 0.889858 41.4063 1.51328C42.4791 0.781579 43.6347 0.635095 44.8731 1.07383C46.3737 1.87743 47.0409 3.13068 46.875 4.83359C46.745 5.38668 46.5334 5.90752 46.2403 6.39609C46.7929 7.26058 46.9719 8.2046 46.7774 9.22812C46.2723 10.8881 45.1492 11.767 43.4082 11.8648C42.2928 11.798 41.3814 11.3423 40.6739 10.4977C40.1895 10.8191 39.7663 11.2098 39.4043 11.6695C41.2621 14.0282 41.3272 16.4371 39.5996 18.8961C42.2579 20.0452 43.7228 22.0634 43.9942 24.9508C45.3617 24.9345 46.7289 24.9508 48.0957 24.9996C48.2743 25.0263 48.4208 25.1077 48.5352 25.2437C49.3545 30.5335 47.8408 35.0095 43.9942 38.6715C41.2223 40.9411 38.0322 42.0479 34.4239 41.9918C35.129 42.697 35.8288 43.3968 36.5235 44.0914C37.4119 45.8011 37.1352 47.2821 35.6934 48.5348C35.3241 48.752 34.9335 48.9147 34.5215 49.023C28.0762 49.0882 21.6309 49.0882 15.1856 49.023C13.4061 48.5111 12.576 47.3229 12.6953 45.4586C12.7611 44.9685 12.9239 44.5127 13.1836 44.0914C13.8184 43.3265 14.5183 42.6266 15.2832 41.9918C8.9203 41.8647 4.50949 38.8862 2.05081 33.0562C1.25324 30.5005 1.02538 27.8963 1.36721 25.2437C1.48158 25.1077 1.62806 25.0263 1.80667 24.9996C2.20128 24.9827 2.5919 24.9339 2.97854 24.8531C3.33341 21.9762 4.73316 19.7789 7.17776 18.2613C5.05545 17.229 4.24165 15.5688 4.73635 13.2809C4.92113 13.1858 5.11644 13.1207 5.32229 13.0855C6.40142 12.9997 7.47564 13.0322 8.54495 13.1832C9.82932 13.5239 10.8222 14.2563 11.5235 15.3805C12.698 13.6866 14.3256 12.9054 16.4063 13.0367C16.8457 13.053 17.2852 13.0692 17.7246 13.0855C18.447 13.1117 18.74 13.4861 18.6035 14.2086C18.5245 16.0918 17.6456 17.4427 15.9668 18.2613C16.9468 18.8178 17.7769 19.5502 18.4571 20.4586C21.8146 16.3969 25.1837 12.3441 28.5645 8.30039C30.2622 6.92867 32.1503 6.60315 34.2285 7.32383C34.7007 7.51078 35.124 7.7712 35.4981 8.10508C35.5957 8.17018 35.6934 8.17018 35.791 8.10508C36.1994 7.71299 36.5901 7.30608 36.9629 6.88437C35.6663 5.34621 35.5525 3.71861 36.6211 2.00156C37.1635 1.44626 37.7983 1.05563 38.5254 0.829685ZM38.7207 2.29453C39.1127 2.27837 39.5033 2.29465 39.8926 2.34336C40.3963 2.63684 40.8846 2.94609 41.3574 3.27109C41.5232 3.23215 41.6859 3.18332 41.8457 3.12461C42.8542 2.07422 43.9121 2.02539 45.0196 2.97812C45.3957 3.50641 45.5259 4.09235 45.4102 4.73594C45.1371 5.30004 44.8279 5.83715 44.4824 6.34726C44.7532 6.81553 45.0298 7.28753 45.3125 7.76328C45.5776 9.07202 45.073 9.93467 43.7989 10.3512C42.971 10.4663 42.3036 10.1896 41.7969 9.52109C41.7104 8.96302 41.4011 8.60494 40.8692 8.44687C40.6698 8.51872 40.4745 8.6001 40.2832 8.69101C39.6159 9.35833 38.9486 10.0257 38.2813 10.693C37.7767 10.1884 37.2722 9.68385 36.7676 9.17929C37.5325 8.54453 38.2324 7.84466 38.8672 7.07969C38.9323 6.85182 38.9323 6.62395 38.8672 6.39609C38.3867 6.11137 37.9636 5.75329 37.5977 5.32187C37.0164 3.95674 37.3908 2.94762 38.7207 2.29453ZM31.8848 8.34922C32.8564 8.33969 33.7353 8.61637 34.5215 9.17929C35.9005 10.4312 37.2514 11.7171 38.5742 13.0367C39.7092 14.6816 39.6604 16.2767 38.4278 17.8219C37.2441 16.7848 36.1047 15.6943 35.0098 14.5504C34.0074 14.2184 33.633 14.5602 33.8867 15.5758C35.0572 16.6322 36.1802 17.739 37.2559 18.8961C35.8566 20.0835 34.4406 21.2554 33.0078 22.4117C31.8848 21.4188 30.7617 20.4261 29.6387 19.4332C28.7934 19.1718 28.4191 19.481 28.5157 20.3609C29.594 21.3907 30.6845 22.3999 31.7871 23.3883C31.2234 23.9149 30.6374 24.4195 30.0293 24.902C26.7092 24.9508 23.3889 24.9671 20.0684 24.9508C20.0609 24.5233 20.012 24.1002 19.9219 23.6812C19.7227 23.0195 19.5274 22.3685 19.336 21.7281C21.7122 18.8636 24.0886 15.9989 26.4649 13.1344C27.2002 13.9024 27.9653 14.6349 28.7598 15.3316C29.3517 15.5565 29.7423 15.3612 29.9317 14.7457C29.8828 14.5992 29.834 14.4527 29.7852 14.3062C29.0173 13.5057 28.2198 12.7407 27.3926 12.0113C28.1602 11.0309 28.974 10.0869 29.834 9.17929C30.4699 8.7564 31.1535 8.4797 31.8848 8.34922ZM6.29885 14.4039C7.33317 14.362 8.30973 14.5736 9.22854 15.0387C9.92092 15.5527 10.4092 16.22 10.6934 17.0406C9.02521 17.5046 7.6092 17.114 6.44534 15.8687C6.17082 15.4521 6.02433 14.9964 6.00588 14.5016C6.13196 14.5247 6.22962 14.4922 6.29885 14.4039ZM15.6739 14.4039C16.1667 14.388 16.655 14.4206 17.1387 14.5016C16.8233 16.1674 15.8142 17.0626 14.1114 17.1871C13.5572 17.2228 13.0038 17.2066 12.4512 17.1383C12.7264 15.9998 13.41 15.2022 14.502 14.7457C14.9046 14.6293 15.2952 14.5153 15.6739 14.4039ZM10.791 18.5055C14.6551 18.4274 17.2104 20.2178 18.4571 23.8766C18.5485 24.2295 18.5973 24.5875 18.6035 24.9508C13.883 24.9833 9.16298 24.9508 4.44338 24.8531C5.10463 21.2622 7.22051 19.1463 10.791 18.5055ZM38.1348 20.068C40.0534 20.4722 41.4043 21.5789 42.1875 23.3883C42.3944 23.89 42.5083 24.4108 42.5293 24.9508C39.1438 24.9671 35.7583 24.9508 32.3731 24.902C34.3122 23.3038 36.2328 21.6925 38.1348 20.068ZM2.68557 26.4156C17.5293 26.4156 32.3731 26.4156 47.2168 26.4156C47.6319 31.2479 45.9717 35.1704 42.2364 38.1832C39.77 39.8742 37.0357 40.6555 34.0332 40.527C32.8964 41.0201 32.6198 41.8176 33.2032 42.9195C33.9163 43.535 34.5999 44.1859 35.2539 44.8727C35.8581 46.0876 35.5489 46.9828 34.3262 47.5582C28.0111 47.6233 21.696 47.6233 15.3809 47.5582C14.1582 46.9828 13.849 46.0876 14.4532 44.8727C15.2049 44.1535 15.921 43.4049 16.6016 42.6266C16.9235 41.5938 16.5817 40.894 15.5762 40.527C10.5657 40.57 6.77339 38.4704 4.19924 34.2281C2.94907 31.7733 2.44451 29.1692 2.68557 26.4156Z" fill="#34B7FE"/>
</svg>
