<svg width="24" height="24" viewBox="0 0 24 24" fill="none" xmlns="http://www.w3.org/2000/svg">
<path fill-rule="evenodd" clip-rule="evenodd" d="M5.00926 22C4.21092 22 3.45256 21.6829 2.8813 21.1188C2.31003 20.5547 2.00012 19.7892 2.00012 18.9909V5.00914C2.00012 4.2108 2.31717 3.45244 2.8813 2.88118C3.44542 2.30991 4.21092 2 5.00926 2H18.991C19.7893 2 20.5477 2.31705 21.1189 2.88118C21.6902 3.4453 22.0001 4.2108 22.0001 5.00914V18.9909C22.0001 19.7892 21.6831 20.5476 21.1189 21.1188C20.5548 21.6901 19.7893 22 18.991 22H5.00926ZM17.2201 13.5596H15.1064V20.5433H18.991C19.195 20.5438 19.3971 20.5041 19.5857 20.4263C19.7743 20.3484 19.9457 20.2341 20.09 20.0898C20.2342 19.9456 20.3486 19.7742 20.4264 19.5856C20.5042 19.397 20.544 19.1949 20.5434 18.9909V5.00914C20.5436 4.80522 20.5036 4.60327 20.4256 4.41483C20.3477 4.2264 20.2333 4.05519 20.0891 3.911C19.9449 3.76681 19.7737 3.65246 19.5853 3.57451C19.3969 3.49656 19.1949 3.45654 18.991 3.45673H5.00926C4.59788 3.45786 4.20368 3.62178 3.91279 3.91267C3.6219 4.20356 3.45798 4.59776 3.45685 5.00914V18.9909C3.45798 19.4022 3.6219 19.7964 3.91279 20.0873C4.20368 20.3782 4.59788 20.5421 5.00926 20.5433H12.7785V13.5596H10.4506V11.2316H12.7785V9.98058C12.7785 7.60983 13.9324 6.56727 15.9061 6.56727C16.8302 6.56727 17.3272 6.63439 17.5628 6.66724L17.5771 6.66867V8.8966H16.2346C15.5577 8.8966 15.2378 9.18652 15.1407 9.77064C15.1173 9.92279 15.1063 10.0766 15.1078 10.2305V11.2259H17.55L17.2172 13.5538L17.2201 13.5596Z" fill="#34B7FE"/>
</svg>
