<svg width="28" height="28" viewBox="0 0 28 28" fill="none" xmlns="http://www.w3.org/2000/svg">
<path d="M3.5002 2.43374C2.4666 2.66343 1.49317 3.42359 1.02285 4.36421C0.568948 5.2775 0.596291 4.58843 0.612698 14.1095C0.634573 23.483 0.607229 22.7611 0.984573 23.5267C1.49864 24.5658 2.47207 25.3423 3.53301 25.5666C4.1127 25.6923 24.0299 25.6869 24.5549 25.5611C25.2002 25.4134 25.676 25.1345 26.2229 24.5822C26.9283 23.8822 27.24 23.2259 27.3385 22.2634C27.3658 22.0009 27.3658 18.2603 27.3385 13.7595C27.2838 4.80171 27.3057 5.2939 26.9064 4.45718C26.7861 4.21656 26.5838 3.8775 26.4416 3.70796C25.8127 2.90953 24.7189 2.35718 23.7838 2.35171C23.2588 2.35171 23.2971 2.06187 23.2971 5.92281V9.29703H15.6682C8.07754 9.29703 8.03926 9.29703 8.03926 9.18765C8.03926 9.04 7.84785 8.85953 7.69473 8.85953C7.62364 8.85953 7.5252 8.90328 7.47598 8.95796C7.38848 9.05093 7.38301 9.50484 7.38301 14.372V19.6877L6.93457 19.2337C6.59551 18.9002 6.36582 18.7252 6.04317 18.5556C4.51192 17.7627 2.77285 18.0634 1.61348 19.3158L1.25801 19.6986V12.7095C1.25801 5.1025 1.24707 5.37046 1.56426 4.74156C1.99629 3.88296 2.71817 3.30328 3.63692 3.08999C5.15176 2.72906 6.71035 3.63687 7.1916 5.15718C7.29551 5.48531 7.33379 5.75328 7.36114 6.36031C7.39942 7.18609 7.44864 7.32828 7.68379 7.32828C8.00098 7.32828 8.08848 6.93453 7.99551 5.90093C7.84239 4.25484 6.92364 3.04624 5.4416 2.53765C4.9002 2.35718 4.05801 2.30796 3.5002 2.43374ZM24.358 3.09546C25.1838 3.30874 25.9166 3.91578 26.2994 4.70875C26.4197 4.96031 26.5455 5.32671 26.5783 5.52359C26.6166 5.76421 26.6494 8.14859 26.6768 12.797L26.715 19.715L26.2502 19.2502C25.6268 18.6212 25.0525 18.3205 24.1064 18.1291L23.9533 18.1017V10.5548C23.9533 6.40406 23.9697 3.00796 23.9861 3.00796C24.0025 3.00796 24.1721 3.04624 24.358 3.09546ZM23.2971 10.883V11.8127H15.6682H8.03926V10.883V9.95328H15.6682H23.2971V10.883ZM23.2971 15.5041C23.2971 18.4681 23.2971 18.5392 23.4064 18.6486C23.4775 18.7197 23.5869 18.758 23.7236 18.758C24.0682 18.758 24.6041 18.9166 25.0143 19.1298C25.4572 19.3595 26.0424 19.9064 26.2721 20.3056L26.4197 20.5681L26.2775 20.8142C26.0916 21.1314 25.6158 21.6072 25.2877 21.7986C25.1455 21.8806 24.8721 22.0119 24.6697 22.0884L24.3088 22.2306L16.1494 22.247L7.98457 22.258V21.0166C7.98457 20.3275 8.00098 18.1291 8.02285 16.1166L8.05567 12.4689H15.6791H23.2971V15.5041ZM5.19551 18.9111C6.18535 19.2556 6.8416 19.9064 7.1752 20.8689C7.56895 22.0064 7.28457 23.2369 6.42598 24.09C5.03692 25.4791 2.82754 25.2275 1.7502 23.5595C1.3291 22.9087 1.16504 22.0119 1.3291 21.2408C1.58067 20.0595 2.51582 19.1025 3.68067 18.8345C4.1127 18.7361 4.79629 18.7744 5.19551 18.9111ZM26.6057 22.6572C26.3322 23.7455 25.4682 24.6369 24.4072 24.9103C24.1338 24.9814 22.9088 24.9923 15.2635 24.9923H6.43692L6.77051 24.6916C7.16973 24.3306 7.58535 23.7236 7.76035 23.2533L7.88614 22.9142H15.9525C24.9486 22.9142 24.4619 22.9361 25.2932 22.5314C25.7416 22.3127 26.2338 21.9408 26.5072 21.6072L26.6604 21.4158L26.6768 21.8697C26.6877 22.1486 26.6604 22.4494 26.6057 22.6572Z" fill="#000C11"/>
<path d="M3.8281 19.4741C3.14998 19.6054 2.48279 20.1413 2.14373 20.8304C1.96326 21.1913 1.94138 21.2843 1.92498 21.7601C1.90857 22.1921 1.92498 22.3452 2.02341 22.6351C2.62498 24.4179 4.75779 24.9156 6.03748 23.5702C6.37107 23.2202 6.52966 22.9468 6.64451 22.4929C7.09841 20.7593 5.5781 19.1296 3.8281 19.4741ZM5.00388 20.2288C5.34294 20.382 5.71482 20.7429 5.88982 21.1038C6.02107 21.3663 6.04294 21.4757 6.04294 21.8749C6.04294 22.2632 6.02107 22.389 5.90076 22.6406C5.72576 23.0124 5.44138 23.3077 5.06951 23.5046C4.82341 23.6304 4.71951 23.6523 4.32029 23.6523C3.76248 23.6523 3.46169 23.5374 3.10623 23.1765C2.71248 22.7882 2.59763 22.4874 2.59763 21.8749C2.59763 21.4429 2.61951 21.3116 2.72888 21.0984C3.14451 20.2452 4.16169 19.857 5.00388 20.2288Z" fill="#000C11"/>
<path d="M3.85547 20.9127C3.52734 21.0604 3.22656 21.5143 3.22656 21.8643C3.22656 22.6627 4.08516 23.1823 4.79609 22.8159C5.75859 22.3182 5.39766 20.8307 4.32578 20.8362C4.15625 20.8416 3.94844 20.8745 3.85547 20.9127ZM4.59375 21.6018C4.91641 21.9245 4.51719 22.444 4.10703 22.2362C3.85547 22.1049 3.81172 21.8698 3.99766 21.6346C4.13984 21.4541 4.42969 21.4377 4.59375 21.6018Z" fill="#000C11"/>
<path d="M2.28072 5.34859C2.144 5.49624 2.15494 5.92828 2.29713 6.07046C2.54869 6.32203 2.844 6.11968 2.844 5.69859C2.844 5.50718 2.81666 5.40328 2.74556 5.34312C2.61431 5.22281 2.39009 5.22828 2.28072 5.34859Z" fill="#000C11"/>
<path d="M2.28047 6.77036C2.19844 6.86333 2.1875 7.15864 2.1875 9.88208C2.1875 12.7258 2.19297 12.8954 2.28594 12.9774C2.41719 13.0977 2.64141 13.0922 2.75078 12.9719C2.83281 12.879 2.84375 12.5836 2.84375 9.86021C2.84375 7.01646 2.83828 6.84693 2.74531 6.76489C2.61406 6.64458 2.38984 6.65005 2.28047 6.77036Z" fill="#000C11"/>
</svg>
