<svg width="50" height="50" viewBox="0 0 50 50" fill="none" xmlns="http://www.w3.org/2000/svg">
<path opacity="0.912" fill-rule="evenodd" clip-rule="evenodd" d="M17.627 6.49372C20.6095 6.25361 23.409 6.85582 26.0254 8.30036C26.849 8.76632 27.6465 9.27088 28.418 9.81403C31.1372 7.82786 34.1809 6.72109 37.5488 6.49372C42.4 6.73951 45.8018 9.08326 47.7539 13.525C48.5341 15.4886 48.941 17.5231 48.9746 19.6285C48.948 20.0621 48.7202 20.2737 48.291 20.2632C48.0769 20.2802 47.8978 20.2151 47.7539 20.0679C47.7654 16.8151 46.8214 13.8854 44.9219 11.2789C42.0023 8.10354 38.4704 7.1107 34.3262 8.30036C32.3345 8.93797 30.5116 9.882 28.8574 11.1324C28.5645 11.3277 28.2715 11.3277 27.9785 11.1324C25.3959 9.06857 22.4499 7.91297 19.1406 7.66559C14.2757 8.04903 11.1507 10.5881 9.76562 15.2828C9.25506 17.0418 9.07602 18.8322 9.22852 20.6539C10.2134 19.0423 11.1737 17.4147 12.1094 15.7711C12.7011 15.1863 13.1567 15.284 13.4766 16.064C15.1502 20.141 16.8429 24.2099 18.5547 28.2711C20.4142 25.1868 22.2859 22.1106 24.1699 19.0425C24.4304 18.8472 24.6907 18.8472 24.9512 19.0425C26.278 21.3706 27.5801 23.7143 28.8574 26.0738C30.0614 26.1226 31.2658 26.1389 32.4707 26.1226C32.5967 25.3341 33.0198 24.7645 33.7402 24.4136C35.3293 23.8793 36.4687 24.3675 37.1582 25.8785C37.4766 27.7565 36.6953 28.8145 34.8145 29.0523C33.6626 29.0292 32.8813 28.4758 32.4707 27.3922C31.0069 27.3108 29.5421 27.262 28.0762 27.2457C26.8509 25.1372 25.6627 23.0049 24.5117 20.8492C22.7134 23.9577 20.8905 27.0502 19.043 30.1265C18.491 30.576 18.0678 30.4784 17.7734 29.8336C16.1003 25.7065 14.3751 21.6049 12.5977 17.5289C11.6132 19.2702 10.6041 20.9955 9.57031 22.7047C9.82002 24.6586 10.406 26.514 11.3281 28.2711C13.7665 32.6627 17.1356 36.162 21.4355 38.7691C23.6288 40.1668 25.9562 41.2898 28.418 42.1382C34.2604 39.9842 39.1758 36.5337 43.1641 31.7867C45.1453 29.2236 46.5288 26.359 47.3145 23.1929C47.6597 22.9363 48.0015 22.9363 48.3398 23.1929C48.4161 23.313 48.4649 23.4431 48.4863 23.5836C47.649 27.2113 46.0377 30.434 43.6523 33.2515C40.8366 36.4596 37.5651 39.08 33.8379 41.1129C32.2782 41.9416 30.6831 42.6903 29.0527 43.359C28.6296 43.4241 28.2063 43.4241 27.7832 43.359C22.7146 41.4534 18.2713 38.605 14.4531 34.814C12.1572 32.4381 10.3994 29.7038 9.17969 26.6109C8.79589 25.6289 8.5192 24.6198 8.34961 23.5836C5.97309 23.5999 3.59679 23.5836 1.2207 23.5347C0.960286 23.1766 0.960286 22.8186 1.2207 22.4605C3.49912 22.4117 5.77776 22.3954 8.05664 22.4117C7.47211 18.5288 8.13943 14.883 10.0586 11.4742C11.8654 8.72359 14.3883 7.06343 17.627 6.49372ZM34.6191 25.439C35.7298 25.546 36.1367 26.1319 35.8398 27.1968C35.4257 27.78 34.8886 27.9265 34.2285 27.6363C33.6139 27.1672 33.4999 26.5975 33.8867 25.9273C34.0986 25.7005 34.3428 25.5377 34.6191 25.439Z" fill="#34B7FE"/>
<path opacity="0.908" fill-rule="evenodd" clip-rule="evenodd" d="M37.2555 8.83789C41.1899 8.84355 43.9731 10.6339 45.6051 14.209C46.7065 17.132 46.9344 20.1269 46.2887 23.1934C46.1138 24.1414 45.8047 25.0366 45.361 25.8789C44.7776 26.0765 44.452 25.8812 44.3844 25.293C44.7297 24.2212 45.0064 23.1308 45.2145 22.0215C45.7945 18.7362 45.176 15.7089 43.3591 12.9395C41.7694 10.981 39.7023 9.97187 37.1579 9.91211C36.8818 9.51974 36.9143 9.16167 37.2555 8.83789Z" fill="#34B7FE"/>
<path opacity="0.868" fill-rule="evenodd" clip-rule="evenodd" d="M43.5059 27.1969C44.2214 27.0826 44.5307 27.3755 44.4336 28.0758C44.1406 28.5966 43.8477 29.1175 43.5547 29.6383C43.2759 29.9176 42.9666 29.9665 42.627 29.7848C42.4656 29.6413 42.368 29.4623 42.334 29.2477C42.6995 28.5492 43.0901 27.8656 43.5059 27.1969Z" fill="#34B7FE"/>
</svg>
