<svg width="80" height="80" viewBox="0 0 80 80" fill="none" xmlns="http://www.w3.org/2000/svg">
<path d="M0 0H80L0 80V0Z" fill="#34B7FE"/>
<path d="M14.0289 43.7109L5.8007 35.4827L7.54034 33.7431L10.9353 37.138L14.4668 33.6065L11.0719 30.2116L12.8075 28.4759L21.0356 36.7041L19.3 38.4397L15.9011 35.0408L12.3696 38.5723L15.7685 41.9712L14.0289 43.7109ZM25.9171 23.5945C26.8144 24.4918 27.4076 25.4252 27.6969 26.3948C27.9889 27.3617 28.0089 28.3032 27.7572 29.2192C27.5054 30.1299 27.0166 30.9481 26.2907 31.674C25.5595 32.4052 24.7372 32.8954 23.8239 33.1444C22.9105 33.3935 21.9704 33.3721 21.0035 33.0802C20.0366 32.7882 19.1058 32.1949 18.2112 31.3003C17.314 30.4031 16.7193 29.471 16.4274 28.5041C16.1354 27.5371 16.1154 26.5984 16.3671 25.6877C16.6162 24.7743 17.1064 23.9521 17.8376 23.2208C18.5634 22.495 19.383 22.0075 20.2964 21.7584C21.2097 21.504 22.1499 21.5227 23.1168 21.8147C24.0864 22.1039 25.0198 22.6972 25.9171 23.5945ZM24.1533 25.3582C23.5721 24.777 22.9949 24.3739 22.4217 24.1489C21.8512 23.9213 21.3062 23.861 20.7865 23.9681C20.2669 24.0753 19.7969 24.3391 19.3763 24.7596C18.9558 25.1801 18.692 25.6502 18.5849 26.1698C18.4777 26.6894 18.5367 27.2358 18.7616 27.809C18.9893 28.3795 19.3938 28.9554 19.975 29.5366C20.5562 30.1178 21.1321 30.5223 21.7026 30.7499C22.2758 30.9749 22.8222 31.0338 23.3418 30.9267C23.8614 30.8196 24.3314 30.5557 24.752 30.1352C25.1725 29.7147 25.4363 29.2446 25.5434 28.725C25.6506 28.2054 25.5903 27.6604 25.3626 27.0898C25.1377 26.5167 24.7346 25.9395 24.1533 25.3582ZM23.8369 20.3151L22.4026 18.8808L29.1603 12.1231L30.5946 13.5574L28.0756 16.0765L34.8694 22.8703L33.1499 24.5899L26.356 17.796L23.8369 20.3151Z" fill="white"/>
</svg>
