<svg width="50" height="50" viewBox="0 0 50 50" fill="none" xmlns="http://www.w3.org/2000/svg">
<path d="M24.6615 1.25514C25.7827 1.36251 26.901 1.43451 28.0269 1.46464C28.1443 1.46867 28.2616 1.4727 28.3825 1.47685C29.1117 1.49067 29.8336 1.43864 30.5599 1.37919C30.656 1.37154 30.7521 1.36388 30.8511 1.35599C31.3683 1.30991 31.828 1.22475 32.3238 1.07402C32.576 1.04808 32.576 1.04808 32.7938 1.0496C32.8669 1.0491 32.9401 1.0486 33.0154 1.04808C33.2027 1.07402 33.2027 1.07402 33.398 1.26933C33.4233 1.46581 33.4233 1.46581 33.424 1.70611C33.4242 1.79404 33.4245 1.88197 33.4247 1.97257C33.424 2.06478 33.4232 2.15699 33.4225 2.252C33.4232 2.34156 33.424 2.43113 33.4247 2.52341C33.4235 2.96043 33.401 3.34344 33.2794 3.76414C33.1477 4.29529 33.3211 4.69764 33.514 5.19389C33.5793 5.37451 33.644 5.55533 33.7082 5.73634C33.7549 5.86753 33.7549 5.86753 33.8026 6.00137C34.5566 8.23969 34.4646 10.8245 33.7887 13.0674C33.6838 13.4195 33.6838 13.4195 33.7745 13.7579C33.9203 13.9343 33.9203 13.9343 34.1793 14.16C34.4437 14.6133 34.4353 15.115 34.3746 15.6248C34.1945 16.2712 33.7782 16.6672 33.2027 16.992C32.983 17.0565 32.983 17.0565 32.8121 17.0896C32.8096 17.1713 32.8071 17.253 32.8045 17.3372C32.7119 19.2376 32.0877 20.97 30.7613 22.3631C30.6 22.501 30.4372 22.6374 30.273 22.772C29.9269 23.0621 29.9269 23.0621 29.8214 23.5044C29.8415 23.6112 29.8617 23.7179 29.8824 23.8279C29.8885 23.9186 29.8945 24.0092 29.9007 24.1026C29.9269 24.1731 29.9531 24.2436 29.9801 24.3162C30.1408 24.3862 30.304 24.4504 30.4684 24.5115C30.6418 24.5982 30.8142 24.6869 30.9856 24.7774C32.7206 25.6787 34.466 26.3775 36.3442 26.9238C37.7885 27.3444 39.01 27.8796 40.1363 28.906C40.1833 28.9483 40.2302 28.9906 40.2786 29.0342C41.2587 29.9273 41.9133 30.9209 42.4618 32.1287C42.4889 32.1876 42.5161 32.2466 42.5441 32.3073C43.0112 33.3903 43.1093 34.4893 43.1024 35.6562C43.1026 35.7995 43.103 35.9427 43.1034 36.0859C43.1044 36.4706 43.1035 36.8553 43.1021 37.24C43.101 37.6438 43.1014 38.0476 43.1016 38.4514C43.1017 39.1281 43.1006 39.8047 43.0988 40.4813C43.0968 41.2639 43.0964 42.0464 43.097 42.829C43.0976 43.5832 43.097 44.3375 43.0959 45.0917C43.0955 45.4124 43.0954 45.733 43.0956 46.0537C43.0958 46.4302 43.095 46.8067 43.0935 47.1832C43.093 47.3215 43.093 47.4599 43.0932 47.5982C43.0935 47.7864 43.0925 47.9747 43.0915 48.1629C43.0913 48.2684 43.0911 48.3739 43.0909 48.4825C43.066 48.7303 43.066 48.7303 42.8707 48.9256C42.6175 48.9501 42.6175 48.9501 42.289 48.9502C42.1642 48.9507 42.0395 48.9512 41.9109 48.9517C41.7711 48.9513 41.6314 48.9508 41.4916 48.9504C41.3442 48.9506 41.1967 48.9509 41.0492 48.9513C40.6425 48.9521 40.2358 48.9517 39.8291 48.9511C39.3911 48.9507 38.9531 48.9513 38.5151 48.9519C37.6564 48.9528 36.7977 48.9526 35.939 48.952C35.2414 48.9516 34.5438 48.9515 33.8462 48.9517C33.7471 48.9517 33.648 48.9518 33.5459 48.9518C33.3446 48.9519 33.1432 48.9519 32.9419 48.952C31.0521 48.9526 29.1623 48.9519 27.2726 48.9509C25.6494 48.95 24.0263 48.9501 22.4032 48.951C20.5204 48.9521 18.6376 48.9525 16.7548 48.9519C16.5542 48.9518 16.3536 48.9518 16.153 48.9517C16.0543 48.9517 15.9555 48.9517 15.8538 48.9516C15.1567 48.9515 14.4596 48.9517 13.7625 48.9522C12.9135 48.9527 12.0644 48.9526 11.2154 48.9516C10.7818 48.951 10.3483 48.9508 9.91473 48.9515C9.51837 48.9521 9.12203 48.9518 8.72568 48.9507C8.58176 48.9505 8.43784 48.9506 8.29392 48.9511C8.09935 48.9517 7.90477 48.951 7.71019 48.9502C7.60179 48.9501 7.4934 48.9501 7.38172 48.9501C7.1285 48.9256 7.12851 48.9256 6.93319 48.7303C6.9078 48.4842 6.9078 48.4842 6.90642 48.1669C6.90545 48.0468 6.90447 47.9268 6.90347 47.8032C6.90338 47.6694 6.90332 47.5356 6.90327 47.4018C6.90253 47.2614 6.9017 47.1211 6.90081 46.9807C6.89866 46.5982 6.8978 46.2158 6.89731 45.8333C6.89695 45.5937 6.89634 45.3541 6.89565 45.1145C6.89325 44.2766 6.89198 43.4386 6.89164 42.6007C6.89128 41.8234 6.88838 41.0462 6.88427 40.269C6.88086 39.5996 6.87937 38.9302 6.87931 38.2608C6.87923 37.862 6.87841 37.4632 6.8756 37.0644C6.84966 33.141 6.84966 33.141 7.84872 31.4329C7.88689 31.3647 7.92505 31.2965 7.96438 31.2263C8.26109 30.7069 8.57921 30.2272 8.98397 29.785C9.06807 29.6919 9.15216 29.5989 9.2388 29.503C10.6798 27.9606 12.4085 27.2656 14.4156 26.7184C16.0635 26.2682 17.6051 25.654 19.1402 24.9021C19.2247 24.8609 19.3092 24.8196 19.3962 24.7771C19.5157 24.7153 19.5157 24.7153 19.6377 24.6523C19.7444 24.5976 19.7444 24.5976 19.8534 24.5419C20.0613 24.3813 20.0811 24.279 20.1168 24.0232C20.129 23.9422 20.1412 23.8611 20.1538 23.7776C20.1951 23.2332 20.1951 23.2332 19.9734 22.7533C19.8394 22.6303 19.7035 22.5095 19.5659 22.3905C18.1428 21.0145 17.6604 18.9918 17.5777 17.0896C17.4629 17.0574 17.3481 17.0252 17.2298 16.992C16.7162 16.7959 16.3989 16.4811 16.1129 16.0154C15.8718 15.3893 15.8905 14.8823 16.1129 14.2576C16.1673 14.171 16.2216 14.0844 16.2777 13.9952C16.4458 13.699 16.3931 13.6077 16.3082 13.281C16.2516 13.1028 16.1949 12.9247 16.1358 12.7473C15.3421 10.3469 15.3784 7.66841 16.5035 5.37089C16.8807 4.84134 17.2932 4.55623 17.9409 4.44735C18.1219 4.42422 18.3029 4.40184 18.4841 4.38022C18.8489 4.26542 19.0036 4.10907 19.2379 3.80839C19.3376 3.46536 19.3376 3.46536 19.3783 3.09428C19.5026 2.33869 19.7224 1.91117 20.2919 1.40742C21.428 0.611925 23.3561 1.12962 24.6615 1.25514ZM20.9835 2.50224C20.7225 2.83278 20.6356 3.13423 20.5677 3.54747C20.4538 4.22241 20.2907 4.78195 19.7388 5.22441C19.2961 5.4973 18.8945 5.59776 18.3834 5.68217C17.9363 5.77284 17.9363 5.77284 17.5937 6.05296C17.4582 6.3109 17.3672 6.55626 17.2848 6.83574C17.2406 6.98283 17.2406 6.98283 17.1955 7.1329C16.6691 9.07384 16.8042 11.0372 17.5777 12.8904C17.61 12.8904 17.6422 12.8904 17.6754 12.8904C17.6763 12.8226 17.6772 12.7548 17.6781 12.6849C17.7106 10.7676 17.8078 9.38601 19.1768 7.93437C19.6223 7.51393 20.0964 7.06792 20.721 6.99443C21.0708 7.16542 21.2175 7.38162 21.4264 7.70434C21.9429 8.38844 22.7255 8.60294 23.5448 8.72072C25.0634 8.88792 26.6592 8.81041 28.0147 8.04423C28.2851 7.74204 28.4363 7.41347 28.6018 7.04516C28.7105 6.83574 28.7105 6.83574 28.9058 6.73808C29.4404 6.67263 29.7605 6.86014 30.1876 7.15312C30.2469 7.19177 30.3062 7.23041 30.3673 7.27023C30.6982 7.49015 30.9686 7.72534 31.2496 8.00761C31.3141 8.00761 31.3785 8.00761 31.4449 8.00761C31.4713 8.06401 31.4978 8.1204 31.525 8.17851C31.6408 8.39938 31.774 8.58773 31.921 8.78886C32.5714 9.76525 32.6832 10.7715 32.7144 11.9139C32.7467 11.9139 32.7789 11.9139 32.8121 11.9139C33.349 9.72784 33.0207 7.35263 32.2262 5.27324C32.1708 5.30131 32.1154 5.32938 32.0583 5.3583C31.8393 5.46667 31.6189 5.56964 31.3961 5.66996C31.3226 5.70332 31.2491 5.73668 31.1733 5.77105C30.7974 5.92395 30.4713 5.97211 30.0655 5.97514C29.9807 5.97652 29.8958 5.97791 29.8084 5.97934C29.5894 5.95683 29.5894 5.95683 29.3941 5.76152C29.3636 5.41972 29.3636 5.41972 29.3941 5.07792C29.6856 4.88363 29.8164 4.84808 30.151 4.79716C30.9514 4.64475 31.4625 4.27771 31.9332 3.61308C32.1329 3.24097 32.1342 2.95623 32.1285 2.53886C32.0363 2.54529 31.9441 2.55172 31.8492 2.55834C29.0862 2.74737 26.3973 2.7068 23.6396 2.44285C22.2748 2.23577 22.2748 2.23577 20.9835 2.50224ZM29.4918 8.20292C29.4586 8.24661 29.4253 8.29029 29.3911 8.33529C28.5782 9.34929 27.4877 9.71726 26.2227 9.86675C24.4702 10.0444 22.5334 10.0622 20.9957 9.08183C20.8108 8.92828 20.6644 8.77676 20.5074 8.59355C19.8425 8.87852 19.3759 9.50349 19.0975 10.156C18.7565 11.0367 18.8203 12.0652 18.7923 12.9942C18.7881 13.1266 18.7838 13.2591 18.7795 13.3915C18.7693 13.7127 18.7593 14.034 18.7496 14.3553C18.6295 14.3696 18.6295 14.3696 18.507 14.3843C18.4017 14.3989 18.2965 14.4135 18.1881 14.4285C18.0317 14.4489 18.0317 14.4489 17.8722 14.4697C17.5341 14.5626 17.3987 14.6647 17.1871 14.9412C17.155 15.2448 17.155 15.2448 17.2848 15.5271C17.6221 15.7717 17.9261 15.8359 18.3315 15.8762C18.41 15.8842 18.4885 15.8922 18.5694 15.9005C18.6586 15.909 18.6586 15.909 18.7496 15.9178C18.754 15.9831 18.7584 16.0485 18.7629 16.1159C18.7838 16.4182 18.8064 16.7203 18.8289 17.0225C18.8358 17.1253 18.8427 17.2281 18.8497 17.334C18.9963 19.2399 19.7567 20.8837 21.2154 22.1434C22.5433 23.1762 24.1936 23.7156 25.8785 23.535C27.7093 23.2436 29.2131 22.3778 30.3634 20.9074C31.1672 19.7086 31.4451 18.5108 31.5487 17.0896C31.5637 16.8882 31.579 16.6868 31.5948 16.4854C31.6045 16.3534 31.6045 16.3534 31.6143 16.2187C31.6402 16.0154 31.6402 16.0154 31.7379 15.9178C32.0086 15.8732 32.28 15.8361 32.5519 15.7999C32.8215 15.7423 32.8215 15.7423 32.9941 15.539C33.1523 15.2437 33.0966 15.0615 33.0074 14.7459C32.7612 14.4997 32.6091 14.4996 32.2689 14.4468C31.7474 14.3648 31.7474 14.3648 31.6402 14.2576C31.6271 14.0702 31.6203 13.8824 31.6162 13.6946C31.613 13.5772 31.6098 13.4599 31.6065 13.339C31.6006 13.0934 31.595 12.8477 31.5897 12.602C31.5488 11.1472 31.4336 9.95989 30.4382 8.84494C30.1544 8.58081 29.8301 8.38928 29.4918 8.20292ZM21.3863 23.8279C21.3838 23.8834 21.3813 23.939 21.3787 23.9962C21.3371 24.5622 21.2204 24.9216 20.898 25.3904C20.8336 25.4227 20.7691 25.4549 20.7027 25.4881C20.6978 26.0629 20.6943 26.6376 20.692 27.2124C20.691 27.4074 20.6897 27.6024 20.688 27.7974C20.672 29.6782 20.6708 31.3647 22.0505 32.8153C22.96 33.6296 24.0798 34.008 25.2926 33.9842C26.5076 33.825 27.4959 33.3343 28.3199 32.4217C29.3431 30.9561 29.3206 29.4942 29.3307 27.7756C29.3323 27.5725 29.335 27.3694 29.3387 27.1662C29.344 26.8709 29.3462 26.5757 29.3476 26.2804C29.3509 26.1449 29.3509 26.1449 29.3543 26.0066C29.3523 25.3872 29.2361 25.1501 28.8082 24.7068C28.7039 24.4438 28.6661 24.206 28.6129 23.9256C28.5148 23.9656 28.4168 24.0056 28.3157 24.0469C25.9109 25.0046 23.7362 24.7935 21.3863 23.8279ZM33.691 27.5389C33.6865 28.4065 33.683 29.2742 33.6809 30.1419C33.6799 30.545 33.6785 30.948 33.6763 31.351C33.6741 31.7411 33.673 32.1311 33.6725 32.5212C33.6721 32.6689 33.6714 32.8166 33.6704 32.9643C33.6567 34.9356 33.8839 36.6675 35.2535 38.1834C35.8651 38.7641 36.4601 39.1358 37.2066 39.5506C37.2389 42.2576 37.2711 44.9646 37.3043 47.7537C38.8189 47.7537 40.3336 47.7537 41.8941 47.7537C41.8986 46.1908 41.9022 44.6279 41.9043 43.0649C41.9053 42.3391 41.9066 41.6132 41.9089 40.8873C41.9108 40.2539 41.9121 39.6204 41.9125 38.987C41.9128 38.6523 41.9133 38.3176 41.9148 37.9829C41.9261 35.0208 41.784 32.4558 39.648 30.1756C38.28 28.8547 35.6574 27.5389 33.691 27.5389ZM30.4684 26.074C30.4682 26.1295 30.4681 26.185 30.4679 26.2421C30.466 26.8269 30.4606 27.4115 30.4534 27.9963C30.4512 28.2136 30.4498 28.4309 30.4493 28.6483C30.4435 30.6278 30.2407 32.2627 28.7708 33.7278C27.5342 34.7776 26.096 35.2394 24.485 35.1354C22.9164 34.9344 21.6064 34.2773 20.6112 33.032C20.0503 32.238 19.627 31.2794 19.6085 30.2958C19.6055 30.158 19.6055 30.158 19.6026 30.0175C19.6009 29.9191 19.5993 29.8207 19.5976 29.7193C19.5956 29.618 19.5935 29.5167 19.5915 29.4123C19.5851 29.0889 19.5793 28.7656 19.5736 28.4422C19.5694 28.2228 19.5651 28.0035 19.5608 27.7841C19.5503 27.2467 19.5404 26.7092 19.5308 26.1717C19.2072 26.3158 18.8838 26.4603 18.5604 26.605C18.4681 26.6461 18.3757 26.6872 18.2806 26.7296C18.1928 26.7689 18.105 26.8082 18.0145 26.8488C17.8925 26.9032 17.8925 26.9032 17.7681 26.9588C17.5819 27.0357 17.5819 27.0357 17.4801 27.1482C17.4686 27.2885 17.4637 27.4294 17.4616 27.5701C17.4599 27.6598 17.4583 27.7494 17.4566 27.8417C17.4553 27.9391 17.454 28.0366 17.4526 28.137C17.4508 28.2363 17.449 28.3357 17.4472 28.438C17.4414 28.7568 17.4362 29.0756 17.4312 29.3943C17.4247 29.8134 17.4175 30.2326 17.4099 30.6517C17.4086 30.7491 17.4072 30.8466 17.4059 30.947C17.4042 31.0366 17.4026 31.1262 17.4009 31.2185C17.3991 31.3375 17.3991 31.3375 17.3972 31.4588C17.3824 31.6404 17.3824 31.6404 17.2848 31.7381C17.1078 31.751 17.1078 31.751 16.8941 31.7503C16.8236 31.7505 16.7531 31.7508 16.6805 31.751C16.5035 31.7381 16.5035 31.7381 16.4058 31.6404C16.3902 31.3376 16.3805 31.0367 16.375 30.7337C16.3729 30.6428 16.3709 30.5519 16.3688 30.4582C16.3624 30.1667 16.3566 29.8751 16.3509 29.5835C16.3467 29.3864 16.3424 29.1892 16.3381 28.9921C16.3277 28.5077 16.3178 28.0233 16.3082 27.5389C13.3869 28.2488 13.3869 28.2488 10.8394 29.785C10.7567 29.8469 10.7567 29.8469 10.6724 29.9101C9.33114 30.9539 8.47063 32.718 8.20272 34.3748C8.11247 35.1836 8.09138 35.9871 8.09398 36.8003C8.09397 36.9195 8.09395 37.0387 8.09394 37.1616C8.09399 37.4845 8.09448 37.8075 8.09517 38.1304C8.09578 38.4694 8.09583 38.8084 8.09595 39.1474C8.09625 39.7876 8.09705 40.4277 8.09803 41.0679C8.09913 41.7974 8.09966 42.527 8.10015 43.2565C8.10117 44.7556 8.10296 46.2546 8.10507 47.7537C9.61972 47.7537 11.1344 47.7537 12.6949 47.7537C12.6861 47.1717 12.6773 46.5898 12.6682 45.9902C12.6657 45.6203 12.6635 45.2505 12.6629 44.8807C12.6618 44.2942 12.6592 43.708 12.6477 43.1216C12.6385 42.6485 12.6361 42.1758 12.6382 41.7026C12.6379 41.5226 12.6351 41.3426 12.6299 41.1627C12.5924 39.789 12.5924 39.789 12.9247 39.3931C13.248 39.1196 13.6046 38.9403 13.9865 38.7631C15.1216 38.1639 15.7649 36.8344 16.1316 35.6634C16.2286 35.333 16.3188 35.0009 16.4058 34.6678C16.6645 34.5922 16.7884 34.5684 17.0589 34.625C17.2848 34.7654 17.2848 34.7654 17.3534 35.0313C17.4617 36.2271 16.7912 37.6015 16.0492 38.5191C15.4155 39.2515 14.6959 39.8344 13.8668 40.3318C13.8668 42.781 13.8668 45.2303 13.8668 47.7537C21.2144 47.7537 28.5621 47.7537 36.1324 47.7537C36.1324 45.3045 36.1324 42.8553 36.1324 40.3318C35.5523 39.9451 35.5523 39.9451 34.9605 39.5506C33.6893 38.5971 32.8833 37.0991 32.6168 35.5467C32.5606 34.8839 32.569 34.217 32.5668 33.5523C32.5652 33.3613 32.5634 33.1703 32.5615 32.9794C32.5569 32.4804 32.554 31.9814 32.5514 31.4825C32.5485 30.9718 32.5439 30.4612 32.5395 29.9505C32.5312 28.9513 32.5246 27.9521 32.5191 26.9529C32.2142 26.8058 31.909 26.6596 31.6036 26.5135C31.5167 26.4715 31.4299 26.4296 31.3404 26.3864C31.2573 26.3468 31.1742 26.3071 31.0886 26.2663C31.0119 26.2295 30.9352 26.1926 30.8562 26.1547C30.6684 26.0614 30.6684 26.0614 30.4684 26.074Z" fill="#34B7FE"/>
<path d="M10.1558 37.9881C10.3181 38.0886 10.3181 38.0886 10.4488 38.281C10.4782 38.546 10.4898 38.7886 10.4882 39.0537C10.4889 39.1323 10.4896 39.211 10.4903 39.292C10.4921 39.5522 10.4917 39.8123 10.4911 40.0724C10.4916 40.253 10.4921 40.4336 10.4927 40.6142C10.4935 40.9929 10.4933 41.3715 10.4923 41.7501C10.4912 42.2358 10.4932 42.7215 10.496 43.2072C10.4978 43.5801 10.4978 43.9531 10.4972 44.3261C10.4972 44.5052 10.4978 44.6843 10.499 44.8634C10.5005 45.1136 10.4995 45.3637 10.4978 45.6139C10.4992 45.7253 10.4992 45.7253 10.5006 45.8389C10.4961 46.1613 10.4917 46.3396 10.2695 46.5824C9.97105 46.7195 9.78304 46.6697 9.47221 46.5818C9.22686 46.3365 9.25275 46.1859 9.24935 45.8511C9.24959 45.7765 9.24983 45.7018 9.25008 45.6249C9.24958 45.5463 9.24908 45.4677 9.24857 45.3867C9.24721 45.126 9.2473 44.8654 9.24753 44.6047C9.24715 44.4239 9.24673 44.2432 9.24626 44.0624C9.24553 43.6832 9.24556 43.304 9.24607 42.9248C9.24664 42.4384 9.24499 41.9519 9.24272 41.4655C9.24128 41.0921 9.2412 40.7187 9.2415 40.3453C9.24145 40.1659 9.24094 39.9865 9.23996 39.8072C9.23875 39.5565 9.23941 39.3059 9.24054 39.0553C9.2398 38.9808 9.23905 38.9064 9.23828 38.8297C9.24328 38.3307 9.24328 38.3307 9.40735 38.0885C9.66381 37.9301 9.86236 37.9514 10.1558 37.9881Z" fill="#34B7FE"/>
<path d="M10.254 35.5469C10.5243 35.8172 10.4849 35.9939 10.492 36.3708C10.4959 36.4835 10.4998 36.5962 10.5038 36.7123C10.4493 37.0117 10.4493 37.0117 10.2223 37.2028C9.96101 37.3047 9.96101 37.3047 9.64363 37.2314C9.37508 37.1094 9.37508 37.1094 9.27742 37.0117C9.26002 36.8047 9.25126 36.5969 9.2469 36.3891C9.24325 36.2756 9.2396 36.1621 9.23584 36.0451C9.27742 35.7422 9.27742 35.7422 9.45557 35.5541C9.75469 35.4064 9.93869 35.4578 10.254 35.5469Z" fill="#34B7FE"/>
</svg>
