<svg width="28" height="28" viewBox="0 0 28 28" fill="none" xmlns="http://www.w3.org/2000/svg">
<g clip-path="url(#clip0_199_208)">
<path d="M11.1566 2.16563C10.8012 2.31875 10.6152 2.52109 10.2816 3.08438C10.1012 3.39609 9.92071 3.68047 9.88243 3.70781C9.84415 3.74063 9.17696 4.025 8.39493 4.34766C7.6129 4.66484 6.84181 5.00391 6.68321 5.10234C6.2129 5.38672 5.72618 5.93906 5.41993 6.55156C5.27228 6.84141 3.99259 9.51563 2.57618 12.4852C-0.169131 18.2438 -0.136318 18.1672 0.0988381 18.468C0.148057 18.5336 1.05587 19.0367 2.10587 19.5836C4.23321 20.6883 4.33712 20.7211 4.63243 20.4422C4.73087 20.3438 5.2504 19.2938 6.15274 17.3469C6.92931 15.6734 7.5254 14.4484 7.53634 14.5141C7.55821 14.6781 7.71681 17.8773 7.74962 18.7195C7.77149 19.332 7.76056 19.4523 7.66759 19.6492C7.59102 19.8078 7.44337 20.6773 7.16993 22.5313C6.95665 23.9914 6.78165 25.2492 6.78165 25.3313C6.78165 25.55 6.88009 25.725 7.05509 25.8289C7.19727 25.9164 7.76056 25.9219 14.0004 25.9219C20.2402 25.9219 20.8035 25.9164 20.9457 25.8289C21.1262 25.725 21.2191 25.5445 21.2191 25.3039C21.2191 24.9758 21.0059 23.8273 20.9293 23.7508C20.891 23.7125 20.7652 23.6633 20.6613 23.6414C20.4918 23.6195 20.4371 23.6359 20.3113 23.7617C20.1527 23.9203 20.1527 23.9641 20.2676 24.7844L20.3059 25.0469H15.7887C12.1957 25.0469 11.277 25.0305 11.2934 24.9813C11.3043 24.943 11.5285 23.9641 11.791 22.8047C12.0481 21.6453 12.2832 20.6609 12.3051 20.6172C12.3324 20.5734 12.4856 20.4641 12.6496 20.3766C12.9395 20.218 12.9504 20.218 13.1418 20.3055C13.4152 20.4367 14.5856 20.4367 14.859 20.3055C15.0504 20.218 15.0613 20.218 15.3621 20.3766C15.5699 20.4805 15.9473 20.8086 16.5434 21.3883C17.0246 21.8586 17.4785 22.2578 17.5441 22.2852C17.834 22.3727 18.009 22.2742 18.5832 21.6891C19.1137 21.1531 19.141 21.1148 19.141 20.8961C19.141 20.6883 19.1082 20.6281 18.8293 20.3383L18.5231 20.0156H19.0207C19.2941 20.0156 19.5293 20.0375 19.5457 20.0648C19.5676 20.0922 19.6551 20.6172 19.7426 21.2242C19.8848 22.143 19.934 22.3617 20.027 22.4602C20.1527 22.5914 20.3879 22.6242 20.5574 22.5313C20.7871 22.4109 20.7926 22.2469 20.5957 20.9563C20.4809 20.1852 20.377 19.693 20.3223 19.6C20.2457 19.4852 20.2348 19.3539 20.2512 18.7414C20.284 17.9102 20.4426 14.6836 20.4645 14.5141C20.4754 14.4484 21.0606 15.6461 21.8481 17.3414C22.7504 19.2883 23.2699 20.3438 23.3684 20.4422C23.6637 20.7211 23.7676 20.6883 25.8949 19.5836C26.9504 19.0367 27.8527 18.5336 27.902 18.468C28.1426 18.1672 28.1754 18.2492 25.4246 12.4852C24.0082 9.51016 22.7231 6.83594 22.5699 6.54063C22.2527 5.91719 21.7879 5.38125 21.3176 5.10234C21.159 5.00391 20.3879 4.66484 19.6059 4.34766C18.8238 4.025 18.1566 3.74063 18.1184 3.70781C18.0801 3.68047 17.9051 3.40156 17.7246 3.10078C17.3582 2.47188 17.2488 2.35156 16.8988 2.19297C16.6637 2.08359 16.5543 2.07813 14.0004 2.08359C11.7637 2.08359 11.3207 2.09453 11.1566 2.16563ZM16.1551 3.07344C16.1387 3.13906 16.084 3.27031 16.0457 3.37422L15.9691 3.55469H14.0004H12.0316L11.9551 3.37422C11.9168 3.27031 11.8621 3.13906 11.8457 3.07344L11.8074 2.95313H14.0004H16.1934L16.1551 3.07344ZM11.616 4.92188C11.9059 5.66016 12.1848 6.29453 12.234 6.32734C12.2832 6.36563 12.4199 6.39844 12.5293 6.39844C12.6879 6.39844 12.759 6.36563 12.8465 6.25625C12.9121 6.17422 12.9613 6.06484 12.9613 6.01016C12.9613 5.95547 12.841 5.6 12.6879 5.21719C12.5402 4.83438 12.4145 4.50078 12.4145 4.47344C12.4145 4.45156 13.1363 4.42969 14.0223 4.42969H15.6301L14.8262 6.45313C14.3887 7.56328 14.0168 8.47109 14.0004 8.47656C13.984 8.47656 13.902 8.28516 13.8145 8.05547C13.6176 7.51953 13.459 7.36094 13.1965 7.39922C12.7152 7.48125 12.7098 7.65625 13.1582 8.79375L13.5191 9.72344L13.3934 10.057C13.3223 10.243 13.2457 10.3906 13.2293 10.3906C13.202 10.3906 10.7848 4.34766 10.741 4.16172C10.7191 4.08516 11.0309 3.51641 11.0691 3.56016C11.0801 3.57109 11.3262 4.18359 11.616 4.92188ZM17.1613 3.89375L17.2926 4.12891L16.2699 6.69922C13.6066 13.4039 13.1801 14.5086 13.1801 14.7055C13.1801 14.7602 13.2293 14.8695 13.2949 14.9516C13.4371 15.132 13.7652 15.1539 13.9184 14.9844C13.9731 14.9188 14.1262 14.5852 14.2574 14.2297C14.8699 12.5672 18.0199 4.70313 18.0746 4.70313C18.2168 4.70313 20.6887 5.74766 20.9074 5.90078C21.4926 6.3 21.4598 6.23984 24.2488 12.0914C25.6926 15.1102 26.9121 17.6695 26.9668 17.7789L27.0598 17.9703L25.5176 18.7742C24.6645 19.2172 23.9426 19.5781 23.9152 19.5781C23.8879 19.5781 23.1223 17.9703 22.209 16.007L20.5465 12.4414L20.634 10.2102C20.6996 8.58594 20.7051 7.94609 20.6613 7.84766C20.5902 7.68906 20.3387 7.57969 20.1527 7.62344C19.852 7.7 19.8629 7.55781 19.6606 12.5016C19.5566 15.0227 19.4691 17.2211 19.4691 17.3742V17.6641H17.309C15.2145 17.6641 15.1488 17.6586 15.0941 17.5547C14.9738 17.3359 14.7606 17.2813 13.9731 17.2813C13.2895 17.2813 13.2293 17.2758 13.2566 17.1828C13.2676 17.1336 13.3113 16.9859 13.3496 16.8602C13.4809 16.4063 13.1582 16.0727 12.7699 16.2586C12.5949 16.3406 12.5731 16.3898 12.3816 17.0078L12.1793 17.6641H11.884C11.6707 17.6641 11.5941 17.6422 11.5941 17.5875C11.5941 17.4563 12.491 14.7984 12.8902 13.7539C14.0879 10.6148 16.9316 3.56563 16.9809 3.60938C17.0082 3.63672 17.0902 3.7625 17.1613 3.89375ZM11.3699 8.18672L12.7481 11.6703L12.4418 12.4523C11.7637 14.1859 10.8231 16.893 10.6918 17.4836L10.6535 17.6641H9.59259H8.53165V17.3742C8.53165 17.2211 8.44415 15.0227 8.34024 12.5016C8.1379 7.55781 8.14884 7.7 7.84806 7.62344C7.66212 7.57969 7.38321 7.7 7.32852 7.85313C7.29571 7.92969 7.31759 8.89766 7.36681 10.2102L7.45431 12.4414L5.79727 16.0125C4.87853 17.9703 4.1129 19.5781 4.08556 19.5781C4.05821 19.5781 3.34181 19.2172 2.48868 18.7797L0.941026 17.9758L1.35118 17.1227C6.02149 7.31719 6.37696 6.59531 6.61212 6.33281C6.74337 6.18516 6.95665 5.99375 7.08243 5.90625C7.31759 5.74766 9.74024 4.71406 9.89884 4.70859C9.96446 4.70313 10.3582 5.63828 11.3699 8.18672ZM14.3285 18.8398V19.5234H14.0004H13.6723V18.8398V18.1563H14.0004H14.3285V18.8398ZM10.9106 18.6648C10.8231 18.7305 10.659 18.8672 10.5496 18.9602L10.3527 19.1406H9.49415H8.64102V18.8398V18.5391H9.86056L11.0746 18.5445L10.9106 18.6648ZM19.3598 18.8398V19.1406H18.5066H17.6481L17.4512 18.9602C17.3418 18.8672 17.1832 18.7305 17.0902 18.6648L16.9262 18.5445L18.1457 18.5391H19.3598V18.8398ZM15.9856 19.0367C16.4121 19.25 16.866 19.6219 17.5004 20.2563L18.1293 20.8906L17.927 21.093L17.7246 21.2953L16.9645 20.5516C16.2754 19.8789 16.1551 19.7805 15.7066 19.5672L15.209 19.332L15.2035 19.0203V18.7031L15.477 18.8125C15.6301 18.8727 15.8598 18.9766 15.9856 19.0367ZM12.7973 19.0422L12.7918 19.332L12.2941 19.5672C11.8457 19.7805 11.7254 19.8789 11.0363 20.5516L10.2762 21.2953L10.0738 21.093L9.87149 20.8906L10.5004 20.2563C11.2168 19.5344 11.627 19.2227 12.2012 18.9492C12.7645 18.6867 12.7973 18.6922 12.7973 19.0422ZM9.17149 20.3383C8.89259 20.6281 8.85977 20.6883 8.85977 20.8906C8.85977 21.0984 8.89259 21.1586 9.20431 21.4813L9.55431 21.8477L9.19337 23.4445L8.8379 25.0469H8.27462C7.84806 25.0469 7.71134 25.0305 7.71134 24.9758C7.71134 24.8227 8.42227 20.1195 8.44962 20.0703C8.46602 20.0375 8.70665 20.0156 8.98009 20.0156H9.47774L9.17149 20.3383ZM10.7465 23.4008C10.5496 24.2758 10.391 25.0031 10.391 25.0195C10.391 25.0359 10.2434 25.0469 10.0574 25.0469C9.76759 25.0469 9.72931 25.0359 9.75665 24.9484C9.78946 24.85 10.3363 22.3836 10.3363 22.3453C10.3363 22.3344 10.4074 22.2961 10.4949 22.2633C10.577 22.225 10.741 22.0992 10.8559 21.9844C10.9707 21.8641 11.0746 21.7766 11.0856 21.7875C11.0965 21.7984 10.9434 22.5258 10.7465 23.4008Z" fill="#000C11"/>
<path d="M24.8828 17.5602C24.418 17.8008 24.0024 18.0415 23.9696 18.0907C23.8657 18.2219 23.8821 18.561 23.9969 18.6649C24.2211 18.8672 24.336 18.8454 25.2438 18.3751C25.725 18.129 26.1461 17.8883 26.1844 17.8446C26.2172 17.7954 26.25 17.6586 26.25 17.5493C26.25 17.3196 26.0586 17.1172 25.8453 17.1172C25.7852 17.1172 25.3477 17.3196 24.8828 17.5602Z" fill="#000C11"/>
<path d="M1.92528 17.2044C1.73934 17.3356 1.68465 17.527 1.77215 17.7348C1.83231 17.8825 1.96903 17.9754 2.73465 18.3637C3.66434 18.845 3.77919 18.8669 4.00887 18.6645C4.11825 18.5606 4.13465 18.2215 4.03622 18.0903C3.94325 17.97 2.29169 17.1169 2.15497 17.1169C2.09481 17.1169 1.9909 17.1551 1.92528 17.2044Z" fill="#000C11"/>
</g>
<defs>
<clipPath id="clip0_199_208">
<rect width="28" height="28" fill="white"/>
</clipPath>
</defs>
</svg>
