<svg width="203" height="60" viewBox="0 0 203 60" fill="none" xmlns="http://www.w3.org/2000/svg">
<path d="M114.269 13.3952C111.216 13.4894 110.669 13.5648 109.859 13.923C108.558 14.5073 107.39 15.5251 106.937 16.4487C106.183 18.0131 103.469 26.1368 103.375 27.0604C103.299 27.8897 103.356 28.0971 103.789 28.606C104.675 29.6615 105.033 29.6992 112.384 29.6992C118.378 29.6992 119.189 29.6615 120.112 29.3599C121.469 28.8887 122.676 28.0028 123.241 27.0415C123.863 25.986 126.898 17.278 127.011 16.2225C127.124 15.1858 126.653 14.3376 125.729 13.8476C124.881 13.414 120.207 13.2256 114.269 13.3952ZM122.205 17.4665C122.431 17.7304 122.299 18.277 121.243 21.387C120.508 23.5734 119.848 25.1567 119.603 25.4017C119.189 25.8352 119.132 25.8352 113.911 25.8352C111.008 25.8352 108.52 25.7787 108.351 25.7222C108.181 25.6656 108.049 25.5148 108.049 25.4017C108.049 25.0625 110.537 18.0319 110.763 17.7492C111.159 17.2403 111.8 17.1838 116.833 17.1838C121.337 17.1649 121.978 17.2026 122.205 17.4665Z" fill="#34B7FE"/>
<path d="M73.3681 13.6025C72.1618 13.8476 70.6539 14.6392 69.9942 15.3932C69.0894 16.411 68.6371 17.4665 66.9596 22.386C65.282 27.3431 65.2443 27.607 66.1302 28.6625C66.3941 28.9641 66.9219 29.3222 67.2988 29.4353C68.2601 29.7369 77.5336 29.8877 79.72 29.6238C80.6813 29.5296 81.8499 29.2657 82.3023 29.0772C83.4143 28.5871 84.5641 27.5128 85.0165 26.5327C85.3369 25.8541 87.316 20.2938 87.316 20.0676C87.316 20.0299 85.0919 19.9922 82.3588 19.9922H77.4017L76.8927 21.4058L76.4027 22.8195H79.3054C80.9075 22.8195 82.2269 22.876 82.2269 22.9326C82.2269 23.008 82.0384 23.5734 81.8122 24.1766C81.2091 25.8353 81.2468 25.8353 75.5545 25.8353C72.9157 25.8353 70.635 25.7787 70.4654 25.7222C70.2957 25.6656 70.1638 25.4583 70.1638 25.2886C70.1638 24.5724 72.6141 17.9943 73.0099 17.6738C73.3681 17.3723 74.0466 17.3534 80.8132 17.3534H88.2207L88.8993 15.4497C89.2762 14.413 89.5778 13.5271 89.5778 13.4706C89.5778 13.3198 74.1974 13.4329 73.3681 13.6025Z" fill="#34B7FE"/>
<path d="M90.9349 14.4696C89.3139 19.1817 85.808 29.1903 85.7138 29.4542C85.5819 29.7746 86.0154 29.7935 93.2155 29.7935H100.83L101.415 28.1348C101.735 27.2301 102.056 26.3442 102.112 26.1557C102.244 25.8541 101.924 25.8353 97.0418 25.8353C94.0449 25.8353 91.8396 25.7599 91.8396 25.6656C91.8396 25.5714 92.782 22.8007 93.9129 19.521C95.0627 16.2225 95.9863 13.5083 95.9863 13.4706C95.9863 13.4329 94.9307 13.3952 93.649 13.3952H91.3118L90.9349 14.4696Z" fill="#34B7FE"/>
<path d="M127.595 21.4435C126.069 25.873 124.825 29.5861 124.825 29.6615C124.825 29.7558 128.444 29.7935 132.892 29.7558C141.637 29.6615 141.958 29.6238 143.504 28.5494C145.407 27.2301 146.764 23.1965 145.69 22.1221C145.539 21.9713 145.106 21.7451 144.71 21.6132L143.994 21.3681L144.71 21.1231C146.368 20.5765 147.933 18.2958 148.121 16.1659C148.234 14.9219 147.952 14.3565 146.972 13.8664C146.255 13.5083 145.784 13.4895 138.301 13.4329L130.385 13.3764L127.595 21.4435ZM142.825 17.3534C143.24 17.8246 143.089 18.4655 142.373 19.2948L141.826 19.898L137.283 19.9545C134.701 19.9922 132.741 19.9357 132.741 19.8414C132.741 19.7095 133.231 18.2016 133.589 17.2026C133.646 17.033 134.72 16.9764 138.075 16.9764C142.222 16.9764 142.505 16.9953 142.825 17.3534ZM141.279 23.5923C141.562 24.0258 141.279 24.8551 140.657 25.4771L140.13 26.0237H135.399C132.798 26.0237 130.668 25.986 130.668 25.9672C130.668 25.8918 131.29 24.0258 131.516 23.4226C131.572 23.2342 132.647 23.1965 136.341 23.2342C140.45 23.2907 141.11 23.3284 141.279 23.5923Z" fill="#34B7FE"/>
<path d="M157.583 14.7523C156.679 15.7701 147.688 26.1557 144.842 29.4542C144.578 29.7746 144.691 29.7935 147.179 29.7935H149.799L151.005 28.3798L152.211 26.9662H157.056H161.9L162.126 28.3798L162.352 29.7935H164.991H167.63L167.498 29.1338C167.441 28.7756 166.819 25.119 166.122 20.9912L164.859 13.4895L161.824 13.4329L158.79 13.3952L157.583 14.7523ZM160.806 20.2184C161.033 21.7074 161.259 23.0645 161.315 23.2342C161.41 23.5546 161.183 23.5734 158.394 23.5734C156.716 23.5734 155.359 23.498 155.359 23.4227C155.359 23.3473 156.302 22.1786 157.451 20.8404C158.601 19.4833 159.694 18.2016 159.864 17.9754C160.034 17.7492 160.222 17.5419 160.279 17.5419C160.354 17.5419 160.58 18.7482 160.806 20.2184Z" fill="#34B7FE"/>
<path d="M173.868 14.4696C172.681 17.9 168.76 29.1903 168.647 29.4542C168.515 29.7746 168.949 29.7935 176.149 29.7935H183.764L184.348 28.1348C184.669 27.2301 184.989 26.3442 185.046 26.1557C185.178 25.8541 184.857 25.8353 179.975 25.8353C176.96 25.8353 174.773 25.7599 174.773 25.6656C174.773 25.5714 175.716 22.8007 176.847 19.521C177.996 16.2414 178.92 13.5083 178.92 13.4706C178.92 13.4329 177.864 13.3952 176.583 13.3952H174.245L173.868 14.4696Z" fill="#34B7FE"/>
<path d="M75.5544 41.1403C74.3104 44.7027 73.0287 48.397 72.6894 49.3583L72.0674 51.1112L74.4611 51.0546L76.8549 50.9981L77.7973 48.265L78.7586 45.532L84.2059 45.4378L89.6531 45.3435L90.2751 43.5906L90.8971 41.8565H85.5253C82.566 41.8565 80.1534 41.8 80.1534 41.7246C80.1534 41.6303 80.3796 40.9141 80.6435 40.1225L81.1335 38.6523L86.8823 38.6146L92.65 38.558L93.1778 36.9936C93.4793 36.1266 93.7621 35.2595 93.8186 35.0522C93.9317 34.6941 93.7432 34.6941 85.8645 34.6941H77.7785L75.5544 41.1403Z" fill="#34B7FE"/>
<path d="M95.5152 34.9203C94.9686 36.4658 89.9548 50.9792 89.9548 51.0358C89.9548 51.0735 91.0104 51.0923 92.2921 51.0923H94.6293L94.912 50.2818C95.0628 49.8483 96.2879 46.3048 97.645 42.422C99.0021 38.5392 100.171 35.203 100.227 35.0145C100.359 34.7129 100.171 34.6941 97.9843 34.6941C96.2503 34.6941 95.5717 34.7506 95.5152 34.9203Z" fill="#34B7FE"/>
<path d="M100.849 36.5224L100.189 38.3696L103.563 38.4261C105.411 38.445 106.918 38.5392 106.918 38.6146C106.918 38.69 105.938 41.4984 104.77 44.8723L102.64 50.9981L104.807 51.0546C106.014 51.0735 107.088 51.0735 107.182 51.0358C107.295 50.9792 108.37 48.1331 109.557 44.7027L111.725 38.4638H115.023H118.341L118.944 36.7109C119.283 35.7685 119.547 34.9203 119.547 34.826C119.547 34.7506 115.494 34.6941 110.518 34.6941H101.509L100.849 36.5224Z" fill="#34B7FE"/>
<path d="M120.414 37.1821C119.943 38.558 118.661 42.2147 117.587 45.287L115.645 50.9039H117.869H120.075L120.376 50.0934C120.546 49.6598 121.488 46.9834 122.468 44.1372C124.184 39.1612 124.372 38.69 124.504 38.8596C124.542 38.8973 125.71 41.6304 127.086 44.91L129.612 50.9039H133.514H137.415L137.905 49.5279C138.169 48.7928 139.432 45.155 140.714 41.4796L143.032 34.7883L140.865 34.7318C139.583 34.6941 138.659 34.7506 138.584 34.8637C138.527 34.9768 137.547 37.7287 136.416 41.0084C135.285 44.2692 134.305 46.8891 134.23 46.7949C134.154 46.7195 132.967 43.9676 131.591 40.6691L129.103 34.6941H125.201H121.281L120.414 37.1821Z" fill="#34B7FE"/>
<path d="M142.863 42.7612C141.336 47.1907 140.092 50.8661 140.092 50.9604C140.092 51.0358 143.88 51.0735 148.498 51.0546L156.905 50.9981L157.432 49.5844C157.715 48.8116 157.998 47.9823 158.073 47.7373L158.205 47.3226H152.174C147.443 47.3226 146.123 47.2661 146.142 47.0776C146.142 46.9645 146.331 46.3425 146.557 45.7205L146.972 44.5896L152.739 44.533L158.488 44.4953L158.922 43.1194C159.167 42.3843 159.412 41.6492 159.449 41.5172C159.525 41.3476 158.337 41.2911 153.87 41.2911C149.46 41.2911 148.197 41.2345 148.216 41.046C148.216 40.9329 148.404 40.3109 148.649 39.6889L149.083 38.558L155.189 38.5015L161.296 38.4638L161.918 36.7109C162.239 35.7307 162.522 34.8826 162.522 34.826C162.522 34.7506 158.733 34.6941 154.096 34.6941H145.652L142.863 42.7612Z" fill="#34B7FE"/>
<path d="M166.631 34.958C165.029 35.3915 163.879 36.5412 162.918 38.6711C161.485 41.8377 161.749 43.7979 163.653 44.2126C163.954 44.288 166.442 44.4388 169.194 44.5707C174.378 44.7969 174.773 44.8723 174.773 45.6639C174.773 46.1729 174.283 47.0587 173.887 47.2472C173.699 47.3415 170.532 47.4546 166.857 47.5111L160.166 47.6053L159.563 49.3017C159.223 50.2253 158.941 51.0169 158.941 51.0546C158.941 51.0923 162.446 51.0923 166.725 51.0546C175.094 50.9792 175.226 50.9792 176.771 49.9426C178.637 48.6609 180.447 43.9676 179.636 42.422C179.127 41.4419 178.449 41.3099 172.964 41.0649C170.174 40.9518 167.705 40.7822 167.479 40.7068C166.499 40.3486 167.215 38.6334 168.516 38.2753C168.93 38.1622 171.739 38.0868 175.376 38.0868H181.521L182.03 36.6166C182.313 35.825 182.577 35.0522 182.633 34.9203C182.765 34.581 167.912 34.6187 166.631 34.958Z" fill="#34B7FE"/>
<path d="M186.893 34.8826C186.573 34.958 185.913 35.2407 185.423 35.5234C183.84 36.447 182.35 39.2931 182.162 41.7246C182.087 42.8744 182.124 43.044 182.501 43.4587C182.746 43.7037 183.218 44.0053 183.557 44.1184C183.896 44.2314 186.441 44.4388 189.192 44.5519C193.886 44.7781 194.206 44.8158 194.583 45.1927C194.96 45.5508 194.979 45.6639 194.753 46.1917C194.621 46.5121 194.3 46.9456 194.037 47.1341C193.603 47.4922 193.245 47.5111 186.931 47.5111H180.296L179.693 49.1321C179.372 50.018 179.109 50.8284 179.109 50.9415C179.109 51.0546 181.955 51.0923 186.893 51.0546C195.865 50.9604 195.846 50.9604 197.486 49.3206C198.711 48.0954 199.672 45.9278 199.804 44.0618C199.993 41.4607 199.729 41.3476 193.019 41.0837C187.326 40.8387 186.893 40.7445 187.119 39.8209C187.289 39.1046 187.93 38.5015 188.702 38.2753C189.098 38.1622 192.039 38.0868 195.507 38.0868H201.651L202.16 36.5224C202.443 35.6554 202.669 34.9014 202.669 34.826C202.669 34.6564 187.647 34.6941 186.893 34.8826Z" fill="#34B7FE"/>
<path d="M28.0584 8.03526C13.8429 13.6702 7.52104 16.2316 6.86906 16.6158C5.69317 17.3143 3.80709 19.1538 2.98047 20.4229C1.7813 22.2624 0.873186 24.5326 0.314347 27.1056L0 28.5726V38.5851C0 46.6068 0.0349274 48.7257 0.162995 49.238C0.512269 50.7049 1.53681 52.2417 2.77091 53.2197L3.25989 53.6039L2.99212 53.1964C2.84076 52.9752 2.58463 52.5095 2.42164 52.1719C1.74637 50.7515 1.76966 51.1241 1.72309 41.03C1.68816 34.615 1.71144 31.3668 1.80458 30.61C2.30521 26.3489 3.8653 22.6815 6.22873 20.2016C7.25326 19.1305 8.11481 18.4436 9.15099 17.8848C9.55847 17.6519 16.2063 14.9742 23.9253 11.9238C31.6443 8.87351 39.8988 5.61362 42.2855 4.67058L46.6048 2.95914L47.4664 1.63189C48.5258 -0.0213394 48.5258 -0.00969696 48.4094 0.0019455C48.3629 0.013588 39.2002 3.62276 28.0584 8.03526Z" fill="#34B7FE"/>
<path d="M55.3602 2.77283C55.2671 2.83105 51.2854 4.42606 46.512 6.31215C41.7385 8.19823 32.2616 11.9587 25.4391 14.6598C18.6166 17.3609 12.7488 19.7243 12.3995 19.9222C8.79033 21.9247 6.07763 26.0229 5.07638 31.0175C4.59904 33.3693 4.56411 34.4986 4.63397 43.8824C4.71546 53.7087 4.69218 53.406 5.47223 55.0243C5.94957 55.9906 7.2186 57.411 8.19657 58.0746C10.8394 59.8675 14.239 60.4497 17.3359 59.6463C18.3604 59.3786 28.2216 55.5016 29.5954 54.8147C31.8075 53.732 33.8915 51.9623 35.0325 50.2392C36.8836 47.445 37.7335 44.255 37.9664 39.2836L38.0362 37.6537L46.8263 20.1551C51.6579 10.5384 55.5931 2.66805 55.5698 2.66805C55.5465 2.66805 55.4534 2.72626 55.3602 2.77283ZM45.4641 14.7995C43.9157 17.6403 42.5768 20.0153 42.5069 20.0968C42.4371 20.1667 37.5589 22.1226 31.6678 24.4395C25.7767 26.7447 20.4212 28.8986 19.7692 29.2129C17.7667 30.1909 16.7421 31.3784 16.3579 33.1713C16.2415 33.7535 16.032 37.8167 15.8224 43.8242C15.7292 46.2458 15.7875 46.63 16.323 47.2704C16.812 47.8525 17.464 48.1086 18.3954 48.1086C19.1638 48.097 19.4432 48.0155 22.2374 46.9095C23.9023 46.2575 25.4391 45.6172 25.6486 45.4774C26.1376 45.1398 26.58 44.5111 26.7896 43.8009C26.9992 43.1489 27.3019 41.0417 27.3019 40.2616V39.7377L30.9227 38.3057C32.9135 37.514 34.5551 36.8969 34.5784 36.9202C34.6483 36.9901 34.4154 41.0417 34.2874 41.9032C33.7867 45.361 32.5061 48.0854 30.4803 49.9365C29.6653 50.6933 28.1867 51.6712 27.2437 52.0904C25.4391 52.8937 19.3501 55.2338 18.57 55.4201C17.3592 55.7228 15.5546 55.7112 14.2623 55.4085C12.6323 55.0126 11.4448 54.3723 10.3504 53.2663C9.32589 52.2417 8.80197 51.3336 8.56912 50.1694C8.48763 49.7502 8.42941 46.7581 8.41777 41.5539C8.38284 34.289 8.40613 33.4857 8.59241 32.531C8.87183 31.1339 9.40738 29.4108 9.89637 28.3281C10.851 26.2441 12.6906 24.0436 14.2274 23.1472C14.6116 22.926 21.4806 20.1551 29.479 16.9999C37.4658 13.8332 44.9519 10.876 46.1045 10.4103C47.2571 9.95624 48.2234 9.58368 48.235 9.60697C48.2583 9.61861 47.0126 11.9587 45.4641 14.7995ZM38.9327 26.5002C38.9327 26.5584 37.9431 28.5609 36.7556 30.9593L34.5784 35.3252L30.0961 37.1065C24.1002 39.4932 22.4353 40.1335 22.3771 40.087C22.3655 40.0637 22.4586 38.8412 22.61 37.3626C22.7962 35.4882 22.9476 34.4986 23.1222 34.0445C23.4133 33.2528 24.2399 32.3797 25.1014 31.9372C25.6719 31.6578 38.6533 26.4536 38.8629 26.4303C38.9094 26.4187 38.9443 26.4536 38.9327 26.5002Z" fill="#34B7FE"/>
</svg>
