<svg width="25" height="24" viewBox="0 0 25 24" fill="none" xmlns="http://www.w3.org/2000/svg">
<path d="M20.5835 2H4.0835C3.35415 2 2.65468 2.2586 2.13895 2.71892C1.62323 3.17924 1.3335 3.80356 1.3335 4.45455L1.3335 20H23.3335V4.45455C23.3335 3.80356 23.0438 3.17924 22.528 2.71892C22.0123 2.2586 21.3128 2 20.5835 2ZM4.0835 3.63636H20.5835C20.8266 3.63636 21.0598 3.72256 21.2317 3.876C21.4036 4.02944 21.5002 4.23755 21.5002 4.45455V5.00027L14.2787 11.4467C13.7621 11.906 13.0626 12.1638 12.3335 12.1638C11.6044 12.1638 10.9049 11.906 10.3883 11.4467L3.16683 5.00027V4.45455C3.16683 4.23755 3.26341 4.02944 3.43531 3.876C3.60722 3.72256 3.84038 3.63636 4.0835 3.63636ZM3.16683 18.3636V7.31818L9.09216 12.6036C9.95257 13.3697 11.1182 13.7998 12.3335 13.7998C13.5488 13.7998 14.7144 13.3697 15.5748 12.6036L21.5002 7.31818V18.3636H3.16683Z" fill="#34B7FE"/>
</svg>
