<svg width="24" height="24" viewBox="0 0 24 24" fill="none" xmlns="http://www.w3.org/2000/svg">
<g clip-path="url(#clip0_191_1273)">
<path d="M14.2002 16.261C11.2886 15.0282 8.97325 12.7075 7.7472 9.79299L11.1472 6.38699L4.8872 0.121992L1.7162 3.29199C1.1662 3.84514 0.731342 4.50185 0.436795 5.22415C0.142247 5.94644 -0.00614821 6.71997 0.000195101 7.49999C0.000195101 14.748 9.25219 24 16.5002 24C17.2801 24.0068 18.0536 23.8586 18.7758 23.5641C19.498 23.2695 20.1545 22.8344 20.7072 22.284L23.8782 19.113L17.6132 12.848L14.2002 16.261ZM19.2922 20.87C18.925 21.234 18.489 21.5214 18.0097 21.7154C17.5304 21.9094 17.0172 22.0061 16.5002 22C10.2672 22 2.0002 13.733 2.0002 7.49999C1.99431 6.98282 2.09116 6.46963 2.28514 5.99018C2.47911 5.51074 2.76635 5.07457 3.1302 4.70699L4.8872 2.94999L8.3242 6.38699L5.38919 9.32199L5.63419 9.93599C6.35544 11.8653 7.48296 13.617 8.94035 15.0725C10.3977 16.528 12.1509 17.6533 14.0812 18.372L14.6872 18.603L17.6132 15.676L21.0502 19.113L19.2922 20.87Z" fill="#34B7FE"/>
</g>
<defs>
<clipPath id="clip0_191_1273">
<rect width="24" height="24" fill="white"/>
</clipPath>
</defs>
</svg>
