<svg width="61" height="60" viewBox="0 0 61 60" fill="none" xmlns="http://www.w3.org/2000/svg">
<path d="M41.9395 8.37105C44.6854 11.0361 47.5798 15.5058 47.7412 19.4604C47.7364 19.5353 47.7316 19.6102 47.7266 19.6874C47.9586 19.6874 48.1906 19.6874 48.4297 19.6874C48.4266 19.5658 48.4236 19.4441 48.4204 19.3188C48.4097 18.8623 48.403 18.4059 48.3975 17.9494C48.3946 17.7527 48.3906 17.5561 48.3855 17.3595C48.3534 16.0903 48.3449 15.0534 49.2327 14.052C49.9071 13.3727 50.8162 13.002 51.7695 12.9491C52.7387 13.0029 53.6232 13.3868 54.3216 14.0565C54.9094 14.7563 55.1764 15.503 55.2266 16.4062C55.3208 16.3675 55.4151 16.3288 55.5122 16.289C56.3603 16.0509 57.0713 16.1227 57.8789 16.4762C58.535 16.8649 58.9763 17.4438 59.211 18.164C59.234 18.4758 59.2454 18.7753 59.245 19.087C59.2458 19.1781 59.2466 19.2693 59.2474 19.3632C59.2496 19.6637 59.2501 19.9642 59.2503 20.2647C59.2511 20.4744 59.2519 20.6841 59.2527 20.8939C59.2541 21.3333 59.2545 21.7727 59.2544 22.2122C59.2544 22.7737 59.2576 23.3352 59.2616 23.8967C59.2642 24.3299 59.2647 24.7631 59.2646 25.1963C59.2648 25.4032 59.2659 25.6101 59.2677 25.8171C59.27 26.1073 59.2693 26.3974 59.2679 26.6877C59.2692 26.7722 59.2705 26.8566 59.2719 26.9437C59.2629 27.6734 59.0145 28.2637 58.5499 28.8267C57.8168 29.4299 57.135 29.7078 56.1783 29.6763C55.8403 29.6383 55.5403 29.5427 55.2266 29.414C55.2178 29.4948 55.2091 29.5756 55.2 29.6589C55.0518 30.7184 54.6823 31.4672 53.8496 32.1532C53.1147 32.6591 52.249 32.9077 51.3594 32.8124C50.2574 32.5946 49.4849 32.1401 48.8472 31.2084C48.4602 30.5979 48.4135 30.1057 48.4183 29.3943C48.4185 29.2546 48.4185 29.2546 48.4188 29.1121C48.4194 28.8147 48.4209 28.5174 48.4224 28.2201C48.423 28.0185 48.4235 27.8169 48.424 27.6152C48.4253 27.121 48.4273 26.6269 48.4297 26.1327C48.2363 26.1327 48.043 26.1327 47.8438 26.1327C47.8227 26.3611 47.8227 26.3611 47.8012 26.5942C47.738 27.159 47.6187 27.6942 47.4702 28.2421C47.4312 28.387 47.4312 28.387 47.3914 28.5347C45.8928 33.9708 42.6999 38.6136 38.9421 42.7432C38.7264 42.9819 38.5166 43.2245 38.3076 43.4692C37.8987 43.9409 37.457 44.3776 37.0104 44.8134C36.8695 44.9517 36.7314 45.0927 36.5938 45.2343C36.5938 45.273 36.5938 45.3116 36.5938 45.3515C36.6843 45.3656 36.7749 45.3796 36.8681 45.3941C46.9336 46.9739 46.9336 46.9739 49.3031 49.8975C49.7972 50.6021 49.7919 51.3167 49.7188 52.1484C49.3954 53.3532 48.2565 54.1314 47.2372 54.7265C39.099 59.0976 27.359 58.6872 7.80959 56.1474C5.56785 55.4556 3.34863 54.5793 1.89895 52.6464C1.6771 51.8773 1.63329 50.9809 1.96486 50.2367C3.37633 47.9151 6.71221 47.044 9.1719 46.4062C11.0294 45.9659 12.9072 45.6198 14.7969 45.3515C14.8226 45.1035 14.8226 45.1035 14.627 44.9225C14.5488 44.8462 14.4706 44.77 14.3899 44.6914C14.3038 44.6065 14.2176 44.5216 14.1288 44.4341C14.0375 44.3453 13.9462 44.2565 13.8521 44.165C13.1999 43.5279 12.5752 42.8819 11.9844 42.1874C11.8816 42.0691 11.7788 41.9509 11.6759 41.8327C6.69 36.0106 2.85798 29.0884 3.45632 21.2122C3.94803 16.2456 6.23983 11.8983 9.64065 8.32024C9.70847 8.24622 9.7763 8.1722 9.84618 8.09594C17.2034 0.314588 30.4275 -0.116686 41.9395 8.37105ZM13.625 7.03118C13.5052 7.11532 13.3854 7.19946 13.262 7.28615C12.3855 7.92287 11.595 8.62873 10.8125 9.37493C10.7137 9.46617 10.6149 9.55741 10.5131 9.65142C7.14896 12.8544 5.04928 17.7395 4.92934 22.3667C4.84382 29.3624 8.25202 35.3647 12.6875 40.5615C12.7388 40.6216 12.7901 40.6817 12.8429 40.7436C13.8734 41.9379 14.9604 43.0733 16.0773 44.1862C16.2852 44.3935 16.4924 44.6013 16.6996 44.8093C17.3737 45.4838 18.0521 46.1422 18.7813 46.7577C18.9264 46.8843 19.0714 47.0111 19.2161 47.1381C19.3593 47.2628 19.5024 47.3875 19.6455 47.5121C19.7502 47.6038 19.7502 47.6038 19.857 47.6973C20.8444 48.556 21.8791 49.3558 22.9195 50.1489C23.0258 50.23 23.1322 50.3111 23.2418 50.3947C24.0444 51.0036 24.8597 51.5859 25.6953 52.1484C26.5707 51.6093 27.4015 51.0336 28.2149 50.4052C28.3224 50.3226 28.43 50.24 28.5408 50.1549C29.2836 49.5827 30.0174 49.0027 30.7344 48.3984C30.8591 48.2941 30.9837 48.1899 31.1084 48.0857C31.7944 47.5105 32.4712 46.9269 33.133 46.3238C33.3173 46.1566 33.5024 45.9904 33.6889 45.8256C34.4519 45.1498 35.1776 44.442 35.8966 43.7202C36.089 43.5272 36.2819 43.3348 36.475 43.1426C37.1251 42.4929 37.7581 41.8352 38.3516 41.1327C38.4507 41.0197 38.5498 40.9068 38.6519 40.7903C41.8445 37.0861 46.3203 31.3014 46.3203 26.1327C43.536 26.1327 40.7516 26.1327 37.8828 26.1327C37.5542 26.9541 37.5542 26.9541 37.2259 27.7757C36.5782 29.35 35.6817 30.6551 34.4844 31.8749C34.401 31.9612 34.3176 32.0474 34.2317 32.1363C31.9188 34.3739 28.7426 35.4237 25.5686 35.4195C22.0216 35.3567 18.9489 33.9063 16.4851 31.3723C14.442 29.0704 13.3384 26.0609 13.354 22.998C13.3549 22.7969 13.3549 22.7969 13.3558 22.5918C13.3697 21.581 13.4613 20.6628 13.7422 19.6874C13.7821 19.5441 13.822 19.4007 13.8631 19.253C14.8328 16.0719 16.9957 13.5035 19.9238 11.9276C22.9373 10.3721 26.3905 10.1384 29.6254 11.106C32.7245 12.0995 35.2383 14.2348 36.7429 17.1122C36.8032 17.2304 36.8032 17.2304 36.8648 17.351C36.9015 17.4227 36.9383 17.4944 36.9761 17.5683C37.3161 18.2639 37.5146 18.9342 37.7656 19.6874C40.55 19.6874 43.3344 19.6874 46.2031 19.6874C46.0456 18.821 45.8824 18.0357 45.6026 17.2118C45.5486 17.0527 45.5486 17.0527 45.4935 16.8904C44.5199 14.0934 42.9407 11.7702 40.9297 9.6093C40.8534 9.52531 40.7771 9.44132 40.6985 9.35479C37.1421 5.59963 31.6271 3.45934 26.5156 3.28118C21.9397 3.20205 17.388 4.37692 13.625 7.03118ZM18.0781 15.1171C17.9975 15.189 17.9168 15.2609 17.8337 15.335C16.1248 16.9155 14.913 19.5397 14.7804 21.849C14.6625 25.2132 15.5054 28.0555 17.8071 30.5831C19.7354 32.6396 22.4051 33.8523 25.2229 34.0104C28.3614 34.1039 31.0704 32.9685 33.4004 30.8834C34.7494 29.6057 35.587 28.0947 36.2422 26.3671C36.2422 26.2898 36.2422 26.2124 36.2422 26.1327C35.0434 26.1327 33.8446 26.1327 32.6094 26.1327C32.6077 26.4237 32.6061 26.7146 32.6044 27.0144C32.6008 27.2999 32.5962 27.5853 32.5915 27.8708C32.5888 28.0674 32.5871 28.264 32.5865 28.4606C32.5813 29.8017 32.539 30.9127 31.5401 31.9189C30.8285 32.4634 29.9135 32.7874 29.0146 32.7406C28.0424 32.5788 27.1736 32.2263 26.5861 31.414C26.1715 30.7417 26.0271 30.0743 25.9297 29.2968C25.8161 29.3355 25.7025 29.3741 25.5855 29.414C24.7177 29.6544 23.977 29.5806 23.1525 29.219C22.5293 28.8572 22.1678 28.3324 21.9453 27.6562C21.9223 27.3444 21.9109 27.0449 21.9113 26.7332C21.9105 26.642 21.9097 26.5509 21.9089 26.4569C21.9067 26.1564 21.9062 25.856 21.906 25.5555C21.9052 25.3458 21.9044 25.136 21.9036 24.9263C21.9022 24.4869 21.9018 24.0474 21.9019 23.608C21.9019 23.0465 21.8987 22.485 21.8947 21.9235C21.8921 21.4903 21.8916 21.0571 21.8917 20.6239C21.8915 20.417 21.8904 20.21 21.8886 20.0031C21.8863 19.7129 21.887 19.4227 21.8884 19.1325C21.8871 19.048 21.8858 18.9635 21.8844 18.8765C21.8942 18.0731 22.1764 17.4696 22.7363 16.8969C23.4981 16.3842 24.1908 16.1889 25.1094 16.289C25.3932 16.35 25.6541 16.4295 25.9297 16.5234C25.9398 16.4425 25.9499 16.3617 25.9604 16.2785C26.1115 15.268 26.3747 14.4447 27.1895 13.7841C27.9841 13.2474 28.8397 12.9981 29.7969 13.1249C30.0757 13.199 30.3423 13.2864 30.6122 13.3881C30.8461 13.4745 31.0776 13.5375 31.3203 13.5937C30.2315 12.3661 27.8535 12.0274 26.3014 11.9228C23.149 11.8017 20.3434 12.9504 18.0781 15.1171ZM31.3203 13.5937C31.3657 13.6505 31.411 13.7073 31.4577 13.7658C31.5187 13.8443 31.5797 13.9229 31.6426 14.0038C31.7024 14.08 31.7622 14.1561 31.8239 14.2345C32.3241 14.978 32.5621 15.5841 32.5636 16.4831C32.5665 16.6216 32.5665 16.6216 32.5695 16.7628C32.5751 17.0541 32.5777 17.3453 32.5801 17.6366C32.5834 17.8356 32.5869 18.0346 32.5906 18.2336C32.5996 18.7182 32.6044 19.2027 32.6094 19.6874C33.8082 19.6874 35.0071 19.6874 36.2422 19.6874C35.2896 17.2105 33.9172 14.9657 31.5547 13.5937C31.4774 13.5937 31.4 13.5937 31.3203 13.5937ZM27.7681 15.2636C27.1936 16.1997 27.2895 17.3294 27.27 18.391C27.2649 18.6427 27.2594 18.8943 27.2533 19.1459C27.2479 19.372 27.2435 19.5981 27.2391 19.8243C27.2188 20.1562 27.2188 20.1562 27.1016 20.2734C26.8892 20.2889 26.8892 20.2889 26.6328 20.288C26.5482 20.2883 26.4636 20.2886 26.3765 20.2889C26.1641 20.2734 26.1641 20.2734 26.0469 20.1562C26.0283 19.9539 26.0144 19.7511 26.0029 19.5483C25.9399 18.8221 25.816 18.3798 25.2632 17.8783C24.8384 17.678 24.6136 17.6407 24.16 17.725C23.7481 17.8869 23.5898 18.1474 23.3516 18.5156C23.2112 18.9223 23.218 19.3175 23.2155 19.7452C23.2144 19.8998 23.2133 20.0543 23.2121 20.2135C23.2115 20.3819 23.211 20.5503 23.2106 20.7188C23.2099 20.8922 23.2092 21.0656 23.2086 21.239C23.2073 21.6024 23.2067 21.9658 23.2062 22.3292C23.2056 22.7933 23.2028 23.2575 23.1994 23.7216C23.1973 24.0798 23.1967 24.438 23.1965 24.7963C23.1961 24.9673 23.1952 25.1383 23.1936 25.3094C23.1855 26.2804 23.1938 27.037 23.7251 27.8759C24.0858 28.0998 24.4595 28.1501 24.875 28.1249C25.466 27.8461 25.7043 27.5579 25.9297 26.9531C25.9859 26.4335 25.995 25.9152 26.0029 25.393C26.0089 25.1151 26.0153 24.8373 26.0222 24.5594C26.0253 24.3756 26.0253 24.3756 26.0284 24.188C26.0469 23.9062 26.0469 23.9062 26.1641 23.789C26.3765 23.7734 26.3765 23.7734 26.6328 23.7743C26.7174 23.774 26.802 23.7737 26.8892 23.7734C27.1016 23.789 27.1016 23.789 27.2188 23.9062C27.2313 24.0732 27.2359 24.2408 27.2373 24.4083C27.2385 24.5152 27.2397 24.6221 27.2409 24.7322C27.2418 24.8487 27.2426 24.9653 27.2435 25.0854C27.2468 25.3312 27.2501 25.577 27.2536 25.8228C27.2584 26.2111 27.2627 26.5994 27.2658 26.9877C27.2691 27.3619 27.2744 27.7361 27.2801 28.1103C27.2805 28.2249 27.2809 28.3396 27.2813 28.4578C27.2973 29.363 27.3921 30.2123 28.0537 30.8788C28.5247 31.2338 28.9766 31.3494 29.5625 31.289C30.1789 31.1017 30.6373 30.7953 30.9688 30.2343C31.2008 29.487 31.2373 28.803 31.2353 28.0238C31.2362 27.8375 31.2362 27.8375 31.2371 27.6475C31.2388 27.2392 31.2387 26.8308 31.2384 26.4225C31.2388 26.1374 31.2394 25.8522 31.2399 25.5671C31.2408 24.9702 31.2408 24.3734 31.2401 23.7765C31.2395 23.0132 31.2414 22.2498 31.2442 21.4864C31.2459 20.8978 31.246 20.3092 31.2456 19.7205C31.2457 19.4391 31.2463 19.1577 31.2475 18.8763C31.2489 18.4823 31.2481 18.0884 31.2468 17.6944C31.2477 17.5791 31.2486 17.4638 31.2495 17.345C31.2434 16.5457 31.1638 15.7431 30.6502 15.0988C30.5468 15.0209 30.5468 15.0209 30.4414 14.9413C30.3381 14.8598 30.3381 14.8598 30.2327 14.7765C29.3236 14.198 28.459 14.5913 27.7681 15.2636ZM50.3267 15.205C49.7964 15.9928 49.8015 16.7553 49.8038 17.6766C49.8032 17.8019 49.8026 17.9272 49.802 18.0563C49.8003 18.4691 49.8004 18.8819 49.8007 19.2947C49.8003 19.5826 49.7997 19.8705 49.7992 20.1585C49.7983 20.7615 49.7983 21.3646 49.799 21.9677C49.7996 22.7391 49.7977 23.5104 49.7949 24.2818C49.7932 24.8764 49.7931 25.471 49.7935 26.0655C49.7934 26.3499 49.7928 26.6342 49.7916 26.9186C49.7902 27.3168 49.791 27.715 49.7923 28.1132C49.7914 28.2297 49.7905 28.3463 49.7896 28.4664C49.7952 29.2185 49.8372 30.055 50.3452 30.6549C50.8576 31.1067 51.2594 31.2959 51.938 31.2743C52.5862 31.1681 52.9837 30.8726 53.3882 30.3588C53.6624 29.8612 53.7175 29.419 53.7196 28.8568C53.7203 28.7481 53.7209 28.6393 53.7216 28.5273C53.7218 28.4094 53.7219 28.2916 53.722 28.1701C53.7226 28.0449 53.7232 27.9196 53.7238 27.7905C53.7255 27.3765 53.7263 26.9624 53.7269 26.5484C53.7276 26.2601 53.7283 25.9718 53.729 25.6836C53.7302 25.0791 53.7309 24.4746 53.7313 23.8702C53.7319 23.0969 53.7348 22.3237 53.7381 21.5505C53.7403 20.9549 53.7409 20.3593 53.7411 19.7638C53.7414 19.4788 53.7424 19.1938 53.7439 18.9088C53.7459 18.5094 53.7457 18.1101 53.7449 17.7107C53.746 17.5938 53.7471 17.4768 53.7482 17.3564C53.7428 16.4505 53.6469 15.6081 52.9854 14.9413C52.0977 14.269 51.1029 14.446 50.3267 15.205ZM55.3297 18.3601C55.0761 18.8088 55.0501 19.0704 55.0487 19.5824C55.0479 19.6625 55.0471 19.7426 55.0463 19.8252C55.0442 20.0881 55.0455 20.351 55.0471 20.6139C55.0468 20.7978 55.0464 20.9817 55.0458 21.1655C55.0451 21.5501 55.0461 21.9346 55.0483 22.3192C55.051 22.811 55.0494 23.3026 55.0466 23.7944C55.0449 24.1738 55.0455 24.5532 55.0467 24.9327C55.047 25.114 55.0466 25.2952 55.0455 25.4765C55.0443 25.7303 55.0461 25.984 55.0487 26.2378C55.0491 26.3819 55.0495 26.5261 55.0499 26.6745C55.1376 27.2578 55.4017 27.6255 55.8491 28.0004C56.281 28.1712 56.5386 28.1272 56.9844 28.0077C57.5107 27.6919 57.6483 27.4179 57.8047 26.8359C57.8405 26.4536 57.8405 26.4536 57.8369 26.0483C57.838 25.8938 57.8391 25.7393 57.8403 25.5801C57.8402 25.4129 57.8401 25.2457 57.84 25.0785C57.8404 24.9054 57.8409 24.7324 57.8415 24.5593C57.8423 24.1973 57.8423 23.8353 57.8417 23.4733C57.841 23.011 57.843 22.5487 57.8457 22.0864C57.8475 21.7292 57.8475 21.372 57.8472 21.0148C57.8472 20.8444 57.8479 20.674 57.849 20.5036C57.8776 19.2829 57.8776 19.2829 57.4531 18.164C57.1177 17.8796 56.8841 17.7181 56.4497 17.644C55.9295 17.7373 55.6559 17.9487 55.3297 18.3601ZM32.6094 21.0937C32.6094 22.2925 32.6094 23.4913 32.6094 24.7265C37.8301 24.7265 43.0508 24.7265 48.4297 24.7265C48.4297 23.5277 48.4297 22.3288 48.4297 21.0937C43.209 21.0937 37.9883 21.0937 32.6094 21.0937ZM3.42971 50.8593C3.26177 51.1952 3.27661 51.4233 3.31252 51.7968C3.90038 53.0527 5.48542 53.6682 6.71096 54.1406C12.356 56.1618 18.5703 56.6182 24.5235 56.7187C24.6331 56.7206 24.7428 56.7226 24.8558 56.7246C25.5656 56.7352 26.2746 56.7313 26.9844 56.7187C27.1086 56.7166 27.2327 56.7145 27.3607 56.7123C38.2832 56.6719 38.2832 56.6719 47.8438 52.3827C48.0595 52.0662 48.1854 51.8415 48.2686 51.4672C48.1361 50.7918 47.6632 50.3724 47.1255 49.969C44.2498 48.1442 40.6662 47.5183 37.3555 47.0141C37.2704 47.001 37.1852 46.988 37.0975 46.9746C36.8528 46.9374 36.608 46.9012 36.3631 46.8653C36.2211 46.8445 36.0792 46.8237 35.933 46.8022C35.2329 46.6913 35.2329 46.6913 34.6075 46.9257C34.5403 47.0032 34.4731 47.0807 34.4038 47.1606C33.9569 47.643 33.4789 48.048 32.9665 48.4592C32.6429 48.7226 32.3265 48.992 32.0115 49.2654C31.1805 49.9865 30.3275 50.6702 29.4453 51.3281C29.3574 51.3937 29.2695 51.4594 29.1789 51.5271C28.8872 51.7445 28.5951 51.9612 28.3028 52.1777C28.1656 52.2794 28.1656 52.2794 28.0257 52.3831C27.7581 52.5802 27.4885 52.7745 27.2188 52.9687C27.1285 53.0366 27.0383 53.1045 26.9453 53.1744C26.5453 53.4633 26.2425 53.6546 25.7567 53.7611C25.15 53.6299 24.7379 53.3135 24.2451 52.9467C24.143 52.8728 24.0408 52.7989 23.9355 52.7228C23.6218 52.4946 23.3106 52.2635 23 52.0312C22.9069 51.9618 22.8138 51.8924 22.7179 51.8209C20.7822 50.3732 18.9203 48.8306 17.1393 47.1963C14.6983 45.0574 5.28686 48.8727 3.42971 50.8593Z" fill="white"/>
<path d="M15.5006 9.49217C15.7277 9.61668 15.7277 9.61668 15.8522 9.84373C15.8957 10.236 15.8957 10.236 15.8522 10.664C15.6114 10.9378 15.6114 10.9378 15.2809 11.1767C15.1628 11.2663 15.0446 11.3559 14.9229 11.4482C14.8042 11.5375 14.6855 11.6267 14.5631 11.7187C13.0945 12.9485 11.9219 14.3051 10.9303 15.9375C10.8879 16.0068 10.8454 16.076 10.8017 16.1474C9.44722 18.3984 8.84988 20.9597 8.68278 23.5586C8.6752 23.6594 8.66762 23.7602 8.65981 23.8641C8.65407 23.9542 8.64833 24.0443 8.64241 24.1371C8.57255 24.4347 8.47852 24.5446 8.235 24.7265C7.82484 24.7778 7.82484 24.7778 7.41469 24.7265C7.16462 24.5184 7.07276 24.3508 7.03915 24.0264C7.03784 23.7308 7.05132 23.4394 7.07045 23.1445C7.07684 23.0355 7.08323 22.9266 7.08982 22.8143C7.42099 18.075 9.68338 13.7476 13.2318 10.6115C13.4436 10.428 13.6583 10.2489 13.8746 10.0708C13.9419 10.0134 14.0092 9.95593 14.0785 9.89677C14.5557 9.51552 14.8711 9.4182 15.5006 9.49217Z" fill="white"/>
<path d="M19.9525 7.14841C20.1723 7.27292 20.1723 7.27292 20.3041 7.49997C20.3807 8.21504 20.3807 8.21504 20.1718 8.50202C19.8728 8.7336 19.5655 8.85134 19.2128 8.98679C19.0177 9.06361 19.0177 9.06361 18.8186 9.14197C18.4251 9.25898 18.1335 9.29744 17.726 9.25779C17.3744 9.02341 17.3744 9.02341 17.2719 8.75242C17.2523 8.33247 17.3548 8.18509 17.6088 7.85154C17.9773 7.64051 17.9773 7.64051 18.4071 7.46335C18.6185 7.3734 18.6185 7.3734 18.8342 7.28162C19.2396 7.15155 19.5308 7.11137 19.9525 7.14841Z" fill="white"/>
</svg>
