<svg width="61" height="60" viewBox="0 0 61 60" fill="none" xmlns="http://www.w3.org/2000/svg">
<path d="M41.9844 1.75784C42.0695 1.78233 42.1546 1.80682 42.2423 1.83205C44.6164 2.53887 46.6365 3.81128 48.4297 5.50784C48.5262 5.59681 48.6228 5.68579 48.7222 5.77746C50.3931 7.37019 51.607 9.4442 52.3482 11.6236C52.3743 11.6998 52.4004 11.7761 52.4272 11.8546C52.9012 13.357 53.0523 14.8572 53.0439 16.4235C53.0442 16.6062 53.0447 16.7889 53.0453 16.9717C53.0465 17.468 53.0456 17.9644 53.0443 18.4607C53.0432 18.9982 53.0442 19.5356 53.0449 20.073C53.0461 21.1231 53.0453 22.1732 53.0439 23.2233C53.0423 24.4463 53.0425 25.6693 53.0427 26.8923C53.0431 29.0733 53.0417 31.2543 53.0394 33.4353C53.0372 35.5524 53.0364 37.6694 53.037 39.7864C53.0377 42.0936 53.0377 44.4008 53.0364 46.708C53.0362 46.9537 53.0361 47.1994 53.0359 47.4451C53.0358 47.6265 53.0358 47.6265 53.0357 47.8114C53.0353 48.6645 53.0353 49.5176 53.0355 50.3706C53.0358 51.4085 53.0352 52.4464 53.0335 53.4843C53.0326 54.014 53.0322 54.5438 53.0327 55.0736C53.0332 55.5578 53.0326 56.042 53.0311 56.5263C53.0307 56.7021 53.0308 56.8779 53.0313 57.0537C53.0319 57.2914 53.0309 57.529 53.0298 57.7667C53.0297 57.8991 53.0296 58.0314 53.0295 58.1679C53 58.4766 53 58.4766 52.7656 58.711C52.4491 58.7344 52.1448 58.7437 51.8281 58.7421C51.7354 58.7423 51.6426 58.7425 51.5471 58.7428C51.3508 58.7429 51.1546 58.7425 50.9584 58.7415C50.6575 58.7403 50.3566 58.7415 50.0557 58.743C49.8653 58.7428 49.6748 58.7425 49.4844 58.7421C49.3941 58.7426 49.3037 58.743 49.2107 58.7435C48.5738 58.7379 48.5738 58.7379 48.3125 58.4766C48.2829 58.1801 48.2829 58.1801 48.2825 57.7966C48.2814 57.578 48.2814 57.578 48.2803 57.355C48.2807 57.1918 48.2811 57.0286 48.2815 56.8654C48.281 56.6932 48.2805 56.521 48.2799 56.3487C48.2785 55.8737 48.2786 55.3986 48.2788 54.9235C48.2789 54.4118 48.2776 53.9 48.2764 53.3882C48.2746 52.5005 48.2736 51.6128 48.2732 50.725C48.2725 49.4392 48.2703 48.1534 48.2678 46.8675C48.2636 44.7785 48.2603 42.6894 48.2576 40.6004C48.2575 40.4753 48.2573 40.3501 48.2572 40.2212C48.2561 39.3337 48.255 38.4461 48.2539 37.5586C48.2527 36.548 48.2515 35.5375 48.2502 34.5269C48.25 34.4025 48.2499 34.2781 48.2497 34.1499C48.2471 32.0711 48.2436 29.9923 48.2394 27.9135C48.2368 26.6322 48.2351 25.3508 48.2345 24.0695C48.234 23.1896 48.2327 22.3098 48.2307 21.43C48.2296 20.9232 48.2289 20.4165 48.2292 19.9098C48.2312 15.6009 47.9911 12.1058 44.8935 8.87469C42.9015 6.97277 40.2123 6.14439 37.5041 6.17005C34.5672 6.2484 32.0587 7.51863 30.0313 9.6094C27.8762 12.0863 27.5376 15.0248 27.336 18.1641C27.4163 18.163 27.4966 18.162 27.5793 18.1609C28.3428 18.1515 29.1063 18.1444 29.8698 18.1398C30.2622 18.1374 30.6545 18.1338 31.0468 18.1287C31.4998 18.123 31.9527 18.1204 32.4057 18.1183C32.5439 18.1159 32.6822 18.1135 32.8246 18.111C34.636 18.1105 36.2331 18.7535 37.5606 19.9878C39.197 21.7218 39.4622 23.5696 39.4282 25.8618C39.4265 26.0705 39.4249 26.2792 39.4234 26.4878C39.4196 26.9945 39.4135 27.5012 39.4063 28.0078C39.4759 28.0205 39.5456 28.0332 39.6174 28.0462C40.5188 28.2253 41.1377 28.5713 41.7079 29.3125C42.2557 30.1657 42.2402 30.8859 42.2407 31.8823C42.2422 32.0241 42.2436 32.1659 42.2451 32.312C42.2453 32.4471 42.2455 32.5822 42.2458 32.7214C42.2463 32.8456 42.2467 32.9698 42.2472 33.0977C42.2188 33.3985 42.2188 33.3985 41.9844 33.6328C41.74 33.6623 41.74 33.6623 41.4313 33.6627C41.3139 33.6633 41.1965 33.664 41.0755 33.6647C40.9456 33.6643 40.8156 33.6638 40.6817 33.6634C40.5444 33.6638 40.4072 33.6643 40.2657 33.6647C39.8834 33.6657 39.5012 33.6657 39.1189 33.6652C38.7071 33.6649 38.2953 33.666 37.8835 33.6668C37.0763 33.6683 36.2691 33.6685 35.4619 33.6683C34.806 33.6681 34.1501 33.6683 33.4943 33.6688C33.3544 33.6689 33.3544 33.6689 33.2118 33.669C33.0225 33.6691 32.8331 33.6693 32.6438 33.6694C30.8667 33.6707 29.0896 33.6704 27.3124 33.6697C25.6853 33.6691 24.0582 33.6704 22.4311 33.6726C20.7619 33.6749 19.0927 33.6759 17.4235 33.6754C16.4857 33.6752 15.548 33.6755 14.6102 33.6772C13.8119 33.6786 13.0136 33.6787 12.2153 33.6773C11.8078 33.6766 11.4002 33.6765 10.9927 33.6779C10.5515 33.6791 10.1103 33.6782 9.66911 33.6767C9.53943 33.6775 9.40976 33.6784 9.27615 33.6793C9.15844 33.6785 9.04072 33.6776 8.91944 33.6767C8.81754 33.6768 8.71563 33.6768 8.61063 33.6768C8.29425 33.6231 8.19063 33.5354 8.00002 33.2813C7.92081 32.8141 7.94034 32.3409 7.94143 31.8677C7.93644 31.6752 7.93644 31.6752 7.93136 31.4788C7.92898 30.4795 8.12705 29.6769 8.81773 28.9286C9.35161 28.4235 9.93736 28.0078 10.6953 28.0078C10.6929 27.8809 10.6904 27.754 10.6879 27.6232C10.6793 27.1451 10.674 26.6671 10.6696 26.1889C10.6673 25.9834 10.6641 25.7778 10.66 25.5722C10.6164 23.3252 11.0576 21.6419 12.6399 19.9594C13.7718 18.868 15.2608 18.1471 16.8506 18.1508C16.9772 18.1508 17.1039 18.1508 17.2344 18.1508C17.4374 18.1517 17.4374 18.1517 17.6446 18.1526C17.7843 18.1528 17.9239 18.153 18.0678 18.1531C18.5131 18.1538 18.9585 18.1553 19.4038 18.1568C19.706 18.1573 20.0082 18.1579 20.3104 18.1584C21.0507 18.1597 21.791 18.1616 22.5313 18.1641C22.5276 18.0174 22.5276 18.0174 22.5238 17.8678C22.4221 13.1869 23.4579 9.33899 26.75 5.8594C26.839 5.76287 26.928 5.66634 27.0196 5.56689C28.7847 3.7152 31.1012 2.46148 33.5469 1.75784C33.6732 1.72087 33.6732 1.72087 33.8021 1.68316C36.3695 0.967674 39.4311 1.01074 41.9844 1.75784ZM28.6383 6.21005C28.3906 6.44534 28.3906 6.44534 28.0981 6.67239C27.5676 7.10939 27.1702 7.66255 26.75 8.20315C26.6783 8.29514 26.6065 8.38714 26.5326 8.48193C24.4112 11.3508 23.9047 14.6814 23.9375 18.1641C24.5949 18.1641 25.2524 18.1641 25.9297 18.1641C25.9327 17.9419 25.9358 17.7197 25.9389 17.4907C26.009 13.9308 26.7516 10.6697 29.3405 8.05529C30.9791 6.50517 32.8861 5.47494 35.0703 4.9219C35.1809 4.8932 35.2915 4.86449 35.4054 4.83492C38.5029 4.18142 41.788 4.90431 44.4453 6.56252C44.8545 6.85556 45.2369 7.1707 45.6172 7.50002C45.7062 7.57208 45.7952 7.64414 45.8868 7.71838C47.9506 9.43999 49.2303 12.1254 49.6016 14.7656C49.635 15.3509 49.6351 15.9355 49.6342 16.5215C49.6348 16.698 49.6355 16.8745 49.6363 17.0509C49.6381 17.5333 49.6385 18.0157 49.6387 18.498C49.6391 19.0192 49.6409 19.5403 49.6425 20.0615C49.6451 20.9635 49.6469 21.8656 49.6481 22.7676C49.6498 24.0718 49.6528 25.376 49.6561 26.6802C49.6614 28.7964 49.6657 30.9125 49.6693 33.0287C49.6729 35.0839 49.6769 37.1392 49.6816 39.1944C49.682 39.3846 49.682 39.3846 49.6824 39.5785C49.6839 40.2145 49.6854 40.8504 49.6868 41.4863C49.699 46.7591 49.7094 52.0319 49.7188 57.3047C50.3375 57.3047 50.9563 57.3047 51.5938 57.3047C51.5991 52.1364 51.6033 46.968 51.6057 41.7997C51.606 41.1885 51.6063 40.5774 51.6066 39.9662C51.6067 39.8445 51.6068 39.7229 51.6068 39.5975C51.6078 37.6316 51.6097 35.6656 51.6119 33.6996C51.614 31.68 51.6153 29.6604 51.6158 27.6408C51.6161 26.3962 51.6171 25.1516 51.6191 23.907C51.6203 23.0517 51.6207 22.1964 51.6204 21.3411C51.6202 20.8488 51.6204 20.3565 51.6217 19.8642C51.633 15.2324 51.3075 11.1786 48.1953 7.50002C48.1352 7.42555 48.0751 7.35108 48.0131 7.27435C45.8366 4.62137 42.41 3.17185 39.0785 2.75713C35.3446 2.43098 31.3669 3.58323 28.6383 6.21005ZM13.3856 21.465C12.7449 22.2369 12.4144 23.0453 12.2188 24.0235C20.6879 24.0235 29.1571 24.0235 37.8828 24.0235C37.7081 22.8001 37.1994 21.6703 36.2166 20.8864C34.6699 19.7526 33.1784 19.5335 31.2865 19.54C31.1376 19.5396 30.9888 19.5392 30.8355 19.5388C30.4316 19.5377 30.0278 19.5381 29.6239 19.5389C29.1985 19.5395 28.7732 19.5389 28.3478 19.5385C27.6338 19.5381 26.9199 19.5387 26.206 19.5398C25.384 19.5411 24.562 19.5406 23.7401 19.5394C23.0306 19.5383 22.3212 19.5381 21.6117 19.5388C21.1896 19.5391 20.7676 19.5392 20.3455 19.5384C19.8744 19.5376 19.4034 19.5387 18.9323 19.54C18.795 19.5395 18.6576 19.5391 18.516 19.5386C16.4736 19.5489 14.8217 19.9411 13.3856 21.465ZM12.1016 25.4297C12.1016 26.2805 12.1016 27.1313 12.1016 28.0078C12.9062 28.0417 12.9062 28.0417 13.7108 28.0744C13.8105 28.0789 13.9101 28.0833 14.0127 28.0879C14.1152 28.0922 14.2177 28.0965 14.3233 28.101C14.5625 28.125 14.5625 28.125 14.6797 28.2422C14.6953 28.4546 14.6953 28.4546 14.6944 28.711C14.6948 28.8379 14.6948 28.8379 14.6953 28.9673C14.6797 29.1797 14.6797 29.1797 14.5625 29.2969C14.3321 29.3112 14.1012 29.318 13.8704 29.3216C13.656 29.3266 13.656 29.3266 13.4373 29.3317C13.1364 29.3377 12.8355 29.3429 12.5346 29.3473C11.0918 29.3799 11.0918 29.3799 9.88235 30.0806C9.42708 30.8118 9.40627 31.3596 9.40627 32.2266C19.7703 32.2266 30.1344 32.2266 40.8125 32.2266C40.8106 30.9138 40.8106 30.9138 40.2266 30C39.5225 29.4458 38.9616 29.3998 38.0848 29.3963C38.0002 29.3958 37.9156 29.3953 37.8284 29.3948C37.5454 29.3933 37.2625 29.3926 36.9795 29.3919C36.7765 29.391 36.5734 29.39 36.3703 29.3889C35.9333 29.3868 35.4964 29.3851 35.0595 29.3836C34.3693 29.3812 33.679 29.378 32.9888 29.3746C31.3997 29.367 29.8106 29.3604 28.2215 29.354C26.7638 29.348 25.3062 29.3418 23.8485 29.3347C23.1617 29.3314 22.4748 29.3286 21.7879 29.3263C21.3618 29.3247 20.9357 29.3227 20.5096 29.3205C20.3112 29.3196 20.1128 29.3189 19.9145 29.3184C19.6449 29.3177 19.3753 29.3162 19.1057 29.3146C18.9544 29.314 18.8032 29.3134 18.6474 29.3128C18.3125 29.2969 18.3125 29.2969 18.1953 29.1797C18.1798 28.9673 18.1798 28.9673 18.1807 28.711C18.1802 28.5841 18.1802 28.5841 18.1798 28.4546C18.1953 28.2422 18.1953 28.2422 18.3125 28.125C18.5661 28.1122 18.8201 28.1078 19.074 28.1065C19.1545 28.1059 19.235 28.1053 19.318 28.1047C19.5897 28.1029 19.8614 28.1019 20.1331 28.101C20.3271 28.0998 20.521 28.0987 20.715 28.0974C21.2433 28.0943 21.7716 28.0918 22.2999 28.0895C22.8514 28.0869 23.4028 28.0837 23.9543 28.0806C24.9993 28.0747 26.0444 28.0694 27.0894 28.0644C28.2789 28.0586 29.4683 28.0522 30.6577 28.0457C33.1051 28.0323 35.5526 28.0198 38 28.0078C38 27.1571 38 26.3063 38 25.4297C29.4535 25.4297 20.9071 25.4297 12.1016 25.4297Z" fill="white"/>
<path d="M46.9062 41.2501C47.1013 41.3863 47.1013 41.3863 47.2578 41.6017C47.3017 41.906 47.3017 41.906 47.3017 42.2785C47.3025 42.4197 47.3033 42.5608 47.3041 42.7063C47.3033 42.8629 47.3024 43.0195 47.3014 43.1762C47.3017 43.3409 47.3022 43.5057 47.3027 43.6705C47.3038 44.1182 47.3027 44.5658 47.3012 45.0135C47.2998 45.4815 47.3003 45.9495 47.3005 46.4175C47.3007 47.2033 47.2994 47.9892 47.2972 48.775C47.2947 49.6844 47.2943 50.5937 47.295 51.5031C47.2957 52.3771 47.295 53.251 47.2937 54.1249C47.2932 54.4973 47.2931 54.8696 47.2933 55.242C47.2935 55.6801 47.2926 56.1182 47.2907 56.5563C47.2902 56.7174 47.2901 56.8785 47.2905 57.0396C47.2908 57.2589 47.2896 57.4782 47.2884 57.6975C47.2881 57.8204 47.2879 57.9433 47.2876 58.0699C47.2578 58.3595 47.2578 58.3595 47.0234 58.5938C46.8037 58.625 46.8037 58.625 46.5547 58.6231C46.4725 58.6237 46.3903 58.6243 46.3057 58.625C46.0859 58.5938 46.0859 58.5938 45.8516 58.3595C45.8217 58.0699 45.8217 58.0699 45.821 57.6975C45.8202 57.5566 45.8193 57.4158 45.8185 57.2707C45.8188 57.1139 45.819 56.957 45.8194 56.8001C45.8189 56.6356 45.8182 56.471 45.8175 56.3064C45.816 55.8588 45.8159 55.4111 45.8162 54.9634C45.8163 54.59 45.8158 54.2167 45.8152 53.8433C45.8139 52.9627 45.8138 52.082 45.8146 51.2014C45.8153 50.2921 45.8138 49.3828 45.8113 48.4735C45.8093 47.6935 45.8086 46.9136 45.8089 46.1336C45.8092 45.6674 45.8088 45.2013 45.8072 44.7351C45.8057 44.2968 45.806 43.8585 45.8075 43.4202C45.8078 43.2591 45.8075 43.0981 45.8065 42.9371C45.8053 42.7176 45.8064 42.498 45.8077 42.2785C45.8077 42.1556 45.8077 42.0326 45.8076 41.906C45.8516 41.6017 45.8516 41.6017 46.0081 41.3863C46.3121 41.174 46.5465 41.2051 46.9062 41.2501Z" fill="white"/>
<path d="M35.8906 43.8282C36.5247 44.3218 36.7772 44.9876 37.0918 45.7105C37.1702 45.8851 37.1702 45.8851 37.2502 46.0632C37.6556 46.9753 37.954 47.7065 37.6265 48.7061C37.2723 49.3656 36.833 49.7853 36.125 50.0391C35.3272 50.1491 34.6758 50.0426 34.0156 49.5704C33.4298 48.9538 33.2462 48.4359 33.2624 47.5965C33.3581 46.89 33.676 46.2797 33.9863 45.6446C34.0495 45.508 34.1126 45.3715 34.1777 45.2308C34.9186 43.6695 34.9186 43.6695 35.8906 43.8282ZM35.4219 46.2891C35.3228 46.4911 35.2255 46.6939 35.1289 46.897C35.0745 47.0099 35.0202 47.1227 34.9641 47.239C34.835 47.5807 34.7947 47.8032 34.8359 48.1641C35.0162 48.4019 35.0162 48.4019 35.3047 48.5157C35.6711 48.5165 35.6711 48.5165 36.0078 48.3985C36.2742 48.0786 36.2742 48.0786 36.217 47.7709C36.1177 47.4363 35.9857 47.1479 35.8247 46.8385C35.7714 46.735 35.7181 46.6315 35.6631 46.5249C35.6222 46.4471 35.5812 46.3693 35.5391 46.2891C35.5004 46.2891 35.4617 46.2891 35.4219 46.2891Z" fill="white"/>
<path d="M21.9453 43.828C22.5817 44.3224 22.8323 44.9923 23.1465 45.7177C23.1987 45.835 23.251 45.9524 23.3049 46.0733C24.0372 47.7265 24.0372 47.7265 23.7361 48.6592C23.4506 49.2739 23.0994 49.6138 22.5093 49.9511C21.7279 50.1594 20.9859 50.1308 20.2763 49.7272C19.7864 49.3538 19.4861 48.8831 19.3672 48.2811C19.2899 47.508 19.5293 46.979 19.8359 46.2889C19.9106 46.1117 19.985 45.9344 20.0593 45.757C20.141 45.5656 20.2228 45.3743 20.3047 45.183C20.3436 45.09 20.3825 44.9969 20.4226 44.9011C20.7477 44.156 21.0488 43.6816 21.9453 43.828ZM21.5937 46.2889C21.4721 46.51 21.3529 46.7325 21.2349 46.9554C21.1349 47.141 21.1349 47.141 21.033 47.3304C20.879 47.725 20.855 47.8899 21.0078 48.2811C21.3391 48.5545 21.3391 48.5545 21.7183 48.4862C22.0742 48.4265 22.0742 48.4265 22.2969 48.1639C22.2684 47.4669 22.0138 46.9101 21.7109 46.2889C21.6723 46.2889 21.6336 46.2889 21.5937 46.2889Z" fill="white"/>
<path d="M15.1491 35.6249C15.6749 36.1529 15.9292 36.8432 16.2257 37.5145C16.2785 37.6319 16.3313 37.7493 16.3857 37.8702C17.0873 39.4375 17.0873 39.4375 16.7604 40.3856C16.4163 41.0493 16.1074 41.473 15.3835 41.7186C14.5116 41.8181 13.859 41.7944 13.1569 41.2499C12.6637 40.7567 12.4369 40.3269 12.4048 39.6276C12.4134 38.7674 12.7507 38.0866 13.1203 37.3241C13.1824 37.1875 13.2446 37.051 13.3086 36.9103C14.0856 35.2629 14.0856 35.2629 15.1491 35.6249ZM14.5631 37.9686C14.4641 38.1706 14.3668 38.3734 14.2702 38.5765C14.2158 38.6894 14.1614 38.8022 14.1054 38.9185C13.9764 39.2597 13.9409 39.4832 13.9772 39.8436C14.0967 40.0706 14.0967 40.0706 14.3288 40.1952C14.6803 40.2635 14.6803 40.2635 15.0319 40.1952C15.2755 40.0104 15.2755 40.0104 15.3835 39.7264C15.3299 39.2737 15.1751 38.9201 14.966 38.5179C14.9126 38.4145 14.8593 38.311 14.8044 38.2044C14.7634 38.1266 14.7225 38.0488 14.6803 37.9686C14.6417 37.9686 14.603 37.9686 14.5631 37.9686Z" fill="white"/>
<path d="M28.9766 52.1486C29.5571 52.6303 29.8067 53.2879 30.1192 53.9576C30.1786 54.0769 30.2379 54.1962 30.2991 54.319C30.7123 55.2028 30.8582 55.9789 30.7344 56.9532C30.4419 57.5709 30.009 57.9422 29.4161 58.2716C28.6561 58.4789 28.0019 58.4266 27.3117 58.0409C26.9105 57.7542 26.6197 57.3957 26.3985 56.9532C26.257 55.755 26.5507 54.8879 27.0797 53.8258C27.1438 53.6893 27.2079 53.5528 27.274 53.4122C27.9332 52.0387 27.9332 52.0387 28.9766 52.1486ZM28.5079 54.4923C28.4085 54.6917 28.3113 54.8921 28.2149 55.0929C28.1605 55.2044 28.1061 55.3159 28.0501 55.4307C27.9111 55.8109 27.8838 56.0829 27.9219 56.4845C28.1067 56.7281 28.1067 56.7281 28.3907 56.8361C28.7857 56.8078 28.9283 56.7672 29.211 56.4845C29.2666 55.9393 29.1559 55.5806 28.918 55.0929C28.8637 54.9796 28.8093 54.8663 28.7532 54.7496C28.7109 54.6647 28.6686 54.5798 28.6251 54.4923C28.5864 54.4923 28.5477 54.4923 28.5079 54.4923Z" fill="white"/>
<path d="M15.0309 52.1485C15.6643 52.6435 15.9172 53.3073 16.2321 54.0308C16.3105 54.2054 16.3105 54.2054 16.3904 54.3835C17.1073 55.9963 17.1073 55.9963 16.8258 56.8424C16.5148 57.5264 16.1165 57.9137 15.4557 58.2788C14.673 58.4838 14.0995 58.3826 13.3903 58.0079C12.8985 57.6838 12.646 57.3953 12.4528 56.836C12.315 55.7799 12.6213 54.9778 13.0607 54.0308C13.1172 53.9008 13.1738 53.7708 13.2321 53.6369C13.9908 51.9535 13.9908 51.9535 15.0309 52.1485ZM14.5621 54.6094C14.4631 54.8114 14.3658 55.0142 14.2692 55.2173C14.2148 55.3302 14.1604 55.443 14.1044 55.5593C13.9752 55.9011 13.9343 56.1234 13.9762 56.4844C14.1632 56.7199 14.1632 56.7199 14.4449 56.836C14.7811 56.8196 14.9713 56.7585 15.2506 56.5723C15.4114 56.3699 15.4114 56.3699 15.3509 56.1003C15.2589 55.7576 15.1285 55.4733 14.965 55.1587C14.9116 55.0553 14.8583 54.9518 14.8034 54.8452C14.7624 54.7674 14.7215 54.6896 14.6793 54.6094C14.6406 54.6094 14.602 54.6094 14.5621 54.6094Z" fill="white"/>
<path d="M22.1805 35.625C22.7015 36.2373 23.0124 37.0483 23.3304 37.7783C23.378 37.8816 23.4257 37.985 23.4748 38.0914C23.7806 38.7926 23.9445 39.4286 23.8211 40.1953C23.5574 40.7968 23.2023 41.2377 22.6492 41.6016C22.0039 41.8166 21.2503 41.8528 20.6071 41.6125C19.9799 41.244 19.5999 40.7741 19.368 40.0781C19.2698 39.1786 19.5797 38.5411 19.9539 37.7344C20.0311 37.5594 20.1082 37.3844 20.1851 37.2093C20.2665 37.0278 20.3482 36.8464 20.43 36.665C20.4684 36.5775 20.5069 36.49 20.5465 36.3998C20.8291 35.7877 20.8291 35.7877 21.1294 35.5682C21.5342 35.4622 21.7813 35.4989 22.1805 35.625ZM21.5945 37.9687C21.4729 38.1898 21.3537 38.4123 21.2356 38.6352C21.1357 38.8208 21.1357 38.8208 21.0338 39.0102C20.8797 39.4049 20.866 39.5675 21.0086 39.9609C21.2288 40.2303 21.2288 40.2303 21.5872 40.2319C21.9363 40.2198 21.9363 40.2198 22.1731 40.0708C22.3796 39.6943 22.2797 39.4337 22.1805 39.0234C22.0389 38.6643 21.8808 38.3156 21.7117 37.9687C21.673 37.9687 21.6344 37.9687 21.5945 37.9687Z" fill="white"/>
<path d="M15.0313 43.8282C15.687 44.329 15.9243 45.0309 16.2324 45.7764C16.2847 45.8994 16.337 46.0224 16.3908 46.1491C17.075 47.7662 17.075 47.7662 16.7671 48.7061C16.4129 49.3656 15.9736 49.7853 15.2656 50.0391C14.4678 50.1491 13.8164 50.0426 13.1563 49.5704C12.5705 48.9538 12.3868 48.4359 12.403 47.5965C12.4988 46.89 12.8166 46.2797 13.127 45.6446C13.1901 45.508 13.2532 45.3715 13.3183 45.2308C14.0592 43.6695 14.0592 43.6695 15.0313 43.8282ZM14.5625 46.2891C14.4635 46.4911 14.3661 46.6939 14.2695 46.897C14.2152 47.0099 14.1608 47.1227 14.1047 47.239C13.9758 47.5803 13.941 47.8037 13.9766 48.1641C14.0863 48.4008 14.0863 48.4008 14.3281 48.5157C14.7474 48.5158 14.7474 48.5158 15.1484 48.3985C15.4148 48.0786 15.4148 48.0786 15.3576 47.7709C15.2583 47.4363 15.1263 47.1479 14.9653 46.8385C14.912 46.735 14.8587 46.6315 14.8038 46.5249C14.7628 46.4471 14.7219 46.3693 14.6797 46.2891C14.641 46.2891 14.6024 46.2891 14.5625 46.2891Z" fill="white"/>
<path d="M36.0078 35.625C36.3195 35.8809 36.4708 36.1628 36.6418 36.5245C36.6925 36.6312 36.7432 36.7379 36.7954 36.8479C36.8473 36.9591 36.8992 37.0704 36.9526 37.185C37.005 37.2949 37.0573 37.4048 37.1113 37.518C37.9957 39.394 37.9957 39.394 37.6809 40.3299C37.3992 40.9436 37.0618 41.3224 36.4381 41.6102C35.8314 41.8205 35.1619 41.8498 34.5604 41.6079C33.9753 41.2595 33.5322 40.8544 33.3125 40.1953C33.124 39.1435 33.5741 38.2983 34.0211 37.3791C34.1262 37.162 34.2269 36.9429 34.3274 36.7236C34.7668 35.7886 34.7668 35.7886 35.0685 35.586C35.4164 35.4707 35.6586 35.5284 36.0078 35.625ZM35.4219 38.0859C35.3228 38.2682 35.2254 38.4515 35.1289 38.6352C35.0745 38.7372 35.0201 38.8391 34.9641 38.9442C34.8288 39.2751 34.8008 39.4902 34.8359 39.8437C34.9554 40.0706 34.9554 40.0706 35.1875 40.1953C35.5391 40.2636 35.5391 40.2636 35.8906 40.1953C36.1342 40.0105 36.1342 40.0105 36.2422 39.7265C36.2257 39.1497 35.8976 38.6011 35.6562 38.0859C35.5789 38.0859 35.5016 38.0859 35.4219 38.0859Z" fill="white"/>
<path d="M21.9454 52.1483C22.5986 52.6536 22.8762 53.3672 23.2125 54.1039C23.2713 54.2256 23.3302 54.3473 23.3908 54.4726C23.7771 55.311 24.0236 56.0815 23.7338 56.9902C23.4898 57.5813 23.0974 57.9528 22.5313 58.2421C21.8711 58.4448 21.2603 58.4549 20.6344 58.1615C20.1008 57.8628 19.7106 57.5381 19.4478 56.975C19.2195 55.9161 19.4969 55.2295 19.9423 54.2607C20.0414 54.0447 20.1371 53.8274 20.2324 53.6097C20.9635 51.988 20.9635 51.988 21.9454 52.1483ZM21.5938 54.6093C21.4722 54.8303 21.353 55.0528 21.2349 55.2758C21.135 55.4614 21.135 55.4614 21.0331 55.6507C20.8791 56.0453 20.8551 56.2102 21.0079 56.6015C21.339 56.8734 21.339 56.8734 21.7183 56.8139C22.0974 56.7494 22.0974 56.7494 22.297 56.3671C22.2664 55.7251 21.9837 55.1799 21.711 54.6093C21.6724 54.6093 21.6337 54.6093 21.5938 54.6093Z" fill="white"/>
<path d="M35.8911 52.1485C36.5252 52.642 36.7777 53.3079 37.0923 54.0308C37.1707 54.2054 37.1707 54.2054 37.2507 54.3835C37.9675 55.9963 37.9675 55.9963 37.686 56.8424C37.375 57.5263 36.9768 57.9136 36.3159 58.2788C35.5399 58.4821 34.9504 58.3908 34.2505 58.0078C33.7457 57.5833 33.3799 57.1475 33.2757 56.4799C33.2287 55.5312 33.5793 54.8124 33.9868 53.9722C34.05 53.8351 34.1131 53.698 34.1782 53.5568C34.9188 51.9897 34.9188 51.9897 35.8911 52.1485ZM35.4224 54.6094C34.9847 55.4231 34.9847 55.4231 34.8364 56.3159C34.9375 56.6382 34.9375 56.6382 35.3052 56.836C35.6294 56.8116 35.8361 56.7536 36.1109 56.5796C36.2697 56.3653 36.2697 56.3653 36.2427 56.0596C36.0854 55.5287 35.8241 55.0819 35.5396 54.6094C35.5009 54.6094 35.4622 54.6094 35.4224 54.6094Z" fill="white"/>
<path d="M28.6909 43.8208C29.2512 43.994 29.4289 44.2902 29.7095 44.7963C31.0337 47.379 31.0337 47.379 30.7344 48.6328C30.418 49.3008 29.8903 49.7519 29.2109 50.0391C28.4318 50.154 27.8219 50.0857 27.1785 49.6216C26.7606 49.2589 26.4259 48.8877 26.3656 48.3284C26.3315 47.292 26.551 46.5602 27.0064 45.6372C27.0629 45.5139 27.1195 45.3905 27.1778 45.2634C27.8558 43.8355 27.8558 43.8355 28.6909 43.8208ZM28.5078 46.2891C27.9798 47.1724 27.9798 47.1724 27.9219 48.1641C28.0465 48.3961 28.0465 48.3961 28.2734 48.5156C28.608 48.5658 28.7826 48.5633 29.0718 48.3838C29.288 48.0424 29.2696 47.864 29.2109 47.4609C29.0374 47.0579 28.8374 46.6729 28.625 46.2891C28.5863 46.2891 28.5477 46.2891 28.5078 46.2891Z" fill="white"/>
<path d="M29.0937 35.625C29.6205 36.1463 29.882 36.8399 30.1777 37.5073C30.2584 37.6785 30.2584 37.6785 30.3407 37.8532C30.707 38.6791 30.8501 39.4092 30.7344 40.3125C30.4625 40.8876 30.0643 41.2279 29.5625 41.6016C28.9058 41.8205 28.1905 41.8049 27.5337 41.5942C27.017 41.2217 26.4668 40.7075 26.354 40.0562C26.2738 38.8267 26.8009 37.8671 27.3359 36.7969C27.3782 36.7097 27.4206 36.6226 27.4642 36.5328C27.5255 36.4072 27.5255 36.4072 27.5882 36.2791C27.6247 36.2042 27.6612 36.1292 27.6989 36.052C28.0391 35.4324 28.4518 35.4416 29.0937 35.625ZM28.5078 37.9687C27.9615 38.979 27.9615 38.979 28.039 40.0781C28.576 40.2076 28.576 40.2076 29.0937 40.0854C29.2867 39.6875 29.2043 39.3172 29.0937 38.9062C28.9571 38.5817 28.7997 38.2743 28.625 37.9687C28.5863 37.9687 28.5476 37.9687 28.5078 37.9687Z" fill="white"/>
<path d="M46.9062 38.2031C47.1013 38.3336 47.1013 38.3336 47.2578 38.5547C47.3045 38.914 47.3045 38.914 47.3018 39.3237C47.3027 39.4592 47.3036 39.5947 47.3045 39.7343C47.2891 39.8478 47.2737 39.9612 47.2578 40.0781C46.8512 40.3492 46.6807 40.3523 46.2031 40.3125C46.0871 40.2352 45.9711 40.1578 45.8516 40.0781C45.8049 39.7344 45.8049 39.7343 45.8076 39.3237C45.8067 39.1885 45.8058 39.0533 45.8049 38.914C45.8516 38.5547 45.8516 38.5547 46.0081 38.3336C46.3135 38.1293 46.5494 38.1585 46.9062 38.2031Z" fill="white"/>
</svg>
