<svg width="50" height="50" viewBox="0 0 50 50" fill="none" xmlns="http://www.w3.org/2000/svg">
<path d="M15.4171 25.1769C15.5341 25.1758 15.651 25.1746 15.7715 25.1733C15.8839 25.1731 15.9963 25.1729 16.1122 25.1728C16.2152 25.1724 16.3183 25.172 16.4245 25.1715C16.7007 25.1954 16.8497 25.261 17.0895 25.3906C17.3488 25.3597 17.5399 25.3119 17.7731 25.1953C18.1876 25.1687 18.6029 25.1726 19.0182 25.1708C19.1335 25.1688 19.2488 25.1668 19.3676 25.1647C19.9795 25.162 20.3508 25.2025 20.8981 25.4882C20.9716 25.4434 21.0452 25.3985 21.121 25.3523C21.5914 25.0739 22.1159 25.1493 22.6498 25.1525C22.7638 25.1506 22.8778 25.1486 22.9952 25.1466C23.6251 25.147 24.0383 25.1518 24.5114 25.5859C25.4737 26.6783 24.9996 26.9052 24.9996 29.0039C28.9635 29.0039 32.9274 29.0039 37.0114 29.0039C37.0114 28.1015 37.0114 27.1992 37.0114 26.2695C37.34 25.7765 37.564 25.456 38.0856 25.1953C38.5042 25.1714 38.9237 25.1772 39.3429 25.1769C39.4598 25.1758 39.5768 25.1746 39.6973 25.1733C39.8659 25.173 39.8659 25.173 40.0379 25.1728C40.141 25.1724 40.2441 25.172 40.3503 25.1715C40.6265 25.1954 40.7755 25.261 41.0153 25.3906C41.2745 25.3597 41.4657 25.3119 41.6989 25.1953C42.1175 25.1714 42.5369 25.1772 42.9562 25.1769C43.0731 25.1758 43.1901 25.1746 43.3106 25.1733C43.4792 25.173 43.4792 25.173 43.6512 25.1728C43.7543 25.1724 43.8574 25.172 43.9636 25.1715C44.2398 25.1954 44.3887 25.261 44.6285 25.3906C44.8878 25.3597 45.0789 25.3119 45.3121 25.1953C45.7266 25.1661 46.1419 25.1681 46.5573 25.1647C46.6726 25.1619 46.7879 25.1591 46.9067 25.1562C47.9646 25.1484 47.9646 25.1484 48.4371 25.5859C48.7859 25.9818 48.9372 26.2063 48.9398 26.7302C48.9408 26.876 48.9408 26.876 48.9419 27.0248C48.9422 27.1318 48.9424 27.2388 48.9427 27.3491C48.9433 27.4616 48.944 27.574 48.9446 27.6898C48.9466 28.0633 48.9477 28.4367 48.9487 28.8101C48.9491 28.9374 48.9495 29.0647 48.9499 29.1958C48.9518 29.8 48.9531 30.4043 48.954 31.0085C48.9549 31.7057 48.9575 32.4028 48.9614 33.0999C48.9644 33.6389 48.9658 34.1779 48.9661 34.7169C48.9664 35.0388 48.9674 35.3606 48.9697 35.6824C48.9721 36.0418 48.972 36.401 48.9713 36.7604C48.9732 36.9198 48.9732 36.9198 48.9751 37.0824C48.971 37.6772 48.9333 38.0245 48.5348 38.4765C47.8949 39.0402 47.423 38.9827 46.5939 38.9831C46.4185 38.9849 46.4185 38.9849 46.2395 38.9867C46.0709 38.987 46.0709 38.987 45.8988 38.9873C45.7958 38.9877 45.6927 38.9881 45.5865 38.9885C45.3103 38.9646 45.1613 38.899 44.9215 38.7695C44.6622 38.8003 44.4711 38.8482 44.2379 38.9648C43.8193 38.9886 43.3998 38.9829 42.9806 38.9831C42.8052 38.9849 42.8052 38.9849 42.6262 38.9867C42.4576 38.987 42.4576 38.987 42.2856 38.9873C42.1825 38.9877 42.0794 38.9881 41.9732 38.9885C41.697 38.9646 41.548 38.899 41.3082 38.7695C41.049 38.8003 40.8578 38.8482 40.6246 38.9648C40.2102 38.9939 39.7949 38.992 39.3795 38.9953C39.2642 38.9981 39.1489 39.001 39.0301 39.0039C37.9722 39.0116 37.9722 39.0116 37.4996 38.5742C36.5373 37.4817 37.0114 37.2549 37.0114 35.1562C33.0475 35.1562 29.0836 35.1562 24.9996 35.1562C24.9996 36.0585 24.9996 36.9609 24.9996 37.8906C24.671 38.3835 24.447 38.704 23.9254 38.9648C23.5109 38.9913 23.0956 38.9874 22.6803 38.9892C22.565 38.9912 22.4497 38.9932 22.3309 38.9953C21.719 38.9981 21.3477 38.9575 20.8004 38.6718C20.727 38.7168 20.6536 38.7618 20.578 38.8082C20.2652 38.9924 20.0829 39.0013 19.7228 39.0003C19.6115 39.0002 19.5003 39.0001 19.3857 39.0001C19.2129 38.9977 19.2129 38.9977 19.0365 38.9953C18.8631 38.9958 18.8631 38.9958 18.6861 38.9963C17.7872 38.9907 17.7872 38.9907 17.3825 38.7695C17.1799 38.7937 17.1799 38.7937 16.9918 38.8671C16.4928 39.0335 15.9701 38.9911 15.4476 38.9953C15.3328 38.9981 15.2179 39.001 15.0995 39.0039C14.0472 39.0116 14.0472 39.0116 13.5739 38.5742C13.2251 38.1782 13.0738 37.9537 13.0712 37.4298C13.0705 37.3326 13.0698 37.2354 13.0691 37.1353C13.0688 37.0282 13.0686 36.9212 13.0683 36.8109C13.0676 36.6985 13.067 36.586 13.0663 36.4702C13.0644 36.0968 13.0633 35.7234 13.0623 35.35C13.0619 35.2227 13.0615 35.0954 13.0611 34.9642C13.0592 34.36 13.0578 33.7558 13.057 33.1516C13.0561 32.4544 13.0535 31.7573 13.0496 31.0601C13.0466 30.5211 13.0452 29.9821 13.0449 29.4431C13.0446 29.1213 13.0436 28.7995 13.0413 28.4776C13.0389 28.1183 13.039 27.759 13.0397 27.3997C13.0384 27.2934 13.0372 27.1872 13.0359 27.0777C13.04 26.4828 13.0777 26.1355 13.4762 25.6835C14.1161 25.1198 14.588 25.1774 15.4171 25.1769ZM14.3551 26.6601C14.2647 26.9313 14.2448 27.0943 14.2437 27.3743C14.2432 27.4603 14.2426 27.5462 14.242 27.6348C14.2419 27.7289 14.2418 27.8229 14.2417 27.9199C14.2412 28.0191 14.2407 28.1184 14.2402 28.2207C14.2388 28.5496 14.2382 28.8786 14.2376 29.2076C14.2371 29.4359 14.2365 29.6642 14.2359 29.8925C14.2349 30.3714 14.2343 30.8504 14.234 31.3293C14.2335 31.9433 14.2311 32.5572 14.2283 33.1712C14.2265 33.6429 14.226 34.1145 14.2259 34.5862C14.2256 34.8126 14.2248 35.039 14.2235 35.2653C14.2218 35.5819 14.222 35.8984 14.2226 36.2149C14.2217 36.3086 14.2208 36.4023 14.2199 36.4988C14.2229 36.9715 14.2265 37.3203 14.5504 37.6953C14.873 37.8028 15.1264 37.8127 15.4659 37.8173C15.5755 37.8198 15.685 37.8224 15.7978 37.825C16.1465 37.7895 16.326 37.7141 16.6012 37.4999C16.6916 37.2288 16.7115 37.0657 16.7126 36.7858C16.7131 36.6998 16.7137 36.6138 16.7143 36.5252C16.7144 36.3841 16.7144 36.3841 16.7146 36.2402C16.7151 36.1409 16.7156 36.0417 16.7161 35.9394C16.7175 35.6104 16.7182 35.2815 16.7187 34.9525C16.7193 34.7242 16.7198 34.4959 16.7204 34.2676C16.7214 33.7886 16.722 33.3097 16.7223 32.8308C16.7229 32.2168 16.7252 31.6028 16.728 30.9888C16.7298 30.5172 16.7303 30.0455 16.7305 29.5738C16.7308 29.3475 16.7315 29.1211 16.7328 28.8947C16.7345 28.5782 16.7343 28.2617 16.7337 27.9451C16.7346 27.8515 16.7355 27.7578 16.7364 27.6613C16.7334 27.1885 16.7298 26.8398 16.4059 26.4648C16.0833 26.3573 15.8299 26.3474 15.4904 26.3427C15.3808 26.3402 15.2713 26.3377 15.1585 26.3351C14.8098 26.3706 14.6303 26.446 14.3551 26.6601ZM17.9684 26.6601C17.878 26.9313 17.8581 27.0943 17.857 27.3743C17.8565 27.4603 17.8559 27.5462 17.8553 27.6348C17.8552 27.7289 17.8551 27.8229 17.855 27.9199C17.8545 28.0191 17.854 28.1184 17.8535 28.2207C17.8521 28.5496 17.8514 28.8786 17.8509 29.2076C17.8503 29.4359 17.8498 29.6642 17.8492 29.8925C17.8482 30.3714 17.8476 30.8504 17.8473 31.3293C17.8467 31.9433 17.8444 32.5572 17.8416 33.1712C17.8398 33.6429 17.8393 34.1145 17.8391 34.5862C17.8388 34.8126 17.8381 35.039 17.8368 35.2653C17.8351 35.5819 17.8353 35.8984 17.8359 36.2149C17.835 36.3086 17.8341 36.4023 17.8332 36.4988C17.8362 36.9715 17.8398 37.3203 18.1637 37.6953C18.4863 37.8028 18.7397 37.8127 19.0792 37.8173C19.1887 37.8198 19.2983 37.8224 19.4111 37.825C19.7598 37.7895 19.9393 37.7141 20.2145 37.4999C20.3049 37.2288 20.3248 37.0657 20.3259 36.7858C20.3264 36.6998 20.327 36.6138 20.3275 36.5252C20.3277 36.3841 20.3277 36.3841 20.3279 36.2402C20.3284 36.1409 20.3288 36.0417 20.3293 35.9394C20.3308 35.6104 20.3314 35.2815 20.332 34.9525C20.3325 34.7242 20.3331 34.4959 20.3337 34.2676C20.3347 33.7886 20.3353 33.3097 20.3356 32.8308C20.3361 32.2168 20.3385 31.6028 20.3413 30.9888C20.3431 30.5172 20.3436 30.0455 20.3437 29.5738C20.344 29.3475 20.3448 29.1211 20.3461 28.8947C20.3478 28.5782 20.3476 28.2617 20.3469 27.9451C20.3478 27.8515 20.3487 27.7578 20.3497 27.6613C20.3467 27.1885 20.3431 26.8398 20.0192 26.4648C19.6966 26.3573 19.4432 26.3474 19.1036 26.3427C18.9941 26.3402 18.8846 26.3377 18.7718 26.3351C18.4231 26.3706 18.2436 26.446 17.9684 26.6601ZM21.5817 26.6601C21.4913 26.9313 21.4714 27.0943 21.4703 27.3743C21.4697 27.4603 21.4692 27.5462 21.4686 27.6348C21.4685 27.7289 21.4684 27.8229 21.4683 27.9199C21.4678 28.0191 21.4673 28.1184 21.4668 28.2207C21.4654 28.5496 21.4647 28.8786 21.4642 29.2076C21.4636 29.4359 21.4631 29.6642 21.4625 29.8925C21.4615 30.3714 21.4609 30.8504 21.4606 31.3293C21.46 31.9433 21.4577 32.5572 21.4549 33.1712C21.4531 33.6429 21.4526 34.1145 21.4524 34.5862C21.4521 34.8126 21.4513 35.039 21.4501 35.2653C21.4484 35.5819 21.4486 35.8984 21.4492 36.2149C21.4483 36.3086 21.4474 36.4023 21.4465 36.4988C21.4494 36.9715 21.453 37.3203 21.777 37.6953C22.0996 37.8028 22.353 37.8127 22.6925 37.8173C22.802 37.8198 22.9115 37.8224 23.0244 37.825C23.3731 37.7895 23.5526 37.7141 23.8278 37.4999C23.9182 37.2288 23.938 37.0657 23.9391 36.7858C23.9397 36.6998 23.9402 36.6138 23.9408 36.5252C23.941 36.3841 23.941 36.3841 23.9412 36.2402C23.9416 36.1409 23.9421 36.0417 23.9426 35.9394C23.9441 35.6104 23.9447 35.2815 23.9453 34.9525C23.9458 34.7242 23.9464 34.4959 23.9469 34.2676C23.948 33.7886 23.9485 33.3097 23.9489 32.8308C23.9494 32.2168 23.9518 31.6028 23.9545 30.9888C23.9564 30.5172 23.9569 30.0455 23.957 29.5738C23.9573 29.3475 23.9581 29.1211 23.9594 28.8947C23.961 28.5782 23.9609 28.2617 23.9602 27.9451C23.9611 27.8515 23.962 27.7578 23.963 27.6613C23.96 27.1885 23.9564 26.8398 23.6325 26.4648C23.3099 26.3573 23.0564 26.3474 22.7169 26.3427C22.6074 26.3402 22.4979 26.3377 22.385 26.3351C22.0363 26.3706 21.8568 26.446 21.5817 26.6601ZM38.2809 26.6601C38.1905 26.9313 38.1706 27.0943 38.1695 27.3743C38.169 27.4603 38.1684 27.5462 38.1678 27.6348C38.1677 27.7289 38.1676 27.8229 38.1675 27.9199C38.167 28.0191 38.1665 28.1184 38.166 28.2207C38.1646 28.5496 38.1639 28.8786 38.1634 29.2076C38.1628 29.4359 38.1623 29.6642 38.1617 29.8925C38.1607 30.3714 38.1601 30.8504 38.1598 31.3293C38.1592 31.9433 38.1569 32.5572 38.1541 33.1712C38.1523 33.6429 38.1518 34.1145 38.1516 34.5862C38.1513 34.8126 38.1506 35.039 38.1493 35.2653C38.1476 35.5819 38.1478 35.8984 38.1484 36.2149C38.1475 36.3086 38.1466 36.4023 38.1457 36.4988C38.1487 36.9715 38.1523 37.3203 38.4762 37.6953C38.7988 37.8028 39.0522 37.8127 39.3917 37.8173C39.5012 37.8198 39.6108 37.8224 39.7236 37.825C40.0723 37.7895 40.2518 37.7141 40.527 37.4999C40.6174 37.2288 40.6373 37.0657 40.6384 36.7858C40.6389 36.6998 40.6395 36.6138 40.64 36.5252C40.6402 36.3841 40.6402 36.3841 40.6404 36.2402C40.6409 36.1409 40.6413 36.0417 40.6418 35.9394C40.6433 35.6104 40.6439 35.2815 40.6445 34.9525C40.645 34.7242 40.6456 34.4959 40.6462 34.2676C40.6472 33.7886 40.6478 33.3097 40.6481 32.8308C40.6486 32.2168 40.651 31.6028 40.6538 30.9888C40.6556 30.5172 40.6561 30.0455 40.6562 29.5738C40.6565 29.3475 40.6573 29.1211 40.6586 28.8947C40.6603 28.5782 40.6601 28.2617 40.6594 27.9451C40.6603 27.8515 40.6612 27.7578 40.6622 27.6613C40.6592 27.1885 40.6556 26.8398 40.3317 26.4648C40.0091 26.3573 39.7557 26.3474 39.4161 26.3427C39.3066 26.3402 39.1971 26.3377 39.0843 26.3351C38.7356 26.3706 38.5561 26.446 38.2809 26.6601ZM41.8942 26.6601C41.8038 26.9313 41.7839 27.0943 41.7828 27.3743C41.7822 27.4603 41.7817 27.5462 41.7811 27.6348C41.781 27.7289 41.7809 27.8229 41.7808 27.9199C41.7803 28.0191 41.7798 28.1184 41.7793 28.2207C41.7779 28.5496 41.7772 28.8786 41.7767 29.2076C41.7761 29.4359 41.7756 29.6642 41.775 29.8925C41.774 30.3714 41.7734 30.8504 41.7731 31.3293C41.7725 31.9433 41.7702 32.5572 41.7674 33.1712C41.7656 33.6429 41.7651 34.1145 41.7649 34.5862C41.7646 34.8126 41.7638 35.039 41.7626 35.2653C41.7609 35.5819 41.7611 35.8984 41.7617 36.2149C41.7608 36.3086 41.7599 36.4023 41.759 36.4988C41.7619 36.9715 41.7655 37.3203 42.0895 37.6953C42.4121 37.8028 42.6655 37.8127 43.005 37.8173C43.1145 37.8198 43.224 37.8224 43.3369 37.825C43.6856 37.7895 43.8651 37.7141 44.1403 37.4999C44.2307 37.2288 44.2505 37.0657 44.2516 36.7858C44.2522 36.6998 44.2527 36.6138 44.2533 36.5252C44.2535 36.3841 44.2535 36.3841 44.2537 36.2402C44.2541 36.1409 44.2546 36.0417 44.2551 35.9394C44.2566 35.6104 44.2572 35.2815 44.2578 34.9525C44.2583 34.7242 44.2589 34.4959 44.2594 34.2676C44.2605 33.7886 44.261 33.3097 44.2614 32.8308C44.2619 32.2168 44.2643 31.6028 44.267 30.9888C44.2689 30.5172 44.2694 30.0455 44.2695 29.5738C44.2698 29.3475 44.2706 29.1211 44.2719 28.8947C44.2735 28.5782 44.2734 28.2617 44.2727 27.9451C44.2736 27.8515 44.2745 27.7578 44.2755 27.6613C44.2725 27.1885 44.2689 26.8398 43.945 26.4648C43.6224 26.3573 43.3689 26.3474 43.0294 26.3427C42.9199 26.3402 42.8104 26.3377 42.6975 26.3351C42.3488 26.3706 42.1693 26.446 41.8942 26.6601ZM45.4098 26.6601C45.3194 26.9313 45.2995 27.0943 45.2984 27.3743C45.2979 27.4603 45.2973 27.5462 45.2967 27.6348C45.2966 27.7289 45.2965 27.8229 45.2964 27.9199C45.2959 28.0191 45.2954 28.1184 45.2949 28.2207C45.2935 28.5496 45.2928 28.8786 45.2923 29.2076C45.2917 29.4359 45.2912 29.6642 45.2906 29.8925C45.2896 30.3714 45.289 30.8504 45.2887 31.3293C45.2881 31.9433 45.2858 32.5572 45.283 33.1712C45.2812 33.6429 45.2807 34.1145 45.2805 34.5862C45.2802 34.8126 45.2795 35.039 45.2782 35.2653C45.2765 35.5819 45.2767 35.8984 45.2773 36.2149C45.2764 36.3086 45.2755 36.4023 45.2746 36.4988C45.2776 36.9715 45.2812 37.3203 45.6051 37.6953C45.9277 37.8028 46.1811 37.8127 46.5206 37.8173C46.6302 37.8198 46.7397 37.8224 46.8525 37.825C47.2012 37.7895 47.3807 37.7141 47.6559 37.4999C47.7463 37.2288 47.7662 37.0657 47.7673 36.7858C47.7678 36.6998 47.7684 36.6138 47.7689 36.5252C47.7691 36.3841 47.7691 36.3841 47.7693 36.2402C47.7698 36.1409 47.7702 36.0417 47.7707 35.9394C47.7722 35.6104 47.7728 35.2815 47.7734 34.9525C47.7739 34.7242 47.7745 34.4959 47.7751 34.2676C47.7761 33.7886 47.7767 33.3097 47.777 32.8308C47.7775 32.2168 47.7799 31.6028 47.7827 30.9888C47.7845 30.5172 47.785 30.0455 47.7851 29.5738C47.7854 29.3475 47.7862 29.1211 47.7875 28.8947C47.7892 28.5782 47.789 28.2617 47.7884 27.9451C47.7893 27.8515 47.7902 27.7578 47.7911 27.6613C47.7881 27.1885 47.7845 26.8398 47.4606 26.4648C47.138 26.3573 46.8846 26.3474 46.545 26.3427C46.4355 26.3402 46.326 26.3377 46.2132 26.3351C45.8645 26.3706 45.685 26.446 45.4098 26.6601ZM24.9996 30.1757C24.9996 31.4326 24.9996 32.6894 24.9996 33.9843C28.9635 33.9843 32.9274 33.9843 37.0114 33.9843C37.0114 32.7275 37.0114 31.4707 37.0114 30.1757C33.0475 30.1757 29.0836 30.1757 24.9996 30.1757Z" fill="#34B7FE"/>
<path d="M3.4054 11.0169C3.52235 11.0157 3.63929 11.0145 3.75978 11.0133C3.8722 11.0131 3.98462 11.0129 4.10044 11.0127C4.20352 11.0123 4.30661 11.0119 4.41281 11.0115C4.68898 11.0354 4.83796 11.101 5.07776 11.2305C5.33703 11.1996 5.52816 11.1518 5.76136 11.0352C6.17999 11.0113 6.59945 11.0171 7.01868 11.0169C7.13563 11.0157 7.25257 11.0145 7.37307 11.0133C7.48548 11.0131 7.5979 11.0129 7.71372 11.0127C7.8168 11.0123 7.91989 11.0119 8.02609 11.0115C8.30156 11.0353 8.45267 11.0992 8.69104 11.2305C8.89355 11.2063 8.89355 11.2063 9.08167 11.1329C9.58067 10.9665 10.1034 11.0089 10.6259 11.0047C10.7407 11.0018 10.8556 10.999 10.9739 10.9961C12.0263 10.9884 12.0263 10.9884 12.4996 11.4258C13.462 12.5183 12.9879 12.7451 12.9879 14.8438C16.9518 14.8438 20.9157 14.8438 24.9996 14.8438C24.9996 13.9414 24.9996 13.0391 24.9996 12.1094C25.3283 11.6165 25.5523 11.296 26.0739 11.0352C26.4884 11.0087 26.9037 11.0126 27.319 11.0108C27.4343 11.0088 27.5496 11.0068 27.6684 11.0047C28.2803 11.0019 28.6516 11.0425 29.1989 11.3282C29.2723 11.2832 29.3457 11.2382 29.4213 11.1918C29.734 11.0076 29.9164 10.9987 30.2765 10.9997C30.4433 10.9998 30.4433 10.9998 30.6135 10.9999C30.7864 11.0023 30.7864 11.0023 30.9628 11.0047C31.1362 11.0042 31.1362 11.0042 31.3132 11.0037C32.212 11.0093 32.212 11.0093 32.6168 11.2305C32.8193 11.2063 32.8193 11.2063 33.0075 11.1329C33.5064 10.9665 34.0292 11.0089 34.5516 11.0047C34.6665 11.0018 34.7814 10.999 34.8997 10.9961C35.9521 10.9884 35.9521 10.9884 36.4254 11.4258C36.7742 11.8217 36.9255 12.0463 36.9281 12.5701C36.9291 12.7159 36.9291 12.7159 36.9302 12.8647C36.9305 12.9717 36.9307 13.0788 36.931 13.1891C36.9316 13.3015 36.9323 13.4139 36.9329 13.5298C36.9349 13.9032 36.936 14.2766 36.937 14.65C36.9374 14.7773 36.9378 14.9046 36.9382 15.0358C36.94 15.64 36.9414 16.2442 36.9422 16.8484C36.9432 17.5456 36.9458 18.2427 36.9497 18.9398C36.9527 19.4789 36.9541 20.0178 36.9544 20.5569C36.9547 20.8787 36.9557 21.2005 36.958 21.5223C36.9604 21.8817 36.9603 22.241 36.9596 22.6003C36.9615 22.7597 36.9615 22.7597 36.9634 22.9223C36.9593 23.5171 36.9216 23.8645 36.5231 24.3164C35.8832 24.8801 35.4113 24.8226 34.5822 24.823C34.4067 24.8248 34.4067 24.8248 34.2278 24.8267C34.0591 24.8269 34.0591 24.8269 33.8871 24.8272C33.784 24.8276 33.681 24.828 33.5747 24.8284C33.2986 24.8046 33.1496 24.7389 32.9098 24.6094C32.6505 24.6403 32.4594 24.6881 32.2262 24.8047C31.8117 24.8312 31.3963 24.8273 30.9811 24.8291C30.8658 24.8312 30.7505 24.8332 30.6317 24.8352C30.0198 24.838 29.6485 24.7974 29.1012 24.5118C29.0276 24.5566 28.9541 24.6015 28.8783 24.6477C28.4079 24.926 27.8834 24.8507 27.3495 24.8474C27.2355 24.8494 27.1215 24.8514 27.0041 24.8534C26.3742 24.853 25.9609 24.8482 25.4879 24.4141C24.5255 23.3217 24.9996 23.0948 24.9996 20.9961C21.0358 20.9961 17.0719 20.9961 12.9879 20.9961C12.9879 21.8985 12.9879 22.8008 12.9879 23.7305C12.6593 24.2235 12.4352 24.544 11.9137 24.8047C11.4951 24.8286 11.0756 24.8228 10.6564 24.823C10.5394 24.8242 10.4225 24.8254 10.302 24.8267C10.1896 24.8268 10.0772 24.827 9.96134 24.8272C9.85825 24.8276 9.75517 24.828 9.64896 24.8284C9.37279 24.8046 9.22382 24.7389 8.98401 24.6094C8.72474 24.6403 8.53362 24.6881 8.30042 24.8047C7.88179 24.8286 7.46233 24.8228 7.04309 24.823C6.92615 24.8242 6.8092 24.8254 6.68871 24.8267C6.57629 24.8268 6.46388 24.827 6.34806 24.8272C6.24497 24.8276 6.14189 24.828 6.03568 24.8284C5.75951 24.8046 5.61054 24.7389 5.37073 24.6094C5.11146 24.6403 4.92034 24.6881 4.68714 24.8047C4.27269 24.8339 3.85737 24.8319 3.44202 24.8352C3.32671 24.8381 3.2114 24.8409 3.09259 24.8438C2.03467 24.8516 2.03467 24.8516 1.56214 24.4141C1.21335 24.0182 1.06206 23.7937 1.05948 23.2698C1.05879 23.1726 1.05809 23.0754 1.05737 22.9752C1.0571 22.8682 1.05684 22.7611 1.05657 22.6509C1.05593 22.5384 1.05529 22.426 1.05463 22.3101C1.0527 21.9367 1.05156 21.5633 1.05059 21.1899C1.05019 21.0626 1.04979 20.9353 1.04938 20.8042C1.04752 20.1999 1.04613 19.5957 1.04532 18.9915C1.04436 18.2943 1.04179 17.5972 1.03785 16.9001C1.0349 16.3611 1.03345 15.8221 1.03313 15.2831C1.0329 14.9612 1.03184 14.6394 1.02957 14.3176C1.0272 13.9582 1.02728 13.599 1.02796 13.2396C1.02671 13.1334 1.02546 13.0271 1.02417 12.9176C1.02827 12.3228 1.066 11.9754 1.46448 11.5235C2.10435 10.9598 2.57624 11.0173 3.4054 11.0169ZM2.34339 12.5C2.25299 12.7712 2.2331 12.9343 2.23202 13.2142C2.23146 13.3002 2.2309 13.3862 2.23033 13.4748C2.23022 13.5688 2.23011 13.6629 2.23 13.7598C2.22951 13.8591 2.22903 13.9583 2.22853 14.0606C2.2271 14.3896 2.22643 14.7185 2.22589 15.0475C2.22533 15.2758 2.22477 15.5041 2.22421 15.7324C2.22318 16.2114 2.22261 16.6903 2.22227 17.1692C2.22174 17.7832 2.21939 18.3972 2.21661 19.0112C2.21479 19.4828 2.21428 19.9545 2.21413 20.4261C2.21384 20.6525 2.21305 20.8789 2.21177 21.1053C2.21011 21.4218 2.21029 21.7383 2.21092 22.0549C2.21002 22.1485 2.20912 22.2422 2.2082 22.3387C2.21117 22.8115 2.21475 23.1602 2.5387 23.5352C2.86129 23.6427 3.11471 23.6526 3.45423 23.6573C3.56375 23.6598 3.67327 23.6623 3.78611 23.6649C4.13482 23.6294 4.31431 23.554 4.58948 23.3399C4.69119 23.0348 4.70171 22.8156 4.70564 22.4953C4.70727 22.3822 4.7089 22.2691 4.71059 22.1526C4.71191 22.0306 4.71324 21.9085 4.7146 21.7827C4.71735 21.5917 4.7201 21.4006 4.72287 21.2096C4.7286 20.8058 4.73349 20.4019 4.73851 19.9981C4.74268 19.6653 4.74703 19.3324 4.75188 18.9995C4.75548 18.7497 4.75864 18.4998 4.76135 18.25C4.76298 18.1375 4.76461 18.0251 4.76629 17.9092C4.76752 17.8097 4.76874 17.7102 4.77 17.6077C4.78479 17.3828 4.78479 17.3828 4.88245 17.2852C5.05945 17.2722 5.05945 17.2722 5.27308 17.273C5.34357 17.2727 5.41407 17.2725 5.4867 17.2722C5.6637 17.2852 5.6637 17.2852 5.76136 17.3828C5.77186 17.557 5.77564 17.7316 5.77676 17.9061C5.77776 18.0179 5.77876 18.1298 5.7798 18.245C5.78051 18.3668 5.78122 18.4887 5.78196 18.6142C5.7847 18.8698 5.7875 19.1254 5.79035 19.381C5.79449 19.7858 5.79808 20.1906 5.80055 20.5955C5.80299 20.9849 5.80773 21.3743 5.81247 21.7636C5.81279 21.8847 5.81311 22.0058 5.81344 22.1305C5.81505 22.2436 5.81667 22.3566 5.81834 22.4731C5.81952 22.6219 5.81952 22.6219 5.82073 22.7738C5.86559 23.0938 5.95767 23.2785 6.15198 23.5352C6.47457 23.6427 6.72799 23.6526 7.06751 23.6573C7.17703 23.6598 7.28655 23.6623 7.39939 23.6649C7.7743 23.6268 7.92288 23.5953 8.20276 23.3399C8.27977 23.0005 8.26938 22.6629 8.26594 22.3162C8.2668 22.2109 8.26765 22.1056 8.26854 21.9971C8.27069 21.6482 8.26926 21.2993 8.26761 20.9504C8.26794 20.7084 8.26841 20.4665 8.26903 20.2246C8.26984 19.6522 8.26813 19.0799 8.26554 18.5075C8.2637 18.0507 8.26435 17.5941 8.26642 17.1373C8.26925 16.5082 8.2697 15.8792 8.2681 15.25C8.26778 15.0099 8.26818 14.7697 8.26931 14.5296C8.27055 14.1942 8.26867 13.859 8.26594 13.5237C8.26693 13.4239 8.26792 13.324 8.26894 13.2211C8.26516 12.9711 8.25813 12.7439 8.20276 12.5C7.85279 12.1819 7.54343 12.1672 7.07972 12.1704C6.97196 12.1697 6.8642 12.1689 6.75318 12.1682C6.41234 12.2112 6.22745 12.2911 5.95667 12.5C5.82086 12.9075 5.82125 13.3172 5.79988 13.7429C5.77128 14.2479 5.77128 14.2479 5.6637 14.3555C5.4867 14.3685 5.4867 14.3685 5.27308 14.3677C5.20258 14.368 5.13208 14.3682 5.05945 14.3685C4.88245 14.3555 4.88245 14.3555 4.78479 14.2579C4.7649 13.9558 4.75099 13.6545 4.74283 13.3519C4.72277 12.9264 4.6608 12.6409 4.39417 12.3047C4.07158 12.1972 3.81816 12.1873 3.47864 12.1827C3.36912 12.1801 3.2596 12.1776 3.14676 12.175C2.79805 12.2105 2.61856 12.2859 2.34339 12.5ZM9.47229 12.5C9.3819 12.7712 9.36201 12.9343 9.36092 13.2142C9.36036 13.3002 9.35981 13.3862 9.35923 13.4748C9.35912 13.5688 9.35901 13.6629 9.3589 13.7598C9.35842 13.8591 9.35793 13.9583 9.35743 14.0606C9.356 14.3896 9.35534 14.7185 9.3548 15.0475C9.35424 15.2758 9.35368 15.5041 9.35311 15.7324C9.35209 16.2114 9.35152 16.6903 9.35118 17.1692C9.35064 17.7832 9.34829 18.3972 9.34552 19.0112C9.3437 19.4828 9.34319 19.9545 9.34304 20.4261C9.34274 20.6525 9.34196 20.8789 9.34068 21.1053C9.33901 21.4218 9.33919 21.7383 9.33983 22.0549C9.33893 22.1485 9.33803 22.2422 9.3371 22.3387C9.34007 22.8115 9.34366 23.1602 9.66761 23.5352C9.9902 23.6427 10.2436 23.6526 10.5831 23.6573C10.6927 23.6598 10.8022 23.6623 10.915 23.6649C11.2637 23.6294 11.4432 23.554 11.7184 23.3399C11.8088 23.0687 11.8287 22.9056 11.8298 22.6257C11.8303 22.5397 11.8309 22.4537 11.8314 22.3652C11.8316 22.2241 11.8316 22.2241 11.8318 22.0801C11.8323 21.9809 11.8327 21.8816 11.8332 21.7793C11.8347 21.4503 11.8353 21.1214 11.8359 20.7924C11.8364 20.5641 11.837 20.3358 11.8376 20.1075C11.8386 19.6286 11.8392 19.1496 11.8395 18.6707C11.84 18.0567 11.8424 17.4427 11.8452 16.8288C11.847 16.3571 11.8475 15.8854 11.8476 15.4138C11.8479 15.1874 11.8487 14.961 11.85 14.7347C11.8517 14.4181 11.8515 14.1016 11.8509 13.7851C11.8518 13.6914 11.8527 13.5977 11.8536 13.5012C11.8506 13.0284 11.847 12.6797 11.5231 12.3047C11.2005 12.1972 10.9471 12.1873 10.6075 12.1827C10.498 12.1801 10.3885 12.1776 10.2757 12.175C9.92696 12.2105 9.74746 12.2859 9.47229 12.5ZM26.2692 12.5C26.1788 12.7712 26.1589 12.9343 26.1578 13.2142C26.1572 13.3002 26.1567 13.3862 26.1561 13.4748C26.156 13.5688 26.1559 13.6629 26.1558 13.7598C26.1553 13.8591 26.1548 13.9583 26.1543 14.0606C26.1529 14.3896 26.1522 14.7185 26.1517 15.0475C26.1511 15.2758 26.1506 15.5041 26.15 15.7324C26.149 16.2114 26.1484 16.6903 26.1481 17.1692C26.1475 17.7832 26.1452 18.3972 26.1424 19.0112C26.1406 19.4828 26.1401 19.9545 26.1399 20.4261C26.1396 20.6525 26.1388 20.8789 26.1376 21.1053C26.1359 21.4218 26.1361 21.7383 26.1367 22.0549C26.1358 22.1485 26.1349 22.2422 26.134 22.3387C26.1369 22.8115 26.1405 23.1602 26.4645 23.5352C26.7871 23.6427 27.0405 23.6526 27.38 23.6573C27.4895 23.6598 27.599 23.6623 27.7119 23.6649C28.0606 23.6294 28.2401 23.554 28.5153 23.3399C28.6057 23.0687 28.6255 22.9056 28.6266 22.6257C28.6272 22.5397 28.6277 22.4537 28.6283 22.3652C28.6285 22.2241 28.6285 22.2241 28.6287 22.0801C28.6291 21.9809 28.6296 21.8816 28.6301 21.7793C28.6316 21.4503 28.6322 21.1214 28.6328 20.7924C28.6333 20.5641 28.6339 20.3358 28.6344 20.1075C28.6355 19.6286 28.636 19.1496 28.6364 18.6707C28.6369 18.0567 28.6393 17.4427 28.642 16.8288C28.6439 16.3571 28.6444 15.8854 28.6445 15.4138C28.6448 15.1874 28.6456 14.961 28.6469 14.7347C28.6485 14.4181 28.6484 14.1016 28.6477 13.7851C28.6486 13.6914 28.6495 13.5977 28.6505 13.5012C28.6475 13.0284 28.6439 12.6797 28.32 12.3047C27.9974 12.1972 27.7439 12.1873 27.4044 12.1827C27.2949 12.1801 27.1854 12.1776 27.0725 12.175C26.7238 12.2105 26.5443 12.2859 26.2692 12.5ZM29.7848 12.5C29.6944 12.7712 29.6745 12.9343 29.6734 13.2142C29.6729 13.3002 29.6723 13.3862 29.6717 13.4748C29.6716 13.5688 29.6715 13.6629 29.6714 13.7598C29.6709 13.8591 29.6704 13.9583 29.6699 14.0606C29.6685 14.3896 29.6678 14.7185 29.6673 15.0475C29.6667 15.2758 29.6662 15.5041 29.6656 15.7324C29.6646 16.2114 29.664 16.6903 29.6637 17.1692C29.6631 17.7832 29.6608 18.3972 29.658 19.0112C29.6562 19.4828 29.6557 19.9545 29.6555 20.4261C29.6552 20.6525 29.6545 20.8789 29.6532 21.1053C29.6515 21.4218 29.6517 21.7383 29.6523 22.0549C29.6514 22.1485 29.6505 22.2422 29.6496 22.3387C29.6526 22.8115 29.6562 23.1602 29.9801 23.5352C30.3027 23.6427 30.5561 23.6526 30.8956 23.6573C31.0052 23.6598 31.1147 23.6623 31.2275 23.6649C31.5762 23.6294 31.7557 23.554 32.0309 23.3399C32.1213 23.0687 32.1412 22.9056 32.1423 22.6257C32.1428 22.5397 32.1434 22.4537 32.1439 22.3652C32.1441 22.2241 32.1441 22.2241 32.1443 22.0801C32.1448 21.9809 32.1452 21.8816 32.1457 21.7793C32.1472 21.4503 32.1478 21.1214 32.1484 20.7924C32.1489 20.5641 32.1495 20.3358 32.1501 20.1075C32.1511 19.6286 32.1517 19.1496 32.152 18.6707C32.1525 18.0567 32.1549 17.4427 32.1577 16.8288C32.1595 16.3571 32.16 15.8854 32.1601 15.4138C32.1604 15.1874 32.1612 14.961 32.1625 14.7347C32.1642 14.4181 32.164 14.1016 32.1634 13.7851C32.1643 13.6914 32.1652 13.5977 32.1661 13.5012C32.1631 13.0284 32.1595 12.6797 31.8356 12.3047C31.513 12.1972 31.2596 12.1873 30.92 12.1827C30.8105 12.1801 30.701 12.1776 30.5882 12.175C30.2395 12.2105 30.06 12.2859 29.7848 12.5ZM33.3981 12.5C33.3077 12.7712 33.2878 12.9343 33.2867 13.2142C33.2861 13.3002 33.2856 13.3862 33.285 13.4748C33.2849 13.5688 33.2848 13.6629 33.2847 13.7598C33.2842 13.8591 33.2837 13.9583 33.2832 14.0606C33.2818 14.3896 33.2811 14.7185 33.2806 15.0475C33.28 15.2758 33.2795 15.5041 33.2789 15.7324C33.2779 16.2114 33.2773 16.6903 33.277 17.1692C33.2764 17.7832 33.2741 18.3972 33.2713 19.0112C33.2695 19.4828 33.269 19.9545 33.2688 20.4261C33.2685 20.6525 33.2677 20.8789 33.2665 21.1053C33.2648 21.4218 33.265 21.7383 33.2656 22.0549C33.2647 22.1485 33.2638 22.2422 33.2629 22.3387C33.2659 22.8115 33.2694 23.1602 33.5934 23.5352C33.916 23.6427 34.1694 23.6526 34.5089 23.6573C34.6184 23.6598 34.728 23.6623 34.8408 23.6649C35.1895 23.6294 35.369 23.554 35.6442 23.3399C35.7346 23.0687 35.7545 22.9056 35.7555 22.6257C35.7561 22.5397 35.7567 22.4537 35.7572 22.3652C35.7574 22.2241 35.7574 22.2241 35.7576 22.0801C35.758 21.9809 35.7585 21.8816 35.759 21.7793C35.7605 21.4503 35.7611 21.1214 35.7617 20.7924C35.7622 20.5641 35.7628 20.3358 35.7633 20.1075C35.7644 19.6286 35.7649 19.1496 35.7653 18.6707C35.7658 18.0567 35.7682 17.4427 35.7709 16.8288C35.7728 16.3571 35.7733 15.8854 35.7734 15.4138C35.7737 15.1874 35.7745 14.961 35.7758 14.7347C35.7774 14.4181 35.7773 14.1016 35.7766 13.7851C35.7775 13.6914 35.7784 13.5977 35.7794 13.5012C35.7764 13.0284 35.7728 12.6797 35.4489 12.3047C35.1263 12.1972 34.8728 12.1873 34.5333 12.1827C34.4238 12.1801 34.3143 12.1776 34.2015 12.175C33.8527 12.2105 33.6732 12.2859 33.3981 12.5ZM12.9879 16.0157C12.9879 17.2725 12.9879 18.5293 12.9879 19.8243C16.9518 19.8243 20.9157 19.8243 24.9996 19.8243C24.9996 18.5674 24.9996 17.3106 24.9996 16.0157C21.0358 16.0157 17.0719 16.0157 12.9879 16.0157Z" fill="#34B7FE"/>
<path d="M15.9175 16.8945C16.1769 16.8573 16.1769 16.8573 16.5103 16.8566C16.6347 16.8556 16.7592 16.8547 16.8875 16.8538C17.0239 16.8543 17.1604 16.8549 17.2968 16.8556C17.4362 16.8554 17.5756 16.8551 17.715 16.8547C18.0073 16.8543 18.2995 16.8549 18.5917 16.8563C18.9668 16.8579 19.3418 16.857 19.7168 16.8552C20.0047 16.8542 20.2925 16.8545 20.5804 16.8553C20.7187 16.8555 20.857 16.8552 20.9953 16.8545C21.1884 16.8538 21.3815 16.8551 21.5747 16.8566C21.7397 16.8569 21.7397 16.8569 21.908 16.8573C22.0364 16.8757 22.0364 16.8757 22.1675 16.8945C22.3934 17.2333 22.3959 17.3754 22.3628 17.7734C22.2983 17.8701 22.2339 17.9667 22.1675 18.0663C21.908 18.1035 21.908 18.1035 21.5747 18.1042C21.4502 18.1052 21.3257 18.1061 21.1974 18.107C21.061 18.1065 20.9245 18.1059 20.7881 18.1053C20.6487 18.1054 20.5093 18.1057 20.3699 18.1061C20.0777 18.1065 19.7854 18.1059 19.4932 18.1045C19.1181 18.1029 18.7431 18.1038 18.3681 18.1056C18.0802 18.1066 17.7924 18.1063 17.5045 18.1055C17.3662 18.1053 17.2279 18.1056 17.0896 18.1063C16.8965 18.107 16.7034 18.1057 16.5103 18.1042C16.4003 18.104 16.2902 18.1038 16.1769 18.1035C16.0913 18.0913 16.0057 18.079 15.9175 18.0663C15.6915 17.7275 15.689 17.5854 15.7221 17.1874C15.7866 17.0908 15.851 16.9941 15.9175 16.8945Z" fill="#34B7FE"/>
<path d="M14.2578 16.858C14.3606 16.8572 14.4633 16.8565 14.5691 16.8557C14.8438 16.8946 14.8438 16.8946 15.0246 17.0251C15.1996 17.2787 15.1741 17.4745 15.1368 17.7735C15.0246 17.936 15.0246 17.936 14.8438 18.0665C14.5691 18.1054 14.5691 18.1054 14.2578 18.1031C14.1551 18.1039 14.0524 18.1046 13.9466 18.1054C13.6719 18.0665 13.6719 18.0665 13.4911 17.936C13.316 17.6824 13.3416 17.4866 13.3789 17.1876C13.6166 16.8432 13.8581 16.8551 14.2578 16.858Z" fill="#34B7FE"/>
</svg>
