<svg width="50" height="50" viewBox="0 0 50 50" fill="none" xmlns="http://www.w3.org/2000/svg">
<path d="M5.15069 2.72112C5.26579 2.72068 5.38088 2.72025 5.49946 2.7198C5.62603 2.71982 5.75259 2.71984 5.88298 2.71986C6.01871 2.71953 6.15443 2.71917 6.29015 2.71877C6.66353 2.71779 7.03692 2.71743 7.4103 2.71717C7.81286 2.71679 8.21542 2.71585 8.61798 2.715C9.59041 2.71307 10.5628 2.71208 11.5353 2.71122C11.9933 2.71079 12.4513 2.71026 12.9093 2.70975C14.4321 2.70809 15.9549 2.70667 17.4776 2.70597C17.8728 2.70578 18.2679 2.70559 18.6631 2.7054C18.8104 2.70533 18.8104 2.70533 18.9607 2.70526C20.5513 2.70445 22.1419 2.70197 23.7325 2.6988C25.3659 2.69557 26.9992 2.69381 28.6326 2.6935C29.5495 2.69329 30.4665 2.69244 31.3834 2.68994C32.1644 2.68782 32.9454 2.68704 33.7264 2.68799C34.1246 2.68843 34.5229 2.68825 34.9212 2.68635C35.2863 2.68462 35.6514 2.68473 36.0165 2.68624C36.2101 2.68658 36.4036 2.68501 36.5972 2.68335C37.944 2.69301 38.9597 3.1595 39.9539 4.05259C40.7087 4.83313 41.1236 5.87158 41.129 6.94562C41.1295 7.01574 41.13 7.08587 41.1305 7.15811C41.132 7.39307 41.1328 7.62803 41.1336 7.86299C41.1346 8.03142 41.1355 8.19985 41.1366 8.36828C41.1392 8.82565 41.1412 9.28302 41.1432 9.7404C41.1453 10.2183 41.148 10.6963 41.1506 11.1742C41.1555 12.0793 41.1599 12.9844 41.1641 13.8895C41.1689 14.9199 41.1743 15.9503 41.1797 16.9807C41.1908 19.1004 41.2012 21.22 41.2112 23.3397C41.3233 23.3911 41.4353 23.4424 41.5508 23.4954C41.7003 23.5646 41.8498 23.6339 41.9993 23.7032C42.0729 23.7369 42.1465 23.7705 42.2222 23.8051C44.9266 25.0637 47.1635 27.5341 48.2038 30.3285C49.304 33.444 49.2847 36.929 47.8578 39.9394C47.5008 40.6656 47.1051 41.3441 46.5972 41.9775C46.4439 42.2634 46.496 42.3624 46.5823 42.6756C46.6916 42.9581 46.8142 43.2343 46.9371 43.5111C47.0085 43.6754 47.0798 43.8399 47.1511 44.0043C47.2633 44.262 47.376 44.5194 47.49 44.7763C47.6002 45.0253 47.7082 45.2752 47.816 45.5252C47.8504 45.6013 47.8847 45.6774 47.9202 45.7559C48.1217 46.2286 48.197 46.5572 48.0472 47.0702C47.5472 47.4035 47.0165 47.2714 46.4499 47.1607C46.3312 47.1379 46.2125 47.1151 46.0902 47.0917C46.0277 47.0794 45.9651 47.0672 45.9007 47.0546C45.6338 47.0027 45.3665 46.9531 45.0992 46.9034C44.6032 46.8111 44.1074 46.7181 43.6124 46.6207C43.2664 46.5528 42.9199 46.488 42.5729 46.4251C42.3794 46.3892 42.1865 46.35 41.9936 46.3108C41.1991 46.1692 40.6207 46.2159 39.8556 46.4778C38.9041 46.803 37.9103 46.8152 36.9143 46.8138C36.8482 46.8138 36.7821 46.8137 36.714 46.8137C33.4638 46.8017 30.5171 45.5592 28.1924 43.2799C26.0292 41.0698 24.7523 38.0574 24.7073 34.9608C24.7231 34.2086 24.7463 33.452 24.9026 32.7147C24.0222 32.723 23.1418 32.7323 22.2614 32.7428C21.8524 32.7476 21.4435 32.7521 21.0345 32.7559C20.6388 32.7595 20.243 32.7641 19.8473 32.7692C19.6974 32.771 19.5475 32.7725 19.3977 32.7736C17.8408 32.786 16.3615 32.8108 15.137 33.8866C14.0885 35.2119 13.9179 36.7991 13.7153 38.4192C13.7069 38.4857 13.6984 38.5523 13.6898 38.6209C13.6675 38.8003 13.6467 38.98 13.626 39.1596C13.5786 39.4298 13.5271 39.6144 13.3792 39.8436C13.0797 39.9933 12.8316 39.9622 12.5003 39.9413C10.6547 39.2611 9.38225 37.5779 8.56428 35.866C8.26551 35.1933 8.06414 34.5054 7.88105 33.7942C7.79303 33.4567 7.71503 33.2028 7.51982 32.91C7.21094 32.7919 6.90124 32.7989 6.57339 32.7952C6.46494 32.7929 6.35649 32.7905 6.24476 32.7881C6.0192 32.784 5.79362 32.7809 5.56803 32.779C4.30344 32.7477 3.32061 32.3423 2.37456 31.5062C1.69261 30.7321 1.06467 29.8692 1.06113 28.7961C1.06063 28.7162 1.06014 28.6363 1.05963 28.5539C1.05958 28.4666 1.05953 28.3793 1.05948 28.2894C1.05905 28.1962 1.05862 28.1031 1.05818 28.0071C1.05688 27.6941 1.05627 27.3812 1.05567 27.0682C1.0549 26.8441 1.05409 26.62 1.05325 26.3959C1.05069 25.6591 1.0492 24.9223 1.04781 24.1854C1.04728 23.9316 1.04676 23.6778 1.04623 23.4241C1.04412 22.3681 1.04227 21.3121 1.04119 20.2561C1.0409 19.9822 1.04061 19.7083 1.04032 19.4344C1.04025 19.3663 1.04017 19.2982 1.0401 19.2281C1.03886 18.1267 1.03562 17.0253 1.03155 15.9239C1.0274 14.7918 1.02514 13.6596 1.02459 12.5275C1.02424 11.8924 1.02307 11.2573 1.0199 10.6222C1.01695 10.0242 1.01635 9.42619 1.01749 8.82813C1.01751 8.6093 1.01671 8.39046 1.01499 8.17164C1.00202 6.42578 1.19684 5.19667 2.4478 3.89122C3.20236 3.16766 4.09959 2.72296 5.15069 2.72112ZM3.22295 4.88266C2.44217 5.88851 2.23092 6.84159 2.23333 8.09848C2.2331 8.18405 2.23288 8.26961 2.23265 8.35777C2.23204 8.6433 2.23212 8.92882 2.2322 9.21435C2.2319 9.41956 2.23157 9.62478 2.2312 9.82999C2.23034 10.3867 2.23011 10.9434 2.23005 11.5001C2.22998 11.8481 2.22977 12.1962 2.22951 12.5443C2.22861 13.7593 2.22821 14.9744 2.22829 16.1895C2.22835 17.3208 2.22732 18.4522 2.22577 19.5835C2.22449 20.5559 2.22397 21.5282 2.22403 22.5006C2.22406 23.0809 2.22378 23.6612 2.22275 24.2414C2.2218 24.7875 2.2218 25.3335 2.22251 25.8795C2.22261 26.0794 2.22238 26.2792 2.22179 26.4791C2.19806 28.706 2.19806 28.706 3.25194 30.6052C4.06185 31.3668 5.03015 31.5385 6.10686 31.5566C6.20215 31.5584 6.29745 31.5603 6.39563 31.5623C6.59168 31.5656 6.78777 31.5674 6.98386 31.5676C7.63387 31.5839 8.10739 31.677 8.59404 32.1288C8.95286 32.6237 9.08581 33.1199 9.2227 33.7096C9.63777 35.3694 10.3804 37.1506 11.9013 38.1022C12.0669 38.1971 12.2346 38.2883 12.4026 38.3788C12.4124 38.3115 12.4222 38.2441 12.4323 38.1748C13.0711 33.839 13.0711 33.839 14.54 32.6651C15.5135 31.9695 16.5243 31.6292 17.7122 31.6204C17.7933 31.6195 17.8743 31.6185 17.9578 31.6175C18.2246 31.6144 18.4915 31.612 18.7583 31.6096C18.9437 31.6076 19.1291 31.6055 19.3145 31.6034C19.8018 31.598 20.289 31.5932 20.7763 31.5885C21.2738 31.5836 21.7713 31.5782 22.2688 31.5728C23.2444 31.5623 24.22 31.5524 25.1956 31.5428C25.2601 31.3172 25.3245 31.0917 25.3909 30.8592C25.681 30.8592 25.971 30.8592 26.2698 30.8592C26.5184 31.4043 26.4292 31.7638 26.2881 32.318C25.621 35.2274 26.1875 38.0805 27.7347 40.6249C29.3537 42.9916 31.66 44.6674 34.4729 45.3124C34.5423 45.3295 34.6117 45.3467 34.6831 45.3644C35.3846 45.5247 36.0685 45.5414 36.7862 45.5382C36.9676 45.5377 36.9676 45.5377 37.1527 45.5372C38.2149 45.5245 39.1523 45.3828 40.1614 45.0438C40.9969 44.7807 41.9379 45.0481 42.7802 45.1998C42.9268 45.2256 42.9268 45.2256 43.0764 45.2519C43.3845 45.3063 43.6925 45.3611 44.0005 45.4161C44.3117 45.4713 44.6229 45.5264 44.9341 45.5813C45.1269 45.6154 45.3196 45.6496 45.5122 45.684C45.5987 45.6994 45.6851 45.7147 45.7742 45.7305C45.8884 45.7508 45.8884 45.7508 46.0049 45.7716C46.1924 45.8056 46.1924 45.8056 46.387 45.8006C46.323 45.3776 46.1703 45.0131 45.9952 44.6265C45.9367 44.4933 45.8783 44.36 45.82 44.2267C45.7283 44.0184 45.6361 43.8104 45.5421 43.6032C45.4512 43.4018 45.3629 43.1995 45.275 42.9968C45.2466 42.9357 45.2181 42.8745 45.1887 42.8115C44.9904 42.3458 45.0309 42.0656 45.2151 41.6014C45.3708 41.3863 45.3708 41.3863 45.5569 41.1864C47.4274 38.9445 47.816 36.1219 47.6565 33.3006C47.5918 32.6955 47.4556 32.1203 47.2659 31.5428C47.2455 31.4803 47.2251 31.4178 47.2041 31.3534C46.6743 29.7929 45.8401 28.451 44.7268 27.2459C44.6326 27.1398 44.6326 27.1398 44.5365 27.0316C42.6265 24.9849 39.8175 23.941 37.0643 23.8314C34.2246 23.7731 31.4183 24.9105 29.3681 26.8614C28.948 27.2722 28.5465 27.6851 28.1924 28.1554C28.1058 28.242 28.0192 28.3286 27.93 28.4178C27.5577 28.4178 27.5577 28.4178 27.2464 28.3202C27.1487 28.2225 27.1487 28.2225 27.1186 27.9074C27.1705 27.2729 27.6104 26.9172 28.0276 26.4647C28.0945 26.3899 28.1613 26.3151 28.2302 26.2381C30.3275 24.009 33.4268 22.7634 36.457 22.655C37.3285 22.6438 38.1981 22.7538 39.0628 22.8514C39.2149 22.8683 39.367 22.8853 39.5192 22.9022C39.5983 22.9109 39.6774 22.9197 39.7589 22.9288C39.8193 22.9355 39.8796 22.9422 39.9417 22.9491C39.9463 20.9176 39.9497 18.8862 39.9518 16.8548C39.9528 15.9115 39.9542 14.9682 39.9564 14.0249C39.9584 13.2024 39.9596 12.3799 39.9601 11.5574C39.9603 11.1222 39.9609 10.687 39.9623 10.2518C39.9637 9.84145 39.9641 9.43115 39.9638 9.02083C39.9638 8.87089 39.9642 8.72095 39.965 8.57101C39.9717 7.17302 39.9106 5.92152 38.9361 4.84376C37.9435 3.91034 36.7481 3.8914 35.4614 3.89304C35.3344 3.89282 35.2073 3.8926 35.0764 3.89237C34.7249 3.89178 34.3733 3.89179 34.0217 3.8919C33.6421 3.89192 33.2626 3.89139 32.883 3.89092C32.1397 3.89011 31.3964 3.88984 30.653 3.88979C30.0487 3.88974 29.4443 3.88954 28.84 3.88923C27.1255 3.88837 25.4111 3.88792 23.6967 3.88799C23.6043 3.888 23.5119 3.888 23.4168 3.88801C23.3243 3.88801 23.2318 3.88801 23.1365 3.88802C21.6377 3.88806 20.139 3.88712 18.6403 3.88575C17.1005 3.88434 15.5608 3.88367 14.021 3.88375C13.1569 3.88379 12.2928 3.88352 11.4287 3.88247C10.6929 3.88158 9.95713 3.88137 9.22136 3.88203C8.84623 3.88235 8.4711 3.88235 8.09597 3.88151C7.68862 3.88059 7.28129 3.88121 6.87394 3.88196C6.75632 3.88146 6.63871 3.88095 6.51752 3.88044C5.31089 3.88535 4.126 4.00337 3.22295 4.88266Z" fill="#34B7FE"/>
<path d="M30.4558 30.9279C30.5409 30.9274 30.6261 30.927 30.7138 30.9266C30.8939 30.926 31.074 30.926 31.2541 30.9264C31.5291 30.9267 31.804 30.9244 32.079 30.9219C32.2541 30.9217 32.4291 30.9216 32.6042 30.9217C32.6862 30.9208 32.7683 30.9199 32.8527 30.919C33.3078 30.9226 33.6225 30.9442 33.9844 31.2502C34.2774 31.7385 34.2774 31.7385 34.2774 33.2033C35.9854 33.2033 37.6934 33.2033 39.4531 33.2033C39.4531 32.7199 39.4531 32.2365 39.4531 31.7385C39.903 31.0636 39.903 31.0636 40.2344 30.9572C40.4264 30.9311 40.4264 30.9311 40.6296 30.9289C40.7062 30.9276 40.7828 30.9264 40.8617 30.9251C40.9436 30.9249 41.0255 30.9246 41.1099 30.9244C41.1949 30.9238 41.2799 30.9231 41.3674 30.9224C41.5469 30.9215 41.7265 30.921 41.906 30.921C42.1801 30.9206 42.4541 30.9171 42.7283 30.9134C42.9029 30.9128 43.0776 30.9124 43.2522 30.9122C43.3339 30.9108 43.4156 30.9094 43.4998 30.908C43.8852 30.911 44.0917 30.9276 44.4281 31.1309C44.7974 31.5299 44.8491 31.8243 44.8542 32.3652C44.8557 32.4923 44.8573 32.6194 44.8589 32.7504C44.8595 32.8889 44.86 33.0274 44.8605 33.1659C44.8614 33.3085 44.8622 33.451 44.8632 33.5936C44.8648 33.8922 44.8655 34.1908 44.8658 34.4895C44.8663 34.8713 44.87 35.253 44.8745 35.6348C44.8774 35.9292 44.8781 36.2236 44.8782 36.518C44.8786 36.6587 44.8798 36.7994 44.8818 36.9401C44.8984 38.1774 44.8984 38.1774 44.5889 38.5615C44.1575 38.9166 43.8028 38.8861 43.2629 38.8907C43.1754 38.8914 43.088 38.8922 42.9979 38.893C42.8126 38.8944 42.6274 38.8954 42.4421 38.8962C42.1591 38.8979 41.8763 38.9022 41.5934 38.9065C41.4134 38.9075 41.2334 38.9083 41.0534 38.909C40.969 38.9107 40.8845 38.9124 40.7975 38.9141C40.401 38.9127 40.1913 38.9012 39.8475 38.6878C39.1924 37.9933 39.4531 37.9157 39.4531 36.6213C37.7451 36.6213 36.0371 36.6213 34.2774 36.6213C34.2774 37.1047 34.2774 37.5881 34.2774 38.0861C33.8867 38.6721 33.8867 38.6721 33.5938 38.8674C33.4105 38.8942 33.4105 38.8942 33.2023 38.8973C33.124 38.8989 33.0458 38.9004 32.9652 38.902C32.8809 38.9026 32.7967 38.9031 32.7099 38.9036C32.6228 38.9045 32.5358 38.9054 32.4461 38.9063C32.2618 38.9077 32.0775 38.9086 31.8932 38.9089C31.6122 38.9101 31.3313 38.9149 31.0503 38.9198C30.8711 38.9208 30.6919 38.9215 30.5126 38.9219C30.429 38.9238 30.3454 38.9257 30.2592 38.9277C29.8435 38.9246 29.5749 38.8985 29.2453 38.632C28.8916 38.2614 28.8933 38.0829 28.889 37.5793C28.8877 37.4521 28.8865 37.325 28.8852 37.194C28.8844 37.0545 28.8837 36.9149 28.883 36.7754C28.8826 36.7052 28.8822 36.635 28.8818 36.5627C28.8798 36.191 28.8784 35.8192 28.8774 35.4475C28.8764 35.0642 28.873 34.6809 28.8691 34.2976C28.8666 34.0023 28.8658 33.7071 28.8654 33.4119C28.8649 33.2706 28.8638 33.1293 28.862 32.9881C28.8596 32.7899 28.8599 32.5917 28.8604 32.3936C28.8598 32.2809 28.8592 32.1683 28.8586 32.0523C28.9173 31.6657 29.0547 31.4562 29.2969 31.1525C29.6806 30.8967 30.0104 30.9274 30.4558 30.9279ZM30.0781 32.2268C30.0685 32.3941 30.0657 32.5618 30.0655 32.7293C30.0652 32.8366 30.0649 32.9438 30.0646 33.0542C30.0648 33.1709 30.065 33.2876 30.0652 33.4078C30.0651 33.5266 30.065 33.6455 30.0649 33.7679C30.0648 34.0198 30.065 34.2717 30.0654 34.5235C30.0659 34.9106 30.0654 35.2977 30.0648 35.6848C30.0649 35.9288 30.065 36.1728 30.0652 36.4168C30.065 36.5335 30.0648 36.6502 30.0646 36.7704C30.0649 36.8776 30.0652 36.9848 30.0655 37.0953C30.0656 37.1902 30.0657 37.2851 30.0657 37.3829C30.0541 37.5955 30.0541 37.5955 30.1758 37.6955C30.5176 37.7118 30.5176 37.7118 30.8594 37.6955C31.0247 37.5302 30.9695 37.3216 30.9697 37.0953C30.97 36.9881 30.9703 36.8808 30.9706 36.7704C30.9704 36.6537 30.9702 36.537 30.97 36.4168C30.9701 36.298 30.9702 36.1791 30.9703 36.0567C30.9704 35.8048 30.9702 35.5529 30.9698 35.3011C30.9693 34.914 30.9698 34.5269 30.9704 34.1398C30.9703 33.8958 30.9702 33.6518 30.97 33.4078C30.9703 33.2328 30.9703 33.2328 30.9706 33.0542C30.9703 32.947 30.97 32.8398 30.9697 32.7293C30.9696 32.6344 30.9695 32.5395 30.9695 32.4418C30.9811 32.2292 30.9811 32.2292 30.8594 32.1291C30.4379 32.0761 30.4379 32.0761 30.0781 32.2268ZM32.1289 32.2268C32.1193 32.3941 32.1164 32.5618 32.1163 32.7293C32.116 32.8366 32.1157 32.9438 32.1154 33.0542C32.1156 33.1709 32.1158 33.2876 32.116 33.4078C32.1159 33.5266 32.1158 33.6455 32.1157 33.7679C32.1156 34.0198 32.1158 34.2717 32.1162 34.5235C32.1167 34.9106 32.1162 35.2977 32.1156 35.6848C32.1156 35.9288 32.1158 36.1728 32.116 36.4168C32.1158 36.5335 32.1156 36.6502 32.1154 36.7704C32.1157 36.8776 32.116 36.9848 32.1163 37.0953C32.1164 37.1902 32.1164 37.2851 32.1165 37.3829C32.1049 37.5955 32.1049 37.5955 32.2266 37.6955C32.5684 37.7118 32.5684 37.7118 32.9102 37.6955C33.0755 37.5302 33.0203 37.3216 33.0205 37.0953C33.0208 36.9881 33.0211 36.8808 33.0214 36.7704C33.0212 36.6537 33.021 36.537 33.0208 36.4168C33.0209 36.298 33.021 36.1791 33.0211 36.0567C33.0212 35.8048 33.021 35.5529 33.0206 35.3011C33.02 34.914 33.0206 34.5269 33.0212 34.1398C33.0211 33.8958 33.021 33.6518 33.0208 33.4078C33.0211 33.2328 33.0211 33.2328 33.0214 33.0542C33.0211 32.947 33.0208 32.8398 33.0205 32.7293C33.0204 32.6344 33.0203 32.5395 33.0202 32.4418C33.0319 32.2292 33.0319 32.2292 32.9102 32.1291C32.4887 32.0761 32.4887 32.0761 32.1289 32.2268ZM40.625 32.2268C40.6154 32.3941 40.6125 32.5618 40.6124 32.7293C40.6121 32.8366 40.6118 32.9438 40.6115 33.0542C40.6117 33.1709 40.6118 33.2876 40.6121 33.4078C40.612 33.5266 40.6119 33.6455 40.6118 33.7679C40.6117 34.0198 40.6119 34.2717 40.6123 34.5235C40.6128 34.9106 40.6123 35.2977 40.6117 35.6848C40.6117 35.9288 40.6119 36.1728 40.6121 36.4168C40.6119 36.5335 40.6117 36.6502 40.6115 36.7704C40.6118 36.8776 40.6121 36.9848 40.6124 37.0953C40.6125 37.1902 40.6125 37.2851 40.6126 37.3829C40.601 37.5955 40.601 37.5955 40.7227 37.6955C41.0645 37.7118 41.0645 37.7118 41.4063 37.6955C41.5716 37.5302 41.5164 37.3216 41.5166 37.0953C41.5169 36.9881 41.5172 36.8808 41.5175 36.7704C41.5173 36.6537 41.5171 36.537 41.5169 36.4168C41.517 36.298 41.5171 36.1791 41.5172 36.0567C41.5172 35.8048 41.5171 35.5529 41.5167 35.3011C41.5161 34.914 41.5167 34.5269 41.5173 34.1398C41.5172 33.8958 41.5171 33.6518 41.5169 33.4078C41.5172 33.2328 41.5172 33.2328 41.5175 33.0542C41.5172 32.947 41.5169 32.8398 41.5166 32.7293C41.5165 32.6344 41.5164 32.5395 41.5163 32.4418C41.528 32.2292 41.528 32.2292 41.4063 32.1291C40.9848 32.0761 40.9848 32.0761 40.625 32.2268ZM42.7735 32.2268C42.7638 32.3941 42.761 32.5618 42.7608 32.7293C42.7605 32.8366 42.7602 32.9438 42.7599 33.0542C42.7601 33.1709 42.7603 33.2876 42.7605 33.4078C42.7604 33.5266 42.7603 33.6455 42.7602 33.7679C42.7601 34.0198 42.7603 34.2717 42.7607 34.5235C42.7613 34.9106 42.7607 35.2977 42.7601 35.6848C42.7602 35.9288 42.7603 36.1728 42.7605 36.4168C42.7603 36.5335 42.7601 36.6502 42.7599 36.7704C42.7602 36.8776 42.7605 36.9848 42.7608 37.0953C42.7609 37.1902 42.761 37.2851 42.7611 37.3829C42.7494 37.5955 42.7494 37.5955 42.8711 37.6955C43.2129 37.7118 43.2129 37.7118 43.5547 37.6955C43.72 37.5302 43.6648 37.3216 43.665 37.0953C43.6653 36.9881 43.6656 36.8808 43.6659 36.7704C43.6657 36.6537 43.6655 36.537 43.6653 36.4168C43.6654 36.298 43.6655 36.1791 43.6656 36.0567C43.6657 35.8048 43.6655 35.5529 43.6651 35.3011C43.6646 34.914 43.6651 34.5269 43.6657 34.1398C43.6657 33.8958 43.6655 33.6518 43.6653 33.4078C43.6656 33.2328 43.6656 33.2328 43.6659 33.0542C43.6656 32.947 43.6653 32.8398 43.665 32.7293C43.6649 32.6344 43.6648 32.5395 43.6648 32.4418C43.6764 32.2292 43.6764 32.2292 43.5547 32.1291C43.1332 32.0761 43.1332 32.0761 42.7735 32.2268ZM34.2774 34.3752C34.2774 34.7297 34.2774 35.0842 34.2774 35.4494C35.9854 35.4494 37.6934 35.4494 39.4531 35.4494C39.4531 35.0949 39.4531 34.7404 39.4531 34.3752C37.7451 34.3752 36.0371 34.3752 34.2774 34.3752Z" fill="#34B7FE"/>
<path d="M11.4082 9.34803C11.5284 9.34848 11.5284 9.34848 11.6511 9.34895C11.736 9.34851 11.8209 9.34806 11.9084 9.34761C12.1946 9.34636 12.4807 9.34653 12.7669 9.34669C12.9714 9.34611 13.1759 9.34544 13.3804 9.3447C13.937 9.34297 14.4937 9.34252 15.0504 9.3424C15.5144 9.34221 15.9784 9.34149 16.4425 9.3408C17.5369 9.33921 18.6312 9.33873 19.7256 9.33887C20.8562 9.33899 21.9867 9.33693 23.1172 9.33384C24.0865 9.33129 25.0557 9.33024 26.025 9.33037C26.6045 9.33042 27.184 9.32985 27.7635 9.32779C28.3083 9.32591 28.8531 9.32588 29.3979 9.32731C29.5983 9.32751 29.7986 9.32705 29.9989 9.32587C30.2717 9.32437 30.5444 9.32526 30.8171 9.32677C30.8971 9.32577 30.977 9.32477 31.0594 9.32373C31.591 9.33028 31.591 9.33028 31.8398 9.55432C31.9723 9.85276 31.9234 10.0423 31.836 10.3516C31.5844 10.6033 31.4154 10.571 31.0724 10.574C30.9923 10.5737 30.9121 10.5734 30.8295 10.5731C30.7446 10.5735 30.6597 10.5739 30.5722 10.5744C30.2861 10.5756 29.9999 10.5755 29.7137 10.5753C29.5093 10.5759 29.3048 10.5766 29.1003 10.5773C28.5436 10.579 27.9869 10.5795 27.4303 10.5796C26.9662 10.5798 26.5022 10.5805 26.0381 10.5812C24.9438 10.5828 23.8494 10.5833 22.755 10.5831C21.6245 10.583 20.494 10.5851 19.3634 10.5882C18.3942 10.5907 17.4249 10.5918 16.4556 10.5916C15.8761 10.5916 15.2967 10.5921 14.7172 10.5942C14.1723 10.5961 13.6275 10.5961 13.0827 10.5947C12.8824 10.5945 12.682 10.595 12.4817 10.5961C12.2089 10.5976 11.9363 10.5967 11.6635 10.5952C11.5836 10.5962 11.5036 10.5972 11.4213 10.5983C10.8897 10.5917 10.8897 10.5917 10.6408 10.3677C10.5083 10.0692 10.5572 9.8797 10.6446 9.57038C10.8963 9.31873 11.0652 9.351 11.4082 9.34803Z" fill="#34B7FE"/>
<path d="M6.81945 15.2088C6.88879 15.2085 6.95814 15.2081 7.02959 15.2077C7.26313 15.2067 7.49665 15.2071 7.73019 15.2075C7.89716 15.2071 8.06412 15.2066 8.23108 15.206C8.68546 15.2047 9.13983 15.2046 9.59421 15.2049C9.97306 15.205 10.3519 15.2045 10.7308 15.204C11.6243 15.2029 12.5178 15.2029 13.4113 15.2035C14.3342 15.2041 15.257 15.2029 16.1798 15.2008C16.9712 15.1991 17.7626 15.1985 18.5539 15.1988C19.027 15.199 19.5001 15.1987 19.9731 15.1974C20.4179 15.1961 20.8627 15.1963 21.3075 15.1976C21.471 15.1978 21.6345 15.1976 21.798 15.1968C22.0207 15.1957 22.2433 15.1965 22.466 15.1978C22.5908 15.1977 22.7156 15.1977 22.8441 15.1977C23.145 15.2343 23.145 15.2343 23.3317 15.3648C23.4985 15.6198 23.475 15.817 23.438 16.1132C23.3316 16.2756 23.3316 16.2756 23.145 16.4062C22.8444 16.4433 22.8444 16.4433 22.4667 16.444C22.3625 16.4448 22.3625 16.4448 22.2563 16.4456C22.023 16.447 21.7898 16.4463 21.5566 16.4456C21.3896 16.4462 21.2226 16.4469 21.0557 16.4477C20.6017 16.4494 20.1477 16.4493 19.6938 16.4488C19.3151 16.4485 18.9365 16.449 18.5579 16.4496C17.665 16.451 16.7721 16.4509 15.8792 16.4497C14.957 16.4486 14.0349 16.45 13.1128 16.4526C12.3219 16.4548 11.5309 16.4554 10.7399 16.4549C10.2672 16.4545 9.79448 16.4548 9.32174 16.4564C8.87735 16.4579 8.433 16.4576 7.98861 16.4557C7.82527 16.4554 7.66193 16.4557 7.4986 16.4567C7.27608 16.458 7.0537 16.4569 6.83119 16.4551C6.64421 16.4551 6.64421 16.4551 6.45344 16.4551C6.15284 16.4062 6.15284 16.4062 5.96281 16.2269C5.81746 15.9285 5.86887 15.7433 5.95753 15.4296C6.23701 15.1501 6.42775 15.2095 6.81945 15.2088Z" fill="#34B7FE"/>
<path d="M6.66301 24.9743C6.77131 24.9737 6.87962 24.973 6.99121 24.9722C7.11059 24.9725 7.22996 24.9727 7.35295 24.973C7.54089 24.9722 7.54089 24.9722 7.73261 24.9715C8.07683 24.9702 8.42104 24.9701 8.76526 24.9704C9.05237 24.9705 9.33947 24.97 9.62658 24.9695C10.3038 24.9684 10.981 24.9684 11.6582 24.969C12.3574 24.9696 13.0566 24.9684 13.7557 24.9663C14.3555 24.9646 14.9553 24.964 15.5551 24.9643C15.9136 24.9645 16.272 24.9642 16.6304 24.9629C17.0301 24.9614 17.4296 24.9623 17.8293 24.9634C17.9484 24.9627 18.0676 24.962 18.1904 24.9612C18.299 24.9619 18.4076 24.9626 18.5194 24.9633C18.6612 24.9632 18.6612 24.9632 18.8059 24.9632C19.0427 24.9998 19.0427 24.9998 19.2196 25.1303C19.4001 25.383 19.3733 25.5777 19.3357 25.8787C19.2196 26.0411 19.2196 26.0411 19.0427 26.1717C18.8062 26.2088 18.8062 26.2088 18.5201 26.2095C18.4117 26.2105 18.3032 26.2115 18.1915 26.2125C18.0725 26.212 17.9534 26.2116 17.8308 26.2111C17.6429 26.2121 17.6429 26.2121 17.4511 26.2132C17.1073 26.2149 16.7635 26.2148 16.4197 26.2142C16.1328 26.2139 15.846 26.2145 15.5591 26.2151C14.8825 26.2165 14.2059 26.2163 13.5293 26.2152C12.8308 26.2141 12.1324 26.2155 11.4339 26.2181C10.8345 26.2203 10.2351 26.2209 9.63576 26.2203C9.27764 26.22 8.91954 26.2203 8.56142 26.2219C8.16227 26.2237 7.76319 26.2224 7.36404 26.2207C7.18551 26.2221 7.18551 26.2221 7.00336 26.2235C6.89492 26.2226 6.78648 26.2216 6.67475 26.2206C6.58034 26.2206 6.48593 26.2206 6.38866 26.2206C6.15211 26.1717 6.15211 26.1717 5.97182 25.9924C5.81284 25.6942 5.86674 25.5138 5.9568 25.1951C6.20987 24.942 6.31079 24.9751 6.66301 24.9743Z" fill="#34B7FE"/>
<path d="M24.5126 20.0799C24.6136 20.079 24.7147 20.0782 24.8188 20.0774C24.985 20.0783 24.985 20.0783 25.1546 20.0792C25.2713 20.0786 25.388 20.0781 25.5083 20.0776C25.8285 20.0765 26.1487 20.0768 26.4689 20.0777C26.8038 20.0785 27.1388 20.0778 27.4737 20.0773C28.0363 20.0768 28.5988 20.0775 29.1613 20.0789C29.8118 20.0805 30.4623 20.08 31.1129 20.0783C31.6712 20.077 32.2295 20.0768 32.7878 20.0776C33.1214 20.078 33.4549 20.0781 33.7885 20.0771C34.1603 20.0764 34.532 20.0775 34.9038 20.0792C35.0146 20.0786 35.1254 20.078 35.2396 20.0774C35.3911 20.0786 35.3911 20.0786 35.5458 20.0799C35.6337 20.08 35.7216 20.0801 35.8122 20.0802C36.0816 20.1248 36.1687 20.1911 36.328 20.41C36.3905 20.9101 36.3905 20.9101 36.2098 21.1584C35.9776 21.3318 35.8343 21.3258 35.5458 21.3261C35.3942 21.3274 35.3942 21.3274 35.2396 21.3286C35.1288 21.3281 35.018 21.3275 34.9038 21.3269C34.7871 21.3274 34.6703 21.3279 34.5501 21.3284C34.2299 21.3295 33.9097 21.3292 33.5895 21.3283C33.2545 21.3276 32.9196 21.3282 32.5846 21.3287C32.0221 21.3292 31.4596 21.3285 30.8971 21.3271C30.2465 21.3255 29.596 21.3261 28.9455 21.3277C28.3872 21.329 27.8288 21.3292 27.2705 21.3284C26.937 21.328 26.6034 21.3279 26.2699 21.3289C25.8981 21.3296 25.5263 21.3285 25.1546 21.3269C25.0438 21.3274 24.933 21.328 24.8188 21.3286C24.7177 21.3278 24.6167 21.327 24.5126 21.3261C24.3807 21.326 24.3807 21.326 24.2461 21.3258C23.9767 21.2812 23.8896 21.2149 23.7303 20.996C23.6678 20.496 23.6678 20.496 23.8485 20.2476C24.0808 20.0742 24.2241 20.0802 24.5126 20.0799Z" fill="#34B7FE"/>
<path d="M12.3439 20.0794C12.4758 20.078 12.4758 20.078 12.6103 20.0765C12.7546 20.0772 12.7546 20.0772 12.9018 20.0778C13.054 20.0768 13.054 20.0768 13.2093 20.0758C13.5456 20.074 13.8818 20.0744 14.218 20.0749C14.4512 20.0745 14.6843 20.074 14.9175 20.0734C15.4064 20.0725 15.8954 20.0728 16.3843 20.0737C17.0119 20.0748 17.6395 20.0729 18.2671 20.07C18.7486 20.0682 19.2301 20.0683 19.7117 20.0688C19.9431 20.0688 20.1746 20.0682 20.406 20.067C20.7292 20.0656 21.0522 20.0666 21.3754 20.0683C21.5196 20.0669 21.5196 20.0669 21.6669 20.0654C21.7987 20.0669 21.7987 20.0669 21.9332 20.0683C22.0096 20.0684 22.086 20.0684 22.1648 20.0684C22.3632 20.1173 22.3632 20.1173 22.5377 20.2966C22.6561 20.5079 22.6561 20.5079 22.6378 20.8131C22.5585 21.0938 22.5585 21.0938 22.3632 21.2892C22.1768 21.314 22.1768 21.314 21.945 21.3146C21.8572 21.3153 21.7694 21.316 21.679 21.3167C21.5825 21.3165 21.4859 21.3162 21.3864 21.316C21.285 21.3165 21.1835 21.317 21.0789 21.3175C20.7422 21.3189 20.4054 21.3188 20.0686 21.3185C19.8353 21.3189 19.602 21.3193 19.3688 21.3198C18.8792 21.3205 18.3897 21.3205 17.9001 21.32C17.2718 21.3194 16.6435 21.3211 16.0151 21.3233C15.5332 21.3248 15.0512 21.3249 14.5692 21.3246C14.3375 21.3246 14.1058 21.3251 13.8741 21.3261C13.5505 21.3273 13.2269 21.3267 12.9033 21.3255C12.807 21.3263 12.7106 21.327 12.6114 21.3278C12.5233 21.3271 12.4353 21.3264 12.3446 21.3257C12.2298 21.3257 12.2298 21.3257 12.1126 21.3258C11.8601 21.2792 11.7737 21.1998 11.621 20.9962C11.5582 20.4939 11.5582 20.4939 11.7429 20.2478C11.9584 20.0833 12.0745 20.0803 12.3439 20.0794Z" fill="#34B7FE"/>
<path d="M4.29662 9.66802C4.45895 9.77747 4.45895 9.77747 4.58959 9.96099C4.62745 10.2426 4.62745 10.2426 4.62905 10.5902C4.62972 10.6536 4.63039 10.717 4.63108 10.7823C4.63287 10.9918 4.63249 11.2011 4.63193 11.4106C4.63238 11.5562 4.6329 11.7017 4.63348 11.8473C4.63436 12.1524 4.63412 12.4574 4.63315 12.7625C4.63203 13.1536 4.634 13.5447 4.63685 13.9358C4.63864 14.2364 4.63862 14.537 4.63806 14.8376C4.63804 14.9818 4.63864 15.126 4.63984 15.2702C4.6413 15.4718 4.64026 15.6732 4.63858 15.8747C4.63857 15.9894 4.63855 16.1041 4.63854 16.2223C4.58959 16.504 4.58959 16.504 4.41029 16.6909C4.11195 16.8406 3.92829 16.7884 3.61303 16.6993C3.34187 16.4281 3.39238 16.2656 3.39089 15.8858C3.39039 15.8224 3.38989 15.7591 3.38938 15.6938C3.38802 15.4838 3.38812 15.2739 3.38834 15.0639C3.38796 14.9182 3.38754 14.7725 3.38707 14.6268C3.38634 14.3211 3.38637 14.0155 3.38689 13.7099C3.38745 13.318 3.3858 12.9261 3.38353 12.5342C3.38209 12.2332 3.38201 11.9322 3.38231 11.6312C3.38226 11.4867 3.38175 11.3422 3.38077 11.1977C3.37957 10.9957 3.38022 10.7938 3.38136 10.5918C3.38129 10.4768 3.38123 10.3618 3.38117 10.2433C3.41771 9.96099 3.41771 9.96099 3.54816 9.77737C3.80249 9.60625 3.99895 9.63081 4.29662 9.66802Z" fill="#34B7FE"/>
<path d="M25.3055 15.2184C25.4336 15.2175 25.5617 15.2165 25.6937 15.2156C25.8346 15.2151 25.9756 15.2147 26.1166 15.2143C26.2602 15.2137 26.4039 15.2132 26.5476 15.2126C26.8492 15.2116 27.1508 15.211 27.4524 15.2107C27.8392 15.2101 28.2259 15.2078 28.6127 15.205C28.9096 15.2032 29.2065 15.2027 29.5034 15.2025C29.6459 15.2022 29.7885 15.2015 29.9311 15.2002C30.1305 15.1985 30.33 15.1989 30.5294 15.1993C30.6429 15.199 30.7565 15.1986 30.8735 15.1982C31.1527 15.2341 31.1527 15.2341 31.3359 15.3645C31.5076 15.6188 31.483 15.8151 31.4457 16.113C31.3357 16.2753 31.3357 16.2753 31.1527 16.406C30.8748 16.4445 30.8748 16.4445 30.5325 16.447C30.4044 16.4486 30.2763 16.4501 30.1444 16.4517C30.0044 16.4518 29.8645 16.4519 29.7245 16.4518C29.5811 16.4525 29.4378 16.4532 29.2944 16.454C28.9939 16.4553 28.6935 16.4555 28.393 16.4549C28.0078 16.4544 27.6226 16.4573 27.2374 16.4613C26.9413 16.4638 26.6453 16.4641 26.3492 16.4637C26.2072 16.4639 26.0651 16.4649 25.9231 16.4666C25.7246 16.4687 25.5262 16.4675 25.3277 16.4661C25.2147 16.4663 25.1018 16.4665 24.9854 16.4667C24.7074 16.406 24.7074 16.406 24.5176 16.1779C24.4145 15.9177 24.4145 15.9177 24.4877 15.6003C24.6926 15.1496 24.8206 15.2212 25.3055 15.2184Z" fill="#34B7FE"/>
<path d="M6.55667 20.092C6.6401 20.0913 6.72352 20.0907 6.80948 20.0901C6.89971 20.0905 6.98994 20.0909 7.08291 20.0913C7.22161 20.091 7.22161 20.091 7.36311 20.0907C7.55882 20.0906 7.75452 20.0909 7.95023 20.0918C8.25051 20.0928 8.55074 20.0918 8.85102 20.0905C9.04087 20.0907 9.23071 20.0909 9.42056 20.0913C9.5559 20.0907 9.5559 20.0907 9.69399 20.0901C9.81913 20.091 9.81913 20.091 9.94679 20.092C10.0204 20.0921 10.0939 20.0923 10.1698 20.0924C10.3513 20.1172 10.3513 20.1172 10.5467 20.3125C10.5726 20.4956 10.5726 20.4956 10.5711 20.7032C10.5718 20.8059 10.5718 20.8059 10.5726 20.9107C10.5467 21.0938 10.5467 21.0938 10.3513 21.2891C10.1704 21.3152 10.1704 21.3152 9.94834 21.3175C9.86523 21.3187 9.78212 21.32 9.69649 21.3212C9.5616 21.3216 9.5616 21.3216 9.42399 21.3219C9.28564 21.3229 9.28564 21.3229 9.14449 21.3239C8.9492 21.3249 8.7539 21.3253 8.5586 21.3253C8.25935 21.3257 7.96025 21.3293 7.66103 21.333C7.4715 21.3335 7.28197 21.3339 7.09245 21.3341C6.95785 21.3362 6.95785 21.3362 6.82054 21.3384C6.20379 21.3339 6.20379 21.3339 5.94572 21.11C5.82361 20.8116 5.87033 20.6185 5.95681 20.3125C6.19006 20.0793 6.23925 20.0926 6.55667 20.092Z" fill="#34B7FE"/>
<path d="M21.0975 24.9733C21.1786 24.9724 21.2598 24.9714 21.3434 24.9705C21.4312 24.9706 21.519 24.9707 21.6094 24.9707C21.6995 24.9703 21.7896 24.9699 21.8824 24.9695C22.073 24.9689 22.2637 24.9689 22.4544 24.9693C22.7466 24.9696 23.0387 24.9673 23.3308 24.9648C23.5159 24.9646 23.701 24.9645 23.886 24.9646C23.9736 24.9637 24.0612 24.9628 24.1515 24.9619C24.2329 24.9625 24.3144 24.9631 24.3983 24.9638C24.4699 24.9637 24.5416 24.9636 24.6154 24.9636C24.8614 25.011 24.9479 25.0953 25.098 25.2931C25.1608 25.7962 25.1608 25.7962 24.9746 26.0415C24.7656 26.2023 24.6597 26.2086 24.3983 26.2083C24.2761 26.2093 24.2761 26.2093 24.1515 26.2102C24.0639 26.2093 23.9763 26.2084 23.886 26.2075C23.7959 26.2075 23.7057 26.2076 23.6128 26.2076C23.4223 26.2074 23.2318 26.2064 23.0412 26.2048C22.7489 26.2025 22.4566 26.2028 22.1643 26.2035C21.9793 26.2029 21.7944 26.2022 21.6094 26.2014C21.5216 26.2015 21.4338 26.2015 21.3434 26.2016C21.2622 26.2007 21.1811 26.1998 21.0975 26.1988C21.0259 26.1984 20.9544 26.1979 20.8807 26.1974C20.7034 26.172 20.7034 26.172 20.5081 25.9767C20.4822 25.7936 20.4822 25.7936 20.4837 25.5861C20.4832 25.5176 20.4827 25.4491 20.4822 25.3785C20.5364 24.9959 20.7647 24.9754 21.0975 24.9733Z" fill="#34B7FE"/>
<path d="M33.4404 15.2146C33.5133 15.214 33.5861 15.2135 33.6612 15.2129C33.8157 15.212 33.9702 15.2113 34.1247 15.211C34.3611 15.21 34.5975 15.207 34.8339 15.2039C34.9838 15.2033 35.1337 15.2028 35.2837 15.2024C35.3545 15.2012 35.4253 15.2 35.4982 15.1987C35.9859 15.2009 35.9859 15.2009 36.2263 15.3646C36.3866 15.6209 36.3649 15.8191 36.3281 16.1133C36.2259 16.2753 36.2259 16.2753 36.0352 16.4063C35.7792 16.4378 35.5468 16.452 35.2905 16.4521C35.1816 16.4532 35.1816 16.4532 35.0706 16.4543C34.9172 16.4554 34.7639 16.4557 34.6106 16.4552C34.3758 16.4551 34.1413 16.4592 33.9066 16.4635C33.7575 16.464 33.6085 16.4643 33.4595 16.4643C33.3893 16.4659 33.3191 16.4675 33.2468 16.4691C33.0482 16.4664 33.0482 16.4664 32.7148 16.4063C32.5172 16.1784 32.5172 16.1784 32.4219 15.918C32.5864 15.205 32.7669 15.2185 33.4404 15.2146Z" fill="#34B7FE"/>
<path d="M7.26644 9.33894C7.33906 9.33896 7.41169 9.33897 7.48652 9.33899C7.70798 9.33856 7.92925 9.33501 8.15068 9.33131C8.29125 9.33074 8.43183 9.33035 8.5724 9.33017C8.70054 9.32936 8.82868 9.32856 8.96071 9.32773C9.27774 9.37518 9.27774 9.37518 9.46945 9.55423C9.61234 9.8528 9.56151 10.0387 9.47305 10.3517C9.13171 10.6931 8.6256 10.5801 8.16403 10.5833C8.09141 10.5833 8.01878 10.5833 7.94395 10.5832C7.72249 10.5837 7.50122 10.5872 7.27979 10.5909C7.13922 10.5915 6.99865 10.5919 6.85807 10.5921C6.66586 10.5933 6.66586 10.5933 6.46976 10.5945C6.15274 10.5471 6.15274 10.5471 5.96102 10.368C5.81813 10.0694 5.86896 9.88351 5.95742 9.57049C6.29876 9.22915 6.80487 9.34209 7.26644 9.33894Z" fill="#34B7FE"/>
<path d="M34.213 9.34354C34.3115 9.34386 34.3115 9.34386 34.412 9.34418C34.6123 9.34449 34.8123 9.3422 35.0126 9.33972C35.1385 9.33966 35.2644 9.3396 35.3942 9.33953C35.5101 9.33924 35.6259 9.33895 35.7453 9.33865C36.0355 9.37501 36.0355 9.37501 36.2197 9.5054C36.3899 9.75993 36.3656 9.95653 36.3284 10.2539C36.2197 10.4165 36.2197 10.4165 36.0355 10.5469C35.7453 10.5832 35.7453 10.5832 35.3942 10.5824C35.2053 10.5823 35.2053 10.5823 35.0126 10.5822C34.9471 10.5814 34.8816 10.5805 34.8141 10.5797C34.6137 10.5774 34.4134 10.5777 34.213 10.5784C33.2295 10.5729 33.2295 10.5729 33.0081 10.3516C32.9822 10.1685 32.9822 10.1685 32.9837 9.96095C32.9832 9.89247 32.9827 9.82398 32.9822 9.75343C33.0645 9.17226 33.7749 9.34595 34.213 9.34354Z" fill="#34B7FE"/>
<path d="M4.39461 7.22655C4.66491 7.49685 4.6255 7.67361 4.63264 8.05052C4.63655 8.16319 4.64045 8.27586 4.64447 8.39194C4.58992 8.69139 4.58992 8.69139 4.36295 8.88251C4.10164 8.98436 4.10164 8.98436 3.78426 8.91112C3.5157 8.78905 3.5157 8.78905 3.41805 8.69139C3.40065 8.48435 3.39188 8.27656 3.38753 8.06884C3.38388 7.95529 3.38023 7.84174 3.37646 7.72475C3.41805 7.42186 3.41805 7.42186 3.59619 7.2338C3.89532 7.08611 4.07932 7.13745 4.39461 7.22655Z" fill="#34B7FE"/>
</svg>
