<svg width="50" height="50" viewBox="0 0 50 50" fill="none" xmlns="http://www.w3.org/2000/svg">
<path d="M30.8756 3.52279C32.5255 5.25262 32.9646 7.45049 32.9279 9.75333C32.9265 9.91647 32.9251 10.0796 32.9239 10.2428C32.9208 10.6371 32.9157 11.0314 32.9096 11.4257C32.9628 11.4505 33.0159 11.4753 33.0707 11.5008C33.1406 11.5345 33.2106 11.5681 33.2827 11.6027C33.352 11.6356 33.4212 11.6684 33.4926 11.7023C33.9124 11.9437 34.1966 12.3466 34.3745 12.7929C34.4555 13.5577 34.4829 14.3186 33.9839 14.9413C33.5865 15.366 33.2926 15.6211 32.7143 15.7226C32.7281 16.1803 32.7424 16.6381 32.757 17.0959C32.7592 17.1638 32.7614 17.2318 32.7636 17.3018C32.7701 17.5058 32.7769 17.7097 32.7837 17.9137C32.7878 18.0372 32.7919 18.1607 32.7961 18.288C32.8122 18.6567 32.8378 19.0229 32.8669 19.3908C32.989 21.1041 33.1002 22.8722 32.519 24.5116C32.4889 24.5996 32.4588 24.6876 32.4278 24.7783C32.3655 24.9517 32.2969 25.1228 32.226 25.2929C32.7518 25.4514 33.2781 25.6079 33.8053 25.7613C35.351 26.2167 36.7468 26.6671 37.9878 27.7343C38.0525 27.7839 38.1172 27.8335 38.1838 27.8846C39.5076 28.9384 40.3329 30.6874 40.6245 32.3241C40.6864 32.8788 40.6762 33.4362 40.6719 33.9934C40.6721 34.1549 40.6725 34.3164 40.673 34.478C40.674 34.9117 40.6725 35.3454 40.6705 35.7791C40.6688 36.2344 40.6691 36.6897 40.6692 37.145C40.669 37.9078 40.6674 38.6706 40.6647 39.4334C40.6616 40.3157 40.6606 41.198 40.6607 42.0804C40.6608 43.0213 40.6595 43.9623 40.6577 44.9032C40.6573 45.1742 40.6571 45.4452 40.6571 45.7161C40.6569 46.1406 40.6557 46.565 40.6537 46.9894C40.6531 47.1454 40.6529 47.3014 40.653 47.4574C40.6531 47.6696 40.652 47.8817 40.6506 48.0939C40.6503 48.2128 40.6499 48.3317 40.6496 48.4542C40.6245 48.7304 40.6245 48.7304 40.4292 48.9257C40.2073 48.9502 40.2073 48.9502 39.9237 48.9503C39.816 48.9508 39.7082 48.9513 39.5972 48.9518C39.4778 48.9514 39.3584 48.9509 39.2355 48.9505C39.1094 48.9508 38.9834 48.9511 38.8535 48.9514C38.5025 48.9522 38.1514 48.9518 37.8004 48.9512C37.4223 48.9508 37.0442 48.9515 36.6661 48.952C35.9249 48.9529 35.1837 48.9527 34.4425 48.9521C33.8404 48.9517 33.2382 48.9516 32.6361 48.9518C32.5505 48.9519 32.4649 48.9519 32.3768 48.9519C32.203 48.952 32.0292 48.952 31.8554 48.9521C30.2241 48.9527 28.5928 48.952 26.9614 48.951C25.5604 48.9501 24.1594 48.9503 22.7583 48.9512C21.133 48.9522 19.5077 48.9526 17.8824 48.952C17.7092 48.952 17.5361 48.9519 17.3629 48.9518C17.2351 48.9518 17.2351 48.9518 17.1047 48.9517C16.5029 48.9516 15.9012 48.9519 15.2995 48.9523C14.5666 48.9529 13.8338 48.9527 13.1009 48.9517C12.7266 48.9512 12.3524 48.951 11.9782 48.9516C11.5733 48.9523 11.1684 48.9515 10.7635 48.9505C10.6441 48.9509 10.5248 48.9514 10.4018 48.9518C10.294 48.9513 10.1862 48.9508 10.0752 48.9503C9.98166 48.9502 9.88809 48.9502 9.79169 48.9502C9.56979 48.9257 9.56979 48.9257 9.37448 48.7304C9.34935 48.4542 9.34935 48.4542 9.34836 48.0939C9.34792 48.0278 9.34748 47.9616 9.34702 47.8935C9.34578 47.6708 9.34594 47.4481 9.3461 47.2254C9.34552 47.0661 9.34486 46.9068 9.34412 46.7475C9.34239 46.3137 9.34193 45.8798 9.34181 45.4459C9.34167 45.1745 9.34125 44.903 9.34074 44.6315C9.33893 43.6832 9.33813 42.7349 9.33828 41.7866C9.3384 40.9051 9.33635 40.0235 9.33326 39.142C9.33069 38.3839 9.32966 37.6259 9.32978 36.8678C9.32983 36.4157 9.32929 35.9636 9.32721 35.5114C9.3253 35.0849 9.32531 34.6584 9.32672 34.2319C9.32692 34.0764 9.32648 33.921 9.32528 33.7656C9.31594 32.4625 9.50156 31.2391 10.113 30.0658C10.1459 30.0018 10.1787 29.9377 10.2126 29.8717C11.1876 28.0576 12.8676 26.8063 14.8146 26.197C15.4039 26.0225 15.9948 25.8532 16.5869 25.6888C16.9921 25.5758 17.3866 25.462 17.7729 25.2929C17.7399 25.2055 17.707 25.1182 17.673 25.0281C17.6294 24.9101 17.5859 24.792 17.541 24.6703C17.4979 24.5548 17.4549 24.4392 17.4105 24.3201C17.1284 23.4827 17.0604 22.6812 17.071 21.8017C17.0716 21.6892 17.0723 21.5768 17.0729 21.4609C17.0886 19.5479 17.1405 17.635 17.187 15.7226C17.0943 15.6933 17.0017 15.6641 16.9063 15.6339C16.3516 15.4401 16.0317 15.0279 15.7282 14.5385C15.4962 13.8959 15.5009 13.0736 15.7832 12.4511C16.0979 11.9239 16.5181 11.6403 17.0893 11.4257C17.0863 11.279 17.0863 11.279 17.0831 11.1293C17.0759 10.7578 17.0715 10.3864 17.0679 10.0149C17.0659 9.85567 17.0633 9.6965 17.0599 9.53735C17.0301 8.11882 17.1491 6.70166 17.8462 5.43204C17.8796 5.36842 17.913 5.30479 17.9474 5.23923C18.9824 3.31901 20.5514 2.0413 22.6397 1.4144C25.8262 0.516667 28.4828 1.2375 30.8756 3.52279ZM21.5815 3.22257C21.6309 3.79828 21.7507 4.25497 21.9904 4.77897C22.0211 4.84706 22.0517 4.91516 22.0833 4.98532C22.3245 5.50854 22.5888 5.993 22.9487 6.44523C22.9928 6.50364 23.0368 6.56205 23.0822 6.62223C24.2925 8.0269 26.4637 8.29071 28.1948 8.42939C28.9958 8.49647 28.9958 8.49647 29.2964 8.69132C29.4415 8.94261 29.5599 9.17785 29.6748 9.44205C30.0397 10.2247 30.4406 10.8484 31.2495 11.2304C31.3462 11.2304 31.4428 11.2304 31.5424 11.2304C31.8317 9.07166 31.7557 6.95725 30.4831 5.10894C29.3845 3.67398 27.8344 2.58903 26.031 2.31925C24.4487 2.11778 23.0145 2.59484 21.5815 3.22257ZM20.1426 4.35706C19.0287 5.60482 18.3316 7.07239 18.3527 8.77066C18.3532 8.83833 18.3536 8.90599 18.3541 8.9757C18.3552 9.14133 18.357 9.30695 18.3589 9.47257C18.4124 9.40459 18.4659 9.33661 18.521 9.26658C19.2415 8.37646 19.9606 7.63216 20.9258 7.01209C21.1426 6.86794 21.3111 6.73532 21.4839 6.54288C21.4379 6.44734 21.392 6.35179 21.3446 6.25335C21.0229 5.57822 20.7216 4.91763 20.5073 4.19913C20.2972 4.17693 20.2972 4.17693 20.1426 4.35706ZM20.4463 8.94576C19.5081 9.89162 18.9039 10.9997 18.4626 12.2497C18.3772 12.4518 18.3772 12.4518 18.2612 12.5976C18.0337 12.6657 17.8337 12.6768 17.5967 12.6815C17.3583 12.6825 17.3583 12.6825 17.0832 12.8478C16.8647 13.1227 16.8218 13.3185 16.8486 13.6691C16.9301 14.0246 17.087 14.2526 17.3823 14.453C17.6596 14.5517 17.9317 14.6227 18.2196 14.6834C18.4565 14.746 18.4565 14.746 18.6518 14.9413C18.7017 15.2286 18.743 15.5129 18.78 15.8019C18.8961 16.6093 19.0839 17.3242 19.4331 18.0663C19.4762 18.1582 19.5194 18.2501 19.5639 18.3448C20.3836 19.9568 21.7058 21.1268 23.3881 21.7734C24.7201 22.2055 26.1571 22.0523 27.4123 21.4564C27.6615 21.3155 27.892 21.163 28.1245 20.996C28.2117 20.9338 28.299 20.8716 28.3888 20.8076C30.0366 19.5492 30.8624 17.816 31.2495 15.8202C31.2727 15.6456 31.2937 15.4707 31.3105 15.2953C31.3471 14.9413 31.3471 14.9413 31.5424 14.746C31.7142 14.7006 31.8874 14.6606 32.0612 14.6239C32.4124 14.5313 32.6763 14.459 32.9279 14.1906C33.1624 13.7621 33.1828 13.5683 33.1049 13.0859C32.7367 12.7018 32.4472 12.6459 31.927 12.6098C30.9113 12.5074 30.0732 12.1163 29.3765 11.3628C28.9815 10.8516 28.6223 10.2826 28.4174 9.66788C28.3458 9.65861 28.2741 9.64933 28.2002 9.63977C24.039 9.09096 24.039 9.09096 22.4604 7.71476C21.6963 7.71476 20.9735 8.449 20.4463 8.94576ZM18.4565 19.2382C18.2787 21.1269 18.1213 23.0759 19.0424 24.8046C19.2996 24.684 19.5557 24.5617 19.8115 24.4384C19.8844 24.4044 19.9573 24.3704 20.0324 24.3354C20.1022 24.3014 20.1721 24.2674 20.2441 24.2324C20.3085 24.2017 20.3729 24.171 20.4393 24.1394C20.699 23.9575 20.7753 23.7425 20.8441 23.4397C20.9629 22.4754 20.9629 22.4754 20.6778 21.5758C20.3581 21.198 19.9796 20.8892 19.6034 20.5699C19.2592 20.2469 19.0355 19.8492 18.7937 19.4465C18.7469 19.3777 18.7001 19.309 18.6518 19.2382C18.5874 19.2382 18.5229 19.2382 18.4565 19.2382ZM31.3471 19.2382C31.1937 19.4429 31.0499 19.6485 30.9077 19.8608C29.8921 21.3329 29.8921 21.3329 29.1987 21.6796C29.1908 21.9625 29.185 22.2451 29.1804 22.528C29.1779 22.6077 29.1755 22.6875 29.1729 22.7697C29.1673 23.2337 29.1717 23.5615 29.4917 23.9257C29.7879 24.1309 29.7879 24.1309 30.1264 24.298C30.2941 24.3866 30.2941 24.3866 30.4652 24.4769C30.7517 24.6292 30.7517 24.6292 31.0542 24.6093C31.1164 24.4674 31.1771 24.3248 31.2373 24.182C31.2713 24.1027 31.3052 24.0234 31.3403 23.9417C31.5964 23.1844 31.6703 22.4508 31.6584 21.6552C31.6578 21.5668 31.6572 21.4784 31.6565 21.3873C31.6483 20.6682 31.6098 19.9543 31.5424 19.2382C31.478 19.2382 31.4135 19.2382 31.3471 19.2382ZM21.9721 22.5585C21.9685 22.6716 21.9648 22.7846 21.9611 22.9011C21.9547 23.0514 21.9482 23.2017 21.9416 23.352C21.9394 23.4262 21.9372 23.5005 21.9349 23.577C21.9088 24.128 21.8281 24.5785 21.4018 24.9694C20.798 25.3472 20.1735 25.6698 19.5307 25.9765C19.5183 26.9664 19.5362 27.9535 19.5735 28.9428C19.5773 29.0483 19.5811 29.1537 19.5851 29.2624C19.5792 30.7993 19.5792 30.7993 20.3425 32.0556C20.8712 32.3998 21.4146 32.4464 22.0335 32.4486C22.1046 32.4491 22.1757 32.4496 22.2489 32.4501C22.4819 32.4515 22.7149 32.4514 22.9479 32.4512C23.1113 32.4515 23.2746 32.452 23.4379 32.4524C23.7795 32.4532 24.1212 32.4531 24.4628 32.4526C24.8987 32.4521 25.3346 32.4537 25.7706 32.456C26.1077 32.4574 26.4448 32.4575 26.782 32.4572C26.9426 32.4572 27.1032 32.4577 27.2639 32.4587C28.6094 32.502 28.6094 32.502 29.7999 31.9575C29.8432 31.8993 29.8865 31.841 29.9311 31.7809C29.9764 31.7224 30.0218 31.6638 30.0684 31.6035C30.5294 30.9203 30.3949 29.8028 30.4255 29.0038C30.4296 28.8988 30.4338 28.7937 30.4381 28.6855C30.4725 27.7496 30.4783 26.8152 30.4682 25.8788C30.3622 25.821 30.2562 25.7633 30.147 25.7037C30.0059 25.6258 29.8647 25.5479 29.7236 25.4699C29.654 25.4321 29.5844 25.3942 29.5126 25.3553C28.2923 24.6779 28.2923 24.6779 28.1245 24.121C28.0956 23.8501 28.075 23.5868 28.0634 23.3153C28.0597 23.2426 28.0559 23.1698 28.052 23.0949C28.0428 22.9161 28.0347 22.7373 28.0268 22.5585C27.906 22.6008 27.7851 22.6431 27.6606 22.6867C27.4899 22.7421 27.319 22.797 27.1479 22.8515C27.0652 22.8794 26.9825 22.9074 26.8973 22.9362C25.4546 23.3671 23.9658 23.23 22.5581 22.7538C22.448 22.7173 22.338 22.6808 22.2247 22.6432C22.1413 22.6152 22.058 22.5873 21.9721 22.5585ZM31.7378 26.4648C31.7304 26.6255 31.7304 26.6255 31.7229 26.7896C31.7042 27.1951 31.6848 27.6006 31.665 28.0061C31.6567 28.1802 31.6485 28.3542 31.6406 28.5283C31.4787 32.0773 31.4787 32.0773 30.4743 32.9955C29.8457 33.4317 29.3536 33.5397 28.6048 33.537C28.5187 33.5378 28.4325 33.5387 28.3437 33.5395C28.0604 33.5418 27.7772 33.5419 27.4939 33.5418C27.2958 33.5425 27.0977 33.5432 26.8996 33.544C26.4848 33.5453 26.07 33.5455 25.6552 33.5449C25.1255 33.5444 24.596 33.5473 24.0663 33.5513C23.6572 33.5538 23.2481 33.5541 22.839 33.5537C22.6439 33.5539 22.4487 33.5548 22.2535 33.5566C20.1451 33.5734 20.1451 33.5734 19.3245 32.8179C18.25 31.7184 18.4433 30.114 18.3974 28.6826C18.3728 27.9735 18.3268 27.269 18.2612 26.5624C18.1835 26.5821 18.1058 26.6017 18.0257 26.622C17.8404 26.6689 17.655 26.7158 17.4696 26.7627C17.1677 26.8617 16.9538 26.9581 16.6987 27.1484C16.5804 27.4162 16.5804 27.4162 16.5263 27.7289C16.4896 27.8987 16.4896 27.8987 16.4523 28.0719C16.4289 28.1901 16.4054 28.3083 16.3813 28.4301C16.3322 28.6644 16.2829 28.8986 16.2333 29.1328C16.2124 29.2368 16.1914 29.3408 16.1699 29.4479C16.1128 29.6874 16.1128 29.6874 16.0151 29.7851C15.7543 29.7989 15.4951 29.7892 15.2339 29.7851C15.0281 29.3011 15.045 29.0092 15.1728 28.5033C15.2657 28.1277 15.3315 27.8299 15.3315 27.4413C13.7719 27.8036 12.4449 28.7826 11.571 30.1208C10.6558 31.6923 10.5304 33.2316 10.5353 35.0155C10.5353 35.1551 10.5353 35.2948 10.5352 35.4345C10.5352 35.8103 10.5358 36.1861 10.5364 36.5619C10.5371 36.9559 10.5371 37.3499 10.5372 37.7439C10.5375 38.4885 10.5383 39.2331 10.5393 39.9777C10.5404 40.826 10.5409 41.6744 10.5414 42.5227C10.5425 44.2664 10.5442 46.0101 10.5464 47.7538C11.771 47.7538 12.9956 47.7538 14.2573 47.7538C14.2608 46.3736 14.2608 46.3736 14.2268 44.995C14.2246 44.9088 14.2224 44.8226 14.2201 44.7337C14.2004 44.2582 14.1615 43.9458 13.8667 43.5546C13.2331 42.5714 12.7986 41.6084 12.6521 40.4418C12.643 40.3752 12.6339 40.3086 12.6245 40.24C12.4793 38.8053 12.9557 37.3754 13.3335 36.0102C13.4216 35.6915 13.5081 35.3724 13.5945 35.0532C13.6504 34.8484 13.7064 34.6437 13.7625 34.439C13.7882 34.3446 13.8138 34.2502 13.8402 34.1529C13.9791 33.6536 14.1376 33.1855 14.3549 32.7148C14.6128 32.7148 14.8706 32.7148 15.1362 32.7148C15.3879 33.2182 15.1981 33.8109 15.0588 34.3249C15.0405 34.393 15.0223 34.461 15.0036 34.5311C14.9448 34.7498 14.8849 34.9682 14.8249 35.1867C14.7843 35.3373 14.7438 35.4879 14.7034 35.6386C14.5162 36.3342 14.3237 37.0282 14.1233 37.7202C13.6591 39.333 13.6969 40.7498 14.4526 42.2851C14.6557 42.6041 14.882 42.8845 15.1362 43.164C15.1894 43.225 15.2427 43.2861 15.2976 43.349C16.1258 44.2435 17.2636 44.7567 18.4741 44.8474C19.5719 44.8695 20.6053 44.696 21.6799 44.4805C22.4064 44.3637 23.1306 44.3201 23.8657 44.316C23.9497 44.3153 24.0336 44.3147 24.1201 44.314C24.3888 44.3123 24.6575 44.3117 24.9262 44.3114C25.0178 44.3113 25.1094 44.3111 25.2037 44.3109C26.6683 44.3108 28.072 44.4007 29.5096 44.6918C30.9925 44.9909 32.4438 44.9144 33.7702 44.1222C35.0251 43.2549 35.835 42.1295 36.1323 40.6249C36.3024 39.1779 35.9772 37.8805 35.5675 36.502C35.3937 35.9162 35.2287 35.3279 35.0634 34.7396C35.0297 34.6201 34.996 34.5007 34.9613 34.3776C34.5391 32.8653 34.2062 31.3338 33.8743 29.7997C33.7988 29.452 33.722 29.1046 33.6453 28.7571C33.5944 28.5208 33.5471 28.284 33.5001 28.0469C33.4699 27.9049 33.4395 27.7629 33.409 27.621C33.3845 27.4994 33.36 27.3778 33.3347 27.2525C33.1575 26.8509 32.9546 26.7736 32.5556 26.6112C32.2758 26.5333 32.0282 26.4648 31.7378 26.4648ZM34.6674 27.4413C34.7279 28.074 34.8303 28.6818 34.9684 29.3017C34.989 29.3951 35.0095 29.4885 35.0307 29.5847C35.0981 29.8897 35.1665 30.1945 35.2351 30.4992C35.2702 30.656 35.2702 30.656 35.306 30.816C35.7371 32.7349 36.2333 34.6321 36.764 36.5256C36.7861 36.6046 36.8081 36.6835 36.8308 36.7648C36.9203 37.0839 37.0111 37.402 37.1081 37.7189C37.3012 38.3625 37.3538 38.9589 37.3469 39.63C37.3461 39.7327 37.3453 39.8353 37.3444 39.9411C37.314 41.3444 36.8968 42.609 36.0178 43.7266C35.7755 44.1559 35.7739 44.5157 35.7661 45.0011C35.7632 45.0824 35.7603 45.1637 35.7573 45.2474C35.7312 46.0826 35.7417 46.9184 35.7417 47.7538C36.9663 47.7538 38.1909 47.7538 39.4526 47.7538C39.457 45.9346 39.4606 44.1153 39.4627 42.296C39.4637 41.4511 39.4651 40.6063 39.4673 39.7614C39.4693 39.0243 39.4705 38.2873 39.471 37.5502C39.4712 37.1606 39.4718 36.7709 39.4733 36.3813C39.4746 36.0132 39.475 35.6451 39.4747 35.2771C39.4748 35.0803 39.4758 34.8835 39.4769 34.6867C39.472 32.4726 39.0142 30.6075 37.4651 28.9474C36.7733 28.3147 35.6348 27.4413 34.6674 27.4413ZM15.4292 45.1171C15.4614 45.9872 15.4936 46.8573 15.5268 47.7538C21.7788 47.7538 28.0307 47.7538 34.4721 47.7538C34.5044 46.8837 34.5366 46.0136 34.5698 45.1171C34.316 45.2259 34.0622 45.3346 33.8007 45.4467C32.2322 46.0955 30.772 46.1299 29.1132 45.8129C26.0681 45.2336 23.1248 45.3882 20.0949 45.9575C18.3873 46.2001 16.9863 45.8249 15.4292 45.1171Z" fill="#34B7FE"/>
<path d="M23.9674 41.5817C24.0437 41.5811 24.12 41.5804 24.1987 41.5797C24.4434 41.578 24.6881 41.5774 24.9329 41.5772C25.0575 41.5769 25.0575 41.5769 25.1846 41.5767C28.1153 41.5763 28.1153 41.5763 29.1992 42.0899C29.3945 42.2852 29.3945 42.2852 29.4189 42.572C29.3945 42.8711 29.3945 42.8711 29.1992 43.1641C28.6987 43.314 28.2648 43.2216 27.7649 43.1275C25.8323 42.796 23.9398 42.812 22.0135 43.171C21.5831 43.2478 21.2312 43.283 20.8008 43.1641C20.6055 42.9688 20.6055 42.9688 20.575 42.6331C20.6055 42.2852 20.6055 42.2852 20.71 42.1269C20.9894 41.9272 21.2643 41.8949 21.6003 41.8335C21.7867 41.7984 21.7867 41.7984 21.9769 41.7626C22.643 41.6497 23.2924 41.5858 23.9674 41.5817Z" fill="#34B7FE"/>
<path d="M16.6012 36.1329C16.7965 36.2855 16.7965 36.2855 16.8942 36.5235C16.8378 37.1426 16.6599 37.7199 16.4856 38.3133C16.2218 39.2312 16.0864 40.0817 16.5291 40.9699C16.8707 41.5079 17.2551 41.9031 17.8097 42.2242C17.9684 42.3829 17.9684 42.3829 18.0111 42.7247C17.9684 43.0665 17.9684 43.0665 17.8646 43.2557C17.5429 43.4321 17.3553 43.418 16.9918 43.3594C15.9126 42.7231 15.3297 41.791 14.941 40.6251C14.8138 39.2904 14.8989 37.3504 15.7609 36.2523C16.0322 36.0455 16.2756 36.0922 16.6012 36.1329Z" fill="#34B7FE"/>
<path d="M17.2852 33.8868C17.5394 34.2681 17.4911 34.4759 17.4351 34.9167C17.362 35.2517 17.2587 35.4285 16.9922 35.6446C16.6931 35.6934 16.6931 35.6934 16.4063 35.6446C16.2033 35.4903 16.1234 35.4039 16.0744 35.1513C16.0795 34.6587 16.1297 34.3122 16.4063 33.8868C16.7137 33.733 16.9575 33.8166 17.2852 33.8868Z" fill="#34B7FE"/>
</svg>
