<svg width="44" height="58" viewBox="0 0 44 58" fill="none" xmlns="http://www.w3.org/2000/svg">
<path d="M21.5939 0.506392C22.9392 0.635226 24.2812 0.721632 25.6323 0.75779C25.7731 0.762624 25.9139 0.767458 26.059 0.772439C26.934 0.789027 27.8004 0.726586 28.6719 0.655251C28.7872 0.646065 28.9025 0.636878 29.0214 0.627414C29.642 0.572108 30.1936 0.469917 30.7886 0.28904C31.0912 0.257912 31.0912 0.257912 31.3525 0.259744C31.4403 0.259139 31.5281 0.258535 31.6185 0.257912C31.8433 0.28904 31.8433 0.28904 32.0776 0.523415C32.108 0.759192 32.108 0.759192 32.1088 1.04755C32.1091 1.15307 32.1094 1.25859 32.1097 1.3673C32.1088 1.47796 32.1079 1.58861 32.1069 1.70261C32.1078 1.8101 32.1088 1.91758 32.1097 2.02831C32.1082 2.55274 32.0812 3.01235 31.9353 3.51719C31.7772 4.15456 31.9853 4.63739 32.2168 5.23289C32.2951 5.44963 32.3728 5.66661 32.4498 5.88383C32.5059 6.04125 32.5059 6.04125 32.5632 6.20186C33.4679 8.88785 33.3575 11.9896 32.5464 14.6811C32.4206 15.1036 32.4206 15.1036 32.5295 15.5097C32.7043 15.7214 32.7043 15.7214 33.0151 15.9922C33.3325 16.5361 33.3224 17.1382 33.2495 17.75C33.0334 18.5256 32.5338 19.0008 31.8433 19.3906C31.5796 19.468 31.5796 19.468 31.3745 19.5078C31.3715 19.6058 31.3685 19.7039 31.3654 19.8049C31.2542 22.0853 30.5052 24.1642 28.9136 25.8359C28.7199 26.0015 28.5246 26.1651 28.3276 26.3266C27.9123 26.6748 27.9123 26.6748 27.7857 27.2055C27.8098 27.3336 27.834 27.4617 27.8589 27.5937C27.8661 27.7025 27.8734 27.8113 27.8809 27.9233C27.9123 28.0079 27.9437 28.0925 27.9761 28.1797C28.1689 28.2636 28.3648 28.3407 28.562 28.414C28.7701 28.518 28.977 28.6246 29.1827 28.7331C31.2648 29.8146 33.3592 30.6532 35.613 31.3087C37.3461 31.8135 38.8119 32.4558 40.1636 33.6875C40.2199 33.7382 40.2762 33.789 40.3343 33.8412C41.5104 34.9129 42.296 36.1053 42.9541 37.5547C42.9867 37.6254 43.0193 37.6961 43.0529 37.769C43.6134 39.0686 43.7311 40.3874 43.7228 41.7877C43.7231 41.9596 43.7236 42.1314 43.7241 42.3033C43.7252 42.765 43.7241 43.2266 43.7226 43.6882C43.7212 44.1728 43.7217 44.6574 43.722 45.1419C43.7221 45.9539 43.7208 46.7658 43.7186 47.5778C43.7161 48.5169 43.7157 49.4559 43.7164 50.395C43.7171 51.3001 43.7164 52.2052 43.7151 53.1103C43.7146 53.4951 43.7145 53.8798 43.7147 54.2646C43.715 54.7164 43.714 55.1682 43.7121 55.62C43.7116 55.786 43.7116 55.952 43.7119 56.1181C43.7123 56.3439 43.7111 56.5698 43.7098 56.7957C43.7095 56.9223 43.7093 57.0489 43.709 57.1793C43.6792 57.4765 43.6792 57.4765 43.4448 57.7109C43.141 57.7403 43.141 57.7403 42.7468 57.7404C42.5971 57.741 42.4474 57.7416 42.2931 57.7423C42.1254 57.7418 41.9576 57.7412 41.7899 57.7407C41.613 57.7409 41.436 57.7413 41.2591 57.7418C40.771 57.7428 40.283 57.7423 39.795 57.7416C39.2693 57.741 38.7437 57.7418 38.2181 57.7425C37.1876 57.7435 36.1572 57.7433 35.1268 57.7426C34.2897 57.7421 33.4526 57.742 32.6155 57.7423C32.4965 57.7423 32.3776 57.7423 32.2551 57.7424C32.0135 57.7425 31.7719 57.7425 31.5303 57.7426C29.2626 57.7433 26.9948 57.7425 24.7271 57.7413C22.7793 57.7402 20.8316 57.7404 18.8839 57.7415C16.6245 57.7427 14.3651 57.7432 12.1057 57.7425C11.865 57.7424 11.6243 57.7424 11.3836 57.7423C11.2651 57.7422 11.1467 57.7422 11.0246 57.7422C10.1881 57.742 9.35153 57.7423 8.51499 57.7429C7.49615 57.7435 6.47732 57.7433 5.45848 57.7421C4.93821 57.7415 4.41794 57.7412 3.89767 57.742C3.42205 57.7427 2.94644 57.7423 2.47081 57.7411C2.29811 57.7408 2.12541 57.741 1.95271 57.7415C1.71921 57.7422 1.48572 57.7414 1.25223 57.7404C1.12215 57.7404 0.992078 57.7403 0.858061 57.7403C0.554206 57.7109 0.554206 57.7109 0.319831 57.4765C0.289355 57.1812 0.289355 57.1812 0.287704 56.8005C0.286535 56.6564 0.285366 56.5124 0.284161 56.364C0.284056 56.2035 0.283978 56.0429 0.283925 55.8824C0.283032 55.714 0.282045 55.5455 0.280969 55.3771C0.278391 54.9181 0.277365 54.4592 0.276771 54.0002C0.276344 53.7127 0.275613 53.4252 0.274779 53.1377C0.271903 52.1321 0.270378 51.1266 0.269963 50.121C0.26954 49.1883 0.266055 48.2557 0.261126 47.323C0.257033 46.5197 0.25525 45.7164 0.255168 44.9131C0.255076 44.4346 0.254087 43.9561 0.250716 43.4775C0.219588 38.7694 0.219588 38.7694 1.41846 36.7197C1.46426 36.6379 1.51006 36.556 1.55725 36.4717C1.9133 35.8485 2.29505 35.2728 2.78077 34.7422C2.88168 34.6305 2.98259 34.5189 3.08655 34.4039C4.81578 32.553 6.89022 31.7189 9.29869 31.0623C11.2762 30.5221 13.1261 29.785 14.9683 28.8828C15.0696 28.8333 15.171 28.7837 15.2754 28.7327C15.4189 28.6586 15.4189 28.6586 15.5652 28.583C15.6933 28.5174 15.6933 28.5174 15.8241 28.4505C16.0735 28.2578 16.0973 28.1351 16.1401 27.8281C16.1548 27.7308 16.1694 27.6335 16.1845 27.5333C16.2342 26.8801 16.2342 26.8801 15.968 26.3042C15.8073 26.1566 15.6441 26.0117 15.4791 25.8689C13.7714 24.2177 13.1925 21.7904 13.0933 19.5078C12.9555 19.4691 12.8177 19.4304 12.6758 19.3906C12.0595 19.1552 11.6787 18.7775 11.3355 18.2187C11.0461 17.4674 11.0687 16.8589 11.3355 16.1094C11.4007 16.0054 11.466 15.9015 11.5332 15.7944C11.7349 15.439 11.6718 15.3295 11.5698 14.9375C11.5019 14.7236 11.4338 14.5098 11.363 14.2969C10.4105 11.4165 10.454 8.20231 11.8042 5.44529C12.2568 4.80983 12.7519 4.46769 13.5291 4.33704C13.7462 4.30929 13.9635 4.28243 14.1809 4.25648C14.6187 4.11873 14.8043 3.93111 15.0855 3.57029C15.2051 3.15866 15.2051 3.15866 15.2539 2.71336C15.4031 1.80664 15.6668 1.29363 16.3503 0.689126C17.7136 -0.265471 20.0273 0.355764 21.5939 0.506392ZM17.1802 2.00291C16.867 2.39956 16.7628 2.76129 16.6812 3.25718C16.5446 4.06711 16.3488 4.73856 15.6865 5.26951C15.1553 5.59698 14.6734 5.71753 14.0601 5.81883C13.5236 5.92763 13.5236 5.92763 13.1125 6.26377C12.9498 6.57329 12.8406 6.86773 12.7417 7.2031C12.6887 7.37962 12.6887 7.37962 12.6346 7.5597C12.0029 9.88883 12.1651 12.2448 13.0933 14.4687C13.1319 14.4687 13.1706 14.4687 13.2105 14.4687C13.2116 14.3873 13.2126 14.306 13.2138 14.2221C13.2527 11.9213 13.3694 10.2634 15.0122 8.52146C15.5468 8.01694 16.1156 7.48172 16.8652 7.39353C17.2849 7.59872 17.461 7.85816 17.7116 8.24543C18.3315 9.06635 19.2706 9.32375 20.2537 9.46509C22.0761 9.66572 23.991 9.57271 25.6177 8.6533C25.9421 8.29067 26.1235 7.89639 26.3222 7.45441C26.4526 7.2031 26.4526 7.2031 26.687 7.08592C27.3284 7.00737 27.7126 7.23239 28.2251 7.58396C28.2963 7.63034 28.3674 7.67671 28.4407 7.7245C28.8379 7.9884 29.1624 8.27063 29.4995 8.60935C29.5769 8.60935 29.6542 8.60935 29.7339 8.60935C29.7656 8.67703 29.7973 8.7447 29.83 8.81443C29.969 9.07947 30.1287 9.3055 30.3052 9.54685C31.0857 10.7185 31.2199 11.9261 31.2573 13.2969C31.296 13.2969 31.3347 13.2969 31.3745 13.2969C32.0188 10.6736 31.6249 7.82337 30.6714 5.3281C30.6049 5.36179 30.5385 5.39548 30.47 5.43018C30.2072 5.56023 29.9426 5.68378 29.6753 5.80418C29.5871 5.84421 29.4989 5.88424 29.408 5.92548C28.9568 6.10895 28.5656 6.16675 28.0786 6.17039C27.9768 6.17205 27.875 6.17371 27.7701 6.17542C27.5073 6.14842 27.5073 6.14842 27.273 5.91404C27.2363 5.50388 27.2363 5.50388 27.273 5.09373C27.6227 4.86057 27.7796 4.81792 28.1812 4.75681C29.1417 4.57392 29.755 4.13347 30.3198 3.33592C30.5594 2.88938 30.5611 2.54769 30.5542 2.04685C30.4436 2.05457 30.333 2.06228 30.219 2.07023C26.9035 2.29706 23.6768 2.24838 20.3676 1.93164C18.7298 1.68314 18.7298 1.68314 17.1802 2.00291ZM27.3901 8.84373C27.3503 8.89615 27.3104 8.94857 27.2693 9.00257C26.2938 10.2194 24.9853 10.6609 23.4672 10.8403C21.3642 11.0535 19.04 11.0748 17.1948 9.89842C16.9729 9.71416 16.7973 9.53233 16.6089 9.31248C15.811 9.65444 15.251 10.4044 14.917 11.1875C14.5079 12.2443 14.5843 13.4784 14.5508 14.5932C14.5457 14.7522 14.5406 14.9111 14.5355 15.07C14.5231 15.4555 14.5111 15.841 14.4995 16.2265C14.3554 16.2438 14.3554 16.2438 14.2084 16.2613C14.0821 16.2789 13.9558 16.2964 13.8257 16.3144C13.6381 16.3389 13.6381 16.3389 13.4467 16.3639C13.0409 16.4753 12.8784 16.5979 12.6245 16.9297C12.586 17.294 12.586 17.294 12.7417 17.6328C13.1465 17.9263 13.5113 18.0033 13.9978 18.0516C14.092 18.0613 14.1862 18.0709 14.2832 18.0808C14.3903 18.0911 14.3903 18.0911 14.4995 18.1015C14.5048 18.18 14.51 18.2584 14.5155 18.3393C14.5405 18.702 14.5676 19.0646 14.5947 19.4272C14.603 19.5506 14.6112 19.6739 14.6197 19.801C14.7956 22.0881 15.708 24.0607 17.4585 25.5722C19.052 26.8116 21.0323 27.459 23.0542 27.2422C25.2511 26.8925 27.0557 25.8536 28.4361 24.0891C29.4006 22.6505 29.7341 21.2132 29.8584 19.5078C29.8764 19.2661 29.8948 19.0244 29.9138 18.7827C29.9254 18.6243 29.9254 18.6243 29.9372 18.4627C29.9683 18.2187 29.9683 18.2187 30.0855 18.1015C30.4104 18.0481 30.7359 18.0036 31.0623 17.9601C31.3858 17.891 31.3858 17.891 31.5929 17.647C31.7828 17.2926 31.7159 17.0741 31.6089 16.6953C31.3135 16.3999 31.1309 16.3997 30.7227 16.3364C30.0968 16.2379 30.0968 16.2379 29.9683 16.1094C29.9525 15.8845 29.9444 15.6591 29.9394 15.4337C29.9356 15.2929 29.9317 15.1521 29.9278 15.0071C29.9207 14.7123 29.914 14.4175 29.9076 14.1227C29.8586 12.3769 29.7203 10.9521 28.5259 9.61414C28.1853 9.29719 27.7962 9.06735 27.3901 8.84373ZM17.6636 27.5937C17.6606 27.6603 17.6575 27.727 17.6544 27.7956C17.6045 28.4748 17.4644 28.9061 17.0776 29.4687C17.0003 29.5074 16.923 29.5461 16.8433 29.5859C16.8374 30.2757 16.8332 30.9654 16.8304 31.6551C16.8292 31.8891 16.8276 32.1231 16.8256 32.3571C16.8064 34.6141 16.8049 36.6379 18.4605 38.3786C19.552 39.3557 20.8957 39.8098 22.3511 39.7812C23.8091 39.5902 24.995 39.0014 25.9839 37.9062C27.2117 36.1476 27.1847 34.3933 27.1968 32.331C27.1987 32.0872 27.202 31.8434 27.2064 31.5997C27.2128 31.2453 27.2154 30.8911 27.2171 30.5367C27.2211 30.3741 27.2211 30.3741 27.2252 30.2082C27.2227 29.4649 27.0833 29.1804 26.5698 28.6484C26.4447 28.3327 26.3993 28.0474 26.3355 27.7109C26.2178 27.759 26.1001 27.807 25.9789 27.8565C23.093 29.0057 20.4834 28.7524 17.6636 27.5937ZM32.4292 32.0469C32.4237 33.0881 32.4196 34.1293 32.4171 35.1705C32.4158 35.6542 32.4142 36.1378 32.4115 36.6215C32.4089 37.0895 32.4076 37.5576 32.407 38.0256C32.4065 38.2029 32.4057 38.3801 32.4044 38.5573C32.388 40.923 32.6606 43.0012 34.3042 44.8203C35.0381 45.5172 35.7521 45.9632 36.648 46.4609C36.6866 49.7094 36.7253 52.9578 36.7651 56.3047C38.5827 56.3047 40.4003 56.3047 42.273 56.3047C42.2783 54.4292 42.2826 52.5536 42.2851 50.6781C42.2863 49.8071 42.2879 48.936 42.2906 48.065C42.293 47.3049 42.2945 46.5447 42.295 45.7846C42.2953 45.3829 42.296 44.9813 42.2977 44.5797C42.3113 41.0252 42.1408 37.9472 39.5776 35.2109C37.936 33.6259 34.7888 32.0469 32.4292 32.0469ZM28.562 30.289C28.5619 30.3556 28.5617 30.4222 28.5615 30.4908C28.5592 31.1925 28.5528 31.8941 28.5441 32.5957C28.5414 32.8565 28.5397 33.1174 28.5391 33.3782C28.5322 35.7536 28.2889 37.7155 26.525 39.4736C25.041 40.7333 23.3152 41.2875 21.382 41.1628C19.4996 40.9215 17.9276 40.1329 16.7334 38.6386C16.0603 37.6859 15.5524 36.5355 15.5301 35.3552C15.5266 35.1899 15.5266 35.1899 15.5231 35.0212C15.5211 34.9031 15.5191 34.7851 15.5171 34.6634C15.5147 34.5418 15.5123 34.4203 15.5097 34.295C15.5021 33.9069 15.4952 33.5189 15.4883 33.1308C15.4832 32.8676 15.4781 32.6044 15.473 32.3412C15.4604 31.6962 15.4485 31.0512 15.437 30.4062C15.0486 30.5791 14.6605 30.7526 14.2725 30.9262C14.1617 30.9756 14.0509 31.0249 13.9367 31.0757C13.8313 31.1229 13.726 31.1701 13.6174 31.2188C13.471 31.2841 13.471 31.2841 13.3217 31.3508C13.0983 31.443 13.0983 31.443 12.9761 31.5781C12.9624 31.7465 12.9565 31.9155 12.9539 32.0844C12.9519 32.1919 12.95 32.2995 12.9479 32.4103C12.9464 32.5272 12.9448 32.6441 12.9431 32.7646C12.941 32.8838 12.9388 33.003 12.9366 33.1259C12.9297 33.5084 12.9235 33.8909 12.9175 34.2734C12.9096 34.7764 12.901 35.2793 12.8919 35.7822C12.8903 35.8991 12.8887 36.0161 12.887 36.1366C12.8851 36.2441 12.8831 36.3516 12.8811 36.4624C12.8789 36.6052 12.8789 36.6052 12.8766 36.7508C12.8589 36.9687 12.8589 36.9687 12.7417 37.0859C12.5293 37.1015 12.5293 37.1015 12.273 37.1006C12.1884 37.1009 12.1038 37.1012 12.0166 37.1015C11.8042 37.0859 11.8042 37.0859 11.687 36.9687C11.6682 36.6053 11.6566 36.2443 11.6499 35.8806C11.6475 35.7715 11.6451 35.6625 11.6426 35.5501C11.6349 35.2002 11.628 34.8503 11.6211 34.5005C11.616 34.2639 11.6109 34.0273 11.6058 33.7907C11.5932 33.2094 11.5813 32.6281 11.5698 32.0469C8.06429 32.8988 8.06429 32.8988 5.00733 34.7422C4.90808 34.8165 4.90808 34.8165 4.80683 34.8923C3.19737 36.1449 2.16475 38.2618 1.84327 40.25C1.73497 41.2206 1.70966 42.1848 1.71278 43.1606C1.71276 43.3036 1.71274 43.4467 1.71273 43.5941C1.71279 43.9817 1.71337 44.3692 1.7142 44.7568C1.71494 45.1635 1.715 45.5703 1.71514 45.9771C1.7155 46.7453 1.71646 47.5135 1.71764 48.2817C1.71896 49.1571 1.7196 50.0326 1.72018 50.908C1.7214 52.7069 1.72355 54.5058 1.72608 56.3047C3.54366 56.3047 5.36124 56.3047 7.23389 56.3047C7.22332 55.6063 7.21274 54.9079 7.20185 54.1884C7.19881 53.7446 7.19626 53.3009 7.19544 52.857C7.1941 52.1533 7.19102 51.4498 7.17725 50.7462C7.16624 50.1785 7.16332 49.6112 7.16587 49.0434C7.16545 48.8274 7.16216 48.6114 7.15591 48.3954C7.11091 46.747 7.11091 46.747 7.50968 46.272C7.89764 45.9438 8.32552 45.7286 8.78386 45.516C10.146 44.7969 10.9179 43.2015 11.3579 41.7963C11.4743 41.3998 11.5825 41.0014 11.687 40.6015C11.9974 40.5109 12.1461 40.4823 12.4707 40.5503C12.7417 40.7187 12.7417 40.7187 12.8241 41.0378C12.9541 42.4728 12.1495 44.122 11.259 45.2231C10.4986 46.102 9.63505 46.8015 8.64014 47.3984C8.64014 50.3375 8.64014 53.2765 8.64014 56.3047C17.4573 56.3047 26.2745 56.3047 35.3589 56.3047C35.3589 53.3656 35.3589 50.4265 35.3589 47.3984C34.6628 46.9344 34.6628 46.9344 33.9526 46.4609C32.4271 45.3168 31.46 43.5191 31.1401 41.6562C31.0727 40.8609 31.0828 40.0606 31.0802 39.263C31.0782 39.0338 31.0761 38.8046 31.0738 38.5754C31.0683 37.9767 31.0648 37.3779 31.0617 36.7792C31.0582 36.1664 31.0527 35.5536 31.0474 34.9408C31.0374 33.7418 31.0295 32.5428 31.023 31.3437C30.6571 31.1672 30.2908 30.9917 29.9243 30.8164C29.8201 30.7661 29.7159 30.7158 29.6085 30.6639C29.5088 30.6164 29.4091 30.5688 29.3063 30.5198C29.2143 30.4756 29.1222 30.4314 29.0274 30.3859C28.8021 30.2739 28.8021 30.2739 28.562 30.289Z" fill="white"/>
</svg>
